<?xml version="1.0" encoding="utf-8" standalone="no"?>
<!DOCTYPE svg PUBLIC "-//W3C//DTD SVG 1.1//EN"
  "http://www.w3.org/Graphics/SVG/1.1/DTD/svg11.dtd">
<!-- Created with matplotlib (http://matplotlib.sourceforge.net/) -->
<svg height="432pt" version="1.1" viewBox="0 0 576 432" width="576pt" xmlns="http://www.w3.org/2000/svg" xmlns:xlink="http://www.w3.org/1999/xlink">
 <defs>
  <style type="text/css">
*{stroke-linecap:square;stroke-linejoin:round;}
  </style>
 </defs>
 <g id="figure_1">
  <g id="patch_1">
   <path d="
M0 432
L576 432
L576 0
L0 0
z
" style="fill:#ffffff;"/>
  </g>
  <g id="axes_1">
   <g id="patch_2">
    <path d="
M72 388.8
L518.4 388.8
L518.4 43.2
L72 43.2
z
" style="fill:#ffffff;"/>
   </g>
   <g id="line2d_1">
    <path clip-path="url(#p7ff5b81e1d)" d="
M72 388.8
L76.8522 385.388
L81.7043 381.976
L86.5565 378.564
L91.4087 375.152
L96.2609 371.74
L101.113 368.329
L105.965 364.917
L110.817 361.505
L115.67 358.093
L120.522 354.681
L125.374 351.269
L130.226 347.857
L135.078 344.445
L139.93 341.033
L144.783 337.621
L149.635 334.208
L154.487 330.796
L159.339 327.384
L164.191 323.971
L169.043 320.558
L173.896 317.146
L178.748 313.733
L183.6 310.319
L188.452 306.906
L193.304 303.492
L198.157 300.078
L203.009 296.663
L207.861 293.248
L212.713 289.833
L217.565 286.417
L222.417 286.417
L227.27 286.36
L232.122 286.19
L236.974 285.906
L241.826 285.511
L246.678 285.005
L251.53 284.39
L256.383 283.668
L261.235 282.841
L266.087 281.911
L270.939 280.881
L275.791 279.755
L280.643 278.534
L285.496 277.222
L290.348 275.822
L295.2 274.337
L300.052 272.771
L304.904 271.127
L309.757 269.408
L314.609 267.617
L319.461 265.758
L324.313 263.833
L329.165 261.845
L334.017 259.797
L338.87 257.692
L343.722 255.533
L348.574 253.322
L353.426 251.061
L358.278 248.754
L363.13 246.401
L367.983 244.006
L372.835 248.837
L377.687 253.668
L382.539 258.498
L387.391 263.327
L392.243 268.155
L397.096 272.984
L401.948 277.811
L406.8 282.638
L411.652 287.465
L416.504 292.292
L421.357 297.118
L426.209 301.944
L431.061 306.77
L435.913 311.596
L440.765 316.421
L445.617 321.247
L450.47 326.072
L455.322 330.898
L460.174 335.723
L465.026 340.548
L469.878 345.374
L474.73 350.199
L479.583 355.024
L484.435 359.849
L489.287 364.674
L494.139 369.499
L498.991 374.325
L503.843 379.15
L508.696 383.975
L513.548 388.8" style="fill:none;stroke:#0000ff;"/>
   </g>
   <g id="line2d_2">
    <path clip-path="url(#p7ff5b81e1d)" d="
M72 388.8
L76.8522 385.388
L81.7043 381.976
L86.5565 378.564
L91.4087 375.152
L96.2609 371.74
L101.113 368.329
L105.965 364.917
L110.817 361.505
L115.67 358.093
L120.522 354.681
L125.374 351.269
L130.226 347.857
L135.078 344.445
L139.93 341.033
L144.783 337.621
L149.635 334.208
L154.487 330.796
L159.339 327.384
L164.191 323.971
L169.043 320.558
L173.896 317.146
L178.748 313.733
L183.6 310.319
L188.452 306.906
L193.304 303.492
L198.157 300.078
L203.009 296.663
L207.861 293.248
L212.713 289.833
L217.565 286.417
L222.417 286.417
L227.27 286.36
L232.122 286.19
L236.974 285.906
L241.826 285.511
L246.678 285.005
L251.53 284.39
L256.383 283.668
L261.235 282.841
L266.087 281.911
L270.939 280.881
L275.791 279.755
L280.643 278.534
L285.496 277.222
L290.348 275.822
L295.2 274.337
L300.052 272.771
L304.904 271.127
L309.757 269.408
L314.609 267.617
L319.461 265.758
L324.313 263.833
L329.165 261.845
L334.017 259.797
L338.87 257.692
L343.722 255.533
L348.574 253.322
L353.426 251.061
L358.278 248.754
L363.13 246.401
L367.983 244.006
L372.835 248.837
L377.687 253.668
L382.539 258.498
L387.391 263.327
L392.243 268.155
L397.096 272.984
L401.948 277.811
L406.8 282.638
L411.652 287.465
L416.504 292.292
L421.357 297.118
L426.209 301.944
L431.061 306.77
L435.913 311.596
L440.765 316.421
L445.617 321.247
L450.47 326.072
L455.322 330.898
L460.174 335.723
L465.026 340.548
L469.878 345.374
L474.73 350.199
L479.583 355.024
L484.435 359.849
L489.287 364.674
L494.139 369.499
L498.991 374.325
L503.843 379.15
L508.696 383.975
L513.548 388.8" style="fill:none;stroke:#008000;"/>
   </g>
   <g id="line2d_3">
    <path clip-path="url(#p7ff5b81e1d)" d="
M72 183.317
L76.8522 186.789
L81.7043 190.256
L86.5565 193.72
L91.4087 197.181
L96.2609 200.639
L101.113 204.094
L105.965 207.546
L110.817 210.995
L115.67 214.441
L120.522 217.885
L125.374 221.327
L130.226 224.766
L135.078 228.204
L139.93 231.639
L144.783 235.073
L149.635 238.505
L154.487 241.935
L159.339 245.363
L164.191 248.79
L169.043 252.216
L173.896 255.641
L178.748 259.064
L183.6 262.486
L188.452 265.907
L193.304 269.327
L198.157 272.747
L203.009 276.165
L207.861 279.583
L212.713 283
L217.565 286.417
L222.417 286.417
L227.27 286.36
L232.122 286.19
L236.974 285.906
L241.826 285.511
L246.678 285.005
L251.53 284.39
L256.383 283.668
L261.235 282.841
L266.087 281.911
L270.939 280.881
L275.791 279.755
L280.643 278.534
L285.496 277.222
L290.348 275.822
L295.2 274.337
L300.052 272.771
L304.904 271.127
L309.757 269.408
L314.609 267.617
L319.461 265.758
L324.313 263.833
L329.165 261.845
L334.017 259.797
L338.87 257.692
L343.722 255.533
L348.574 253.322
L353.426 251.061
L358.278 248.754
L363.13 246.401
L367.983 244.006
L372.835 243.925
L377.687 243.682
L382.539 243.279
L387.391 242.716
L392.243 241.995
L397.096 241.118
L401.948 240.089
L406.8 238.91
L411.652 237.584
L416.504 236.116
L421.357 234.508
L426.209 232.767
L431.061 230.894
L435.913 228.896
L440.765 226.776
L445.617 224.54
L450.47 222.191
L455.322 219.734
L460.174 217.173
L465.026 214.513
L469.878 211.758
L474.73 208.912
L479.583 205.979
L484.435 202.963
L489.287 199.867
L494.139 196.696
L498.991 193.452
L503.843 190.139
L508.696 186.76
L513.548 183.317" style="fill:none;stroke:#ff0000;"/>
   </g>
   <g id="line2d_4">
    <path clip-path="url(#p7ff5b81e1d)" d="
M72 183.317
L76.8522 186.789
L81.7043 190.256
L86.5565 193.72
L91.4087 197.181
L96.2609 200.639
L101.113 204.094
L105.965 207.546
L110.817 210.995
L115.67 214.441
L120.522 217.885
L125.374 221.327
L130.226 224.766
L135.078 228.204
L139.93 231.639
L144.783 235.073
L149.635 238.505
L154.487 241.935
L159.339 245.363
L164.191 248.79
L169.043 252.216
L173.896 255.641
L178.748 259.064
L183.6 262.486
L188.452 265.907
L193.304 269.327
L198.157 272.747
L203.009 276.165
L207.861 279.583
L212.713 283
L217.565 286.417
L222.417 286.417
L227.27 286.36
L232.122 286.19
L236.974 285.906
L241.826 285.511
L246.678 285.005
L251.53 284.39
L256.383 283.668
L261.235 282.841
L266.087 281.911
L270.939 280.881
L275.791 279.755
L280.643 278.534
L285.496 277.222
L290.348 275.822
L295.2 274.337
L300.052 272.771
L304.904 271.127
L309.757 269.408
L314.609 267.617
L319.461 265.758
L324.313 263.833
L329.165 261.845
L334.017 259.797
L338.87 257.692
L343.722 255.533
L348.574 253.322
L353.426 251.061
L358.278 248.754
L363.13 246.401
L367.983 244.006
L372.835 243.925
L377.687 243.682
L382.539 243.279
L387.391 242.716
L392.243 241.995
L397.096 241.118
L401.948 240.089
L406.8 238.91
L411.652 237.584
L416.504 236.116
L421.357 234.508
L426.209 232.767
L431.061 230.894
L435.913 228.896
L440.765 226.776
L445.617 224.54
L450.47 222.191
L455.322 219.734
L460.174 217.173
L465.026 214.513
L469.878 211.758
L474.73 208.912
L479.583 205.979
L484.435 202.963
L489.287 199.867
L494.139 196.696
L498.991 193.452
L503.843 190.139
L508.696 186.76
L513.548 183.317" style="fill:none;stroke:#00bfbf;"/>
   </g>
   <g id="line2d_5">
    <path clip-path="url(#p7ff5b81e1d)" d="
M72 183.317
L76.8522 183.289
L81.7043 183.204
L86.5565 183.063
L91.4087 182.865
L96.2609 182.61
L101.113 182.3
L105.965 181.934
L110.817 181.512
L115.67 181.035
L120.522 180.504
L125.374 179.917
L130.226 179.277
L135.078 178.584
L139.93 177.837
L144.783 177.038
L149.635 176.187
L154.487 175.284
L159.339 174.331
L164.191 173.328
L169.043 172.276
L173.896 171.174
L178.748 170.025
L183.6 168.829
L188.452 167.586
L193.304 166.297
L198.157 164.963
L203.009 163.585
L207.861 162.163
L212.713 160.698
L217.565 159.191
L222.417 159.191
L227.27 162.295
L232.122 165.384
L236.974 168.459
L241.826 171.519
L246.678 174.565
L251.53 177.594
L256.383 180.608
L261.235 183.606
L266.087 186.586
L270.939 189.55
L275.791 192.496
L280.643 195.423
L285.496 198.331
L290.348 201.22
L295.2 204.088
L300.052 206.935
L304.904 209.761
L309.757 212.563
L314.609 215.342
L319.461 218.096
L324.313 220.824
L329.165 223.525
L334.017 226.198
L338.87 228.842
L343.722 231.455
L348.574 234.036
L353.426 236.583
L358.278 239.095
L363.13 241.57
L367.983 244.006
L372.835 243.925
L377.687 243.682
L382.539 243.279
L387.391 242.716
L392.243 241.995
L397.096 241.118
L401.948 240.089
L406.8 238.91
L411.652 237.584
L416.504 236.116
L421.357 234.508
L426.209 232.767
L431.061 230.894
L435.913 228.896
L440.765 226.776
L445.617 224.54
L450.47 222.191
L455.322 219.734
L460.174 217.173
L465.026 214.513
L469.878 211.758
L474.73 208.912
L479.583 205.979
L484.435 202.963
L489.287 199.867
L494.139 196.696
L498.991 193.452
L503.843 190.139
L508.696 186.76
L513.548 183.317" style="fill:none;stroke:#bf00bf;"/>
   </g>
   <g id="line2d_6">
    <path clip-path="url(#p7ff5b81e1d)" d="
M72 183.317
L76.8522 183.289
L81.7043 183.204
L86.5565 183.063
L91.4087 182.865
L96.2609 182.61
L101.113 182.3
L105.965 181.934
L110.817 181.512
L115.67 181.035
L120.522 180.504
L125.374 179.917
L130.226 179.277
L135.078 178.584
L139.93 177.837
L144.783 177.038
L149.635 176.187
L154.487 175.284
L159.339 174.331
L164.191 173.328
L169.043 172.276
L173.896 171.174
L178.748 170.025
L183.6 168.829
L188.452 167.586
L193.304 166.297
L198.157 164.963
L203.009 163.585
L207.861 162.163
L212.713 160.698
L217.565 159.191
L222.417 159.191
L227.27 162.295
L232.122 165.384
L236.974 168.459
L241.826 171.519
L246.678 174.565
L251.53 177.594
L256.383 180.608
L261.235 183.606
L266.087 186.586
L270.939 189.55
L275.791 192.496
L280.643 195.423
L285.496 198.331
L290.348 201.22
L295.2 204.088
L300.052 206.935
L304.904 209.761
L309.757 212.563
L314.609 215.342
L319.461 218.096
L324.313 220.824
L329.165 223.525
L334.017 226.198
L338.87 228.842
L343.722 231.455
L348.574 234.036
L353.426 236.583
L358.278 239.095
L363.13 241.57
L367.983 244.006
L372.835 243.925
L377.687 243.682
L382.539 243.279
L387.391 242.716
L392.243 241.995
L397.096 241.118
L401.948 240.089
L406.8 238.91
L411.652 237.584
L416.504 236.116
L421.357 234.508
L426.209 232.767
L431.061 230.894
L435.913 228.896
L440.765 226.776
L445.617 224.54
L450.47 222.191
L455.322 219.734
L460.174 217.173
L465.026 214.513
L469.878 211.758
L474.73 208.912
L479.583 205.979
L484.435 202.963
L489.287 199.867
L494.139 196.696
L498.991 193.452
L503.843 190.139
L508.696 186.76
L513.548 183.317" style="fill:none;stroke:#bfbf00;"/>
   </g>
   <g id="line2d_7">
    <path clip-path="url(#p7ff5b81e1d)" d="
M72 183.317
L76.8522 183.289
L81.7043 183.204
L86.5565 183.063
L91.4087 182.865
L96.2609 182.61
L101.113 182.3
L105.965 181.934
L110.817 181.512
L115.67 181.035
L120.522 180.504
L125.374 179.917
L130.226 179.277
L135.078 178.584
L139.93 177.837
L144.783 177.038
L149.635 176.187
L154.487 175.284
L159.339 174.331
L164.191 173.328
L169.043 172.276
L173.896 171.174
L178.748 170.025
L183.6 168.829
L188.452 167.586
L193.304 166.297
L198.157 164.963
L203.009 163.585
L207.861 162.163
L212.713 160.698
L217.565 159.191
L222.417 159.191
L227.27 162.295
L232.122 165.384
L236.974 168.459
L241.826 171.519
L246.678 174.565
L251.53 177.594
L256.383 180.608
L261.235 183.606
L266.087 186.586
L270.939 189.55
L275.791 192.496
L280.643 195.423
L285.496 198.331
L290.348 201.22
L295.2 204.088
L300.052 206.935
L304.904 209.761
L309.757 212.563
L314.609 215.342
L319.461 218.096
L324.313 220.824
L329.165 223.525
L334.017 226.198
L338.87 228.842
L343.722 231.455
L348.574 234.036
L353.426 236.583
L358.278 239.095
L363.13 241.57
L367.983 244.006
L372.835 239.173
L377.687 234.34
L382.539 229.506
L387.391 224.67
L392.243 219.833
L397.096 214.994
L401.948 210.153
L406.8 205.311
L411.652 200.467
L416.504 195.62
L421.357 190.771
L426.209 185.919
L431.061 181.064
L435.913 176.206
L440.765 171.344
L445.617 166.479
L450.47 161.609
L455.322 156.735
L460.174 151.856
L465.026 146.971
L469.878 149.905
L474.73 153.807
L479.583 157.667
L484.435 161.481
L489.287 165.25
L494.139 168.969
L498.991 172.638
L503.843 176.254
L508.696 179.815
L513.548 183.317" style="fill:none;stroke:#000000;"/>
   </g>
   <g id="line2d_8">
    <path clip-path="url(#p7ff5b81e1d)" d="
M72 183.317
L76.8522 183.289
L81.7043 183.204
L86.5565 183.063
L91.4087 182.865
L96.2609 182.61
L101.113 182.3
L105.965 181.934
L110.817 181.512
L115.67 181.035
L120.522 180.504
L125.374 179.917
L130.226 179.277
L135.078 178.584
L139.93 177.837
L144.783 177.038
L149.635 176.187
L154.487 175.284
L159.339 174.331
L164.191 173.328
L169.043 172.276
L173.896 171.174
L178.748 170.025
L183.6 168.829
L188.452 167.586
L193.304 166.297
L198.157 164.963
L203.009 163.585
L207.861 162.163
L212.713 160.698
L217.565 159.191
L222.417 159.191
L227.27 162.295
L232.122 165.384
L236.974 168.459
L241.826 171.519
L246.678 174.565
L251.53 177.594
L256.383 180.608
L261.235 183.606
L266.087 186.586
L270.939 189.55
L275.791 192.496
L280.643 195.423
L285.496 198.331
L290.348 201.22
L295.2 204.088
L300.052 206.935
L304.904 209.761
L309.757 212.563
L314.609 215.342
L319.461 218.096
L324.313 220.824
L329.165 223.525
L334.017 226.198
L338.87 228.842
L343.722 231.455
L348.574 234.036
L353.426 236.583
L358.278 239.095
L363.13 241.57
L367.983 244.006
L372.835 239.173
L377.687 234.34
L382.539 229.506
L387.391 224.67
L392.243 219.833
L397.096 214.994
L401.948 210.153
L406.8 205.311
L411.652 200.467
L416.504 195.62
L421.357 190.771
L426.209 185.919
L431.061 181.064
L435.913 176.206
L440.765 171.344
L445.617 166.479
L450.47 161.609
L455.322 156.735
L460.174 151.856
L465.026 146.971
L469.878 149.905
L474.73 153.807
L479.583 157.667
L484.435 161.481
L489.287 165.25
L494.139 168.969
L498.991 172.638
L503.843 176.254
L508.696 179.815
L513.548 183.317" style="fill:none;stroke:#0000ff;"/>
   </g>
   <g id="line2d_9">
    <path clip-path="url(#p7ff5b81e1d)" d="
M72 183.317
L76.8522 179.842
L81.7043 176.364
L86.5565 172.881
L91.4087 169.393
L96.2609 165.902
L101.113 162.405
L105.965 158.904
L110.817 155.398
L115.67 151.887
L120.522 148.371
L125.374 144.849
L130.226 141.321
L135.078 137.788
L139.93 134.248
L144.783 132.016
L149.635 134.071
L154.487 136.094
L159.339 138.084
L164.191 140.041
L169.043 141.964
L173.896 143.852
L178.748 145.706
L183.6 147.524
L188.452 149.305
L193.304 151.05
L198.157 152.756
L203.009 154.425
L207.861 156.054
L212.713 157.643
L217.565 159.191
L222.417 159.191
L227.27 156.073
L232.122 152.942
L236.974 149.797
L241.826 146.639
L246.678 143.468
L251.53 140.284
L256.383 137.087
L261.235 133.877
L266.087 130.655
L270.939 127.42
L275.791 124.172
L280.643 120.913
L285.496 117.64
L290.348 114.356
L295.2 111.059
L300.052 107.75
L304.904 104.429
L309.757 101.095
L314.609 97.7492
L319.461 94.3911
L324.313 91.0206
L329.165 87.6379
L334.017 84.2428
L338.87 80.8354
L343.722 77.4157
L348.574 73.9836
L353.426 70.5393
L358.278 67.0826
L363.13 63.6137
L367.983 60.1326
L372.835 64.6931
L377.687 69.2277
L382.539 73.7361
L387.391 78.2183
L392.243 82.6739
L397.096 87.1027
L401.948 91.5043
L406.8 95.8782
L411.652 100.224
L416.504 104.541
L421.357 108.829
L426.209 113.087
L431.061 117.314
L435.913 121.509
L440.765 125.672
L445.617 129.802
L450.47 133.896
L455.322 137.955
L460.174 141.977
L465.026 145.961
L469.878 149.905
L474.73 153.807
L479.583 157.667
L484.435 161.481
L489.287 165.25
L494.139 168.969
L498.991 172.638
L503.843 176.254
L508.696 179.815
L513.548 183.317" style="fill:none;stroke:#008000;"/>
   </g>
   <g id="line2d_10">
    <path clip-path="url(#p7ff5b81e1d)" d="
M72 183.317
L76.8522 179.842
L81.7043 176.364
L86.5565 172.881
L91.4087 169.393
L96.2609 165.902
L101.113 162.405
L105.965 158.904
L110.817 155.398
L115.67 151.887
L120.522 148.371
L125.374 144.849
L130.226 141.321
L135.078 137.788
L139.93 134.248
L144.783 132.016
L149.635 134.071
L154.487 136.094
L159.339 138.084
L164.191 140.041
L169.043 141.964
L173.896 143.852
L178.748 145.706
L183.6 147.524
L188.452 149.305
L193.304 151.05
L198.157 152.756
L203.009 154.425
L207.861 156.054
L212.713 157.643
L217.565 159.191
L222.417 159.191
L227.27 156.073
L232.122 152.942
L236.974 149.797
L241.826 146.639
L246.678 143.468
L251.53 140.284
L256.383 137.087
L261.235 133.877
L266.087 130.655
L270.939 127.42
L275.791 124.172
L280.643 120.913
L285.496 117.64
L290.348 114.356
L295.2 111.059
L300.052 107.75
L304.904 104.429
L309.757 101.095
L314.609 97.7492
L319.461 94.3911
L324.313 91.0206
L329.165 87.6379
L334.017 84.2428
L338.87 80.8354
L343.722 77.4157
L348.574 73.9836
L353.426 70.5393
L358.278 67.0826
L363.13 63.6137
L367.983 60.1326
L372.835 64.6931
L377.687 69.2277
L382.539 73.7361
L387.391 78.2183
L392.243 82.6739
L397.096 87.1027
L401.948 91.5043
L406.8 95.8782
L411.652 100.224
L416.504 104.541
L421.357 108.829
L426.209 113.087
L431.061 117.314
L435.913 121.509
L440.765 125.672
L445.617 129.802
L450.47 133.896
L455.322 137.955
L460.174 141.977
L465.026 145.961
L469.878 149.905
L474.73 153.807
L479.583 157.667
L484.435 161.481
L489.287 165.25
L494.139 168.969
L498.991 172.638
L503.843 176.254
L508.696 179.815
L513.548 183.317" style="fill:none;stroke:#ff0000;"/>
   </g>
   <g id="line2d_11">
    <path clip-path="url(#p7ff5b81e1d)" d="
M72 97.7013
L76.8522 100.178
L81.7043 102.629
L86.5565 105.054
L91.4087 107.454
L96.2609 109.827
L101.113 112.173
L105.965 114.492
L110.817 116.784
L115.67 119.047
L120.522 121.283
L125.374 123.489
L130.226 125.666
L135.078 127.813
L139.93 129.93
L144.783 132.016
L149.635 134.071
L154.487 136.094
L159.339 138.084
L164.191 140.041
L169.043 141.964
L173.896 143.852
L178.748 145.706
L183.6 147.524
L188.452 149.305
L193.304 151.05
L198.157 152.756
L203.009 154.425
L207.861 156.054
L212.713 157.643
L217.565 159.191
L222.417 159.191
L227.27 156.073
L232.122 152.942
L236.974 149.797
L241.826 146.639
L246.678 143.468
L251.53 140.284
L256.383 137.087
L261.235 133.877
L266.087 130.655
L270.939 127.42
L275.791 124.172
L280.643 120.913
L285.496 117.64
L290.348 114.356
L295.2 111.059
L300.052 107.75
L304.904 104.429
L309.757 101.095
L314.609 97.7492
L319.461 94.3911
L324.313 91.0206
L329.165 87.6379
L334.017 84.2428
L338.87 80.8354
L343.722 77.4157
L348.574 73.9836
L353.426 70.5393
L358.278 67.0826
L363.13 63.6137
L367.983 60.1326
L372.835 64.6931
L377.687 69.2277
L382.539 73.7361
L387.391 78.2183
L392.243 82.6739
L397.096 87.1027
L401.948 91.5043
L406.8 95.8782
L411.652 100.224
L416.504 104.541
L421.357 108.829
L426.209 113.087
L431.061 117.314
L435.913 121.509
L440.765 125.672
L445.617 129.802
L450.47 133.896
L455.322 137.955
L460.174 141.977
L465.026 145.961
L469.878 142.08
L474.73 137.183
L479.583 132.279
L484.435 127.368
L489.287 122.448
L494.139 117.519
L498.991 112.581
L503.843 107.633
L508.696 102.673
L513.548 97.7013" style="fill:none;stroke:#00bfbf;"/>
   </g>
   <g id="line2d_12">
    <path clip-path="url(#p7ff5b81e1d)" d="
M72 97.7013
L76.8522 100.178
L81.7043 102.629
L86.5565 105.054
L91.4087 107.454
L96.2609 109.827
L101.113 112.173
L105.965 114.492
L110.817 116.784
L115.67 119.047
L120.522 121.283
L125.374 123.489
L130.226 125.666
L135.078 127.813
L139.93 129.93
L144.783 132.016
L149.635 134.071
L154.487 136.094
L159.339 138.084
L164.191 140.041
L169.043 141.964
L173.896 143.852
L178.748 145.706
L183.6 147.524
L188.452 149.305
L193.304 151.05
L198.157 152.756
L203.009 154.425
L207.861 156.054
L212.713 157.643
L217.565 159.191
L222.417 159.191
L227.27 156.073
L232.122 152.942
L236.974 149.797
L241.826 146.639
L246.678 143.468
L251.53 140.284
L256.383 137.087
L261.235 133.877
L266.087 130.655
L270.939 127.42
L275.791 124.172
L280.643 120.913
L285.496 117.64
L290.348 114.356
L295.2 111.059
L300.052 107.75
L304.904 104.429
L309.757 101.095
L314.609 97.7492
L319.461 94.3911
L324.313 91.0206
L329.165 87.6379
L334.017 84.2428
L338.87 80.8354
L343.722 77.4157
L348.574 73.9836
L353.426 70.5393
L358.278 67.0826
L363.13 63.6137
L367.983 60.1326
L372.835 64.6931
L377.687 69.2277
L382.539 73.7361
L387.391 78.2183
L392.243 82.6739
L397.096 87.1027
L401.948 91.5043
L406.8 95.8782
L411.652 100.224
L416.504 104.541
L421.357 108.829
L426.209 113.087
L431.061 117.314
L435.913 121.509
L440.765 125.672
L445.617 129.802
L450.47 133.896
L455.322 137.955
L460.174 141.977
L465.026 145.961
L469.878 142.08
L474.73 137.183
L479.583 132.279
L484.435 127.368
L489.287 122.448
L494.139 117.519
L498.991 112.581
L503.843 107.633
L508.696 102.673
L513.548 97.7013" style="fill:none;stroke:#bf00bf;"/>
   </g>
   <g id="line2d_13">
    <path clip-path="url(#p7ff5b81e1d)" d="
M72 97.7013
L76.8522 100.178
L81.7043 102.629
L86.5565 105.054
L91.4087 107.454
L96.2609 109.827
L101.113 112.173
L105.965 114.492
L110.817 116.784
L115.67 119.047
L120.522 121.283
L125.374 123.489
L130.226 125.666
L135.078 127.813
L139.93 129.93
L144.783 130.703
L149.635 127.15
L154.487 123.592
L159.339 120.026
L164.191 116.454
L169.043 112.875
L173.896 109.288
L178.748 105.694
L183.6 102.092
L188.452 98.4829
L193.304 94.8656
L198.157 91.2403
L203.009 87.607
L207.861 83.9654
L212.713 80.3157
L217.565 76.6576
L222.417 76.6576
L227.27 76.6389
L232.122 76.583
L236.974 76.4898
L241.826 76.3593
L246.678 76.1916
L251.53 75.9867
L256.383 75.7447
L261.235 75.4656
L266.087 75.1495
L270.939 74.7964
L275.791 74.4064
L280.643 73.9796
L285.496 73.5161
L290.348 73.016
L295.2 72.4794
L300.052 71.9064
L304.904 71.2971
L309.757 70.6516
L314.609 69.9701
L319.461 69.2527
L324.313 68.4995
L329.165 67.7106
L334.017 66.8862
L338.87 66.0264
L343.722 65.1314
L348.574 64.2012
L353.426 63.2361
L358.278 62.2363
L363.13 61.2017
L367.983 60.1326
L372.835 62.4997
L377.687 64.7986
L382.539 67.0281
L387.391 69.187
L392.243 71.2745
L397.096 73.2893
L401.948 75.2306
L406.8 77.0972
L411.652 78.8884
L416.504 80.6031
L421.357 82.2404
L426.209 83.7995
L431.061 85.2795
L435.913 86.6796
L440.765 87.999
L445.617 89.237
L450.47 90.3929
L455.322 91.466
L460.174 92.4557
L465.026 93.3614
L469.878 94.1825
L474.73 94.9185
L479.583 95.569
L484.435 96.1337
L489.287 96.612
L494.139 97.0038
L498.991 97.3088
L503.843 97.5268
L508.696 97.6576
L513.548 97.7013" style="fill:none;stroke:#bfbf00;"/>
   </g>
   <g id="line2d_14">
    <path clip-path="url(#p7ff5b81e1d)" d="
M72 97.7013
L76.8522 100.178
L81.7043 102.629
L86.5565 105.054
L91.4087 107.454
L96.2609 109.827
L101.113 112.173
L105.965 114.492
L110.817 116.784
L115.67 119.047
L120.522 121.283
L125.374 123.489
L130.226 125.666
L135.078 127.813
L139.93 129.93
L144.783 130.703
L149.635 127.15
L154.487 123.592
L159.339 120.026
L164.191 116.454
L169.043 112.875
L173.896 109.288
L178.748 105.694
L183.6 102.092
L188.452 98.4829
L193.304 94.8656
L198.157 91.2403
L203.009 87.607
L207.861 83.9654
L212.713 80.3157
L217.565 76.6576
L222.417 76.6576
L227.27 76.6389
L232.122 76.583
L236.974 76.4898
L241.826 76.3593
L246.678 76.1916
L251.53 75.9867
L256.383 75.7447
L261.235 75.4656
L266.087 75.1495
L270.939 74.7964
L275.791 74.4064
L280.643 73.9796
L285.496 73.5161
L290.348 73.016
L295.2 72.4794
L300.052 71.9064
L304.904 71.2971
L309.757 70.6516
L314.609 69.9701
L319.461 69.2527
L324.313 68.4995
L329.165 67.7106
L334.017 66.8862
L338.87 66.0264
L343.722 65.1314
L348.574 64.2012
L353.426 63.2361
L358.278 62.2363
L363.13 61.2017
L367.983 60.1326
L372.835 62.4997
L377.687 64.7986
L382.539 67.0281
L387.391 69.187
L392.243 71.2745
L397.096 73.2893
L401.948 75.2306
L406.8 77.0972
L411.652 78.8884
L416.504 80.6031
L421.357 82.2404
L426.209 83.7995
L431.061 85.2795
L435.913 86.6796
L440.765 87.999
L445.617 89.237
L450.47 90.3929
L455.322 91.466
L460.174 92.4557
L465.026 93.3614
L469.878 94.1825
L474.73 94.9185
L479.583 95.569
L484.435 96.1337
L489.287 96.612
L494.139 97.0038
L498.991 97.3088
L503.843 97.5268
L508.696 97.6576
L513.548 97.7013" style="fill:none;stroke:#000000;"/>
   </g>
   <g id="line2d_15">
    <path clip-path="url(#p7ff5b81e1d)" d="
M72 97.7013
L76.8522 95.1997
L81.7043 92.6734
L86.5565 90.1226
L91.4087 87.5475
L96.2609 84.9484
L101.113 82.3254
L105.965 79.6789
L110.817 77.009
L115.67 74.3159
L120.522 71.5997
L125.374 68.8607
L130.226 66.0989
L135.078 63.3145
L139.93 60.5076
L144.783 57.6783
L149.635 54.8268
L154.487 51.9531
L159.339 49.0574
L164.191 46.1396
L169.043 43.2
L173.896 43.3769
L178.748 47.1035
L183.6 50.8239
L188.452 54.5376
L193.304 58.244
L198.157 61.9428
L203.009 65.6337
L207.861 69.3166
L212.713 72.9912
L217.565 76.6576
L222.417 76.6576
L227.27 76.6389
L232.122 76.583
L236.974 76.4898
L241.826 76.3593
L246.678 76.1916
L251.53 75.9867
L256.383 75.7447
L261.235 75.4656
L266.087 75.1495
L270.939 74.7964
L275.791 74.4064
L280.643 73.9796
L285.496 73.5161
L290.348 73.016
L295.2 72.4794
L300.052 71.9064
L304.904 71.2971
L309.757 70.6516
L314.609 69.9701
L319.461 69.2527
L324.313 68.4995
L329.165 67.7106
L334.017 66.8862
L338.87 66.0264
L343.722 65.1314
L348.574 64.2012
L353.426 63.2361
L358.278 62.2363
L363.13 61.2017
L367.983 60.1326
L372.835 62.4997
L377.687 64.7986
L382.539 67.0281
L387.391 69.187
L392.243 71.2745
L397.096 73.2893
L401.948 75.2306
L406.8 77.0972
L411.652 78.8884
L416.504 80.6031
L421.357 82.2404
L426.209 83.7995
L431.061 85.2795
L435.913 86.6796
L440.765 87.999
L445.617 89.237
L450.47 90.3929
L455.322 91.466
L460.174 92.4557
L465.026 93.3614
L469.878 94.1825
L474.73 94.9185
L479.583 95.569
L484.435 96.1337
L489.287 96.612
L494.139 97.0038
L498.991 97.3088
L503.843 97.5268
L508.696 97.6576
L513.548 97.7013" style="fill:none;stroke:#0000ff;"/>
   </g>
   <g id="line2d_16">
    <path clip-path="url(#p7ff5b81e1d)" d="
M217.565 388.8
L217.565 43.2" style="fill:none;stroke:#0000ff;"/>
   </g>
   <g id="line2d_17">
    <path clip-path="url(#p7ff5b81e1d)" d="
M367.983 388.8
L367.983 43.2" style="fill:none;stroke:#0000ff;"/>
   </g>
   <g id="line2d_18">
    <path clip-path="url(#p7ff5b81e1d)" d="
M518.4 388.8
L518.4 43.2" style="fill:none;stroke:#0000ff;"/>
   </g>
   <g id="matplotlib.axis_1">
    <g id="xtick_1">
     <g id="line2d_19">
      <defs>
       <path d="
M0 0
L0 -4" id="m0012dd4eef" style="stroke:#000000;stroke-linecap:butt;stroke-width:0.5;"/>
      </defs>
      <g>
       <use style="stroke:#000000;stroke-linecap:butt;stroke-width:0.5;" x="72.0" xlink:href="#m0012dd4eef" y="388.8"/>
      </g>
     </g>
     <g id="line2d_20">
      <defs>
       <path d="
M0 0
L0 4" id="m476344969c" style="stroke:#000000;stroke-linecap:butt;stroke-width:0.5;"/>
      </defs>
      <g>
       <use style="stroke:#000000;stroke-linecap:butt;stroke-width:0.5;" x="72.0" xlink:href="#m476344969c" y="43.2"/>
      </g>
     </g>
     <g id="text_1">
      <!-- $\Gamma$ -->
      <defs>
       <path d="
M3.07812 0
L3.07812 3.51562
Q13.375 3.51562 13.375 6.6875
L13.375 61.625
Q13.375 64.7969 3.07812 64.7969
L3.07812 68.3125
L55.4219 68.3125
L58.2031 45.4062
L55.3281 45.4062
Q54.5938 51.7656 53.6406 55.2188
Q52.6875 58.6875 50.7344 60.8125
Q48.7812 62.9375 45.2656 63.8594
Q41.75 64.7969 35.5 64.7969
L27.7812 64.7969
Q25.9844 64.7969 24.9688 64.6406
Q23.9688 64.5 23.3281 63.7969
Q22.7031 63.0938 22.7031 61.625
L22.7031 6.6875
Q22.7031 3.51562 35.5 3.51562
L35.5 0
z
" id="Cmr10-a1"/>
      </defs>
      <g transform="translate(65.7 406.6)scale(0.2 -0.2)">
       <use transform="translate(0.0 0.6875)" xlink:href="#Cmr10-a1"/>
      </g>
     </g>
    </g>
    <g id="xtick_2">
     <g id="line2d_21">
      <g>
       <use style="stroke:#000000;stroke-linecap:butt;stroke-width:0.5;" x="217.565217391" xlink:href="#m0012dd4eef" y="388.8"/>
      </g>
     </g>
     <g id="line2d_22">
      <g>
       <use style="stroke:#000000;stroke-linecap:butt;stroke-width:0.5;" x="217.565217391" xlink:href="#m476344969c" y="43.2"/>
      </g>
     </g>
     <g id="text_2">
      <!-- $\chi$ -->
      <defs>
       <path d="
M4.29688 -19.3906
Q3.8125 -19.3906 3.34375 -18.9688
Q2.875 -18.5625 2.875 -18.1094
Q2.875 -17.4375 3.32812 -17.0938
L27.7812 10.1094
Q26.125 16.1562 24.0469 22.7188
Q21.9688 29.2969 19.0625 35.4531
Q16.1562 41.6094 13.9219 41.6094
Q11.9688 41.6094 10.8438 40.5312
Q9.71875 39.4531 8.85938 37.8594
Q8.01562 36.2812 7.71875 36.1875
L6.5 36.1875
Q6.20312 36.1875 5.95312 36.5156
Q5.71875 36.8594 5.71875 37.2031
Q5.71875 38.8125 7.10938 40.4531
Q8.5 42.0938 10.5156 43.1406
Q12.5469 44.1875 14.3125 44.1875
Q18.2656 44.1875 21.4844 42.7656
Q24.7031 41.3594 26.3125 38.1875
Q27.7344 35.1562 29.0469 31.6562
Q30.375 28.1719 31.5625 24.2188
Q32.7656 20.2656 33.7969 16.7031
L56.9844 42.4844
Q57.4688 43.1094 58.2031 43.1094
Q58.7969 43.1094 59.2031 42.75
Q59.625 42.3906 59.625 41.7969
Q59.625 41.1562 59.1875 40.8281
L34.7188 13.625
Q35.8906 9.1875 38.2344 1.78125
Q40.5781 -5.60938 43.4375 -11.7656
Q46.2969 -17.9219 48.5781 -17.9219
Q50.4375 -17.9219 51.6094 -16.8125
Q52.7812 -15.7188 53.6562 -14.1562
Q54.5469 -12.5938 54.7812 -12.5
L56 -12.5
Q56.7812 -12.5 56.7812 -13.4844
Q56.7812 -15.9688 53.8281 -18.2344
Q50.875 -20.5156 48.1875 -20.5156
Q44.2812 -20.5156 41.0625 -19.0938
Q37.8438 -17.6719 36.2812 -14.5
Q32.5625 -6.59375 28.7188 6.98438
L5.51562 -18.7969
Q5.03125 -19.3906 4.29688 -19.3906" id="Cmmi10-c2"/>
      </defs>
      <g transform="translate(211.265217391 406.0)scale(0.2 -0.2)">
       <use transform="translate(0.0 21.8125)" xlink:href="#Cmmi10-c2"/>
      </g>
     </g>
    </g>
    <g id="xtick_3">
     <g id="line2d_23">
      <g>
       <use style="stroke:#000000;stroke-linecap:butt;stroke-width:0.5;" x="367.982608696" xlink:href="#m0012dd4eef" y="388.8"/>
      </g>
     </g>
     <g id="line2d_24">
      <g>
       <use style="stroke:#000000;stroke-linecap:butt;stroke-width:0.5;" x="367.982608696" xlink:href="#m476344969c" y="43.2"/>
      </g>
     </g>
     <g id="text_3">
      <!-- $M$ -->
      <defs>
       <path d="
M5.07812 0
Q4.10938 0 4.10938 1.3125
Q4.15625 1.5625 4.29688 2.14062
Q4.4375 2.73438 4.6875 3.125
Q4.9375 3.51562 5.42188 3.51562
Q14.9375 3.51562 16.5 9.625
L29.5 61.8125
Q29.6875 62.7969 29.6875 63.1875
Q29.6875 64.2656 28.5156 64.4062
Q26.6094 64.7969 21.2969 64.7969
Q20.3125 64.7969 20.3125 66.1094
Q20.3594 66.3594 20.5 66.9688
Q20.6562 67.5781 20.9219 67.9375
Q21.1875 68.3125 21.5781 68.3125
L39.2031 68.3125
Q40.3281 68.3125 40.4844 67.1875
L48.2969 9.90625
L84.7188 67.1875
Q85.4062 68.3125 86.625 68.3125
L103.609 68.3125
Q104.594 68.3125 104.594 67
Q104.547 66.75 104.391 66.1406
Q104.25 65.5312 103.984 65.1562
Q103.719 64.7969 103.328 64.7969
Q97.2188 64.7969 94.8281 64.1094
Q93.5 63.6719 92.9219 61.375
L79.2031 6.5
Q79 5.51562 79 5.07812
Q79 4.6875 79.125 4.42188
Q79.25 4.15625 79.4688 4.07812
Q79.6875 4 80.1719 3.90625
Q82.0781 3.51562 87.4062 3.51562
Q88.375 3.51562 88.375 2.20312
Q88.0312 0.78125 87.8281 0.390625
Q87.6406 0 86.7188 0
L60.5938 0
Q59.625 0 59.625 1.3125
Q59.6719 1.5625 59.8125 2.17188
Q59.9688 2.78125 60.2344 3.14062
Q60.5 3.51562 60.8906 3.51562
Q67 3.51562 69.3906 4.20312
Q70.7031 4.64062 71.2969 6.89062
L85.6875 64.7969
L45.3125 1.125
Q44.7344 0 43.3125 0
Q42.0469 0 41.8906 1.125
L33.4062 64.0156
L19.6719 9.1875
Q19.5781 8.9375 19.5312 8.5625
Q19.4844 8.20312 19.3906 7.71875
Q19.3906 5.125 21.6562 4.3125
Q23.9219 3.51562 27.2031 3.51562
Q28.2188 3.51562 28.2188 2.20312
Q27.875 0.875 27.6562 0.4375
Q27.4375 0 26.5156 0
z
" id="Cmmi10-4d"/>
      </defs>
      <g transform="translate(358.182608696 406.6)scale(0.2 -0.2)">
       <use transform="translate(0.0 0.6875)" xlink:href="#Cmmi10-4d"/>
      </g>
     </g>
    </g>
    <g id="xtick_4">
     <g id="line2d_25">
      <g>
       <use style="stroke:#000000;stroke-linecap:butt;stroke-width:0.5;" x="518.4" xlink:href="#m0012dd4eef" y="388.8"/>
      </g>
     </g>
     <g id="line2d_26">
      <g>
       <use style="stroke:#000000;stroke-linecap:butt;stroke-width:0.5;" x="518.4" xlink:href="#m476344969c" y="43.2"/>
      </g>
     </g>
     <g id="text_4">
      <!-- $\Gamma$ -->
      <g transform="translate(512.1 406.6)scale(0.2 -0.2)">
       <use transform="translate(0.0 0.6875)" xlink:href="#Cmr10-a1"/>
      </g>
     </g>
    </g>
   </g>
   <g id="matplotlib.axis_2">
    <g id="ytick_1">
     <g id="line2d_27">
      <defs>
       <path d="
M0 0
L4 0" id="me8a85f7bf6" style="stroke:#000000;stroke-linecap:butt;stroke-width:0.5;"/>
      </defs>
      <g>
       <use style="stroke:#000000;stroke-linecap:butt;stroke-width:0.5;" x="72.0" xlink:href="#me8a85f7bf6" y="388.8"/>
      </g>
     </g>
     <g id="line2d_28">
      <defs>
       <path d="
M0 0
L-4 0" id="m1a32005dea" style="stroke:#000000;stroke-linecap:butt;stroke-width:0.5;"/>
      </defs>
      <g>
       <use style="stroke:#000000;stroke-linecap:butt;stroke-width:0.5;" x="518.4" xlink:href="#m1a32005dea" y="388.8"/>
      </g>
     </g>
     <g id="text_5">
      <!-- 0.0 -->
      <defs>
       <path d="
M31.7812 66.4062
Q24.1719 66.4062 20.3281 58.9062
Q16.5 51.4219 16.5 36.375
Q16.5 21.3906 20.3281 13.8906
Q24.1719 6.39062 31.7812 6.39062
Q39.4531 6.39062 43.2812 13.8906
Q47.125 21.3906 47.125 36.375
Q47.125 51.4219 43.2812 58.9062
Q39.4531 66.4062 31.7812 66.4062
M31.7812 74.2188
Q44.0469 74.2188 50.5156 64.5156
Q56.9844 54.8281 56.9844 36.375
Q56.9844 17.9688 50.5156 8.26562
Q44.0469 -1.42188 31.7812 -1.42188
Q19.5312 -1.42188 13.0625 8.26562
Q6.59375 17.9688 6.59375 36.375
Q6.59375 54.8281 13.0625 64.5156
Q19.5312 74.2188 31.7812 74.2188" id="DejaVuSans-30"/>
       <path d="
M10.6875 12.4062
L21 12.4062
L21 0
L10.6875 0
z
" id="DejaVuSans-2e"/>
      </defs>
      <g transform="translate(50.504375 393.1678125)scale(0.12 -0.12)">
       <use xlink:href="#DejaVuSans-30"/>
       <use x="63.623046875" xlink:href="#DejaVuSans-2e"/>
       <use x="95.41015625" xlink:href="#DejaVuSans-30"/>
      </g>
     </g>
    </g>
    <g id="ytick_2">
     <g id="line2d_29">
      <g>
       <use style="stroke:#000000;stroke-linecap:butt;stroke-width:0.5;" x="72.0" xlink:href="#me8a85f7bf6" y="347.857195473"/>
      </g>
     </g>
     <g id="line2d_30">
      <g>
       <use style="stroke:#000000;stroke-linecap:butt;stroke-width:0.5;" x="518.4" xlink:href="#m1a32005dea" y="347.857195473"/>
      </g>
     </g>
     <g id="text_6">
      <!-- 0.2 -->
      <defs>
       <path d="
M19.1875 8.29688
L53.6094 8.29688
L53.6094 0
L7.32812 0
L7.32812 8.29688
Q12.9375 14.1094 22.625 23.8906
Q32.3281 33.6875 34.8125 36.5312
Q39.5469 41.8438 41.4219 45.5312
Q43.3125 49.2188 43.3125 52.7812
Q43.3125 58.5938 39.2344 62.25
Q35.1562 65.9219 28.6094 65.9219
Q23.9688 65.9219 18.8125 64.3125
Q13.6719 62.7031 7.8125 59.4219
L7.8125 69.3906
Q13.7656 71.7812 18.9375 73
Q24.125 74.2188 28.4219 74.2188
Q39.75 74.2188 46.4844 68.5469
Q53.2188 62.8906 53.2188 53.4219
Q53.2188 48.9219 51.5312 44.8906
Q49.8594 40.875 45.4062 35.4062
Q44.1875 33.9844 37.6406 27.2188
Q31.1094 20.4531 19.1875 8.29688" id="DejaVuSans-32"/>
      </defs>
      <g transform="translate(50.909375 352.225007973)scale(0.12 -0.12)">
       <use xlink:href="#DejaVuSans-30"/>
       <use x="63.623046875" xlink:href="#DejaVuSans-2e"/>
       <use x="95.41015625" xlink:href="#DejaVuSans-32"/>
      </g>
     </g>
    </g>
    <g id="ytick_3">
     <g id="line2d_31">
      <g>
       <use style="stroke:#000000;stroke-linecap:butt;stroke-width:0.5;" x="72.0" xlink:href="#me8a85f7bf6" y="306.914390945"/>
      </g>
     </g>
     <g id="line2d_32">
      <g>
       <use style="stroke:#000000;stroke-linecap:butt;stroke-width:0.5;" x="518.4" xlink:href="#m1a32005dea" y="306.914390945"/>
      </g>
     </g>
     <g id="text_7">
      <!-- 0.4 -->
      <defs>
       <path d="
M37.7969 64.3125
L12.8906 25.3906
L37.7969 25.3906
z

M35.2031 72.9062
L47.6094 72.9062
L47.6094 25.3906
L58.0156 25.3906
L58.0156 17.1875
L47.6094 17.1875
L47.6094 0
L37.7969 0
L37.7969 17.1875
L4.89062 17.1875
L4.89062 26.7031
z
" id="DejaVuSans-34"/>
      </defs>
      <g transform="translate(50.380625 311.282203445)scale(0.12 -0.12)">
       <use xlink:href="#DejaVuSans-30"/>
       <use x="63.623046875" xlink:href="#DejaVuSans-2e"/>
       <use x="95.41015625" xlink:href="#DejaVuSans-34"/>
      </g>
     </g>
    </g>
    <g id="ytick_4">
     <g id="line2d_33">
      <g>
       <use style="stroke:#000000;stroke-linecap:butt;stroke-width:0.5;" x="72.0" xlink:href="#me8a85f7bf6" y="265.971586418"/>
      </g>
     </g>
     <g id="line2d_34">
      <g>
       <use style="stroke:#000000;stroke-linecap:butt;stroke-width:0.5;" x="518.4" xlink:href="#m1a32005dea" y="265.971586418"/>
      </g>
     </g>
     <g id="text_8">
      <!-- 0.6 -->
      <defs>
       <path d="
M33.0156 40.375
Q26.375 40.375 22.4844 35.8281
Q18.6094 31.2969 18.6094 23.3906
Q18.6094 15.5312 22.4844 10.9531
Q26.375 6.39062 33.0156 6.39062
Q39.6562 6.39062 43.5312 10.9531
Q47.4062 15.5312 47.4062 23.3906
Q47.4062 31.2969 43.5312 35.8281
Q39.6562 40.375 33.0156 40.375
M52.5938 71.2969
L52.5938 62.3125
Q48.875 64.0625 45.0938 64.9844
Q41.3125 65.9219 37.5938 65.9219
Q27.8281 65.9219 22.6719 59.3281
Q17.5312 52.7344 16.7969 39.4062
Q19.6719 43.6562 24.0156 45.9219
Q28.375 48.1875 33.5938 48.1875
Q44.5781 48.1875 50.9531 41.5156
Q57.3281 34.8594 57.3281 23.3906
Q57.3281 12.1562 50.6875 5.35938
Q44.0469 -1.42188 33.0156 -1.42188
Q20.3594 -1.42188 13.6719 8.26562
Q6.98438 17.9688 6.98438 36.375
Q6.98438 53.6562 15.1875 63.9375
Q23.3906 74.2188 37.2031 74.2188
Q40.9219 74.2188 44.7031 73.4844
Q48.4844 72.75 52.5938 71.2969" id="DejaVuSans-36"/>
      </defs>
      <g transform="translate(50.463125 270.339398918)scale(0.12 -0.12)">
       <use xlink:href="#DejaVuSans-30"/>
       <use x="63.623046875" xlink:href="#DejaVuSans-2e"/>
       <use x="95.41015625" xlink:href="#DejaVuSans-36"/>
      </g>
     </g>
    </g>
    <g id="ytick_5">
     <g id="line2d_35">
      <g>
       <use style="stroke:#000000;stroke-linecap:butt;stroke-width:0.5;" x="72.0" xlink:href="#me8a85f7bf6" y="225.028781891"/>
      </g>
     </g>
     <g id="line2d_36">
      <g>
       <use style="stroke:#000000;stroke-linecap:butt;stroke-width:0.5;" x="518.4" xlink:href="#m1a32005dea" y="225.028781891"/>
      </g>
     </g>
     <g id="text_9">
      <!-- 0.8 -->
      <defs>
       <path d="
M31.7812 34.625
Q24.75 34.625 20.7188 30.8594
Q16.7031 27.0938 16.7031 20.5156
Q16.7031 13.9219 20.7188 10.1562
Q24.75 6.39062 31.7812 6.39062
Q38.8125 6.39062 42.8594 10.1719
Q46.9219 13.9688 46.9219 20.5156
Q46.9219 27.0938 42.8906 30.8594
Q38.875 34.625 31.7812 34.625
M21.9219 38.8125
Q15.5781 40.375 12.0312 44.7188
Q8.5 49.0781 8.5 55.3281
Q8.5 64.0625 14.7188 69.1406
Q20.9531 74.2188 31.7812 74.2188
Q42.6719 74.2188 48.875 69.1406
Q55.0781 64.0625 55.0781 55.3281
Q55.0781 49.0781 51.5312 44.7188
Q48 40.375 41.7031 38.8125
Q48.8281 37.1562 52.7969 32.3125
Q56.7812 27.4844 56.7812 20.5156
Q56.7812 9.90625 50.3125 4.23438
Q43.8438 -1.42188 31.7812 -1.42188
Q19.7344 -1.42188 13.25 4.23438
Q6.78125 9.90625 6.78125 20.5156
Q6.78125 27.4844 10.7812 32.3125
Q14.7969 37.1562 21.9219 38.8125
M18.3125 54.3906
Q18.3125 48.7344 21.8438 45.5625
Q25.3906 42.3906 31.7812 42.3906
Q38.1406 42.3906 41.7188 45.5625
Q45.3125 48.7344 45.3125 54.3906
Q45.3125 60.0625 41.7188 63.2344
Q38.1406 66.4062 31.7812 66.4062
Q25.3906 66.4062 21.8438 63.2344
Q18.3125 60.0625 18.3125 54.3906" id="DejaVuSans-38"/>
      </defs>
      <g transform="translate(50.52875 229.396594391)scale(0.12 -0.12)">
       <use xlink:href="#DejaVuSans-30"/>
       <use x="63.623046875" xlink:href="#DejaVuSans-2e"/>
       <use x="95.41015625" xlink:href="#DejaVuSans-38"/>
      </g>
     </g>
    </g>
    <g id="ytick_6">
     <g id="line2d_37">
      <g>
       <use style="stroke:#000000;stroke-linecap:butt;stroke-width:0.5;" x="72.0" xlink:href="#me8a85f7bf6" y="184.085977363"/>
      </g>
     </g>
     <g id="line2d_38">
      <g>
       <use style="stroke:#000000;stroke-linecap:butt;stroke-width:0.5;" x="518.4" xlink:href="#m1a32005dea" y="184.085977363"/>
      </g>
     </g>
     <g id="text_10">
      <!-- 1.0 -->
      <defs>
       <path d="
M12.4062 8.29688
L28.5156 8.29688
L28.5156 63.9219
L10.9844 60.4062
L10.9844 69.3906
L28.4219 72.9062
L38.2812 72.9062
L38.2812 8.29688
L54.3906 8.29688
L54.3906 0
L12.4062 0
z
" id="DejaVuSans-31"/>
      </defs>
      <g transform="translate(51.03125 188.453789863)scale(0.12 -0.12)">
       <use xlink:href="#DejaVuSans-31"/>
       <use x="63.623046875" xlink:href="#DejaVuSans-2e"/>
       <use x="95.41015625" xlink:href="#DejaVuSans-30"/>
      </g>
     </g>
    </g>
    <g id="ytick_7">
     <g id="line2d_39">
      <g>
       <use style="stroke:#000000;stroke-linecap:butt;stroke-width:0.5;" x="72.0" xlink:href="#me8a85f7bf6" y="143.143172836"/>
      </g>
     </g>
     <g id="line2d_40">
      <g>
       <use style="stroke:#000000;stroke-linecap:butt;stroke-width:0.5;" x="518.4" xlink:href="#m1a32005dea" y="143.143172836"/>
      </g>
     </g>
     <g id="text_11">
      <!-- 1.2 -->
      <g transform="translate(51.43625 147.596297836)scale(0.12 -0.12)">
       <use xlink:href="#DejaVuSans-31"/>
       <use x="63.623046875" xlink:href="#DejaVuSans-2e"/>
       <use x="95.41015625" xlink:href="#DejaVuSans-32"/>
      </g>
     </g>
    </g>
    <g id="ytick_8">
     <g id="line2d_41">
      <g>
       <use style="stroke:#000000;stroke-linecap:butt;stroke-width:0.5;" x="72.0" xlink:href="#me8a85f7bf6" y="102.200368309"/>
      </g>
     </g>
     <g id="line2d_42">
      <g>
       <use style="stroke:#000000;stroke-linecap:butt;stroke-width:0.5;" x="518.4" xlink:href="#m1a32005dea" y="102.200368309"/>
      </g>
     </g>
     <g id="text_12">
      <!-- 1.4 -->
      <g transform="translate(50.9075 106.574743309)scale(0.12 -0.12)">
       <use xlink:href="#DejaVuSans-31"/>
       <use x="63.623046875" xlink:href="#DejaVuSans-2e"/>
       <use x="95.41015625" xlink:href="#DejaVuSans-34"/>
      </g>
     </g>
    </g>
    <g id="ytick_9">
     <g id="line2d_43">
      <g>
       <use style="stroke:#000000;stroke-linecap:butt;stroke-width:0.5;" x="72.0" xlink:href="#me8a85f7bf6" y="61.2575637812"/>
      </g>
     </g>
     <g id="line2d_44">
      <g>
       <use style="stroke:#000000;stroke-linecap:butt;stroke-width:0.5;" x="518.4" xlink:href="#m1a32005dea" y="61.2575637812"/>
      </g>
     </g>
     <g id="text_13">
      <!-- 1.6 -->
      <g transform="translate(50.99 65.6253762812)scale(0.12 -0.12)">
       <use xlink:href="#DejaVuSans-31"/>
       <use x="63.623046875" xlink:href="#DejaVuSans-2e"/>
       <use x="95.41015625" xlink:href="#DejaVuSans-36"/>
      </g>
     </g>
    </g>
    <g id="text_14">
     <!-- Frequency $ \frac{\omega a}{2\pi c} $ -->
     <defs>
      <path d="
M4.98438 0
L4.98438 2.6875
Q4.98438 2.9375 5.17188 3.21875
L20.7031 20.4062
Q24.2188 24.2188 26.4062 26.7969
Q28.6094 29.3906 30.75 32.7656
Q32.9062 36.1406 34.1562 39.625
Q35.4062 43.1094 35.4062 47.0156
Q35.4062 51.125 33.8906 54.8594
Q32.375 58.5938 29.375 60.8438
Q26.375 63.0938 22.125 63.0938
Q17.7812 63.0938 14.3125 60.4688
Q10.8438 57.8594 9.42188 53.7188
Q9.8125 53.8125 10.5 53.8125
Q12.75 53.8125 14.3281 52.2969
Q15.9219 50.7812 15.9219 48.3906
Q15.9219 46.0938 14.3281 44.5
Q12.75 42.9219 10.5 42.9219
Q8.15625 42.9219 6.5625 44.5469
Q4.98438 46.1875 4.98438 48.3906
Q4.98438 52.1562 6.39062 55.4375
Q7.8125 58.7344 10.4688 61.2969
Q13.1406 63.875 16.4844 65.2344
Q19.8281 66.6094 23.5781 66.6094
Q29.2969 66.6094 34.2188 64.1875
Q39.1562 61.7656 42.0312 57.3438
Q44.9219 52.9375 44.9219 47.0156
Q44.9219 42.6719 43.0156 38.7656
Q41.1094 34.8594 38.125 31.6562
Q35.1562 28.4688 30.5156 24.4062
Q25.875 20.3594 24.4219 19
L13.0938 8.10938
L22.7031 8.10938
Q29.7812 8.10938 34.5469 8.21875
Q39.3125 8.34375 39.5938 8.59375
Q40.7656 9.85938 42 17.8281
L44.9219 17.8281
L42.0938 0
z
" id="Cmr10-32"/>
      <path d="
M54.8906 33.0156
L54.8906 0
L45.9062 0
L45.9062 32.7188
Q45.9062 40.4844 42.875 44.3281
Q39.8438 48.1875 33.7969 48.1875
Q26.5156 48.1875 22.3125 43.5469
Q18.1094 38.9219 18.1094 30.9062
L18.1094 0
L9.07812 0
L9.07812 54.6875
L18.1094 54.6875
L18.1094 46.1875
Q21.3438 51.125 25.7031 53.5625
Q30.0781 56 35.7969 56
Q45.2188 56 50.0469 50.1719
Q54.8906 44.3438 54.8906 33.0156" id="DejaVuSans-6e"/>
      <path d="
M12.1094 -1.125
Q6.45312 -1.125 3.9375 3.01562
Q1.42188 7.17188 1.42188 13.1875
Q1.42188 17.1406 2.125 20.9219
Q2.82812 24.7031 4.26562 28.5781
Q5.71875 32.4688 7.5625 35.8594
Q9.42188 39.2656 11.7188 42.4844
Q12.1562 43.1094 12.8906 43.1094
Q13.5312 43.1094 13.9219 42.7188
Q14.3125 42.3281 14.3125 41.7969
Q14.3125 41.2656 14.0156 40.8281
Q4.89062 28.2656 4.89062 17.6719
Q4.89062 13.0938 7 9.79688
Q9.125 6.5 13.4844 6.5
Q17.2344 6.5 20.4375 8.6875
Q23.6406 10.8906 25.9844 14.3125
Q25.9844 16.0625 26.5938 19.7656
Q27.2031 23.4844 28.4844 26.3906
Q29.7812 29.2969 31.5938 29.2969
Q33.8906 29.2969 33.8906 26.6094
Q33.8906 25.0469 33.2188 22.6719
Q32.5625 20.3125 31.75 18.2656
Q30.9531 16.2188 29.7812 13.625
Q30.9531 6.5 36.9219 6.5
Q40.375 6.5 43.8594 8.5
Q47.3594 10.5 50.0469 13.75
Q52.7344 17 54.2656 20.75
Q55.8125 24.5156 55.8125 27.875
Q55.8125 30.9062 54.8594 32.5938
Q53.9062 34.2812 52.3438 36.125
Q50.7812 37.9844 50.7812 39.1094
Q50.7812 41.0625 52.4375 42.6719
Q54.1094 44.2812 56 44.2812
Q58.4531 44.2812 59.4688 42.0625
Q60.5 39.8438 60.5 37.0156
Q60.5 32.4219 58.6719 25.4375
Q56.8438 18.4531 54.5 13.8125
Q51.2656 7.51562 46.4062 3.1875
Q41.5469 -1.125 35.5 -1.125
Q31.6406 -1.125 29.2656 1.1875
Q26.9062 3.51562 26.2188 7.51562
Q23.4375 3.5625 19.875 1.21875
Q16.3125 -1.125 12.1094 -1.125" id="Cmmi10-21"/>
      <path id="DejaVuSans-20"/>
      <path d="
M10.1094 1.70312
Q10.1094 2.25 10.5 3.32812
Q13.2812 9.125 15.6875 14.7188
Q18.1094 20.3125 20.0312 25.6094
Q21.9688 30.9062 23.5781 36.9219
L17.1875 36.9219
Q13.5312 36.9219 10.3438 34.625
Q7.17188 32.3281 5.07812 28.8125
Q4.89062 28.4219 4.5 28.4219
L3.32812 28.4219
Q2.39062 28.4219 2.39062 29.3906
Q2.39062 29.5938 2.59375 29.9844
Q5.85938 35.5469 9.59375 39.3281
Q13.3281 43.1094 18.0156 43.1094
L54.2969 43.1094
Q55.3281 43.1094 56.0469 42.4219
Q56.7812 41.75 56.7812 40.5781
Q56.7812 39.1094 55.7344 38.0156
Q54.6875 36.9219 53.2188 36.9219
L40.4844 36.9219
Q38.875 29.0469 38.7188 21.5781
Q38.7188 11.9688 42.0938 4.20312
Q42.3906 3.60938 42.3906 2.98438
Q42.3906 1.90625 41.75 0.96875
Q41.1094 0.046875 40.1094 -0.53125
Q39.1094 -1.125 37.9844 -1.125
Q35.3594 -1.125 34.375 3.17188
Q33.4062 7.46875 33.4062 11.5312
Q33.4062 17.2344 34.375 22.5312
Q35.3594 27.8281 37.5 36.9219
L26.6094 36.9219
Q18.7031 4.89062 17.0938 1.60938
Q15.6719 -1.125 13.1875 -1.125
Q11.9688 -1.125 11.0312 -0.3125
Q10.1094 0.484375 10.1094 1.70312" id="Cmmi10-bc"/>
      <path d="
M11.7188 11.9219
Q11.7188 7.5625 13.9375 4.53125
Q16.1562 1.51562 20.3125 1.51562
Q26.2656 1.51562 31.75 4.25
Q37.25 6.98438 40.7188 11.8125
Q41.0156 12.1094 41.5 12.1094
Q42 12.1094 42.5 11.5469
Q43.0156 10.9844 43.0156 10.5
Q43.0156 10.1094 42.8281 9.90625
Q39.1562 4.78125 32.9531 1.82812
Q26.7656 -1.125 20.125 -1.125
Q15.3281 -1.125 11.6719 1.14062
Q8.01562 3.42188 6 7.21875
Q4 11.0312 4 15.8281
Q4 22.5625 7.76562 29.2031
Q11.5312 35.8438 17.7812 40.0156
Q24.0312 44.1875 30.9062 44.1875
Q35.4062 44.1875 38.9844 42.0156
Q42.5781 39.8438 42.5781 35.5938
Q42.5781 32.8594 40.9844 30.9219
Q39.4062 29 36.7188 29
Q35.1094 29 34 30
Q32.9062 31 32.9062 32.625
Q32.9062 34.9688 34.6094 36.625
Q36.3281 38.2812 38.625 38.2812
L38.8125 38.2812
Q37.6406 39.9844 35.4219 40.7969
Q33.2031 41.6094 30.8125 41.6094
Q24.9531 41.6094 20.5469 36.5938
Q16.1562 31.5938 13.9375 24.625
Q11.7188 17.6719 11.7188 11.9219" id="Cmmi10-63"/>
      <path d="
M17.3906 -1.125
Q11.0781 -1.125 7.4375 3.64062
Q3.8125 8.40625 3.8125 14.8906
Q3.8125 21.2969 7.125 28.1719
Q10.4531 35.0625 16.0938 39.625
Q21.7344 44.1875 28.2188 44.1875
Q31.2031 44.1875 33.5469 42.5781
Q35.8906 40.9688 37.2031 38.1875
Q38.3281 42.1875 41.6094 42.1875
Q42.875 42.1875 43.7188 41.4219
Q44.5781 40.6719 44.5781 39.4062
Q44.5781 39.1094 44.5469 38.9531
Q44.5312 38.8125 44.4844 38.625
L37.5 10.6875
Q36.8125 7.71875 36.8125 5.8125
Q36.8125 1.51562 39.7031 1.51562
Q42.8281 1.51562 44.4531 5.48438
Q46.0938 9.46875 47.2188 14.7031
Q47.4062 15.2812 48 15.2812
L49.2188 15.2812
Q49.6094 15.2812 49.8438 14.9375
Q50.0938 14.5938 50.0938 14.3125
Q48.3438 7.32812 46.2656 3.09375
Q44.1875 -1.125 39.5 -1.125
Q36.1406 -1.125 33.5469 0.84375
Q30.9531 2.82812 30.3281 6.10938
Q23.875 -1.125 17.3906 -1.125
M17.4844 1.51562
Q21.0938 1.51562 24.4844 4.21875
Q27.875 6.9375 30.3281 10.5938
Q30.4219 10.6875 30.4219 10.8906
L35.7969 32.625
L35.8906 32.9062
Q35.2969 36.4688 33.3125 39.0312
Q31.3438 41.6094 27.9844 41.6094
Q24.6094 41.6094 21.7031 38.8438
Q18.7969 36.0781 16.7969 32.3281
Q14.8438 28.3281 13.0625 21.3438
Q11.2812 14.3594 11.2812 10.5
Q11.2812 7.03125 12.7656 4.26562
Q14.2656 1.51562 17.4844 1.51562" id="Cmmi10-61"/>
      <path d="
M9.8125 72.9062
L51.7031 72.9062
L51.7031 64.5938
L19.6719 64.5938
L19.6719 43.1094
L48.5781 43.1094
L48.5781 34.8125
L19.6719 34.8125
L19.6719 0
L9.8125 0
z
" id="DejaVuSans-46"/>
      <path d="
M32.1719 -5.07812
Q28.375 -14.8438 24.75 -17.8125
Q21.1406 -20.7969 15.0938 -20.7969
L7.90625 -20.7969
L7.90625 -13.2812
L13.1875 -13.2812
Q16.8906 -13.2812 18.9375 -11.5156
Q21 -9.76562 23.4844 -3.21875
L25.0938 0.875
L2.98438 54.6875
L12.5 54.6875
L29.5938 11.9219
L46.6875 54.6875
L56.2031 54.6875
z
" id="DejaVuSans-79"/>
      <path d="
M8.5 21.5781
L8.5 54.6875
L17.4844 54.6875
L17.4844 21.9219
Q17.4844 14.1562 20.5 10.2656
Q23.5312 6.39062 29.5938 6.39062
Q36.8594 6.39062 41.0781 11.0312
Q45.3125 15.6719 45.3125 23.6875
L45.3125 54.6875
L54.2969 54.6875
L54.2969 0
L45.3125 0
L45.3125 8.40625
Q42.0469 3.42188 37.7188 1
Q33.4062 -1.42188 27.6875 -1.42188
Q18.2656 -1.42188 13.375 4.4375
Q8.5 10.2969 8.5 21.5781
M31.1094 56
z
" id="DejaVuSans-75"/>
      <path d="
M56.2031 29.5938
L56.2031 25.2031
L14.8906 25.2031
Q15.4844 15.9219 20.4844 11.0625
Q25.4844 6.20312 34.4219 6.20312
Q39.5938 6.20312 44.4531 7.46875
Q49.3125 8.73438 54.1094 11.2812
L54.1094 2.78125
Q49.2656 0.734375 44.1875 -0.34375
Q39.1094 -1.42188 33.8906 -1.42188
Q20.7969 -1.42188 13.1562 6.1875
Q5.51562 13.8125 5.51562 26.8125
Q5.51562 40.2344 12.7656 48.1094
Q20.0156 56 32.3281 56
Q43.3594 56 49.7812 48.8906
Q56.2031 41.7969 56.2031 29.5938
M47.2188 32.2344
Q47.125 39.5938 43.0938 43.9844
Q39.0625 48.3906 32.4219 48.3906
Q24.9062 48.3906 20.3906 44.1406
Q15.875 39.8906 15.1875 32.1719
z
" id="DejaVuSans-65"/>
      <path d="
M14.7969 27.2969
Q14.7969 17.3906 18.875 11.75
Q22.9531 6.10938 30.0781 6.10938
Q37.2031 6.10938 41.2969 11.75
Q45.4062 17.3906 45.4062 27.2969
Q45.4062 37.2031 41.2969 42.8438
Q37.2031 48.4844 30.0781 48.4844
Q22.9531 48.4844 18.875 42.8438
Q14.7969 37.2031 14.7969 27.2969
M45.4062 8.20312
Q42.5781 3.32812 38.25 0.953125
Q33.9375 -1.42188 27.875 -1.42188
Q17.9688 -1.42188 11.7344 6.48438
Q5.51562 14.4062 5.51562 27.2969
Q5.51562 40.1875 11.7344 48.0938
Q17.9688 56 27.875 56
Q33.9375 56 38.25 53.625
Q42.5781 51.2656 45.4062 46.3906
L45.4062 54.6875
L54.3906 54.6875
L54.3906 -20.7969
L45.4062 -20.7969
z
" id="DejaVuSans-71"/>
      <path d="
M48.7812 52.5938
L48.7812 44.1875
Q44.9688 46.2969 41.1406 47.3438
Q37.3125 48.3906 33.4062 48.3906
Q24.6562 48.3906 19.8125 42.8438
Q14.9844 37.3125 14.9844 27.2969
Q14.9844 17.2812 19.8125 11.7344
Q24.6562 6.20312 33.4062 6.20312
Q37.3125 6.20312 41.1406 7.25
Q44.9688 8.29688 48.7812 10.4062
L48.7812 2.09375
Q45.0156 0.34375 40.9844 -0.53125
Q36.9688 -1.42188 32.4219 -1.42188
Q20.0625 -1.42188 12.7812 6.34375
Q5.51562 14.1094 5.51562 27.2969
Q5.51562 40.6719 12.8594 48.3281
Q20.2188 56 33.0156 56
Q37.1562 56 41.1094 55.1406
Q45.0625 54.2969 48.7812 52.5938" id="DejaVuSans-63"/>
      <path d="
M41.1094 46.2969
Q39.5938 47.1719 37.8125 47.5781
Q36.0312 48 33.8906 48
Q26.2656 48 22.1875 43.0469
Q18.1094 38.0938 18.1094 28.8125
L18.1094 0
L9.07812 0
L9.07812 54.6875
L18.1094 54.6875
L18.1094 46.1875
Q20.9531 51.1719 25.4844 53.5781
Q30.0312 56 36.5312 56
Q37.4531 56 38.5781 55.875
Q39.7031 55.7656 41.0625 55.5156
z
" id="DejaVuSans-72"/>
     </defs>
     <g transform="translate(45.380625 283.6)rotate(-90.0)scale(0.2 -0.2)">
      <use transform="translate(0.0 42.09375)" xlink:href="#DejaVuSans-46"/>
      <use transform="translate(57.51953125 42.09375)" xlink:href="#DejaVuSans-72"/>
      <use transform="translate(98.6328125 42.09375)" xlink:href="#DejaVuSans-65"/>
      <use transform="translate(160.15625 42.09375)" xlink:href="#DejaVuSans-71"/>
      <use transform="translate(223.6328125 42.09375)" xlink:href="#DejaVuSans-75"/>
      <use transform="translate(287.01171875 42.09375)" xlink:href="#DejaVuSans-65"/>
      <use transform="translate(348.53515625 42.09375)" xlink:href="#DejaVuSans-6e"/>
      <use transform="translate(411.9140625 42.09375)" xlink:href="#DejaVuSans-63"/>
      <use transform="translate(466.89453125 42.09375)" xlink:href="#DejaVuSans-79"/>
      <use transform="translate(526.07421875 42.09375)" xlink:href="#DejaVuSans-20"/>
      <use transform="translate(569.861328125 80.38125)scale(0.7)" xlink:href="#Cmmi10-21"/>
      <use transform="translate(613.40625 80.38125)scale(0.7)" xlink:href="#Cmmi10-61"/>
      <use transform="translate(557.861328125 1.7171875)scale(0.7)" xlink:href="#Cmr10-32"/>
      <use transform="translate(592.861328125 1.7171875)scale(0.7)" xlink:href="#Cmmi10-bc"/>
      <use transform="translate(632.749023438 1.7171875)scale(0.7)" xlink:href="#Cmmi10-63"/>
      <path d="
M557.861 54.5937
L557.861 60.8437
L662.998 60.8437
L662.998 54.5937
L557.861 54.5937
z
"/>
     </g>
    </g>
   </g>
   <g id="patch_3">
    <path d="
M72 43.2
L518.4 43.2" style="fill:none;stroke:#000000;"/>
   </g>
   <g id="patch_4">
    <path d="
M518.4 388.8
L518.4 43.2" style="fill:none;stroke:#000000;"/>
   </g>
   <g id="patch_5">
    <path d="
M72 388.8
L518.4 388.8" style="fill:none;stroke:#000000;"/>
   </g>
   <g id="patch_6">
    <path d="
M72 388.8
L72 43.2" style="fill:none;stroke:#000000;"/>
   </g>
   <g id="text_15">
    <!-- Dispersion relations for Square lattice -->
    <defs>
     <path d="
M30.6094 48.3906
Q23.3906 48.3906 19.1875 42.75
Q14.9844 37.1094 14.9844 27.2969
Q14.9844 17.4844 19.1562 11.8438
Q23.3438 6.20312 30.6094 6.20312
Q37.7969 6.20312 41.9844 11.8594
Q46.1875 17.5312 46.1875 27.2969
Q46.1875 37.0156 41.9844 42.7031
Q37.7969 48.3906 30.6094 48.3906
M30.6094 56
Q42.3281 56 49.0156 48.375
Q55.7188 40.7656 55.7188 27.2969
Q55.7188 13.875 49.0156 6.21875
Q42.3281 -1.42188 30.6094 -1.42188
Q18.8438 -1.42188 12.1719 6.21875
Q5.51562 13.875 5.51562 27.2969
Q5.51562 40.7656 12.1719 48.375
Q18.8438 56 30.6094 56" id="DejaVuSans-6f"/>
     <path d="
M9.42188 75.9844
L18.4062 75.9844
L18.4062 0
L9.42188 0
z
" id="DejaVuSans-6c"/>
     <path d="
M19.6719 64.7969
L19.6719 8.10938
L31.5938 8.10938
Q46.6875 8.10938 53.6875 14.9375
Q60.6875 21.7812 60.6875 36.5312
Q60.6875 51.1719 53.6875 57.9844
Q46.6875 64.7969 31.5938 64.7969
z

M9.8125 72.9062
L30.0781 72.9062
Q51.2656 72.9062 61.1719 64.0938
Q71.0938 55.2812 71.0938 36.5312
Q71.0938 17.6719 61.125 8.82812
Q51.1719 0 30.0781 0
L9.8125 0
z
" id="DejaVuSans-44"/>
     <path d="
M53.5156 70.5156
L53.5156 60.8906
Q47.9062 63.5781 42.9219 64.8906
Q37.9375 66.2188 33.2969 66.2188
Q25.25 66.2188 20.875 63.0938
Q16.5 59.9688 16.5 54.2031
Q16.5 49.3594 19.4062 46.8906
Q22.3125 44.4375 30.4219 42.9219
L36.375 41.7031
Q47.4062 39.5938 52.6562 34.2969
Q57.9062 29 57.9062 20.125
Q57.9062 9.51562 50.7969 4.04688
Q43.7031 -1.42188 29.9844 -1.42188
Q24.8125 -1.42188 18.9688 -0.25
Q13.1406 0.921875 6.89062 3.21875
L6.89062 13.375
Q12.8906 10.0156 18.6562 8.29688
Q24.4219 6.59375 29.9844 6.59375
Q38.4219 6.59375 43.0156 9.90625
Q47.6094 13.2344 47.6094 19.3906
Q47.6094 24.75 44.3125 27.7812
Q41.0156 30.8125 33.5 32.3281
L27.4844 33.5
Q16.4531 35.6875 11.5156 40.375
Q6.59375 45.0625 6.59375 53.4219
Q6.59375 63.0938 13.4062 68.6562
Q20.2188 74.2188 32.1719 74.2188
Q37.3125 74.2188 42.625 73.2812
Q47.9531 72.3594 53.5156 70.5156" id="DejaVuSans-53"/>
     <path d="
M9.42188 54.6875
L18.4062 54.6875
L18.4062 0
L9.42188 0
z

M9.42188 75.9844
L18.4062 75.9844
L18.4062 64.5938
L9.42188 64.5938
z
" id="DejaVuSans-69"/>
     <path d="
M37.1094 75.9844
L37.1094 68.5
L28.5156 68.5
Q23.6875 68.5 21.7969 66.5469
Q19.9219 64.5938 19.9219 59.5156
L19.9219 54.6875
L34.7188 54.6875
L34.7188 47.7031
L19.9219 47.7031
L19.9219 0
L10.8906 0
L10.8906 47.7031
L2.29688 47.7031
L2.29688 54.6875
L10.8906 54.6875
L10.8906 58.5
Q10.8906 67.625 15.1406 71.7969
Q19.3906 75.9844 28.6094 75.9844
z
" id="DejaVuSans-66"/>
     <path d="
M18.3125 70.2188
L18.3125 54.6875
L36.8125 54.6875
L36.8125 47.7031
L18.3125 47.7031
L18.3125 18.0156
Q18.3125 11.3281 20.1406 9.42188
Q21.9688 7.51562 27.5938 7.51562
L36.8125 7.51562
L36.8125 0
L27.5938 0
Q17.1875 0 13.2344 3.875
Q9.28125 7.76562 9.28125 18.0156
L9.28125 47.7031
L2.6875 47.7031
L2.6875 54.6875
L9.28125 54.6875
L9.28125 70.2188
z
" id="DejaVuSans-74"/>
     <path d="
M18.1094 8.20312
L18.1094 -20.7969
L9.07812 -20.7969
L9.07812 54.6875
L18.1094 54.6875
L18.1094 46.3906
Q20.9531 51.2656 25.2656 53.625
Q29.5938 56 35.5938 56
Q45.5625 56 51.7812 48.0938
Q58.0156 40.1875 58.0156 27.2969
Q58.0156 14.4062 51.7812 6.48438
Q45.5625 -1.42188 35.5938 -1.42188
Q29.5938 -1.42188 25.2656 0.953125
Q20.9531 3.32812 18.1094 8.20312
M48.6875 27.2969
Q48.6875 37.2031 44.6094 42.8438
Q40.5312 48.4844 33.4062 48.4844
Q26.2656 48.4844 22.1875 42.8438
Q18.1094 37.2031 18.1094 27.2969
Q18.1094 17.3906 22.1875 11.75
Q26.2656 6.10938 33.4062 6.10938
Q40.5312 6.10938 44.6094 11.75
Q48.6875 17.3906 48.6875 27.2969" id="DejaVuSans-70"/>
     <path d="
M44.2812 53.0781
L44.2812 44.5781
Q40.4844 46.5312 36.375 47.5
Q32.2812 48.4844 27.875 48.4844
Q21.1875 48.4844 17.8438 46.4375
Q14.5 44.3906 14.5 40.2812
Q14.5 37.1562 16.8906 35.375
Q19.2812 33.5938 26.5156 31.9844
L29.5938 31.2969
Q39.1562 29.25 43.1875 25.5156
Q47.2188 21.7812 47.2188 15.0938
Q47.2188 7.46875 41.1875 3.01562
Q35.1562 -1.42188 24.6094 -1.42188
Q20.2188 -1.42188 15.4531 -0.5625
Q10.6875 0.296875 5.42188 2
L5.42188 11.2812
Q10.4062 8.6875 15.2344 7.39062
Q20.0625 6.10938 24.8125 6.10938
Q31.1562 6.10938 34.5625 8.28125
Q37.9844 10.4531 37.9844 14.4062
Q37.9844 18.0625 35.5156 20.0156
Q33.0625 21.9688 24.7031 23.7812
L21.5781 24.5156
Q13.2344 26.2656 9.51562 29.9062
Q5.8125 33.5469 5.8125 39.8906
Q5.8125 47.6094 11.2812 51.7969
Q16.75 56 26.8125 56
Q31.7812 56 36.1719 55.2656
Q40.5781 54.5469 44.2812 53.0781" id="DejaVuSans-73"/>
     <path d="
M34.2812 27.4844
Q23.3906 27.4844 19.1875 25
Q14.9844 22.5156 14.9844 16.5
Q14.9844 11.7188 18.1406 8.90625
Q21.2969 6.10938 26.7031 6.10938
Q34.1875 6.10938 38.7031 11.4062
Q43.2188 16.7031 43.2188 25.4844
L43.2188 27.4844
z

M52.2031 31.2031
L52.2031 0
L43.2188 0
L43.2188 8.29688
Q40.1406 3.32812 35.5469 0.953125
Q30.9531 -1.42188 24.3125 -1.42188
Q15.9219 -1.42188 10.9531 3.29688
Q6 8.01562 6 15.9219
Q6 25.1406 12.1719 29.8281
Q18.3594 34.5156 30.6094 34.5156
L43.2188 34.5156
L43.2188 35.4062
Q43.2188 41.6094 39.1406 45
Q35.0625 48.3906 27.6875 48.3906
Q23 48.3906 18.5469 47.2656
Q14.1094 46.1406 10.0156 43.8906
L10.0156 52.2031
Q14.9375 54.1094 19.5781 55.0469
Q24.2188 56 28.6094 56
Q40.4844 56 46.3438 49.8438
Q52.2031 43.7031 52.2031 31.2031" id="DejaVuSans-61"/>
    </defs>
    <g transform="translate(159.580125 38.2)scale(0.144 -0.144)">
     <use xlink:href="#DejaVuSans-44"/>
     <use x="77.001953125" xlink:href="#DejaVuSans-69"/>
     <use x="104.78515625" xlink:href="#DejaVuSans-73"/>
     <use x="156.884765625" xlink:href="#DejaVuSans-70"/>
     <use x="220.361328125" xlink:href="#DejaVuSans-65"/>
     <use x="281.884765625" xlink:href="#DejaVuSans-72"/>
     <use x="322.998046875" xlink:href="#DejaVuSans-73"/>
     <use x="375.09765625" xlink:href="#DejaVuSans-69"/>
     <use x="402.880859375" xlink:href="#DejaVuSans-6f"/>
     <use x="464.0625" xlink:href="#DejaVuSans-6e"/>
     <use x="527.44140625" xlink:href="#DejaVuSans-20"/>
     <use x="559.228515625" xlink:href="#DejaVuSans-72"/>
     <use x="598.091796875" xlink:href="#DejaVuSans-65"/>
     <use x="659.615234375" xlink:href="#DejaVuSans-6c"/>
     <use x="687.3984375" xlink:href="#DejaVuSans-61"/>
     <use x="748.677734375" xlink:href="#DejaVuSans-74"/>
     <use x="787.88671875" xlink:href="#DejaVuSans-69"/>
     <use x="815.669921875" xlink:href="#DejaVuSans-6f"/>
     <use x="876.8515625" xlink:href="#DejaVuSans-6e"/>
     <use x="940.23046875" xlink:href="#DejaVuSans-73"/>
     <use x="992.330078125" xlink:href="#DejaVuSans-20"/>
     <use x="1024.1171875" xlink:href="#DejaVuSans-66"/>
     <use x="1059.32226562" xlink:href="#DejaVuSans-6f"/>
     <use x="1120.50390625" xlink:href="#DejaVuSans-72"/>
     <use x="1161.6171875" xlink:href="#DejaVuSans-20"/>
     <use x="1193.40429688" xlink:href="#DejaVuSans-53"/>
     <use x="1256.88085938" xlink:href="#DejaVuSans-71"/>
     <use x="1320.35742188" xlink:href="#DejaVuSans-75"/>
     <use x="1383.73632812" xlink:href="#DejaVuSans-61"/>
     <use x="1445.015625" xlink:href="#DejaVuSans-72"/>
     <use x="1483.87890625" xlink:href="#DejaVuSans-65"/>
     <use x="1545.40234375" xlink:href="#DejaVuSans-20"/>
     <use x="1577.18945312" xlink:href="#DejaVuSans-6c"/>
     <use x="1604.97265625" xlink:href="#DejaVuSans-61"/>
     <use x="1666.25195312" xlink:href="#DejaVuSans-74"/>
     <use x="1705.4609375" xlink:href="#DejaVuSans-74"/>
     <use x="1744.66992188" xlink:href="#DejaVuSans-69"/>
     <use x="1772.453125" xlink:href="#DejaVuSans-63"/>
     <use x="1827.43359375" xlink:href="#DejaVuSans-65"/>
    </g>
   </g>
  </g>
 </g>
 <defs>
  <clipPath id="p7ff5b81e1d">
   <rect height="345.6" width="446.4" x="72.0" y="43.2"/>
  </clipPath>
 </defs>
</svg>
