<?xml version="1.0" encoding="utf-8" standalone="no"?>
<!DOCTYPE svg PUBLIC "-//W3C//DTD SVG 1.1//EN"
  "http://www.w3.org/Graphics/SVG/1.1/DTD/svg11.dtd">
<!-- Created with matplotlib (http://matplotlib.sourceforge.net/) -->
<svg height="432pt" version="1.1" viewBox="0 0 576 432" width="576pt" xmlns="http://www.w3.org/2000/svg" xmlns:xlink="http://www.w3.org/1999/xlink">
 <defs>
  <style type="text/css">
*{stroke-linecap:square;stroke-linejoin:round;}
  </style>
 </defs>
 <g id="figure_1">
  <g id="patch_1">
   <path d="
M0 432
L576 432
L576 0
L0 0
z
" style="fill:#ffffff;"/>
  </g>
  <g id="axes_1">
   <g id="patch_2">
    <path d="
M72 388.8
L518.4 388.8
L518.4 43.2
L72 43.2
z
" style="fill:#ffffff;"/>
   </g>
   <g id="line2d_1">
    <path clip-path="url(#p7ff5b81e1d)" d="
M72 356.984
L76.8522 356.781
L81.7043 356.178
L86.5565 355.198
L91.4087 353.873
L96.2609 352.239
L101.113 350.336
L105.965 348.202
L110.817 345.872
L115.67 343.376
L120.522 340.739
L125.374 337.984
L130.226 335.128
L135.078 332.188
L139.93 329.176
L144.783 326.102
L149.635 322.974
L154.487 319.802
L159.339 316.59
L164.191 313.343
L169.043 310.067
L173.896 306.765
L178.748 303.44
L183.6 300.095
L188.452 296.733
L193.304 293.356
L198.157 289.967
L203.009 286.567
L207.861 283.16
L212.713 279.749
L217.565 276.339
L222.417 276.339
L227.27 276.241
L232.122 276.031
L236.974 275.709
L241.826 275.276
L246.678 274.733
L251.53 274.082
L256.383 273.324
L261.235 272.461
L266.087 271.497
L270.939 270.435
L275.791 269.277
L280.643 268.029
L285.496 266.696
L290.348 265.287
L295.2 263.821
L300.052 262.341
L304.904 261.005
L309.757 260.312
L314.609 260.429
L319.461 260.848
L324.313 261.35
L329.165 261.883
L334.017 262.43
L338.87 262.985
L343.722 263.548
L348.574 264.119
L353.426 264.699
L358.278 265.289
L363.13 265.891
L367.983 266.505
L372.835 265.205
L377.687 263.798
L382.539 262.313
L387.391 260.84
L392.243 260.013
L397.096 262.779
L401.948 267.373
L406.8 272.185
L411.652 277.039
L416.504 281.895
L421.357 286.741
L426.209 291.568
L431.061 296.37
L435.913 301.141
L440.765 305.874
L445.617 310.562
L450.47 315.196
L455.322 319.763
L460.174 324.251
L465.026 328.64
L469.878 332.907
L474.73 337.023
L479.583 340.949
L484.435 344.632
L489.287 348.007
L494.139 350.992
L498.991 353.488
L503.843 355.385
L508.696 356.577
L513.548 356.984" style="fill:none;stroke:#0000ff;"/>
   </g>
   <g id="line2d_2">
    <path clip-path="url(#p7ff5b81e1d)" d="
M72 356.984
L76.8522 356.781
L81.7043 356.178
L86.5565 355.198
L91.4087 353.873
L96.2609 352.239
L101.113 350.336
L105.965 348.202
L110.817 345.872
L115.67 343.376
L120.522 340.739
L125.374 337.984
L130.226 335.128
L135.078 332.188
L139.93 329.176
L144.783 326.102
L149.635 322.974
L154.487 319.802
L159.339 316.59
L164.191 313.343
L169.043 310.067
L173.896 306.765
L178.748 303.44
L183.6 300.095
L188.452 296.733
L193.304 293.356
L198.157 289.967
L203.009 286.567
L207.861 283.16
L212.713 279.749
L217.565 276.339
L222.417 276.339
L227.27 276.241
L232.122 276.031
L236.974 275.709
L241.826 275.276
L246.678 274.733
L251.53 274.082
L256.383 273.324
L261.235 272.461
L266.087 271.497
L270.939 270.435
L275.791 269.277
L280.643 268.029
L285.496 266.696
L290.348 265.287
L295.2 263.821
L300.052 262.341
L304.904 261.005
L309.757 260.312
L314.609 260.429
L319.461 260.848
L324.313 261.35
L329.165 261.883
L334.017 262.43
L338.87 262.985
L343.722 263.548
L348.574 264.119
L353.426 264.699
L358.278 265.289
L363.13 265.891
L367.983 266.505
L372.835 265.205
L377.687 263.798
L382.539 262.313
L387.391 260.84
L392.243 260.013
L397.096 262.779
L401.948 267.373
L406.8 272.185
L411.652 277.039
L416.504 281.895
L421.357 286.741
L426.209 291.568
L431.061 296.37
L435.913 301.141
L440.765 305.874
L445.617 310.562
L450.47 315.196
L455.322 319.763
L460.174 324.251
L465.026 328.64
L469.878 332.907
L474.73 337.023
L479.583 340.949
L484.435 344.632
L489.287 348.007
L494.139 350.992
L498.991 353.488
L503.843 355.385
L508.696 356.577
L513.548 356.984" style="fill:none;stroke:#008000;"/>
   </g>
   <g id="line2d_3">
    <path clip-path="url(#p7ff5b81e1d)" d="
M72 222.417
L76.8522 222.426
L81.7043 222.451
L86.5565 222.493
L91.4087 222.55
L96.2609 222.622
L101.113 222.706
L105.965 222.801
L110.817 222.907
L115.67 223.02
L120.522 223.139
L125.374 223.265
L130.226 223.396
L135.078 223.534
L139.93 223.682
L144.783 223.847
L149.635 224.041
L154.487 224.286
L159.339 224.622
L164.191 225.114
L169.043 225.861
L173.896 226.982
L178.748 228.538
L183.6 230.483
L188.452 232.704
L193.304 235.095
L198.157 237.581
L203.009 240.115
L207.861 242.668
L212.713 245.218
L217.565 247.75
L222.417 247.75
L227.27 248.257
L232.122 248.811
L236.974 249.404
L241.826 250.029
L246.678 250.678
L251.53 251.344
L256.383 252.022
L261.235 252.705
L266.087 253.388
L270.939 254.067
L275.791 254.738
L280.643 255.397
L285.496 256.038
L290.348 256.654
L295.2 257.23
L300.052 257.723
L304.904 257.981
L309.757 257.507
L314.609 256.138
L319.461 254.389
L324.313 252.48
L329.165 250.471
L334.017 248.383
L338.87 246.226
L343.722 244.008
L348.574 241.732
L353.426 239.402
L358.278 237.022
L363.13 234.595
L367.983 232.123
L372.835 237.099
L377.687 242.05
L382.539 246.955
L387.391 251.732
L392.243 255.754
L397.096 256.083
L401.948 254.493
L406.8 252.604
L411.652 250.604
L416.504 248.541
L421.357 246.441
L426.209 244.325
L431.061 242.213
L435.913 240.123
L440.765 238.077
L445.617 236.094
L450.47 234.196
L455.322 232.403
L460.174 230.734
L465.026 229.206
L469.878 227.832
L474.73 226.62
L479.583 225.573
L484.435 224.689
L489.287 223.965
L494.139 223.39
L498.991 222.956
L503.843 222.654
L508.696 222.476
L513.548 222.417" style="fill:none;stroke:#ff0000;"/>
   </g>
   <g id="line2d_4">
    <path clip-path="url(#p7ff5b81e1d)" d="
M72 222.417
L76.8522 222.426
L81.7043 222.451
L86.5565 222.493
L91.4087 222.55
L96.2609 222.622
L101.113 222.706
L105.965 222.801
L110.817 222.907
L115.67 223.02
L120.522 223.139
L125.374 223.265
L130.226 223.396
L135.078 223.534
L139.93 223.682
L144.783 223.847
L149.635 224.041
L154.487 224.286
L159.339 224.622
L164.191 225.114
L169.043 225.861
L173.896 226.982
L178.748 228.538
L183.6 230.483
L188.452 232.704
L193.304 235.095
L198.157 237.581
L203.009 240.115
L207.861 242.668
L212.713 245.218
L217.565 247.75
L222.417 247.75
L227.27 248.257
L232.122 248.811
L236.974 249.404
L241.826 250.029
L246.678 250.678
L251.53 251.344
L256.383 252.022
L261.235 252.705
L266.087 253.388
L270.939 254.067
L275.791 254.738
L280.643 255.397
L285.496 256.038
L290.348 256.654
L295.2 257.23
L300.052 257.723
L304.904 257.981
L309.757 257.507
L314.609 256.138
L319.461 254.389
L324.313 252.48
L329.165 250.471
L334.017 248.383
L338.87 246.226
L343.722 244.008
L348.574 241.732
L353.426 239.402
L358.278 237.022
L363.13 234.595
L367.983 232.123
L372.835 237.099
L377.687 242.05
L382.539 246.955
L387.391 251.732
L392.243 255.754
L397.096 256.083
L401.948 254.493
L406.8 252.604
L411.652 250.604
L416.504 248.541
L421.357 246.441
L426.209 244.325
L431.061 242.213
L435.913 240.123
L440.765 238.077
L445.617 236.094
L450.47 234.196
L455.322 232.403
L460.174 230.734
L465.026 229.206
L469.878 227.832
L474.73 226.62
L479.583 225.573
L484.435 224.689
L489.287 223.965
L494.139 223.39
L498.991 222.956
L503.843 222.654
L508.696 222.476
L513.548 222.417" style="fill:none;stroke:#00bfbf;"/>
   </g>
   <g id="line2d_5">
    <path clip-path="url(#p7ff5b81e1d)" d="
M72 171.685
L76.8522 171.858
L81.7043 172.399
L86.5565 173.359
L91.4087 174.77
L96.2609 176.601
L101.113 178.767
L105.965 181.175
L110.817 183.746
L115.67 186.426
L120.522 189.175
L125.374 191.967
L130.226 194.78
L135.078 197.597
L139.93 200.404
L144.783 203.183
L149.635 205.913
L154.487 208.566
L159.339 211.094
L164.191 213.427
L169.043 215.458
L173.896 217.067
L178.748 218.184
L183.6 218.853
L188.452 219.181
L193.304 219.271
L198.157 219.193
L203.009 218.988
L207.861 218.682
L212.713 218.29
L217.565 217.822
L222.417 217.822
L227.27 217.516
L232.122 217.152
L236.974 216.739
L241.826 216.289
L246.678 215.812
L251.53 215.319
L256.383 214.823
L261.235 214.332
L266.087 213.859
L270.939 213.413
L275.791 213.003
L280.643 212.638
L285.496 212.326
L290.348 212.073
L295.2 211.883
L300.052 211.758
L304.904 211.701
L309.757 211.708
L314.609 211.778
L319.461 211.904
L324.313 212.078
L329.165 212.294
L334.017 212.539
L338.87 212.804
L343.722 213.076
L348.574 213.345
L353.426 213.599
L358.278 213.827
L363.13 214.018
L367.983 214.163
L372.835 213.873
L377.687 213.475
L382.539 212.967
L387.391 212.35
L392.243 211.623
L397.096 210.788
L401.948 209.844
L406.8 208.794
L411.652 207.638
L416.504 206.379
L421.357 205.019
L426.209 203.56
L431.061 202.006
L435.913 200.359
L440.765 198.624
L445.617 196.806
L450.47 194.909
L455.322 192.94
L460.174 190.907
L465.026 188.817
L469.878 186.684
L474.73 184.522
L479.583 182.353
L484.435 180.204
L489.287 178.117
L494.139 176.153
L498.991 174.397
L503.843 172.97
L508.696 172.021
L513.548 171.685" style="fill:none;stroke:#bf00bf;"/>
   </g>
   <g id="line2d_6">
    <path clip-path="url(#p7ff5b81e1d)" d="
M72 171.685
L76.8522 171.858
L81.7043 172.399
L86.5565 173.359
L91.4087 174.77
L96.2609 176.601
L101.113 178.767
L105.965 181.175
L110.817 183.746
L115.67 186.426
L120.522 189.175
L125.374 191.967
L130.226 194.78
L135.078 197.597
L139.93 200.404
L144.783 203.183
L149.635 205.913
L154.487 208.566
L159.339 211.094
L164.191 213.427
L169.043 215.458
L173.896 217.067
L178.748 218.184
L183.6 218.853
L188.452 219.181
L193.304 219.271
L198.157 219.193
L203.009 218.988
L207.861 218.682
L212.713 218.29
L217.565 217.822
L222.417 217.822
L227.27 217.516
L232.122 217.152
L236.974 216.739
L241.826 216.289
L246.678 215.812
L251.53 215.319
L256.383 214.823
L261.235 214.332
L266.087 213.859
L270.939 213.413
L275.791 213.003
L280.643 212.638
L285.496 212.326
L290.348 212.073
L295.2 211.883
L300.052 211.758
L304.904 211.701
L309.757 211.708
L314.609 211.778
L319.461 211.904
L324.313 212.078
L329.165 212.294
L334.017 212.539
L338.87 212.804
L343.722 213.076
L348.574 213.345
L353.426 213.599
L358.278 213.827
L363.13 214.018
L367.983 214.163
L372.835 213.873
L377.687 213.475
L382.539 212.967
L387.391 212.35
L392.243 211.623
L397.096 210.788
L401.948 209.844
L406.8 208.794
L411.652 207.638
L416.504 206.379
L421.357 205.019
L426.209 203.56
L431.061 202.006
L435.913 200.359
L440.765 198.624
L445.617 196.806
L450.47 194.909
L455.322 192.94
L460.174 190.907
L465.026 188.817
L469.878 186.684
L474.73 184.522
L479.583 182.353
L484.435 180.204
L489.287 178.117
L494.139 176.153
L498.991 174.397
L503.843 172.97
L508.696 172.021
L513.548 171.685" style="fill:none;stroke:#bfbf00;"/>
   </g>
   <g id="line2d_7">
    <path clip-path="url(#p7ff5b81e1d)" d="
M72 159.419
L76.8522 159.772
L81.7043 160.626
L86.5565 161.598
L91.4087 162.412
L96.2609 162.958
L101.113 163.238
L105.965 163.302
L110.817 163.198
L115.67 162.961
L120.522 162.616
L125.374 162.18
L130.226 161.662
L135.078 161.071
L139.93 160.411
L144.783 159.687
L149.635 158.9
L154.487 158.053
L159.339 157.148
L164.191 156.188
L169.043 155.172
L173.896 154.103
L178.748 152.981
L183.6 151.809
L188.452 150.588
L193.304 149.318
L198.157 148.002
L203.009 146.64
L207.861 145.235
L212.713 143.787
L217.565 142.3
L222.417 142.3
L227.27 141.798
L232.122 141.567
L236.974 141.602
L241.826 141.877
L246.678 142.351
L251.53 142.977
L256.383 143.709
L261.235 144.502
L266.087 145.316
L270.939 146.12
L275.791 146.884
L280.643 147.584
L285.496 148.201
L290.348 148.718
L295.2 149.124
L300.052 149.407
L304.904 149.562
L309.757 149.585
L314.609 149.478
L319.461 149.245
L324.313 148.898
L329.165 148.457
L334.017 147.974
L338.87 147.576
L343.722 147.566
L348.574 148.207
L353.426 149.288
L358.278 150.551
L363.13 151.89
L367.983 153.266
L372.835 150.568
L377.687 148.418
L382.539 148.68
L387.391 150.712
L392.243 152.987
L397.096 155.246
L401.948 157.427
L406.8 159.507
L411.652 161.47
L416.504 163.301
L421.357 164.987
L426.209 166.516
L431.061 167.874
L435.913 169.045
L440.765 170.015
L445.617 170.767
L450.47 171.285
L455.322 171.556
L460.174 171.566
L465.026 171.306
L469.878 170.773
L474.73 169.97
L479.583 168.908
L484.435 167.61
L489.287 166.11
L494.139 164.464
L498.991 162.76
L503.843 161.151
L508.696 159.908
L513.548 159.419" style="fill:none;stroke:#000000;"/>
   </g>
   <g id="line2d_8">
    <path clip-path="url(#p7ff5b81e1d)" d="
M72 159.419
L76.8522 159.772
L81.7043 160.626
L86.5565 161.598
L91.4087 162.412
L96.2609 162.958
L101.113 163.238
L105.965 163.302
L110.817 163.198
L115.67 162.961
L120.522 162.616
L125.374 162.18
L130.226 161.662
L135.078 161.071
L139.93 160.411
L144.783 159.687
L149.635 158.9
L154.487 158.053
L159.339 157.148
L164.191 156.188
L169.043 155.172
L173.896 154.103
L178.748 152.981
L183.6 151.809
L188.452 150.588
L193.304 149.318
L198.157 148.002
L203.009 146.64
L207.861 145.235
L212.713 143.787
L217.565 142.3
L222.417 142.3
L227.27 141.798
L232.122 141.567
L236.974 141.602
L241.826 141.877
L246.678 142.351
L251.53 142.977
L256.383 143.709
L261.235 144.502
L266.087 145.316
L270.939 146.12
L275.791 146.884
L280.643 147.584
L285.496 148.201
L290.348 148.718
L295.2 149.124
L300.052 149.407
L304.904 149.562
L309.757 149.585
L314.609 149.478
L319.461 149.245
L324.313 148.898
L329.165 148.457
L334.017 147.974
L338.87 147.576
L343.722 147.566
L348.574 148.207
L353.426 149.288
L358.278 150.551
L363.13 151.89
L367.983 153.266
L372.835 150.568
L377.687 148.418
L382.539 148.68
L387.391 150.712
L392.243 152.987
L397.096 155.246
L401.948 157.427
L406.8 159.507
L411.652 161.47
L416.504 163.301
L421.357 164.987
L426.209 166.516
L431.061 167.874
L435.913 169.045
L440.765 170.015
L445.617 170.767
L450.47 171.285
L455.322 171.556
L460.174 171.566
L465.026 171.306
L469.878 170.773
L474.73 169.97
L479.583 168.908
L484.435 167.61
L489.287 166.11
L494.139 164.464
L498.991 162.76
L503.843 161.151
L508.696 159.908
L513.548 159.419" style="fill:none;stroke:#0000ff;"/>
   </g>
   <g id="line2d_9">
    <path clip-path="url(#p7ff5b81e1d)" d="
M72 146.228
L76.8522 146.172
L81.7043 146.007
L86.5565 145.732
L91.4087 145.35
L96.2609 144.863
L101.113 144.273
L105.965 143.584
L110.817 142.798
L115.67 141.921
L120.522 140.956
L125.374 139.907
L130.226 138.778
L135.078 137.574
L139.93 136.299
L144.783 134.958
L149.635 133.556
L154.487 132.095
L159.339 130.582
L164.191 129.022
L169.043 127.418
L173.896 125.778
L178.748 124.106
L183.6 122.41
L188.452 120.698
L193.304 118.98
L198.157 117.267
L203.009 115.577
L207.861 113.929
L212.713 112.353
L217.565 110.894
L222.417 110.894
L227.27 111.78
L232.122 112.83
L236.974 114.037
L241.826 115.347
L246.678 116.716
L251.53 118.119
L256.383 119.542
L261.235 120.978
L266.087 122.422
L270.939 123.87
L275.791 125.321
L280.643 126.772
L285.496 128.223
L290.348 129.671
L295.2 131.117
L300.052 132.559
L304.904 133.996
L309.757 135.426
L314.609 136.846
L319.461 138.251
L324.313 139.633
L329.165 140.974
L334.017 142.229
L338.87 143.277
L343.722 143.824
L348.574 143.612
L353.426 142.864
L358.278 141.843
L363.13 140.665
L367.983 139.376
L372.835 141.932
L377.687 143.872
L382.539 143.334
L387.391 140.964
L392.243 138.294
L397.096 135.593
L401.948 132.929
L406.8 130.343
L411.652 127.869
L416.504 125.544
L421.357 123.418
L426.209 121.546
L431.061 119.999
L435.913 118.858
L440.765 118.209
L445.617 118.12
L450.47 118.628
L455.322 119.717
L460.174 121.323
L465.026 123.351
L469.878 126.236
L474.73 129.45
L479.583 132.546
L484.435 135.496
L489.287 138.26
L494.139 140.778
L498.991 142.964
L503.843 144.698
L508.696 145.831
L513.548 146.228" style="fill:none;stroke:#008000;"/>
   </g>
   <g id="line2d_10">
    <path clip-path="url(#p7ff5b81e1d)" d="
M72 146.228
L76.8522 146.172
L81.7043 146.007
L86.5565 145.732
L91.4087 145.35
L96.2609 144.863
L101.113 144.273
L105.965 143.584
L110.817 142.798
L115.67 141.921
L120.522 140.956
L125.374 139.907
L130.226 138.778
L135.078 137.574
L139.93 136.299
L144.783 134.958
L149.635 133.556
L154.487 132.095
L159.339 130.582
L164.191 129.022
L169.043 127.418
L173.896 125.778
L178.748 124.106
L183.6 122.41
L188.452 120.698
L193.304 118.98
L198.157 117.267
L203.009 115.577
L207.861 113.929
L212.713 112.353
L217.565 110.894
L222.417 110.894
L227.27 111.78
L232.122 112.83
L236.974 114.037
L241.826 115.347
L246.678 116.716
L251.53 118.119
L256.383 119.542
L261.235 120.978
L266.087 122.422
L270.939 123.87
L275.791 125.321
L280.643 126.772
L285.496 128.223
L290.348 129.671
L295.2 131.117
L300.052 132.559
L304.904 133.996
L309.757 135.426
L314.609 136.846
L319.461 138.251
L324.313 139.633
L329.165 140.974
L334.017 142.229
L338.87 143.277
L343.722 143.824
L348.574 143.612
L353.426 142.864
L358.278 141.843
L363.13 140.665
L367.983 139.376
L372.835 141.932
L377.687 143.872
L382.539 143.334
L387.391 140.964
L392.243 138.294
L397.096 135.593
L401.948 132.929
L406.8 130.343
L411.652 127.869
L416.504 125.544
L421.357 123.418
L426.209 121.546
L431.061 119.999
L435.913 118.858
L440.765 118.209
L445.617 118.12
L450.47 118.628
L455.322 119.717
L460.174 121.323
L465.026 123.351
L469.878 126.236
L474.73 129.45
L479.583 132.546
L484.435 135.496
L489.287 138.26
L494.139 140.778
L498.991 142.964
L503.843 144.698
L508.696 145.831
L513.548 146.228" style="fill:none;stroke:#ff0000;"/>
   </g>
   <g id="line2d_11">
    <path clip-path="url(#p7ff5b81e1d)" d="
M72 146.228
L76.8522 145.681
L81.7043 144.222
L86.5565 142.182
L91.4087 139.809
L96.2609 137.246
L101.113 134.574
L105.965 131.845
L110.817 129.09
L115.67 126.337
L120.522 123.607
L125.374 120.921
L130.226 118.3
L135.078 115.77
L139.93 113.358
L144.783 111.093
L149.635 109.01
L154.487 107.143
L159.339 105.524
L164.191 104.176
L169.043 103.116
L173.896 102.344
L178.748 101.852
L183.6 101.63
L188.452 101.665
L193.304 101.954
L198.157 102.501
L203.009 103.315
L207.861 104.403
L212.713 105.752
L217.565 107.322
L222.417 107.322
L227.27 107.972
L232.122 108.133
L236.974 107.81
L241.826 107.077
L246.678 106.012
L251.53 104.684
L256.383 103.154
L261.235 101.476
L266.087 99.7
L270.939 97.8731
L275.791 96.0448
L280.643 94.268
L285.496 92.6003
L290.348 91.1008
L295.2 89.8208
L300.052 88.7916
L304.904 88.0186
L309.757 87.4857
L314.609 87.1663
L319.461 87.0324
L324.313 87.0589
L329.165 87.2248
L334.017 87.5124
L338.87 87.9069
L343.722 88.3951
L348.574 88.9655
L353.426 89.6074
L358.278 90.3112
L363.13 91.0678
L367.983 91.869
L372.835 90.218
L377.687 88.5521
L382.539 86.8791
L387.391 85.213
L392.243 83.5838
L397.096 82.0709
L401.948 80.946
L406.8 81.1682
L411.652 83.5456
L416.504 86.9148
L421.357 90.5484
L426.209 94.2531
L431.061 97.9673
L435.913 101.665
L440.765 105.332
L445.617 108.96
L450.47 112.541
L455.322 116.068
L460.174 119.532
L465.026 122.925
L469.878 125.699
L474.73 128.272
L479.583 130.988
L484.435 133.774
L489.287 136.56
L494.139 139.272
L498.991 141.811
L503.843 144.017
L508.696 145.619
L513.548 146.228" style="fill:none;stroke:#00bfbf;"/>
   </g>
   <g id="line2d_12">
    <path clip-path="url(#p7ff5b81e1d)" d="
M72 146.228
L76.8522 145.681
L81.7043 144.222
L86.5565 142.182
L91.4087 139.809
L96.2609 137.246
L101.113 134.574
L105.965 131.845
L110.817 129.09
L115.67 126.337
L120.522 123.607
L125.374 120.921
L130.226 118.3
L135.078 115.77
L139.93 113.358
L144.783 111.093
L149.635 109.01
L154.487 107.143
L159.339 105.524
L164.191 104.176
L169.043 103.116
L173.896 102.344
L178.748 101.852
L183.6 101.63
L188.452 101.665
L193.304 101.954
L198.157 102.501
L203.009 103.315
L207.861 104.403
L212.713 105.752
L217.565 107.322
L222.417 107.322
L227.27 107.972
L232.122 108.133
L236.974 107.81
L241.826 107.077
L246.678 106.012
L251.53 104.684
L256.383 103.154
L261.235 101.476
L266.087 99.7
L270.939 97.8731
L275.791 96.0448
L280.643 94.268
L285.496 92.6003
L290.348 91.1008
L295.2 89.8208
L300.052 88.7916
L304.904 88.0186
L309.757 87.4857
L314.609 87.1663
L319.461 87.0324
L324.313 87.0589
L329.165 87.2248
L334.017 87.5124
L338.87 87.9069
L343.722 88.3951
L348.574 88.9655
L353.426 89.6074
L358.278 90.3112
L363.13 91.0678
L367.983 91.869
L372.835 90.218
L377.687 88.5521
L382.539 86.8791
L387.391 85.213
L392.243 83.5838
L397.096 82.0709
L401.948 80.946
L406.8 81.1682
L411.652 83.5456
L416.504 86.9148
L421.357 90.5484
L426.209 94.2531
L431.061 97.9673
L435.913 101.665
L440.765 105.332
L445.617 108.96
L450.47 112.541
L455.322 116.068
L460.174 119.532
L465.026 122.925
L469.878 125.699
L474.73 128.272
L479.583 130.988
L484.435 133.774
L489.287 136.56
L494.139 139.272
L498.991 141.811
L503.843 144.017
L508.696 145.619
L513.548 146.228" style="fill:none;stroke:#bf00bf;"/>
   </g>
   <g id="line2d_13">
    <path clip-path="url(#p7ff5b81e1d)" d="
M72 74.9869
L76.8522 75.0029
L81.7043 75.0505
L86.5565 75.128
L91.4087 75.2328
L96.2609 75.3609
L101.113 75.5073
L105.965 75.6655
L110.817 75.8276
L115.67 75.9839
L120.522 76.1231
L125.374 76.2314
L130.226 76.2932
L135.078 76.2909
L139.93 76.2065
L144.783 76.0254
L149.635 75.7473
L154.487 75.4158
L159.339 75.2009
L164.191 75.5206
L169.043 76.7028
L173.896 78.4639
L178.748 80.4505
L183.6 82.4892
L188.452 84.4906
L193.304 86.3909
L198.157 88.1314
L203.009 89.6539
L207.861 90.9063
L212.713 91.851
L217.565 92.4671
L222.417 92.4671
L227.27 91.4938
L232.122 90.5217
L236.974 89.5591
L241.826 88.6107
L246.678 87.6791
L251.53 86.7646
L256.383 85.8653
L261.235 84.9763
L266.087 84.089
L270.939 83.1896
L275.791 82.2574
L280.643 81.2632
L285.496 80.1697
L290.348 78.9349
L295.2 77.5227
L300.052 75.9147
L304.904 74.1168
L309.757 72.1549
L314.609 70.0636
L319.461 67.8778
L324.313 65.6282
L329.165 63.3398
L334.017 61.0333
L338.87 58.7255
L343.722 56.4299
L348.574 54.158
L353.426 51.9191
L358.278 49.7221
L363.13 47.6203
L367.983 47.8186
L372.835 49.549
L377.687 53.6413
L382.539 57.693
L387.391 61.6895
L392.243 65.6002
L397.096 69.3453
L401.948 72.6528
L406.8 74.5633
L411.652 74.2684
L416.504 72.9315
L421.357 71.2797
L426.209 70.7669
L431.061 73.4653
L435.913 75.8138
L440.765 77.7326
L445.617 79.1569
L450.47 80.0586
L455.322 80.4611
L460.174 80.4362
L465.026 80.0844
L469.878 79.5119
L474.73 78.8141
L479.583 78.0695
L484.435 77.3384
L489.287 76.6656
L494.139 76.0828
L498.991 75.612
L503.843 75.2672
L508.696 75.0573
L513.548 74.9869" style="fill:none;stroke:#bfbf00;"/>
   </g>
   <g id="line2d_14">
    <path clip-path="url(#p7ff5b81e1d)" d="
M72 74.9869
L76.8522 75.0029
L81.7043 75.0505
L86.5565 75.128
L91.4087 75.2328
L96.2609 75.3609
L101.113 75.5073
L105.965 75.6655
L110.817 75.8276
L115.67 75.9839
L120.522 76.1231
L125.374 76.2314
L130.226 76.2932
L135.078 76.2909
L139.93 76.2065
L144.783 76.0254
L149.635 75.7473
L154.487 75.4158
L159.339 75.2009
L164.191 75.5206
L169.043 76.7028
L173.896 78.4639
L178.748 80.4505
L183.6 82.4892
L188.452 84.4906
L193.304 86.3909
L198.157 88.1314
L203.009 89.6539
L207.861 90.9063
L212.713 91.851
L217.565 92.4671
L222.417 92.4671
L227.27 91.4938
L232.122 90.5217
L236.974 89.5591
L241.826 88.6107
L246.678 87.6791
L251.53 86.7646
L256.383 85.8653
L261.235 84.9763
L266.087 84.089
L270.939 83.1896
L275.791 82.2574
L280.643 81.2632
L285.496 80.1697
L290.348 78.9349
L295.2 77.5227
L300.052 75.9147
L304.904 74.1168
L309.757 72.1549
L314.609 70.0636
L319.461 67.8778
L324.313 65.6282
L329.165 63.3398
L334.017 61.0333
L338.87 58.7255
L343.722 56.4299
L348.574 54.158
L353.426 51.9191
L358.278 49.7221
L363.13 47.6203
L367.983 47.8186
L372.835 49.549
L377.687 53.6413
L382.539 57.693
L387.391 61.6895
L392.243 65.6002
L397.096 69.3453
L401.948 72.6528
L406.8 74.5633
L411.652 74.2684
L416.504 72.9315
L421.357 71.2797
L426.209 70.7669
L431.061 73.4653
L435.913 75.8138
L440.765 77.7326
L445.617 79.1569
L450.47 80.0586
L455.322 80.4611
L460.174 80.4362
L465.026 80.0844
L469.878 79.5119
L474.73 78.8141
L479.583 78.0695
L484.435 77.3384
L489.287 76.6656
L494.139 76.0828
L498.991 75.612
L503.843 75.2672
L508.696 75.0573
L513.548 74.9869" style="fill:none;stroke:#000000;"/>
   </g>
   <g id="line2d_15">
    <path clip-path="url(#p7ff5b81e1d)" d="
M72 43.2
L76.8522 43.2764
L81.7043 43.5091
L86.5565 43.9086
L91.4087 44.49
L96.2609 45.27
L101.113 46.2617
L105.965 47.4701
L110.817 48.8888
L115.67 50.5005
L120.522 52.28
L125.374 54.1982
L130.226 56.2254
L135.078 58.3322
L139.93 60.489
L144.783 62.6614
L149.635 64.8009
L154.487 66.816
L159.339 68.4931
L164.191 69.3783
L169.043 69.12
L173.896 67.99
L178.748 66.3398
L183.6 64.3454
L188.452 62.0967
L193.304 59.6498
L198.157 57.0452
L203.009 54.3136
L207.861 51.4794
L212.713 48.5621
L217.565 48.4362
L222.417 48.4362
L227.27 48.3787
L232.122 48.272
L236.974 48.1179
L241.826 47.9187
L246.678 47.6773
L251.53 47.3968
L256.383 47.0812
L261.235 46.7351
L266.087 46.3649
L270.939 45.9821
L275.791 45.6133
L280.643 45.3167
L285.496 45.1344
L290.348 45.0287
L295.2 44.9616
L300.052 44.9185
L304.904 44.8943
L309.757 44.8874
L314.609 44.8975
L319.461 44.9255
L324.313 44.9737
L329.165 45.0458
L334.017 45.1478
L338.87 45.2878
L343.722 45.4774
L348.574 45.7308
L353.426 46.066
L358.278 46.5021
L363.13 47.0145
L367.983 45.4251
L372.835 46.3656
L377.687 45.2771
L382.539 44.9462
L387.391 45.9562
L392.243 48.2727
L397.096 51.2785
L401.948 54.5661
L406.8 57.9483
L411.652 61.3258
L416.504 64.6294
L421.357 67.7977
L426.209 69.5068
L431.061 67.6747
L435.913 65.81
L440.765 63.9276
L445.617 62.0381
L450.47 60.151
L455.322 58.2758
L460.174 56.4232
L465.026 54.6055
L469.878 52.8374
L474.73 51.1366
L479.583 49.5242
L484.435 48.0256
L489.287 46.6699
L494.139 45.4903
L498.991 44.5218
L503.843 43.799
L508.696 43.3516
L513.548 43.2" style="fill:none;stroke:#0000ff;"/>
   </g>
   <g id="line2d_16">
    <path clip-path="url(#p7ff5b81e1d)" d="
M217.565 388.8
L217.565 43.2" style="fill:none;stroke:#0000ff;"/>
   </g>
   <g id="line2d_17">
    <path clip-path="url(#p7ff5b81e1d)" d="
M367.983 388.8
L367.983 43.2" style="fill:none;stroke:#0000ff;"/>
   </g>
   <g id="line2d_18">
    <path clip-path="url(#p7ff5b81e1d)" d="
M518.4 388.8
L518.4 43.2" style="fill:none;stroke:#0000ff;"/>
   </g>
   <g id="matplotlib.axis_1">
    <g id="xtick_1">
     <g id="line2d_19">
      <defs>
       <path d="
M0 0
L0 -4" id="m0012dd4eef" style="stroke:#000000;stroke-linecap:butt;stroke-width:0.5;"/>
      </defs>
      <g>
       <use style="stroke:#000000;stroke-linecap:butt;stroke-width:0.5;" x="72.0" xlink:href="#m0012dd4eef" y="388.8"/>
      </g>
     </g>
     <g id="line2d_20">
      <defs>
       <path d="
M0 0
L0 4" id="m476344969c" style="stroke:#000000;stroke-linecap:butt;stroke-width:0.5;"/>
      </defs>
      <g>
       <use style="stroke:#000000;stroke-linecap:butt;stroke-width:0.5;" x="72.0" xlink:href="#m476344969c" y="43.2"/>
      </g>
     </g>
     <g id="text_1">
      <!-- $\Gamma$ -->
      <defs>
       <path d="
M3.07812 0
L3.07812 3.51562
Q13.375 3.51562 13.375 6.6875
L13.375 61.625
Q13.375 64.7969 3.07812 64.7969
L3.07812 68.3125
L55.4219 68.3125
L58.2031 45.4062
L55.3281 45.4062
Q54.5938 51.7656 53.6406 55.2188
Q52.6875 58.6875 50.7344 60.8125
Q48.7812 62.9375 45.2656 63.8594
Q41.75 64.7969 35.5 64.7969
L27.7812 64.7969
Q25.9844 64.7969 24.9688 64.6406
Q23.9688 64.5 23.3281 63.7969
Q22.7031 63.0938 22.7031 61.625
L22.7031 6.6875
Q22.7031 3.51562 35.5 3.51562
L35.5 0
z
" id="Cmr10-a1"/>
      </defs>
      <g transform="translate(65.7 406.6)scale(0.2 -0.2)">
       <use transform="translate(0.0 0.6875)" xlink:href="#Cmr10-a1"/>
      </g>
     </g>
    </g>
    <g id="xtick_2">
     <g id="line2d_21">
      <g>
       <use style="stroke:#000000;stroke-linecap:butt;stroke-width:0.5;" x="217.565217391" xlink:href="#m0012dd4eef" y="388.8"/>
      </g>
     </g>
     <g id="line2d_22">
      <g>
       <use style="stroke:#000000;stroke-linecap:butt;stroke-width:0.5;" x="217.565217391" xlink:href="#m476344969c" y="43.2"/>
      </g>
     </g>
     <g id="text_2">
      <!-- $\chi$ -->
      <defs>
       <path d="
M4.29688 -19.3906
Q3.8125 -19.3906 3.34375 -18.9688
Q2.875 -18.5625 2.875 -18.1094
Q2.875 -17.4375 3.32812 -17.0938
L27.7812 10.1094
Q26.125 16.1562 24.0469 22.7188
Q21.9688 29.2969 19.0625 35.4531
Q16.1562 41.6094 13.9219 41.6094
Q11.9688 41.6094 10.8438 40.5312
Q9.71875 39.4531 8.85938 37.8594
Q8.01562 36.2812 7.71875 36.1875
L6.5 36.1875
Q6.20312 36.1875 5.95312 36.5156
Q5.71875 36.8594 5.71875 37.2031
Q5.71875 38.8125 7.10938 40.4531
Q8.5 42.0938 10.5156 43.1406
Q12.5469 44.1875 14.3125 44.1875
Q18.2656 44.1875 21.4844 42.7656
Q24.7031 41.3594 26.3125 38.1875
Q27.7344 35.1562 29.0469 31.6562
Q30.375 28.1719 31.5625 24.2188
Q32.7656 20.2656 33.7969 16.7031
L56.9844 42.4844
Q57.4688 43.1094 58.2031 43.1094
Q58.7969 43.1094 59.2031 42.75
Q59.625 42.3906 59.625 41.7969
Q59.625 41.1562 59.1875 40.8281
L34.7188 13.625
Q35.8906 9.1875 38.2344 1.78125
Q40.5781 -5.60938 43.4375 -11.7656
Q46.2969 -17.9219 48.5781 -17.9219
Q50.4375 -17.9219 51.6094 -16.8125
Q52.7812 -15.7188 53.6562 -14.1562
Q54.5469 -12.5938 54.7812 -12.5
L56 -12.5
Q56.7812 -12.5 56.7812 -13.4844
Q56.7812 -15.9688 53.8281 -18.2344
Q50.875 -20.5156 48.1875 -20.5156
Q44.2812 -20.5156 41.0625 -19.0938
Q37.8438 -17.6719 36.2812 -14.5
Q32.5625 -6.59375 28.7188 6.98438
L5.51562 -18.7969
Q5.03125 -19.3906 4.29688 -19.3906" id="Cmmi10-c2"/>
      </defs>
      <g transform="translate(211.265217391 406.0)scale(0.2 -0.2)">
       <use transform="translate(0.0 21.8125)" xlink:href="#Cmmi10-c2"/>
      </g>
     </g>
    </g>
    <g id="xtick_3">
     <g id="line2d_23">
      <g>
       <use style="stroke:#000000;stroke-linecap:butt;stroke-width:0.5;" x="367.982608696" xlink:href="#m0012dd4eef" y="388.8"/>
      </g>
     </g>
     <g id="line2d_24">
      <g>
       <use style="stroke:#000000;stroke-linecap:butt;stroke-width:0.5;" x="367.982608696" xlink:href="#m476344969c" y="43.2"/>
      </g>
     </g>
     <g id="text_3">
      <!-- $M$ -->
      <defs>
       <path d="
M5.07812 0
Q4.10938 0 4.10938 1.3125
Q4.15625 1.5625 4.29688 2.14062
Q4.4375 2.73438 4.6875 3.125
Q4.9375 3.51562 5.42188 3.51562
Q14.9375 3.51562 16.5 9.625
L29.5 61.8125
Q29.6875 62.7969 29.6875 63.1875
Q29.6875 64.2656 28.5156 64.4062
Q26.6094 64.7969 21.2969 64.7969
Q20.3125 64.7969 20.3125 66.1094
Q20.3594 66.3594 20.5 66.9688
Q20.6562 67.5781 20.9219 67.9375
Q21.1875 68.3125 21.5781 68.3125
L39.2031 68.3125
Q40.3281 68.3125 40.4844 67.1875
L48.2969 9.90625
L84.7188 67.1875
Q85.4062 68.3125 86.625 68.3125
L103.609 68.3125
Q104.594 68.3125 104.594 67
Q104.547 66.75 104.391 66.1406
Q104.25 65.5312 103.984 65.1562
Q103.719 64.7969 103.328 64.7969
Q97.2188 64.7969 94.8281 64.1094
Q93.5 63.6719 92.9219 61.375
L79.2031 6.5
Q79 5.51562 79 5.07812
Q79 4.6875 79.125 4.42188
Q79.25 4.15625 79.4688 4.07812
Q79.6875 4 80.1719 3.90625
Q82.0781 3.51562 87.4062 3.51562
Q88.375 3.51562 88.375 2.20312
Q88.0312 0.78125 87.8281 0.390625
Q87.6406 0 86.7188 0
L60.5938 0
Q59.625 0 59.625 1.3125
Q59.6719 1.5625 59.8125 2.17188
Q59.9688 2.78125 60.2344 3.14062
Q60.5 3.51562 60.8906 3.51562
Q67 3.51562 69.3906 4.20312
Q70.7031 4.64062 71.2969 6.89062
L85.6875 64.7969
L45.3125 1.125
Q44.7344 0 43.3125 0
Q42.0469 0 41.8906 1.125
L33.4062 64.0156
L19.6719 9.1875
Q19.5781 8.9375 19.5312 8.5625
Q19.4844 8.20312 19.3906 7.71875
Q19.3906 5.125 21.6562 4.3125
Q23.9219 3.51562 27.2031 3.51562
Q28.2188 3.51562 28.2188 2.20312
Q27.875 0.875 27.6562 0.4375
Q27.4375 0 26.5156 0
z
" id="Cmmi10-4d"/>
      </defs>
      <g transform="translate(358.182608696 406.6)scale(0.2 -0.2)">
       <use transform="translate(0.0 0.6875)" xlink:href="#Cmmi10-4d"/>
      </g>
     </g>
    </g>
    <g id="xtick_4">
     <g id="line2d_25">
      <g>
       <use style="stroke:#000000;stroke-linecap:butt;stroke-width:0.5;" x="518.4" xlink:href="#m0012dd4eef" y="388.8"/>
      </g>
     </g>
     <g id="line2d_26">
      <g>
       <use style="stroke:#000000;stroke-linecap:butt;stroke-width:0.5;" x="518.4" xlink:href="#m476344969c" y="43.2"/>
      </g>
     </g>
     <g id="text_4">
      <!-- $\Gamma$ -->
      <g transform="translate(512.1 406.6)scale(0.2 -0.2)">
       <use transform="translate(0.0 0.6875)" xlink:href="#Cmr10-a1"/>
      </g>
     </g>
    </g>
   </g>
   <g id="matplotlib.axis_2">
    <g id="ytick_1">
     <g id="line2d_27">
      <defs>
       <path d="
M0 0
L4 0" id="me8a85f7bf6" style="stroke:#000000;stroke-linecap:butt;stroke-width:0.5;"/>
      </defs>
      <g>
       <use style="stroke:#000000;stroke-linecap:butt;stroke-width:0.5;" x="72.0" xlink:href="#me8a85f7bf6" y="388.8"/>
      </g>
     </g>
     <g id="line2d_28">
      <defs>
       <path d="
M0 0
L-4 0" id="m1a32005dea" style="stroke:#000000;stroke-linecap:butt;stroke-width:0.5;"/>
      </defs>
      <g>
       <use style="stroke:#000000;stroke-linecap:butt;stroke-width:0.5;" x="518.4" xlink:href="#m1a32005dea" y="388.8"/>
      </g>
     </g>
     <g id="text_5">
      <!-- 0.0 -->
      <defs>
       <path d="
M31.7812 66.4062
Q24.1719 66.4062 20.3281 58.9062
Q16.5 51.4219 16.5 36.375
Q16.5 21.3906 20.3281 13.8906
Q24.1719 6.39062 31.7812 6.39062
Q39.4531 6.39062 43.2812 13.8906
Q47.125 21.3906 47.125 36.375
Q47.125 51.4219 43.2812 58.9062
Q39.4531 66.4062 31.7812 66.4062
M31.7812 74.2188
Q44.0469 74.2188 50.5156 64.5156
Q56.9844 54.8281 56.9844 36.375
Q56.9844 17.9688 50.5156 8.26562
Q44.0469 -1.42188 31.7812 -1.42188
Q19.5312 -1.42188 13.0625 8.26562
Q6.59375 17.9688 6.59375 36.375
Q6.59375 54.8281 13.0625 64.5156
Q19.5312 74.2188 31.7812 74.2188" id="DejaVuSans-30"/>
       <path d="
M10.6875 12.4062
L21 12.4062
L21 0
L10.6875 0
z
" id="DejaVuSans-2e"/>
      </defs>
      <g transform="translate(50.504375 393.1678125)scale(0.12 -0.12)">
       <use xlink:href="#DejaVuSans-30"/>
       <use x="63.623046875" xlink:href="#DejaVuSans-2e"/>
       <use x="95.41015625" xlink:href="#DejaVuSans-30"/>
      </g>
     </g>
    </g>
    <g id="ytick_2">
     <g id="line2d_29">
      <g>
       <use style="stroke:#000000;stroke-linecap:butt;stroke-width:0.5;" x="72.0" xlink:href="#me8a85f7bf6" y="345.413434349"/>
      </g>
     </g>
     <g id="line2d_30">
      <g>
       <use style="stroke:#000000;stroke-linecap:butt;stroke-width:0.5;" x="518.4" xlink:href="#m1a32005dea" y="345.413434349"/>
      </g>
     </g>
     <g id="text_6">
      <!-- 0.2 -->
      <defs>
       <path d="
M19.1875 8.29688
L53.6094 8.29688
L53.6094 0
L7.32812 0
L7.32812 8.29688
Q12.9375 14.1094 22.625 23.8906
Q32.3281 33.6875 34.8125 36.5312
Q39.5469 41.8438 41.4219 45.5312
Q43.3125 49.2188 43.3125 52.7812
Q43.3125 58.5938 39.2344 62.25
Q35.1562 65.9219 28.6094 65.9219
Q23.9688 65.9219 18.8125 64.3125
Q13.6719 62.7031 7.8125 59.4219
L7.8125 69.3906
Q13.7656 71.7812 18.9375 73
Q24.125 74.2188 28.4219 74.2188
Q39.75 74.2188 46.4844 68.5469
Q53.2188 62.8906 53.2188 53.4219
Q53.2188 48.9219 51.5312 44.8906
Q49.8594 40.875 45.4062 35.4062
Q44.1875 33.9844 37.6406 27.2188
Q31.1094 20.4531 19.1875 8.29688" id="DejaVuSans-32"/>
      </defs>
      <g transform="translate(50.909375 349.781246849)scale(0.12 -0.12)">
       <use xlink:href="#DejaVuSans-30"/>
       <use x="63.623046875" xlink:href="#DejaVuSans-2e"/>
       <use x="95.41015625" xlink:href="#DejaVuSans-32"/>
      </g>
     </g>
    </g>
    <g id="ytick_3">
     <g id="line2d_31">
      <g>
       <use style="stroke:#000000;stroke-linecap:butt;stroke-width:0.5;" x="72.0" xlink:href="#me8a85f7bf6" y="302.026868699"/>
      </g>
     </g>
     <g id="line2d_32">
      <g>
       <use style="stroke:#000000;stroke-linecap:butt;stroke-width:0.5;" x="518.4" xlink:href="#m1a32005dea" y="302.026868699"/>
      </g>
     </g>
     <g id="text_7">
      <!-- 0.4 -->
      <defs>
       <path d="
M37.7969 64.3125
L12.8906 25.3906
L37.7969 25.3906
z

M35.2031 72.9062
L47.6094 72.9062
L47.6094 25.3906
L58.0156 25.3906
L58.0156 17.1875
L47.6094 17.1875
L47.6094 0
L37.7969 0
L37.7969 17.1875
L4.89062 17.1875
L4.89062 26.7031
z
" id="DejaVuSans-34"/>
      </defs>
      <g transform="translate(50.380625 306.394681199)scale(0.12 -0.12)">
       <use xlink:href="#DejaVuSans-30"/>
       <use x="63.623046875" xlink:href="#DejaVuSans-2e"/>
       <use x="95.41015625" xlink:href="#DejaVuSans-34"/>
      </g>
     </g>
    </g>
    <g id="ytick_4">
     <g id="line2d_33">
      <g>
       <use style="stroke:#000000;stroke-linecap:butt;stroke-width:0.5;" x="72.0" xlink:href="#me8a85f7bf6" y="258.640303048"/>
      </g>
     </g>
     <g id="line2d_34">
      <g>
       <use style="stroke:#000000;stroke-linecap:butt;stroke-width:0.5;" x="518.4" xlink:href="#m1a32005dea" y="258.640303048"/>
      </g>
     </g>
     <g id="text_8">
      <!-- 0.6 -->
      <defs>
       <path d="
M33.0156 40.375
Q26.375 40.375 22.4844 35.8281
Q18.6094 31.2969 18.6094 23.3906
Q18.6094 15.5312 22.4844 10.9531
Q26.375 6.39062 33.0156 6.39062
Q39.6562 6.39062 43.5312 10.9531
Q47.4062 15.5312 47.4062 23.3906
Q47.4062 31.2969 43.5312 35.8281
Q39.6562 40.375 33.0156 40.375
M52.5938 71.2969
L52.5938 62.3125
Q48.875 64.0625 45.0938 64.9844
Q41.3125 65.9219 37.5938 65.9219
Q27.8281 65.9219 22.6719 59.3281
Q17.5312 52.7344 16.7969 39.4062
Q19.6719 43.6562 24.0156 45.9219
Q28.375 48.1875 33.5938 48.1875
Q44.5781 48.1875 50.9531 41.5156
Q57.3281 34.8594 57.3281 23.3906
Q57.3281 12.1562 50.6875 5.35938
Q44.0469 -1.42188 33.0156 -1.42188
Q20.3594 -1.42188 13.6719 8.26562
Q6.98438 17.9688 6.98438 36.375
Q6.98438 53.6562 15.1875 63.9375
Q23.3906 74.2188 37.2031 74.2188
Q40.9219 74.2188 44.7031 73.4844
Q48.4844 72.75 52.5938 71.2969" id="DejaVuSans-36"/>
      </defs>
      <g transform="translate(50.463125 263.008115548)scale(0.12 -0.12)">
       <use xlink:href="#DejaVuSans-30"/>
       <use x="63.623046875" xlink:href="#DejaVuSans-2e"/>
       <use x="95.41015625" xlink:href="#DejaVuSans-36"/>
      </g>
     </g>
    </g>
    <g id="ytick_5">
     <g id="line2d_35">
      <g>
       <use style="stroke:#000000;stroke-linecap:butt;stroke-width:0.5;" x="72.0" xlink:href="#me8a85f7bf6" y="215.253737397"/>
      </g>
     </g>
     <g id="line2d_36">
      <g>
       <use style="stroke:#000000;stroke-linecap:butt;stroke-width:0.5;" x="518.4" xlink:href="#m1a32005dea" y="215.253737397"/>
      </g>
     </g>
     <g id="text_9">
      <!-- 0.8 -->
      <defs>
       <path d="
M31.7812 34.625
Q24.75 34.625 20.7188 30.8594
Q16.7031 27.0938 16.7031 20.5156
Q16.7031 13.9219 20.7188 10.1562
Q24.75 6.39062 31.7812 6.39062
Q38.8125 6.39062 42.8594 10.1719
Q46.9219 13.9688 46.9219 20.5156
Q46.9219 27.0938 42.8906 30.8594
Q38.875 34.625 31.7812 34.625
M21.9219 38.8125
Q15.5781 40.375 12.0312 44.7188
Q8.5 49.0781 8.5 55.3281
Q8.5 64.0625 14.7188 69.1406
Q20.9531 74.2188 31.7812 74.2188
Q42.6719 74.2188 48.875 69.1406
Q55.0781 64.0625 55.0781 55.3281
Q55.0781 49.0781 51.5312 44.7188
Q48 40.375 41.7031 38.8125
Q48.8281 37.1562 52.7969 32.3125
Q56.7812 27.4844 56.7812 20.5156
Q56.7812 9.90625 50.3125 4.23438
Q43.8438 -1.42188 31.7812 -1.42188
Q19.7344 -1.42188 13.25 4.23438
Q6.78125 9.90625 6.78125 20.5156
Q6.78125 27.4844 10.7812 32.3125
Q14.7969 37.1562 21.9219 38.8125
M18.3125 54.3906
Q18.3125 48.7344 21.8438 45.5625
Q25.3906 42.3906 31.7812 42.3906
Q38.1406 42.3906 41.7188 45.5625
Q45.3125 48.7344 45.3125 54.3906
Q45.3125 60.0625 41.7188 63.2344
Q38.1406 66.4062 31.7812 66.4062
Q25.3906 66.4062 21.8438 63.2344
Q18.3125 60.0625 18.3125 54.3906" id="DejaVuSans-38"/>
      </defs>
      <g transform="translate(50.52875 219.621549897)scale(0.12 -0.12)">
       <use xlink:href="#DejaVuSans-30"/>
       <use x="63.623046875" xlink:href="#DejaVuSans-2e"/>
       <use x="95.41015625" xlink:href="#DejaVuSans-38"/>
      </g>
     </g>
    </g>
    <g id="ytick_6">
     <g id="line2d_37">
      <g>
       <use style="stroke:#000000;stroke-linecap:butt;stroke-width:0.5;" x="72.0" xlink:href="#me8a85f7bf6" y="171.867171746"/>
      </g>
     </g>
     <g id="line2d_38">
      <g>
       <use style="stroke:#000000;stroke-linecap:butt;stroke-width:0.5;" x="518.4" xlink:href="#m1a32005dea" y="171.867171746"/>
      </g>
     </g>
     <g id="text_10">
      <!-- 1.0 -->
      <defs>
       <path d="
M12.4062 8.29688
L28.5156 8.29688
L28.5156 63.9219
L10.9844 60.4062
L10.9844 69.3906
L28.4219 72.9062
L38.2812 72.9062
L38.2812 8.29688
L54.3906 8.29688
L54.3906 0
L12.4062 0
z
" id="DejaVuSans-31"/>
      </defs>
      <g transform="translate(51.03125 176.234984246)scale(0.12 -0.12)">
       <use xlink:href="#DejaVuSans-31"/>
       <use x="63.623046875" xlink:href="#DejaVuSans-2e"/>
       <use x="95.41015625" xlink:href="#DejaVuSans-30"/>
      </g>
     </g>
    </g>
    <g id="ytick_7">
     <g id="line2d_39">
      <g>
       <use style="stroke:#000000;stroke-linecap:butt;stroke-width:0.5;" x="72.0" xlink:href="#me8a85f7bf6" y="128.480606096"/>
      </g>
     </g>
     <g id="line2d_40">
      <g>
       <use style="stroke:#000000;stroke-linecap:butt;stroke-width:0.5;" x="518.4" xlink:href="#m1a32005dea" y="128.480606096"/>
      </g>
     </g>
     <g id="text_11">
      <!-- 1.2 -->
      <g transform="translate(51.43625 132.933731096)scale(0.12 -0.12)">
       <use xlink:href="#DejaVuSans-31"/>
       <use x="63.623046875" xlink:href="#DejaVuSans-2e"/>
       <use x="95.41015625" xlink:href="#DejaVuSans-32"/>
      </g>
     </g>
    </g>
    <g id="ytick_8">
     <g id="line2d_41">
      <g>
       <use style="stroke:#000000;stroke-linecap:butt;stroke-width:0.5;" x="72.0" xlink:href="#me8a85f7bf6" y="85.0940404451"/>
      </g>
     </g>
     <g id="line2d_42">
      <g>
       <use style="stroke:#000000;stroke-linecap:butt;stroke-width:0.5;" x="518.4" xlink:href="#m1a32005dea" y="85.0940404451"/>
      </g>
     </g>
     <g id="text_12">
      <!-- 1.4 -->
      <g transform="translate(50.9075 89.4684154451)scale(0.12 -0.12)">
       <use xlink:href="#DejaVuSans-31"/>
       <use x="63.623046875" xlink:href="#DejaVuSans-2e"/>
       <use x="95.41015625" xlink:href="#DejaVuSans-34"/>
      </g>
     </g>
    </g>
    <g id="text_13">
     <!-- Frequency $ \frac{\omega a}{2\pi c} $ -->
     <defs>
      <path d="
M4.98438 0
L4.98438 2.6875
Q4.98438 2.9375 5.17188 3.21875
L20.7031 20.4062
Q24.2188 24.2188 26.4062 26.7969
Q28.6094 29.3906 30.75 32.7656
Q32.9062 36.1406 34.1562 39.625
Q35.4062 43.1094 35.4062 47.0156
Q35.4062 51.125 33.8906 54.8594
Q32.375 58.5938 29.375 60.8438
Q26.375 63.0938 22.125 63.0938
Q17.7812 63.0938 14.3125 60.4688
Q10.8438 57.8594 9.42188 53.7188
Q9.8125 53.8125 10.5 53.8125
Q12.75 53.8125 14.3281 52.2969
Q15.9219 50.7812 15.9219 48.3906
Q15.9219 46.0938 14.3281 44.5
Q12.75 42.9219 10.5 42.9219
Q8.15625 42.9219 6.5625 44.5469
Q4.98438 46.1875 4.98438 48.3906
Q4.98438 52.1562 6.39062 55.4375
Q7.8125 58.7344 10.4688 61.2969
Q13.1406 63.875 16.4844 65.2344
Q19.8281 66.6094 23.5781 66.6094
Q29.2969 66.6094 34.2188 64.1875
Q39.1562 61.7656 42.0312 57.3438
Q44.9219 52.9375 44.9219 47.0156
Q44.9219 42.6719 43.0156 38.7656
Q41.1094 34.8594 38.125 31.6562
Q35.1562 28.4688 30.5156 24.4062
Q25.875 20.3594 24.4219 19
L13.0938 8.10938
L22.7031 8.10938
Q29.7812 8.10938 34.5469 8.21875
Q39.3125 8.34375 39.5938 8.59375
Q40.7656 9.85938 42 17.8281
L44.9219 17.8281
L42.0938 0
z
" id="Cmr10-32"/>
      <path d="
M54.8906 33.0156
L54.8906 0
L45.9062 0
L45.9062 32.7188
Q45.9062 40.4844 42.875 44.3281
Q39.8438 48.1875 33.7969 48.1875
Q26.5156 48.1875 22.3125 43.5469
Q18.1094 38.9219 18.1094 30.9062
L18.1094 0
L9.07812 0
L9.07812 54.6875
L18.1094 54.6875
L18.1094 46.1875
Q21.3438 51.125 25.7031 53.5625
Q30.0781 56 35.7969 56
Q45.2188 56 50.0469 50.1719
Q54.8906 44.3438 54.8906 33.0156" id="DejaVuSans-6e"/>
      <path d="
M12.1094 -1.125
Q6.45312 -1.125 3.9375 3.01562
Q1.42188 7.17188 1.42188 13.1875
Q1.42188 17.1406 2.125 20.9219
Q2.82812 24.7031 4.26562 28.5781
Q5.71875 32.4688 7.5625 35.8594
Q9.42188 39.2656 11.7188 42.4844
Q12.1562 43.1094 12.8906 43.1094
Q13.5312 43.1094 13.9219 42.7188
Q14.3125 42.3281 14.3125 41.7969
Q14.3125 41.2656 14.0156 40.8281
Q4.89062 28.2656 4.89062 17.6719
Q4.89062 13.0938 7 9.79688
Q9.125 6.5 13.4844 6.5
Q17.2344 6.5 20.4375 8.6875
Q23.6406 10.8906 25.9844 14.3125
Q25.9844 16.0625 26.5938 19.7656
Q27.2031 23.4844 28.4844 26.3906
Q29.7812 29.2969 31.5938 29.2969
Q33.8906 29.2969 33.8906 26.6094
Q33.8906 25.0469 33.2188 22.6719
Q32.5625 20.3125 31.75 18.2656
Q30.9531 16.2188 29.7812 13.625
Q30.9531 6.5 36.9219 6.5
Q40.375 6.5 43.8594 8.5
Q47.3594 10.5 50.0469 13.75
Q52.7344 17 54.2656 20.75
Q55.8125 24.5156 55.8125 27.875
Q55.8125 30.9062 54.8594 32.5938
Q53.9062 34.2812 52.3438 36.125
Q50.7812 37.9844 50.7812 39.1094
Q50.7812 41.0625 52.4375 42.6719
Q54.1094 44.2812 56 44.2812
Q58.4531 44.2812 59.4688 42.0625
Q60.5 39.8438 60.5 37.0156
Q60.5 32.4219 58.6719 25.4375
Q56.8438 18.4531 54.5 13.8125
Q51.2656 7.51562 46.4062 3.1875
Q41.5469 -1.125 35.5 -1.125
Q31.6406 -1.125 29.2656 1.1875
Q26.9062 3.51562 26.2188 7.51562
Q23.4375 3.5625 19.875 1.21875
Q16.3125 -1.125 12.1094 -1.125" id="Cmmi10-21"/>
      <path id="DejaVuSans-20"/>
      <path d="
M10.1094 1.70312
Q10.1094 2.25 10.5 3.32812
Q13.2812 9.125 15.6875 14.7188
Q18.1094 20.3125 20.0312 25.6094
Q21.9688 30.9062 23.5781 36.9219
L17.1875 36.9219
Q13.5312 36.9219 10.3438 34.625
Q7.17188 32.3281 5.07812 28.8125
Q4.89062 28.4219 4.5 28.4219
L3.32812 28.4219
Q2.39062 28.4219 2.39062 29.3906
Q2.39062 29.5938 2.59375 29.9844
Q5.85938 35.5469 9.59375 39.3281
Q13.3281 43.1094 18.0156 43.1094
L54.2969 43.1094
Q55.3281 43.1094 56.0469 42.4219
Q56.7812 41.75 56.7812 40.5781
Q56.7812 39.1094 55.7344 38.0156
Q54.6875 36.9219 53.2188 36.9219
L40.4844 36.9219
Q38.875 29.0469 38.7188 21.5781
Q38.7188 11.9688 42.0938 4.20312
Q42.3906 3.60938 42.3906 2.98438
Q42.3906 1.90625 41.75 0.96875
Q41.1094 0.046875 40.1094 -0.53125
Q39.1094 -1.125 37.9844 -1.125
Q35.3594 -1.125 34.375 3.17188
Q33.4062 7.46875 33.4062 11.5312
Q33.4062 17.2344 34.375 22.5312
Q35.3594 27.8281 37.5 36.9219
L26.6094 36.9219
Q18.7031 4.89062 17.0938 1.60938
Q15.6719 -1.125 13.1875 -1.125
Q11.9688 -1.125 11.0312 -0.3125
Q10.1094 0.484375 10.1094 1.70312" id="Cmmi10-bc"/>
      <path d="
M11.7188 11.9219
Q11.7188 7.5625 13.9375 4.53125
Q16.1562 1.51562 20.3125 1.51562
Q26.2656 1.51562 31.75 4.25
Q37.25 6.98438 40.7188 11.8125
Q41.0156 12.1094 41.5 12.1094
Q42 12.1094 42.5 11.5469
Q43.0156 10.9844 43.0156 10.5
Q43.0156 10.1094 42.8281 9.90625
Q39.1562 4.78125 32.9531 1.82812
Q26.7656 -1.125 20.125 -1.125
Q15.3281 -1.125 11.6719 1.14062
Q8.01562 3.42188 6 7.21875
Q4 11.0312 4 15.8281
Q4 22.5625 7.76562 29.2031
Q11.5312 35.8438 17.7812 40.0156
Q24.0312 44.1875 30.9062 44.1875
Q35.4062 44.1875 38.9844 42.0156
Q42.5781 39.8438 42.5781 35.5938
Q42.5781 32.8594 40.9844 30.9219
Q39.4062 29 36.7188 29
Q35.1094 29 34 30
Q32.9062 31 32.9062 32.625
Q32.9062 34.9688 34.6094 36.625
Q36.3281 38.2812 38.625 38.2812
L38.8125 38.2812
Q37.6406 39.9844 35.4219 40.7969
Q33.2031 41.6094 30.8125 41.6094
Q24.9531 41.6094 20.5469 36.5938
Q16.1562 31.5938 13.9375 24.625
Q11.7188 17.6719 11.7188 11.9219" id="Cmmi10-63"/>
      <path d="
M17.3906 -1.125
Q11.0781 -1.125 7.4375 3.64062
Q3.8125 8.40625 3.8125 14.8906
Q3.8125 21.2969 7.125 28.1719
Q10.4531 35.0625 16.0938 39.625
Q21.7344 44.1875 28.2188 44.1875
Q31.2031 44.1875 33.5469 42.5781
Q35.8906 40.9688 37.2031 38.1875
Q38.3281 42.1875 41.6094 42.1875
Q42.875 42.1875 43.7188 41.4219
Q44.5781 40.6719 44.5781 39.4062
Q44.5781 39.1094 44.5469 38.9531
Q44.5312 38.8125 44.4844 38.625
L37.5 10.6875
Q36.8125 7.71875 36.8125 5.8125
Q36.8125 1.51562 39.7031 1.51562
Q42.8281 1.51562 44.4531 5.48438
Q46.0938 9.46875 47.2188 14.7031
Q47.4062 15.2812 48 15.2812
L49.2188 15.2812
Q49.6094 15.2812 49.8438 14.9375
Q50.0938 14.5938 50.0938 14.3125
Q48.3438 7.32812 46.2656 3.09375
Q44.1875 -1.125 39.5 -1.125
Q36.1406 -1.125 33.5469 0.84375
Q30.9531 2.82812 30.3281 6.10938
Q23.875 -1.125 17.3906 -1.125
M17.4844 1.51562
Q21.0938 1.51562 24.4844 4.21875
Q27.875 6.9375 30.3281 10.5938
Q30.4219 10.6875 30.4219 10.8906
L35.7969 32.625
L35.8906 32.9062
Q35.2969 36.4688 33.3125 39.0312
Q31.3438 41.6094 27.9844 41.6094
Q24.6094 41.6094 21.7031 38.8438
Q18.7969 36.0781 16.7969 32.3281
Q14.8438 28.3281 13.0625 21.3438
Q11.2812 14.3594 11.2812 10.5
Q11.2812 7.03125 12.7656 4.26562
Q14.2656 1.51562 17.4844 1.51562" id="Cmmi10-61"/>
      <path d="
M9.8125 72.9062
L51.7031 72.9062
L51.7031 64.5938
L19.6719 64.5938
L19.6719 43.1094
L48.5781 43.1094
L48.5781 34.8125
L19.6719 34.8125
L19.6719 0
L9.8125 0
z
" id="DejaVuSans-46"/>
      <path d="
M32.1719 -5.07812
Q28.375 -14.8438 24.75 -17.8125
Q21.1406 -20.7969 15.0938 -20.7969
L7.90625 -20.7969
L7.90625 -13.2812
L13.1875 -13.2812
Q16.8906 -13.2812 18.9375 -11.5156
Q21 -9.76562 23.4844 -3.21875
L25.0938 0.875
L2.98438 54.6875
L12.5 54.6875
L29.5938 11.9219
L46.6875 54.6875
L56.2031 54.6875
z
" id="DejaVuSans-79"/>
      <path d="
M8.5 21.5781
L8.5 54.6875
L17.4844 54.6875
L17.4844 21.9219
Q17.4844 14.1562 20.5 10.2656
Q23.5312 6.39062 29.5938 6.39062
Q36.8594 6.39062 41.0781 11.0312
Q45.3125 15.6719 45.3125 23.6875
L45.3125 54.6875
L54.2969 54.6875
L54.2969 0
L45.3125 0
L45.3125 8.40625
Q42.0469 3.42188 37.7188 1
Q33.4062 -1.42188 27.6875 -1.42188
Q18.2656 -1.42188 13.375 4.4375
Q8.5 10.2969 8.5 21.5781
M31.1094 56
z
" id="DejaVuSans-75"/>
      <path d="
M56.2031 29.5938
L56.2031 25.2031
L14.8906 25.2031
Q15.4844 15.9219 20.4844 11.0625
Q25.4844 6.20312 34.4219 6.20312
Q39.5938 6.20312 44.4531 7.46875
Q49.3125 8.73438 54.1094 11.2812
L54.1094 2.78125
Q49.2656 0.734375 44.1875 -0.34375
Q39.1094 -1.42188 33.8906 -1.42188
Q20.7969 -1.42188 13.1562 6.1875
Q5.51562 13.8125 5.51562 26.8125
Q5.51562 40.2344 12.7656 48.1094
Q20.0156 56 32.3281 56
Q43.3594 56 49.7812 48.8906
Q56.2031 41.7969 56.2031 29.5938
M47.2188 32.2344
Q47.125 39.5938 43.0938 43.9844
Q39.0625 48.3906 32.4219 48.3906
Q24.9062 48.3906 20.3906 44.1406
Q15.875 39.8906 15.1875 32.1719
z
" id="DejaVuSans-65"/>
      <path d="
M14.7969 27.2969
Q14.7969 17.3906 18.875 11.75
Q22.9531 6.10938 30.0781 6.10938
Q37.2031 6.10938 41.2969 11.75
Q45.4062 17.3906 45.4062 27.2969
Q45.4062 37.2031 41.2969 42.8438
Q37.2031 48.4844 30.0781 48.4844
Q22.9531 48.4844 18.875 42.8438
Q14.7969 37.2031 14.7969 27.2969
M45.4062 8.20312
Q42.5781 3.32812 38.25 0.953125
Q33.9375 -1.42188 27.875 -1.42188
Q17.9688 -1.42188 11.7344 6.48438
Q5.51562 14.4062 5.51562 27.2969
Q5.51562 40.1875 11.7344 48.0938
Q17.9688 56 27.875 56
Q33.9375 56 38.25 53.625
Q42.5781 51.2656 45.4062 46.3906
L45.4062 54.6875
L54.3906 54.6875
L54.3906 -20.7969
L45.4062 -20.7969
z
" id="DejaVuSans-71"/>
      <path d="
M48.7812 52.5938
L48.7812 44.1875
Q44.9688 46.2969 41.1406 47.3438
Q37.3125 48.3906 33.4062 48.3906
Q24.6562 48.3906 19.8125 42.8438
Q14.9844 37.3125 14.9844 27.2969
Q14.9844 17.2812 19.8125 11.7344
Q24.6562 6.20312 33.4062 6.20312
Q37.3125 6.20312 41.1406 7.25
Q44.9688 8.29688 48.7812 10.4062
L48.7812 2.09375
Q45.0156 0.34375 40.9844 -0.53125
Q36.9688 -1.42188 32.4219 -1.42188
Q20.0625 -1.42188 12.7812 6.34375
Q5.51562 14.1094 5.51562 27.2969
Q5.51562 40.6719 12.8594 48.3281
Q20.2188 56 33.0156 56
Q37.1562 56 41.1094 55.1406
Q45.0625 54.2969 48.7812 52.5938" id="DejaVuSans-63"/>
      <path d="
M41.1094 46.2969
Q39.5938 47.1719 37.8125 47.5781
Q36.0312 48 33.8906 48
Q26.2656 48 22.1875 43.0469
Q18.1094 38.0938 18.1094 28.8125
L18.1094 0
L9.07812 0
L9.07812 54.6875
L18.1094 54.6875
L18.1094 46.1875
Q20.9531 51.1719 25.4844 53.5781
Q30.0312 56 36.5312 56
Q37.4531 56 38.5781 55.875
Q39.7031 55.7656 41.0625 55.5156
z
" id="DejaVuSans-72"/>
     </defs>
     <g transform="translate(45.380625 283.6)rotate(-90.0)scale(0.2 -0.2)">
      <use transform="translate(0.0 42.09375)" xlink:href="#DejaVuSans-46"/>
      <use transform="translate(57.51953125 42.09375)" xlink:href="#DejaVuSans-72"/>
      <use transform="translate(98.6328125 42.09375)" xlink:href="#DejaVuSans-65"/>
      <use transform="translate(160.15625 42.09375)" xlink:href="#DejaVuSans-71"/>
      <use transform="translate(223.6328125 42.09375)" xlink:href="#DejaVuSans-75"/>
      <use transform="translate(287.01171875 42.09375)" xlink:href="#DejaVuSans-65"/>
      <use transform="translate(348.53515625 42.09375)" xlink:href="#DejaVuSans-6e"/>
      <use transform="translate(411.9140625 42.09375)" xlink:href="#DejaVuSans-63"/>
      <use transform="translate(466.89453125 42.09375)" xlink:href="#DejaVuSans-79"/>
      <use transform="translate(526.07421875 42.09375)" xlink:href="#DejaVuSans-20"/>
      <use transform="translate(569.861328125 80.38125)scale(0.7)" xlink:href="#Cmmi10-21"/>
      <use transform="translate(613.40625 80.38125)scale(0.7)" xlink:href="#Cmmi10-61"/>
      <use transform="translate(557.861328125 1.7171875)scale(0.7)" xlink:href="#Cmr10-32"/>
      <use transform="translate(592.861328125 1.7171875)scale(0.7)" xlink:href="#Cmmi10-bc"/>
      <use transform="translate(632.749023438 1.7171875)scale(0.7)" xlink:href="#Cmmi10-63"/>
      <path d="
M557.861 54.5937
L557.861 60.8437
L662.998 60.8437
L662.998 54.5937
L557.861 54.5937
z
"/>
     </g>
    </g>
   </g>
   <g id="patch_3">
    <path d="
M72 43.2
L518.4 43.2" style="fill:none;stroke:#000000;"/>
   </g>
   <g id="patch_4">
    <path d="
M518.4 388.8
L518.4 43.2" style="fill:none;stroke:#000000;"/>
   </g>
   <g id="patch_5">
    <path d="
M72 388.8
L518.4 388.8" style="fill:none;stroke:#000000;"/>
   </g>
   <g id="patch_6">
    <path d="
M72 388.8
L72 43.2" style="fill:none;stroke:#000000;"/>
   </g>
   <g id="text_14">
    <!-- Dispersion relations for Square lattice -->
    <defs>
     <path d="
M30.6094 48.3906
Q23.3906 48.3906 19.1875 42.75
Q14.9844 37.1094 14.9844 27.2969
Q14.9844 17.4844 19.1562 11.8438
Q23.3438 6.20312 30.6094 6.20312
Q37.7969 6.20312 41.9844 11.8594
Q46.1875 17.5312 46.1875 27.2969
Q46.1875 37.0156 41.9844 42.7031
Q37.7969 48.3906 30.6094 48.3906
M30.6094 56
Q42.3281 56 49.0156 48.375
Q55.7188 40.7656 55.7188 27.2969
Q55.7188 13.875 49.0156 6.21875
Q42.3281 -1.42188 30.6094 -1.42188
Q18.8438 -1.42188 12.1719 6.21875
Q5.51562 13.875 5.51562 27.2969
Q5.51562 40.7656 12.1719 48.375
Q18.8438 56 30.6094 56" id="DejaVuSans-6f"/>
     <path d="
M9.42188 75.9844
L18.4062 75.9844
L18.4062 0
L9.42188 0
z
" id="DejaVuSans-6c"/>
     <path d="
M19.6719 64.7969
L19.6719 8.10938
L31.5938 8.10938
Q46.6875 8.10938 53.6875 14.9375
Q60.6875 21.7812 60.6875 36.5312
Q60.6875 51.1719 53.6875 57.9844
Q46.6875 64.7969 31.5938 64.7969
z

M9.8125 72.9062
L30.0781 72.9062
Q51.2656 72.9062 61.1719 64.0938
Q71.0938 55.2812 71.0938 36.5312
Q71.0938 17.6719 61.125 8.82812
Q51.1719 0 30.0781 0
L9.8125 0
z
" id="DejaVuSans-44"/>
     <path d="
M53.5156 70.5156
L53.5156 60.8906
Q47.9062 63.5781 42.9219 64.8906
Q37.9375 66.2188 33.2969 66.2188
Q25.25 66.2188 20.875 63.0938
Q16.5 59.9688 16.5 54.2031
Q16.5 49.3594 19.4062 46.8906
Q22.3125 44.4375 30.4219 42.9219
L36.375 41.7031
Q47.4062 39.5938 52.6562 34.2969
Q57.9062 29 57.9062 20.125
Q57.9062 9.51562 50.7969 4.04688
Q43.7031 -1.42188 29.9844 -1.42188
Q24.8125 -1.42188 18.9688 -0.25
Q13.1406 0.921875 6.89062 3.21875
L6.89062 13.375
Q12.8906 10.0156 18.6562 8.29688
Q24.4219 6.59375 29.9844 6.59375
Q38.4219 6.59375 43.0156 9.90625
Q47.6094 13.2344 47.6094 19.3906
Q47.6094 24.75 44.3125 27.7812
Q41.0156 30.8125 33.5 32.3281
L27.4844 33.5
Q16.4531 35.6875 11.5156 40.375
Q6.59375 45.0625 6.59375 53.4219
Q6.59375 63.0938 13.4062 68.6562
Q20.2188 74.2188 32.1719 74.2188
Q37.3125 74.2188 42.625 73.2812
Q47.9531 72.3594 53.5156 70.5156" id="DejaVuSans-53"/>
     <path d="
M9.42188 54.6875
L18.4062 54.6875
L18.4062 0
L9.42188 0
z

M9.42188 75.9844
L18.4062 75.9844
L18.4062 64.5938
L9.42188 64.5938
z
" id="DejaVuSans-69"/>
     <path d="
M37.1094 75.9844
L37.1094 68.5
L28.5156 68.5
Q23.6875 68.5 21.7969 66.5469
Q19.9219 64.5938 19.9219 59.5156
L19.9219 54.6875
L34.7188 54.6875
L34.7188 47.7031
L19.9219 47.7031
L19.9219 0
L10.8906 0
L10.8906 47.7031
L2.29688 47.7031
L2.29688 54.6875
L10.8906 54.6875
L10.8906 58.5
Q10.8906 67.625 15.1406 71.7969
Q19.3906 75.9844 28.6094 75.9844
z
" id="DejaVuSans-66"/>
     <path d="
M18.3125 70.2188
L18.3125 54.6875
L36.8125 54.6875
L36.8125 47.7031
L18.3125 47.7031
L18.3125 18.0156
Q18.3125 11.3281 20.1406 9.42188
Q21.9688 7.51562 27.5938 7.51562
L36.8125 7.51562
L36.8125 0
L27.5938 0
Q17.1875 0 13.2344 3.875
Q9.28125 7.76562 9.28125 18.0156
L9.28125 47.7031
L2.6875 47.7031
L2.6875 54.6875
L9.28125 54.6875
L9.28125 70.2188
z
" id="DejaVuSans-74"/>
     <path d="
M18.1094 8.20312
L18.1094 -20.7969
L9.07812 -20.7969
L9.07812 54.6875
L18.1094 54.6875
L18.1094 46.3906
Q20.9531 51.2656 25.2656 53.625
Q29.5938 56 35.5938 56
Q45.5625 56 51.7812 48.0938
Q58.0156 40.1875 58.0156 27.2969
Q58.0156 14.4062 51.7812 6.48438
Q45.5625 -1.42188 35.5938 -1.42188
Q29.5938 -1.42188 25.2656 0.953125
Q20.9531 3.32812 18.1094 8.20312
M48.6875 27.2969
Q48.6875 37.2031 44.6094 42.8438
Q40.5312 48.4844 33.4062 48.4844
Q26.2656 48.4844 22.1875 42.8438
Q18.1094 37.2031 18.1094 27.2969
Q18.1094 17.3906 22.1875 11.75
Q26.2656 6.10938 33.4062 6.10938
Q40.5312 6.10938 44.6094 11.75
Q48.6875 17.3906 48.6875 27.2969" id="DejaVuSans-70"/>
     <path d="
M44.2812 53.0781
L44.2812 44.5781
Q40.4844 46.5312 36.375 47.5
Q32.2812 48.4844 27.875 48.4844
Q21.1875 48.4844 17.8438 46.4375
Q14.5 44.3906 14.5 40.2812
Q14.5 37.1562 16.8906 35.375
Q19.2812 33.5938 26.5156 31.9844
L29.5938 31.2969
Q39.1562 29.25 43.1875 25.5156
Q47.2188 21.7812 47.2188 15.0938
Q47.2188 7.46875 41.1875 3.01562
Q35.1562 -1.42188 24.6094 -1.42188
Q20.2188 -1.42188 15.4531 -0.5625
Q10.6875 0.296875 5.42188 2
L5.42188 11.2812
Q10.4062 8.6875 15.2344 7.39062
Q20.0625 6.10938 24.8125 6.10938
Q31.1562 6.10938 34.5625 8.28125
Q37.9844 10.4531 37.9844 14.4062
Q37.9844 18.0625 35.5156 20.0156
Q33.0625 21.9688 24.7031 23.7812
L21.5781 24.5156
Q13.2344 26.2656 9.51562 29.9062
Q5.8125 33.5469 5.8125 39.8906
Q5.8125 47.6094 11.2812 51.7969
Q16.75 56 26.8125 56
Q31.7812 56 36.1719 55.2656
Q40.5781 54.5469 44.2812 53.0781" id="DejaVuSans-73"/>
     <path d="
M34.2812 27.4844
Q23.3906 27.4844 19.1875 25
Q14.9844 22.5156 14.9844 16.5
Q14.9844 11.7188 18.1406 8.90625
Q21.2969 6.10938 26.7031 6.10938
Q34.1875 6.10938 38.7031 11.4062
Q43.2188 16.7031 43.2188 25.4844
L43.2188 27.4844
z

M52.2031 31.2031
L52.2031 0
L43.2188 0
L43.2188 8.29688
Q40.1406 3.32812 35.5469 0.953125
Q30.9531 -1.42188 24.3125 -1.42188
Q15.9219 -1.42188 10.9531 3.29688
Q6 8.01562 6 15.9219
Q6 25.1406 12.1719 29.8281
Q18.3594 34.5156 30.6094 34.5156
L43.2188 34.5156
L43.2188 35.4062
Q43.2188 41.6094 39.1406 45
Q35.0625 48.3906 27.6875 48.3906
Q23 48.3906 18.5469 47.2656
Q14.1094 46.1406 10.0156 43.8906
L10.0156 52.2031
Q14.9375 54.1094 19.5781 55.0469
Q24.2188 56 28.6094 56
Q40.4844 56 46.3438 49.8438
Q52.2031 43.7031 52.2031 31.2031" id="DejaVuSans-61"/>
    </defs>
    <g transform="translate(159.580125 38.2)scale(0.144 -0.144)">
     <use xlink:href="#DejaVuSans-44"/>
     <use x="77.001953125" xlink:href="#DejaVuSans-69"/>
     <use x="104.78515625" xlink:href="#DejaVuSans-73"/>
     <use x="156.884765625" xlink:href="#DejaVuSans-70"/>
     <use x="220.361328125" xlink:href="#DejaVuSans-65"/>
     <use x="281.884765625" xlink:href="#DejaVuSans-72"/>
     <use x="322.998046875" xlink:href="#DejaVuSans-73"/>
     <use x="375.09765625" xlink:href="#DejaVuSans-69"/>
     <use x="402.880859375" xlink:href="#DejaVuSans-6f"/>
     <use x="464.0625" xlink:href="#DejaVuSans-6e"/>
     <use x="527.44140625" xlink:href="#DejaVuSans-20"/>
     <use x="559.228515625" xlink:href="#DejaVuSans-72"/>
     <use x="598.091796875" xlink:href="#DejaVuSans-65"/>
     <use x="659.615234375" xlink:href="#DejaVuSans-6c"/>
     <use x="687.3984375" xlink:href="#DejaVuSans-61"/>
     <use x="748.677734375" xlink:href="#DejaVuSans-74"/>
     <use x="787.88671875" xlink:href="#DejaVuSans-69"/>
     <use x="815.669921875" xlink:href="#DejaVuSans-6f"/>
     <use x="876.8515625" xlink:href="#DejaVuSans-6e"/>
     <use x="940.23046875" xlink:href="#DejaVuSans-73"/>
     <use x="992.330078125" xlink:href="#DejaVuSans-20"/>
     <use x="1024.1171875" xlink:href="#DejaVuSans-66"/>
     <use x="1059.32226562" xlink:href="#DejaVuSans-6f"/>
     <use x="1120.50390625" xlink:href="#DejaVuSans-72"/>
     <use x="1161.6171875" xlink:href="#DejaVuSans-20"/>
     <use x="1193.40429688" xlink:href="#DejaVuSans-53"/>
     <use x="1256.88085938" xlink:href="#DejaVuSans-71"/>
     <use x="1320.35742188" xlink:href="#DejaVuSans-75"/>
     <use x="1383.73632812" xlink:href="#DejaVuSans-61"/>
     <use x="1445.015625" xlink:href="#DejaVuSans-72"/>
     <use x="1483.87890625" xlink:href="#DejaVuSans-65"/>
     <use x="1545.40234375" xlink:href="#DejaVuSans-20"/>
     <use x="1577.18945312" xlink:href="#DejaVuSans-6c"/>
     <use x="1604.97265625" xlink:href="#DejaVuSans-61"/>
     <use x="1666.25195312" xlink:href="#DejaVuSans-74"/>
     <use x="1705.4609375" xlink:href="#DejaVuSans-74"/>
     <use x="1744.66992188" xlink:href="#DejaVuSans-69"/>
     <use x="1772.453125" xlink:href="#DejaVuSans-63"/>
     <use x="1827.43359375" xlink:href="#DejaVuSans-65"/>
    </g>
   </g>
  </g>
 </g>
 <defs>
  <clipPath id="p7ff5b81e1d">
   <rect height="345.6" width="446.4" x="72.0" y="43.2"/>
  </clipPath>
 </defs>
</svg>
