<?xml version="1.0" encoding="utf-8" standalone="no"?>
<!DOCTYPE svg PUBLIC "-//W3C//DTD SVG 1.1//EN"
  "http://www.w3.org/Graphics/SVG/1.1/DTD/svg11.dtd">
<!-- Created with matplotlib (http://matplotlib.sourceforge.net/) -->
<svg height="432pt" version="1.1" viewBox="0 0 576 432" width="576pt" xmlns="http://www.w3.org/2000/svg" xmlns:xlink="http://www.w3.org/1999/xlink">
 <defs>
  <style type="text/css">
*{stroke-linecap:square;stroke-linejoin:round;}
  </style>
 </defs>
 <g id="figure_1">
  <g id="patch_1">
   <path d="
M0 432
L576 432
L576 0
L0 0
z
" style="fill:#ffffff;"/>
  </g>
  <g id="axes_1">
   <g id="patch_2">
    <path d="
M72 388.8
L518.4 388.8
L518.4 43.2
L72 43.2
z
" style="fill:#ffffff;"/>
   </g>
   <g id="line2d_1">
    <path clip-path="url(#p7ff5b81e1d)" d="
M72 355.341
L76.8522 355.138
L81.7043 354.536
L86.5565 353.555
L91.4087 352.228
L96.2609 350.59
L101.113 348.681
L105.965 346.538
L110.817 344.196
L115.67 341.686
L120.522 339.034
L125.374 336.264
L130.226 333.393
L135.078 330.438
L139.93 327.413
L144.783 324.329
L149.635 321.194
L154.487 318.018
L159.339 314.805
L164.191 311.563
L169.043 308.296
L173.896 305.007
L178.748 301.701
L183.6 298.676
L188.452 295.716
L193.304 292.836
L198.157 290.057
L203.009 287.402
L207.861 284.9
L212.713 282.586
L217.565 280.496
L222.417 280.496
L227.27 279.015
L232.122 277.58
L236.974 276.201
L241.826 274.887
L246.678 273.648
L251.53 272.491
L256.383 271.424
L261.235 270.456
L266.087 269.598
L270.939 269.723
L275.791 271.211
L280.643 272.653
L285.496 274.046
L290.348 275.386
L295.2 276.673
L300.052 277.903
L304.904 279.075
L309.757 280.187
L314.609 281.24
L319.461 282.231
L324.313 283.162
L329.165 284.03
L334.017 284.837
L338.87 285.584
L343.722 286.271
L348.574 286.899
L353.426 287.47
L358.278 287.985
L363.13 288.447
L367.983 288.858
L372.835 287.773
L377.687 286.447
L382.539 284.883
L387.391 283.093
L392.243 281.099
L397.096 278.937
L401.948 276.701
L406.8 276.088
L411.652 277.39
L416.504 279.525
L421.357 283.334
L426.209 287.754
L431.061 292.25
L435.913 296.792
L440.765 301.366
L445.617 305.962
L450.47 310.569
L455.322 315.173
L460.174 319.759
L465.026 324.307
L469.878 328.788
L474.73 333.167
L479.583 337.399
L484.435 341.421
L489.287 345.155
L494.139 348.497
L498.991 351.324
L503.843 353.495
L508.696 354.869
L513.548 355.341" style="fill:none;stroke:#0000ff;"/>
   </g>
   <g id="line2d_2">
    <path clip-path="url(#p7ff5b81e1d)" d="
M72 355.341
L76.8522 355.127
L81.7043 354.494
L86.5565 353.466
L91.4087 352.076
L96.2609 350.367
L101.113 348.38
L105.965 346.156
L110.817 343.735
L115.67 341.149
L120.522 338.428
L125.374 335.596
L130.226 332.675
L135.078 329.682
L139.93 326.635
L144.783 323.545
L149.635 320.427
L154.487 317.29
L159.339 314.145
L164.191 311.004
L169.043 307.874
L173.896 304.769
L178.748 301.699
L183.6 298.38
L188.452 295.048
L193.304 291.706
L198.157 288.356
L203.009 285.001
L207.861 281.642
L212.713 278.28
L217.565 274.919
L222.417 274.919
L227.27 274.532
L232.122 274.057
L236.974 273.498
L241.826 272.855
L246.678 272.129
L251.53 271.325
L256.383 270.443
L261.235 269.487
L266.087 268.483
L270.939 268.86
L275.791 268.26
L280.643 267.814
L285.496 267.545
L290.348 267.475
L295.2 267.629
L300.052 268.025
L304.904 268.671
L309.757 269.562
L314.609 270.68
L319.461 271.992
L324.313 273.457
L329.165 275.029
L334.017 276.664
L338.87 278.319
L343.722 279.959
L348.574 281.551
L353.426 283.067
L358.278 284.483
L363.13 285.783
L367.983 286.951
L372.835 285.343
L377.687 283.516
L382.539 281.548
L387.391 279.566
L392.243 277.761
L397.096 276.395
L401.948 275.765
L406.8 274.798
L411.652 275.454
L416.504 279.077
L421.357 282.29
L426.209 285.511
L431.061 289.065
L435.913 292.873
L440.765 296.884
L445.617 301.064
L450.47 305.39
L455.322 309.845
L460.174 314.412
L465.026 319.072
L469.878 323.798
L474.73 328.553
L479.583 333.287
L484.435 337.925
L489.287 342.366
L494.139 346.467
L498.991 350.045
L503.843 352.872
L508.696 354.704
L513.548 355.341" style="fill:none;stroke:#008000;"/>
   </g>
   <g id="line2d_3">
    <path clip-path="url(#p7ff5b81e1d)" d="
M72 227.926
L76.8522 227.944
L81.7043 227.998
L86.5565 228.088
L91.4087 228.216
L96.2609 228.384
L101.113 228.594
L105.965 228.847
L110.817 229.147
L115.67 229.496
L120.522 229.897
L125.374 230.353
L130.226 230.868
L135.078 231.444
L139.93 232.085
L144.783 232.795
L149.635 233.579
L154.487 234.44
L159.339 235.385
L164.191 236.418
L169.043 237.543
L173.896 238.765
L178.748 240.085
L183.6 241.502
L188.452 243.011
L193.304 244.605
L198.157 246.274
L203.009 248.005
L207.861 249.786
L212.713 251.602
L217.565 253.442
L222.417 253.442
L227.27 255.036
L232.122 256.683
L236.974 258.356
L241.826 260.036
L246.678 261.711
L251.53 263.371
L256.383 265.007
L261.235 266.613
L266.087 268.159
L270.939 267.353
L275.791 266.189
L280.643 264.961
L285.496 263.671
L290.348 262.324
L295.2 260.922
L300.052 259.468
L304.904 257.964
L309.757 256.415
L314.609 254.821
L319.461 253.187
L324.313 251.515
L329.165 249.808
L334.017 248.068
L338.87 246.299
L343.722 244.503
L348.574 242.684
L353.426 240.845
L358.278 238.99
L363.13 237.126
L367.983 235.257
L372.835 239.334
L377.687 243.484
L382.539 247.682
L387.391 251.912
L392.243 256.159
L397.096 260.397
L401.948 264.551
L406.8 268.231
L411.652 269.239
L416.504 267.192
L421.357 264.448
L426.209 261.509
L431.061 258.489
L435.913 255.446
L440.765 252.422
L445.617 249.453
L450.47 246.576
L455.322 243.825
L460.174 241.233
L465.026 238.832
L469.878 236.648
L474.73 234.703
L479.583 233.013
L484.435 231.582
L489.287 230.409
L494.139 229.481
L498.991 228.784
L503.843 228.302
L508.696 228.019
L513.548 227.926" style="fill:none;stroke:#ff0000;"/>
   </g>
   <g id="line2d_4">
    <path clip-path="url(#p7ff5b81e1d)" d="
M72 227.926
L76.8522 227.902
L81.7043 227.829
L86.5565 227.711
L91.4087 227.553
L96.2609 227.363
L101.113 227.15
L105.965 226.925
L110.817 226.703
L115.67 226.5
L120.522 226.335
L125.374 226.227
L130.226 226.195
L135.078 226.258
L139.93 226.434
L144.783 226.735
L149.635 227.167
L154.487 227.73
L159.339 228.419
L164.191 229.221
L169.043 230.119
L173.896 231.092
L178.748 232.119
L183.6 233.174
L188.452 234.232
L193.304 235.267
L198.157 236.249
L203.009 237.147
L207.861 237.926
L212.713 238.549
L217.565 238.975
L222.417 238.975
L227.27 237.953
L232.122 236.868
L236.974 235.722
L241.826 234.523
L246.678 233.278
L251.53 231.999
L256.383 230.695
L261.235 229.384
L266.087 228.089
L270.939 226.931
L275.791 227.646
L280.643 229.372
L285.496 231.052
L290.348 232.602
L295.2 233.972
L300.052 235.12
L304.904 236.016
L309.757 236.642
L314.609 236.997
L319.461 237.091
L324.313 236.946
L329.165 236.588
L334.017 236.042
L338.87 235.333
L343.722 234.483
L348.574 233.51
L353.426 232.43
L358.278 231.256
L363.13 230.003
L367.983 228.686
L372.835 231.695
L377.687 234.667
L382.539 237.496
L387.391 240.064
L392.243 242.208
L397.096 243.708
L401.948 244.319
L406.8 243.882
L411.652 242.43
L416.504 240.173
L421.357 237.373
L426.209 234.258
L431.061 231.002
L435.913 227.73
L440.765 224.54
L445.617 221.522
L450.47 218.785
L455.322 216.491
L460.174 214.902
L465.026 214.34
L469.878 214.948
L474.73 216.479
L479.583 218.495
L484.435 220.639
L489.287 222.682
L494.139 224.483
L498.991 225.954
L503.843 227.039
L508.696 227.703
L513.548 227.926" style="fill:none;stroke:#00bfbf;"/>
   </g>
   <g id="line2d_5">
    <path clip-path="url(#p7ff5b81e1d)" d="
M72 178.821
L76.8522 179.016
L81.7043 179.606
L86.5565 180.595
L91.4087 181.968
L96.2609 183.68
L101.113 185.658
L105.965 187.829
L110.817 190.129
L115.67 192.51
L120.522 194.937
L125.374 197.383
L130.226 199.83
L135.078 202.262
L139.93 204.664
L144.783 207.027
L149.635 209.338
L154.487 211.586
L159.339 213.76
L164.191 215.85
L169.043 217.846
L173.896 219.737
L178.748 221.519
L183.6 223.186
L188.452 224.737
L193.304 226.176
L198.157 227.508
L203.009 228.74
L207.861 229.88
L212.713 230.937
L217.565 231.919
L222.417 231.919
L227.27 230.649
L232.122 229.304
L236.974 227.911
L241.826 226.489
L246.678 225.054
L251.53 223.618
L256.383 222.193
L261.235 221.88
L266.087 223.729
L270.939 225.458
L275.791 225.32
L280.643 224.153
L285.496 222.993
L290.348 221.892
L295.2 220.867
L300.052 219.932
L304.904 219.094
L309.757 218.358
L314.609 217.727
L319.461 217.203
L324.313 216.783
L329.165 216.464
L334.017 216.24
L338.87 216.106
L343.722 216.052
L348.574 216.069
L353.426 216.148
L358.278 216.275
L363.13 216.437
L367.983 216.614
L372.835 215.766
L377.687 214.74
L382.539 213.569
L387.391 212.262
L392.243 210.818
L397.096 209.233
L401.948 207.506
L406.8 205.635
L411.652 203.625
L416.504 201.483
L421.357 199.225
L426.209 196.872
L431.061 194.455
L435.913 192.023
L440.765 189.693
L445.617 188.105
L450.47 189.371
L455.322 191.759
L460.174 193.736
L465.026 194.757
L469.878 194.574
L474.73 193.357
L479.583 191.481
L484.435 189.26
L489.287 186.899
L494.139 184.554
L498.991 182.373
L503.843 180.537
L508.696 179.276
L513.548 178.821" style="fill:none;stroke:#bf00bf;"/>
   </g>
   <g id="line2d_6">
    <path clip-path="url(#p7ff5b81e1d)" d="
M72 178.821
L76.8522 178.919
L81.7043 179.22
L86.5565 179.736
L91.4087 180.475
L96.2609 181.429
L101.113 182.566
L105.965 183.839
L110.817 185.195
L115.67 186.583
L120.522 187.963
L125.374 189.301
L130.226 190.571
L135.078 191.757
L139.93 192.849
L144.783 193.845
L149.635 194.752
L154.487 195.587
L159.339 196.37
L164.191 197.127
L169.043 197.886
L173.896 198.672
L178.748 199.506
L183.6 200.404
L188.452 201.376
L193.304 202.427
L198.157 203.557
L203.009 204.762
L207.861 206.035
L212.713 207.368
L217.565 208.75
L222.417 208.75
L227.27 210.158
L232.122 211.636
L236.974 213.185
L241.826 214.805
L246.678 216.491
L251.53 218.24
L256.383 220.041
L261.235 220.789
L266.087 219.416
L270.939 218.084
L275.791 216.803
L280.643 215.585
L285.496 214.439
L290.348 213.377
L295.2 212.41
L300.052 211.547
L304.904 210.797
L309.757 210.167
L314.609 209.662
L319.461 209.284
L324.313 209.032
L329.165 208.9
L334.017 208.882
L338.87 208.967
L343.722 209.143
L348.574 209.396
L353.426 209.711
L358.278 210.072
L363.13 210.463
L367.983 210.864
L372.835 209.501
L377.687 208.063
L382.539 206.574
L387.391 205.049
L392.243 203.496
L397.096 201.925
L401.948 200.345
L406.8 198.767
L411.652 197.201
L416.504 195.661
L421.357 194.163
L426.209 192.724
L431.061 191.363
L435.913 190.1
L440.765 188.953
L445.617 187.936
L450.47 187.053
L455.322 186.29
L460.174 185.616
L465.026 184.985
L469.878 184.346
L474.73 183.66
L479.583 182.905
L484.435 182.09
L489.287 181.253
L494.139 180.455
L498.991 179.767
L503.843 179.247
L508.696 178.928
L513.548 178.821" style="fill:none;stroke:#bfbf00;"/>
   </g>
   <g id="line2d_7">
    <path clip-path="url(#p7ff5b81e1d)" d="
M72 163.452
L76.8522 164.241
L81.7043 165.754
L86.5565 167.256
L91.4087 168.535
L96.2609 169.544
L101.113 170.3
L105.965 170.841
L110.817 171.201
L115.67 171.408
L120.522 171.479
L125.374 171.423
L130.226 171.251
L135.078 170.965
L139.93 170.571
L144.783 170.072
L149.635 169.472
L154.487 168.775
L159.339 167.999
L164.191 167.667
L169.043 167.251
L173.896 166.742
L178.748 166.139
L183.6 165.446
L188.452 164.677
L193.304 163.851
L198.157 162.992
L203.009 162.127
L207.861 161.288
L212.713 160.505
L217.565 159.811
L222.417 159.811
L227.27 159.675
L232.122 160.027
L236.974 160.774
L241.826 161.79
L246.678 162.958
L251.53 164.188
L256.383 165.412
L261.235 166.582
L266.087 167.663
L270.939 168.628
L275.791 169.459
L280.643 170.145
L285.496 170.677
L290.348 171.055
L295.2 171.282
L300.052 171.366
L304.904 171.319
L309.757 171.157
L314.609 170.901
L319.461 170.576
L324.313 170.206
L329.165 169.816
L334.017 169.429
L338.87 169.062
L343.722 168.727
L348.574 168.427
L353.426 168.163
L358.278 167.93
L363.13 167.722
L367.983 167.536
L372.835 167.828
L377.687 167.872
L382.539 167.656
L387.391 167.187
L392.243 166.506
L397.096 165.72
L401.948 165.089
L406.8 165.123
L411.652 166.229
L416.504 168.187
L421.357 170.616
L426.209 173.314
L431.061 176.182
L435.913 179.144
L440.765 182.06
L445.617 184.247
L450.47 183.499
L455.322 181.376
L460.174 179.121
L465.026 176.913
L469.878 174.806
L474.73 172.831
L479.583 171.009
L484.435 170.126
L489.287 169.325
L494.139 168.335
L498.991 167.119
L503.843 165.692
L508.696 164.23
L513.548 163.452" style="fill:none;stroke:#000000;"/>
   </g>
   <g id="line2d_8">
    <path clip-path="url(#p7ff5b81e1d)" d="
M72 163.452
L76.8522 163.987
L81.7043 165.099
L86.5565 166.26
L91.4087 167.266
L96.2609 168.051
L101.113 168.608
L105.965 168.966
L110.817 169.162
L115.67 169.236
L120.522 169.225
L125.374 169.157
L130.226 169.054
L135.078 168.93
L139.93 168.793
L144.783 168.642
L149.635 168.469
L154.487 168.261
L159.339 167.987
L164.191 167.111
L169.043 166.155
L173.896 165.124
L178.748 164.026
L183.6 162.869
L188.452 161.663
L193.304 160.417
L198.157 159.146
L203.009 157.863
L207.861 156.586
L212.713 155.34
L217.565 154.151
L222.417 154.151
L227.27 153.722
L232.122 153.452
L236.974 153.335
L241.826 153.356
L246.678 153.497
L251.53 153.739
L256.383 154.06
L261.235 154.438
L266.087 154.851
L270.939 155.279
L275.791 155.701
L280.643 156.096
L285.496 156.444
L290.348 156.725
L295.2 156.92
L300.052 157.013
L304.904 156.987
L309.757 156.828
L314.609 156.526
L319.461 156.074
L324.313 155.47
L329.165 154.717
L334.017 153.823
L338.87 152.808
L343.722 151.709
L348.574 150.611
L353.426 149.706
L358.278 149.361
L363.13 149.791
L367.983 150.782
L372.835 148.027
L377.687 146.255
L382.539 148.552
L387.391 150.915
L392.243 153.239
L397.096 155.502
L401.948 157.69
L406.8 159.789
L411.652 161.785
L416.504 163.665
L421.357 165.412
L426.209 167.007
L431.061 168.429
L435.913 169.655
L440.765 170.662
L445.617 171.429
L450.47 171.943
L455.322 172.208
L460.174 172.243
L465.026 172.084
L469.878 171.768
L474.73 171.329
L479.583 170.784
L484.435 169.358
L489.287 167.888
L494.139 166.603
L498.991 165.494
L503.843 164.544
L508.696 163.787
L513.548 163.452" style="fill:none;stroke:#0000ff;"/>
   </g>
   <g id="line2d_9">
    <path clip-path="url(#p7ff5b81e1d)" d="
M72 158.073
L76.8522 158.091
L81.7043 158.146
L86.5565 158.235
L91.4087 158.354
L96.2609 158.497
L101.113 158.656
L105.965 158.821
L110.817 158.98
L115.67 159.118
L120.522 159.219
L125.374 159.263
L130.226 159.233
L135.078 159.111
L139.93 158.882
L144.783 158.536
L149.635 158.069
L154.487 157.482
L159.339 156.778
L164.191 155.963
L169.043 155.045
L173.896 154.031
L178.748 152.928
L183.6 151.742
L188.452 150.482
L193.304 149.154
L198.157 147.766
L203.009 146.33
L207.861 144.857
L212.713 143.361
L217.565 141.86
L222.417 141.86
L227.27 141.455
L232.122 140.522
L236.974 139.16
L241.826 137.523
L246.678 135.789
L251.53 134.173
L256.383 132.955
L261.235 132.439
L266.087 132.749
L270.939 133.711
L275.791 135.049
L280.643 136.553
L285.496 138.098
L290.348 139.611
L295.2 141.044
L300.052 142.364
L304.904 143.547
L309.757 144.568
L314.609 145.408
L319.461 146.047
L324.313 146.467
L329.165 146.653
L334.017 146.595
L338.87 146.289
L343.722 145.739
L348.574 144.959
L353.426 144.336
L358.278 144.14
L363.13 143.187
L367.983 141.706
L372.835 143.804
L377.687 145.446
L382.539 147.076
L387.391 149.402
L392.243 151.653
L397.096 153.727
L401.948 155.377
L406.8 156.119
L411.652 155.579
L416.504 154.032
L421.357 151.939
L426.209 149.627
L431.061 147.368
L435.913 145.461
L440.765 144.226
L445.617 143.885
L450.47 145.035
L455.322 146.819
L460.174 148.578
L465.026 150.261
L469.878 151.824
L474.73 153.233
L479.583 154.465
L484.435 155.505
L489.287 156.351
L494.139 157.009
L498.991 157.494
L503.843 157.822
L508.696 158.011
L513.548 158.073" style="fill:none;stroke:#008000;"/>
   </g>
   <g id="line2d_10">
    <path clip-path="url(#p7ff5b81e1d)" d="
M72 158.073
L76.8522 157.975
L81.7043 157.687
L86.5565 157.219
L91.4087 156.588
L96.2609 155.81
L101.113 154.904
L105.965 153.888
L110.817 152.774
L115.67 151.577
L120.522 150.306
L125.374 148.972
L130.226 147.581
L135.078 146.141
L139.93 144.657
L144.783 143.134
L149.635 141.578
L154.487 139.991
L159.339 138.378
L164.191 136.742
L169.043 135.089
L173.896 133.421
L178.748 131.743
L183.6 130.061
L188.452 128.383
L193.304 126.719
L198.157 125.088
L203.009 123.524
L207.861 122.1
L212.713 120.987
L217.565 120.559
L222.417 120.559
L227.27 120.608
L232.122 121.001
L236.974 121.787
L241.826 122.842
L246.678 124.034
L251.53 125.281
L256.383 126.539
L261.235 127.785
L266.087 129.004
L270.939 130.186
L275.791 131.328
L280.643 132.427
L285.496 133.479
L290.348 134.487
L295.2 135.45
L300.052 136.37
L304.904 137.251
L309.757 138.095
L314.609 138.906
L319.461 139.69
L324.313 140.451
L329.165 141.195
L334.017 141.927
L338.87 142.647
L343.722 143.341
L348.574 143.958
L353.426 143.969
L358.278 142.795
L363.13 141.471
L367.983 140.037
L372.835 142.365
L377.687 144.721
L382.539 143.416
L387.391 141.662
L392.243 140.221
L397.096 139.052
L401.948 138.133
L406.8 137.471
L411.652 137.093
L416.504 137.032
L421.357 137.313
L426.209 137.941
L431.061 138.9
L435.913 140.15
L440.765 141.633
L445.617 143.284
L450.47 144.428
L455.322 145.628
L460.174 147.194
L465.026 148.893
L469.878 150.574
L474.73 152.145
L479.583 153.558
L484.435 154.787
L489.287 155.82
L494.139 156.653
L498.991 157.287
L503.843 157.729
L508.696 157.988
L513.548 158.073" style="fill:none;stroke:#ff0000;"/>
   </g>
   <g id="line2d_11">
    <path clip-path="url(#p7ff5b81e1d)" d="
M72 158.073
L76.8522 157.378
L81.7043 155.781
L86.5565 153.797
L91.4087 151.622
L96.2609 149.329
L101.113 146.956
L105.965 144.523
L110.817 142.045
L115.67 139.531
L120.522 136.989
L125.374 134.426
L130.226 131.85
L135.078 129.265
L139.93 126.679
L144.783 124.098
L149.635 121.53
L154.487 118.985
L159.339 116.475
L164.191 114.014
L169.043 111.624
L173.896 109.332
L178.748 107.175
L183.6 105.211
L188.452 103.521
L193.304 103.494
L198.157 106.042
L203.009 108.5
L207.861 110.754
L212.713 112.603
L217.565 113.652
L222.417 113.652
L227.27 114.39
L232.122 114.556
L236.974 114.103
L241.826 113.163
L246.678 114.706
L251.53 116.411
L256.383 117.497
L261.235 117.691
L266.087 116.895
L270.939 115.304
L275.791 113.222
L280.643 110.889
L285.496 108.48
L290.348 107.887
L295.2 109.82
L300.052 111.784
L304.904 113.771
L309.757 115.771
L314.609 117.778
L319.461 119.782
L324.313 121.775
L329.165 123.745
L334.017 125.681
L338.87 127.566
L343.722 129.38
L348.574 131.103
L353.426 132.709
L358.278 134.175
L363.13 135.481
L367.983 136.619
L372.835 136.18
L377.687 135.109
L382.539 133.559
L387.391 131.615
L392.243 129.383
L397.096 126.975
L401.948 124.486
L406.8 121.989
L411.652 119.553
L416.504 117.26
L421.357 115.229
L426.209 113.655
L431.061 113.105
L435.913 115.755
L440.765 118.251
L445.617 120.653
L450.47 123.15
L455.322 125.86
L460.174 128.778
L465.026 131.846
L469.878 135.003
L474.73 138.199
L479.583 141.392
L484.435 144.544
L489.287 147.612
L494.139 150.542
L498.991 153.252
L503.843 155.611
L508.696 157.37
L513.548 158.073" style="fill:none;stroke:#00bfbf;"/>
   </g>
   <g id="line2d_12">
    <path clip-path="url(#p7ff5b81e1d)" d="
M72 158.073
L76.8522 157.095
L81.7043 155.006
L86.5565 152.525
L91.4087 149.863
L96.2609 147.095
L101.113 144.257
L105.965 141.367
L110.817 138.44
L115.67 135.483
L120.522 132.506
L125.374 129.515
L130.226 126.515
L135.078 123.513
L139.93 120.517
L144.783 117.534
L149.635 114.576
L154.487 111.655
L159.339 108.791
L164.191 106.011
L169.043 103.36
L173.896 100.933
L178.748 99.0515
L183.6 98.9914
L188.452 100.99
L193.304 102.233
L198.157 101.51
L203.009 101.452
L207.861 101.941
L212.713 102.725
L217.565 103.598
L222.417 103.598
L227.27 105.603
L232.122 107.934
L236.974 110.323
L241.826 112.622
L246.678 111.882
L251.53 110.355
L256.383 108.645
L261.235 106.801
L266.087 104.88
L270.939 103.08
L275.791 102.745
L280.643 104.21
L285.496 106.003
L290.348 106.149
L295.2 104.088
L300.052 102.563
L304.904 101.864
L309.757 102.084
L314.609 103.03
L319.461 104.436
L324.313 106.117
L329.165 107.963
L334.017 109.911
L338.87 111.923
L343.722 113.973
L348.574 116.041
L353.426 118.113
L358.278 120.17
L363.13 122.193
L367.983 124.156
L372.835 120.88
L377.687 117.641
L382.539 114.532
L387.391 111.646
L392.243 109.096
L397.096 107.016
L401.948 105.561
L406.8 104.882
L411.652 105.082
L416.504 106.171
L421.357 108.033
L426.209 110.442
L431.061 112.828
L435.913 113.053
L440.765 114.404
L445.617 116.642
L450.47 119.443
L455.322 122.566
L460.174 125.864
L465.026 129.25
L469.878 132.668
L474.73 136.081
L479.583 139.46
L484.435 142.78
L489.287 146.014
L494.139 149.131
L498.991 152.085
L503.843 154.793
L508.696 157.034
L513.548 158.073" style="fill:none;stroke:#bf00bf;"/>
   </g>
   <g id="line2d_13">
    <path clip-path="url(#p7ff5b81e1d)" d="
M72 75.3851
L76.8522 75.4078
L81.7043 75.4762
L86.5565 75.5912
L91.4087 75.7541
L96.2609 75.967
L101.113 76.2322
L105.965 76.5527
L110.817 76.9318
L115.67 77.373
L120.522 77.8802
L125.374 78.4575
L130.226 79.1086
L135.078 79.8373
L139.93 80.6466
L144.783 81.5389
L149.635 82.5152
L154.487 83.5746
L159.339 84.7142
L164.191 85.9937
L169.043 88.6401
L173.896 91.2648
L178.748 93.5308
L183.6 94.1693
L188.452 92.9586
L193.304 93.5321
L198.157 94.3093
L203.009 94.7171
L207.861 94.8911
L212.713 95.0747
L217.565 95.4232
L222.417 95.4232
L227.27 94.7275
L232.122 93.5495
L236.974 92.1388
L241.826 90.851
L246.678 92.1881
L251.53 93.6208
L256.383 95.1348
L261.235 96.711
L266.087 98.3097
L270.939 99.7483
L275.791 99.6928
L280.643 97.8159
L285.496 95.5971
L290.348 93.2785
L295.2 90.9085
L300.052 88.5083
L304.904 87.8679
L309.757 86.6796
L314.609 84.8202
L319.461 82.5628
L324.313 80.1028
L329.165 77.5573
L334.017 74.9975
L338.87 72.4703
L343.722 70.0097
L348.574 67.6427
L353.426 65.3932
L358.278 63.2848
L363.13 61.7638
L367.983 62.2628
L372.835 62.521
L377.687 63.5428
L382.539 65.1725
L387.391 67.2157
L392.243 70.103
L397.096 74.0874
L401.948 78.2327
L406.8 82.4087
L411.652 86.4973
L416.504 90.3872
L421.357 93.9862
L426.209 97.2285
L431.061 100.047
L435.913 102.305
L440.765 103.743
L445.617 104.028
L450.47 102.976
L455.322 100.726
L460.174 97.6381
L465.026 94.0943
L469.878 90.4205
L474.73 86.8805
L479.583 83.687
L484.435 80.9981
L489.287 78.8997
L494.139 77.3904
L498.991 76.3927
L503.843 75.792
L508.696 75.4805
L513.548 75.3851" style="fill:none;stroke:#bfbf00;"/>
   </g>
   <g id="line2d_14">
    <path clip-path="url(#p7ff5b81e1d)" d="
M72 75.3851
L76.8522 75.3971
L81.7043 75.433
L86.5565 75.4923
L91.4087 75.5744
L96.2609 75.6786
L101.113 75.8039
L105.965 75.9497
L110.817 76.1155
L115.67 76.3018
L120.522 76.5108
L125.374 76.7477
L130.226 77.0246
L135.078 77.3666
L139.93 77.8272
L144.783 78.5155
L149.635 79.6155
L154.487 81.2889
L159.339 83.4829
L164.191 85.9275
L169.043 87.2039
L173.896 88.527
L178.748 89.872
L183.6 91.2008
L188.452 92.453
L193.304 91.4575
L198.157 90.1058
L203.009 88.9771
L207.861 88.0628
L212.713 87.3286
L217.565 86.7339
L222.417 86.7339
L227.27 87.5493
L232.122 88.5176
L236.974 89.623
L241.826 90.604
L246.678 89.0011
L251.53 87.3688
L256.383 85.7477
L261.235 84.2096
L266.087 82.946
L270.939 82.4539
L275.791 83.0432
L280.643 84.1945
L285.496 85.491
L290.348 86.7261
L295.2 87.7093
L300.052 88.1833
L304.904 86.0926
L309.757 83.6738
L314.609 81.2638
L319.461 78.8744
L324.313 76.5178
L329.165 74.207
L334.017 71.9565
L338.87 69.7823
L343.722 67.7047
L348.574 65.7532
L353.426 63.9826
L358.278 62.5276
L363.13 61.3456
L367.983 59.634
L372.835 59.9283
L377.687 61.1218
L382.539 63.3534
L387.391 66.4459
L392.243 69.539
L397.096 72.1169
L401.948 75.0039
L406.8 78.1643
L411.652 81.44
L416.504 84.667
L421.357 87.6799
L426.209 90.2623
L431.061 92.1139
L435.913 92.9326
L440.765 92.654
L445.617 91.531
L450.47 89.908
L455.322 88.049
L460.174 86.1251
L465.026 84.2464
L469.878 82.4864
L474.73 80.8948
L479.583 79.5028
L484.435 78.3261
L489.287 77.3668
L494.139 76.6165
L498.991 76.0597
L503.843 75.6787
L508.696 75.4576
L513.548 75.3851" style="fill:none;stroke:#000000;"/>
   </g>
   <g id="line2d_15">
    <path clip-path="url(#p7ff5b81e1d)" d="
M72 43.2
L76.8522 43.3586
L81.7043 43.8342
L86.5565 44.6254
L91.4087 45.7271
L96.2609 47.127
L101.113 48.8049
L105.965 50.7323
L110.817 52.875
L115.67 55.1957
L120.522 57.656
L125.374 60.2165
L130.226 62.8343
L135.078 65.4557
L139.93 68.0009
L144.783 70.3357
L149.635 72.2506
L154.487 73.5567
L159.339 74.2758
L164.191 74.5725
L169.043 74.5713
L173.896 74.3234
L178.748 73.8326
L183.6 73.0776
L188.452 72.028
L193.304 70.659
L198.157 68.9641
L203.009 69.124
L207.861 69.6016
L212.713 69.7935
L217.565 69.7352
L222.417 69.7352
L227.27 69.9851
L232.122 70.5008
L236.974 71.2323
L241.826 72.1369
L246.678 73.1771
L251.53 74.3168
L256.383 75.5114
L261.235 76.6821
L266.087 77.6273
L270.939 77.8363
L275.791 76.9792
L280.643 75.5454
L285.496 73.9026
L290.348 72.1731
L295.2 70.3989
L300.052 68.596
L304.904 66.7708
L309.757 64.925
L314.609 63.0579
L319.461 61.1673
L324.313 59.2503
L329.165 57.6736
L334.017 57.2657
L338.87 56.9079
L343.722 56.6351
L348.574 56.4969
L353.426 56.5515
L358.278 56.811
L363.13 57.0323
L367.983 56.9286
L372.835 57.0421
L377.687 58.2937
L382.539 60.4046
L387.391 63.0819
L392.243 66.0087
L397.096 68.8862
L401.948 71.4233
L406.8 73.4667
L411.652 75.0076
L416.504 76.0471
L421.357 76.5718
L426.209 76.5742
L431.061 76.0665
L435.913 75.0824
L440.765 73.6727
L445.617 71.899
L450.47 69.8273
L455.322 67.5235
L460.174 65.0514
L465.026 62.4708
L469.878 59.8371
L474.73 57.2016
L479.583 54.6131
L484.435 52.1212
L489.287 49.781
L494.139 47.6595
L498.991 45.84
L503.843 44.4228
L508.696 43.5141
L513.548 43.2" style="fill:none;stroke:#0000ff;"/>
   </g>
   <g id="line2d_16">
    <path clip-path="url(#p7ff5b81e1d)" d="
M217.565 388.8
L217.565 43.2" style="fill:none;stroke:#0000ff;"/>
   </g>
   <g id="line2d_17">
    <path clip-path="url(#p7ff5b81e1d)" d="
M367.983 388.8
L367.983 43.2" style="fill:none;stroke:#0000ff;"/>
   </g>
   <g id="line2d_18">
    <path clip-path="url(#p7ff5b81e1d)" d="
M518.4 388.8
L518.4 43.2" style="fill:none;stroke:#0000ff;"/>
   </g>
   <g id="matplotlib.axis_1">
    <g id="xtick_1">
     <g id="line2d_19">
      <defs>
       <path d="
M0 0
L0 -4" id="m0012dd4eef" style="stroke:#000000;stroke-linecap:butt;stroke-width:0.5;"/>
      </defs>
      <g>
       <use style="stroke:#000000;stroke-linecap:butt;stroke-width:0.5;" x="72.0" xlink:href="#m0012dd4eef" y="388.8"/>
      </g>
     </g>
     <g id="line2d_20">
      <defs>
       <path d="
M0 0
L0 4" id="m476344969c" style="stroke:#000000;stroke-linecap:butt;stroke-width:0.5;"/>
      </defs>
      <g>
       <use style="stroke:#000000;stroke-linecap:butt;stroke-width:0.5;" x="72.0" xlink:href="#m476344969c" y="43.2"/>
      </g>
     </g>
     <g id="text_1">
      <!-- $\Gamma$ -->
      <defs>
       <path d="
M3.07812 0
L3.07812 3.51562
Q13.375 3.51562 13.375 6.6875
L13.375 61.625
Q13.375 64.7969 3.07812 64.7969
L3.07812 68.3125
L55.4219 68.3125
L58.2031 45.4062
L55.3281 45.4062
Q54.5938 51.7656 53.6406 55.2188
Q52.6875 58.6875 50.7344 60.8125
Q48.7812 62.9375 45.2656 63.8594
Q41.75 64.7969 35.5 64.7969
L27.7812 64.7969
Q25.9844 64.7969 24.9688 64.6406
Q23.9688 64.5 23.3281 63.7969
Q22.7031 63.0938 22.7031 61.625
L22.7031 6.6875
Q22.7031 3.51562 35.5 3.51562
L35.5 0
z
" id="Cmr10-a1"/>
      </defs>
      <g transform="translate(65.7 406.6)scale(0.2 -0.2)">
       <use transform="translate(0.0 0.6875)" xlink:href="#Cmr10-a1"/>
      </g>
     </g>
    </g>
    <g id="xtick_2">
     <g id="line2d_21">
      <g>
       <use style="stroke:#000000;stroke-linecap:butt;stroke-width:0.5;" x="217.565217391" xlink:href="#m0012dd4eef" y="388.8"/>
      </g>
     </g>
     <g id="line2d_22">
      <g>
       <use style="stroke:#000000;stroke-linecap:butt;stroke-width:0.5;" x="217.565217391" xlink:href="#m476344969c" y="43.2"/>
      </g>
     </g>
     <g id="text_2">
      <!-- $\chi$ -->
      <defs>
       <path d="
M4.29688 -19.3906
Q3.8125 -19.3906 3.34375 -18.9688
Q2.875 -18.5625 2.875 -18.1094
Q2.875 -17.4375 3.32812 -17.0938
L27.7812 10.1094
Q26.125 16.1562 24.0469 22.7188
Q21.9688 29.2969 19.0625 35.4531
Q16.1562 41.6094 13.9219 41.6094
Q11.9688 41.6094 10.8438 40.5312
Q9.71875 39.4531 8.85938 37.8594
Q8.01562 36.2812 7.71875 36.1875
L6.5 36.1875
Q6.20312 36.1875 5.95312 36.5156
Q5.71875 36.8594 5.71875 37.2031
Q5.71875 38.8125 7.10938 40.4531
Q8.5 42.0938 10.5156 43.1406
Q12.5469 44.1875 14.3125 44.1875
Q18.2656 44.1875 21.4844 42.7656
Q24.7031 41.3594 26.3125 38.1875
Q27.7344 35.1562 29.0469 31.6562
Q30.375 28.1719 31.5625 24.2188
Q32.7656 20.2656 33.7969 16.7031
L56.9844 42.4844
Q57.4688 43.1094 58.2031 43.1094
Q58.7969 43.1094 59.2031 42.75
Q59.625 42.3906 59.625 41.7969
Q59.625 41.1562 59.1875 40.8281
L34.7188 13.625
Q35.8906 9.1875 38.2344 1.78125
Q40.5781 -5.60938 43.4375 -11.7656
Q46.2969 -17.9219 48.5781 -17.9219
Q50.4375 -17.9219 51.6094 -16.8125
Q52.7812 -15.7188 53.6562 -14.1562
Q54.5469 -12.5938 54.7812 -12.5
L56 -12.5
Q56.7812 -12.5 56.7812 -13.4844
Q56.7812 -15.9688 53.8281 -18.2344
Q50.875 -20.5156 48.1875 -20.5156
Q44.2812 -20.5156 41.0625 -19.0938
Q37.8438 -17.6719 36.2812 -14.5
Q32.5625 -6.59375 28.7188 6.98438
L5.51562 -18.7969
Q5.03125 -19.3906 4.29688 -19.3906" id="Cmmi10-c2"/>
      </defs>
      <g transform="translate(211.265217391 406.0)scale(0.2 -0.2)">
       <use transform="translate(0.0 21.8125)" xlink:href="#Cmmi10-c2"/>
      </g>
     </g>
    </g>
    <g id="xtick_3">
     <g id="line2d_23">
      <g>
       <use style="stroke:#000000;stroke-linecap:butt;stroke-width:0.5;" x="367.982608696" xlink:href="#m0012dd4eef" y="388.8"/>
      </g>
     </g>
     <g id="line2d_24">
      <g>
       <use style="stroke:#000000;stroke-linecap:butt;stroke-width:0.5;" x="367.982608696" xlink:href="#m476344969c" y="43.2"/>
      </g>
     </g>
     <g id="text_3">
      <!-- $M$ -->
      <defs>
       <path d="
M5.07812 0
Q4.10938 0 4.10938 1.3125
Q4.15625 1.5625 4.29688 2.14062
Q4.4375 2.73438 4.6875 3.125
Q4.9375 3.51562 5.42188 3.51562
Q14.9375 3.51562 16.5 9.625
L29.5 61.8125
Q29.6875 62.7969 29.6875 63.1875
Q29.6875 64.2656 28.5156 64.4062
Q26.6094 64.7969 21.2969 64.7969
Q20.3125 64.7969 20.3125 66.1094
Q20.3594 66.3594 20.5 66.9688
Q20.6562 67.5781 20.9219 67.9375
Q21.1875 68.3125 21.5781 68.3125
L39.2031 68.3125
Q40.3281 68.3125 40.4844 67.1875
L48.2969 9.90625
L84.7188 67.1875
Q85.4062 68.3125 86.625 68.3125
L103.609 68.3125
Q104.594 68.3125 104.594 67
Q104.547 66.75 104.391 66.1406
Q104.25 65.5312 103.984 65.1562
Q103.719 64.7969 103.328 64.7969
Q97.2188 64.7969 94.8281 64.1094
Q93.5 63.6719 92.9219 61.375
L79.2031 6.5
Q79 5.51562 79 5.07812
Q79 4.6875 79.125 4.42188
Q79.25 4.15625 79.4688 4.07812
Q79.6875 4 80.1719 3.90625
Q82.0781 3.51562 87.4062 3.51562
Q88.375 3.51562 88.375 2.20312
Q88.0312 0.78125 87.8281 0.390625
Q87.6406 0 86.7188 0
L60.5938 0
Q59.625 0 59.625 1.3125
Q59.6719 1.5625 59.8125 2.17188
Q59.9688 2.78125 60.2344 3.14062
Q60.5 3.51562 60.8906 3.51562
Q67 3.51562 69.3906 4.20312
Q70.7031 4.64062 71.2969 6.89062
L85.6875 64.7969
L45.3125 1.125
Q44.7344 0 43.3125 0
Q42.0469 0 41.8906 1.125
L33.4062 64.0156
L19.6719 9.1875
Q19.5781 8.9375 19.5312 8.5625
Q19.4844 8.20312 19.3906 7.71875
Q19.3906 5.125 21.6562 4.3125
Q23.9219 3.51562 27.2031 3.51562
Q28.2188 3.51562 28.2188 2.20312
Q27.875 0.875 27.6562 0.4375
Q27.4375 0 26.5156 0
z
" id="Cmmi10-4d"/>
      </defs>
      <g transform="translate(358.182608696 406.6)scale(0.2 -0.2)">
       <use transform="translate(0.0 0.6875)" xlink:href="#Cmmi10-4d"/>
      </g>
     </g>
    </g>
    <g id="xtick_4">
     <g id="line2d_25">
      <g>
       <use style="stroke:#000000;stroke-linecap:butt;stroke-width:0.5;" x="518.4" xlink:href="#m0012dd4eef" y="388.8"/>
      </g>
     </g>
     <g id="line2d_26">
      <g>
       <use style="stroke:#000000;stroke-linecap:butt;stroke-width:0.5;" x="518.4" xlink:href="#m476344969c" y="43.2"/>
      </g>
     </g>
     <g id="text_4">
      <!-- $\Gamma$ -->
      <g transform="translate(512.1 406.6)scale(0.2 -0.2)">
       <use transform="translate(0.0 0.6875)" xlink:href="#Cmr10-a1"/>
      </g>
     </g>
    </g>
   </g>
   <g id="matplotlib.axis_2">
    <g id="ytick_1">
     <g id="line2d_27">
      <defs>
       <path d="
M0 0
L4 0" id="me8a85f7bf6" style="stroke:#000000;stroke-linecap:butt;stroke-width:0.5;"/>
      </defs>
      <g>
       <use style="stroke:#000000;stroke-linecap:butt;stroke-width:0.5;" x="72.0" xlink:href="#me8a85f7bf6" y="388.8"/>
      </g>
     </g>
     <g id="line2d_28">
      <defs>
       <path d="
M0 0
L-4 0" id="m1a32005dea" style="stroke:#000000;stroke-linecap:butt;stroke-width:0.5;"/>
      </defs>
      <g>
       <use style="stroke:#000000;stroke-linecap:butt;stroke-width:0.5;" x="518.4" xlink:href="#m1a32005dea" y="388.8"/>
      </g>
     </g>
     <g id="text_5">
      <!-- 0.0 -->
      <defs>
       <path d="
M31.7812 66.4062
Q24.1719 66.4062 20.3281 58.9062
Q16.5 51.4219 16.5 36.375
Q16.5 21.3906 20.3281 13.8906
Q24.1719 6.39062 31.7812 6.39062
Q39.4531 6.39062 43.2812 13.8906
Q47.125 21.3906 47.125 36.375
Q47.125 51.4219 43.2812 58.9062
Q39.4531 66.4062 31.7812 66.4062
M31.7812 74.2188
Q44.0469 74.2188 50.5156 64.5156
Q56.9844 54.8281 56.9844 36.375
Q56.9844 17.9688 50.5156 8.26562
Q44.0469 -1.42188 31.7812 -1.42188
Q19.5312 -1.42188 13.0625 8.26562
Q6.59375 17.9688 6.59375 36.375
Q6.59375 54.8281 13.0625 64.5156
Q19.5312 74.2188 31.7812 74.2188" id="DejaVuSans-30"/>
       <path d="
M10.6875 12.4062
L21 12.4062
L21 0
L10.6875 0
z
" id="DejaVuSans-2e"/>
      </defs>
      <g transform="translate(50.504375 393.1678125)scale(0.12 -0.12)">
       <use xlink:href="#DejaVuSans-30"/>
       <use x="63.623046875" xlink:href="#DejaVuSans-2e"/>
       <use x="95.41015625" xlink:href="#DejaVuSans-30"/>
      </g>
     </g>
    </g>
    <g id="ytick_2">
     <g id="line2d_29">
      <g>
       <use style="stroke:#000000;stroke-linecap:butt;stroke-width:0.5;" x="72.0" xlink:href="#me8a85f7bf6" y="347.644609225"/>
      </g>
     </g>
     <g id="line2d_30">
      <g>
       <use style="stroke:#000000;stroke-linecap:butt;stroke-width:0.5;" x="518.4" xlink:href="#m1a32005dea" y="347.644609225"/>
      </g>
     </g>
     <g id="text_6">
      <!-- 0.2 -->
      <defs>
       <path d="
M19.1875 8.29688
L53.6094 8.29688
L53.6094 0
L7.32812 0
L7.32812 8.29688
Q12.9375 14.1094 22.625 23.8906
Q32.3281 33.6875 34.8125 36.5312
Q39.5469 41.8438 41.4219 45.5312
Q43.3125 49.2188 43.3125 52.7812
Q43.3125 58.5938 39.2344 62.25
Q35.1562 65.9219 28.6094 65.9219
Q23.9688 65.9219 18.8125 64.3125
Q13.6719 62.7031 7.8125 59.4219
L7.8125 69.3906
Q13.7656 71.7812 18.9375 73
Q24.125 74.2188 28.4219 74.2188
Q39.75 74.2188 46.4844 68.5469
Q53.2188 62.8906 53.2188 53.4219
Q53.2188 48.9219 51.5312 44.8906
Q49.8594 40.875 45.4062 35.4062
Q44.1875 33.9844 37.6406 27.2188
Q31.1094 20.4531 19.1875 8.29688" id="DejaVuSans-32"/>
      </defs>
      <g transform="translate(50.909375 352.012421725)scale(0.12 -0.12)">
       <use xlink:href="#DejaVuSans-30"/>
       <use x="63.623046875" xlink:href="#DejaVuSans-2e"/>
       <use x="95.41015625" xlink:href="#DejaVuSans-32"/>
      </g>
     </g>
    </g>
    <g id="ytick_3">
     <g id="line2d_31">
      <g>
       <use style="stroke:#000000;stroke-linecap:butt;stroke-width:0.5;" x="72.0" xlink:href="#me8a85f7bf6" y="306.489218449"/>
      </g>
     </g>
     <g id="line2d_32">
      <g>
       <use style="stroke:#000000;stroke-linecap:butt;stroke-width:0.5;" x="518.4" xlink:href="#m1a32005dea" y="306.489218449"/>
      </g>
     </g>
     <g id="text_7">
      <!-- 0.4 -->
      <defs>
       <path d="
M37.7969 64.3125
L12.8906 25.3906
L37.7969 25.3906
z

M35.2031 72.9062
L47.6094 72.9062
L47.6094 25.3906
L58.0156 25.3906
L58.0156 17.1875
L47.6094 17.1875
L47.6094 0
L37.7969 0
L37.7969 17.1875
L4.89062 17.1875
L4.89062 26.7031
z
" id="DejaVuSans-34"/>
      </defs>
      <g transform="translate(50.380625 310.857030949)scale(0.12 -0.12)">
       <use xlink:href="#DejaVuSans-30"/>
       <use x="63.623046875" xlink:href="#DejaVuSans-2e"/>
       <use x="95.41015625" xlink:href="#DejaVuSans-34"/>
      </g>
     </g>
    </g>
    <g id="ytick_4">
     <g id="line2d_33">
      <g>
       <use style="stroke:#000000;stroke-linecap:butt;stroke-width:0.5;" x="72.0" xlink:href="#me8a85f7bf6" y="265.333827674"/>
      </g>
     </g>
     <g id="line2d_34">
      <g>
       <use style="stroke:#000000;stroke-linecap:butt;stroke-width:0.5;" x="518.4" xlink:href="#m1a32005dea" y="265.333827674"/>
      </g>
     </g>
     <g id="text_8">
      <!-- 0.6 -->
      <defs>
       <path d="
M33.0156 40.375
Q26.375 40.375 22.4844 35.8281
Q18.6094 31.2969 18.6094 23.3906
Q18.6094 15.5312 22.4844 10.9531
Q26.375 6.39062 33.0156 6.39062
Q39.6562 6.39062 43.5312 10.9531
Q47.4062 15.5312 47.4062 23.3906
Q47.4062 31.2969 43.5312 35.8281
Q39.6562 40.375 33.0156 40.375
M52.5938 71.2969
L52.5938 62.3125
Q48.875 64.0625 45.0938 64.9844
Q41.3125 65.9219 37.5938 65.9219
Q27.8281 65.9219 22.6719 59.3281
Q17.5312 52.7344 16.7969 39.4062
Q19.6719 43.6562 24.0156 45.9219
Q28.375 48.1875 33.5938 48.1875
Q44.5781 48.1875 50.9531 41.5156
Q57.3281 34.8594 57.3281 23.3906
Q57.3281 12.1562 50.6875 5.35938
Q44.0469 -1.42188 33.0156 -1.42188
Q20.3594 -1.42188 13.6719 8.26562
Q6.98438 17.9688 6.98438 36.375
Q6.98438 53.6562 15.1875 63.9375
Q23.3906 74.2188 37.2031 74.2188
Q40.9219 74.2188 44.7031 73.4844
Q48.4844 72.75 52.5938 71.2969" id="DejaVuSans-36"/>
      </defs>
      <g transform="translate(50.463125 269.701640174)scale(0.12 -0.12)">
       <use xlink:href="#DejaVuSans-30"/>
       <use x="63.623046875" xlink:href="#DejaVuSans-2e"/>
       <use x="95.41015625" xlink:href="#DejaVuSans-36"/>
      </g>
     </g>
    </g>
    <g id="ytick_5">
     <g id="line2d_35">
      <g>
       <use style="stroke:#000000;stroke-linecap:butt;stroke-width:0.5;" x="72.0" xlink:href="#me8a85f7bf6" y="224.178436899"/>
      </g>
     </g>
     <g id="line2d_36">
      <g>
       <use style="stroke:#000000;stroke-linecap:butt;stroke-width:0.5;" x="518.4" xlink:href="#m1a32005dea" y="224.178436899"/>
      </g>
     </g>
     <g id="text_9">
      <!-- 0.8 -->
      <defs>
       <path d="
M31.7812 34.625
Q24.75 34.625 20.7188 30.8594
Q16.7031 27.0938 16.7031 20.5156
Q16.7031 13.9219 20.7188 10.1562
Q24.75 6.39062 31.7812 6.39062
Q38.8125 6.39062 42.8594 10.1719
Q46.9219 13.9688 46.9219 20.5156
Q46.9219 27.0938 42.8906 30.8594
Q38.875 34.625 31.7812 34.625
M21.9219 38.8125
Q15.5781 40.375 12.0312 44.7188
Q8.5 49.0781 8.5 55.3281
Q8.5 64.0625 14.7188 69.1406
Q20.9531 74.2188 31.7812 74.2188
Q42.6719 74.2188 48.875 69.1406
Q55.0781 64.0625 55.0781 55.3281
Q55.0781 49.0781 51.5312 44.7188
Q48 40.375 41.7031 38.8125
Q48.8281 37.1562 52.7969 32.3125
Q56.7812 27.4844 56.7812 20.5156
Q56.7812 9.90625 50.3125 4.23438
Q43.8438 -1.42188 31.7812 -1.42188
Q19.7344 -1.42188 13.25 4.23438
Q6.78125 9.90625 6.78125 20.5156
Q6.78125 27.4844 10.7812 32.3125
Q14.7969 37.1562 21.9219 38.8125
M18.3125 54.3906
Q18.3125 48.7344 21.8438 45.5625
Q25.3906 42.3906 31.7812 42.3906
Q38.1406 42.3906 41.7188 45.5625
Q45.3125 48.7344 45.3125 54.3906
Q45.3125 60.0625 41.7188 63.2344
Q38.1406 66.4062 31.7812 66.4062
Q25.3906 66.4062 21.8438 63.2344
Q18.3125 60.0625 18.3125 54.3906" id="DejaVuSans-38"/>
      </defs>
      <g transform="translate(50.52875 228.546249399)scale(0.12 -0.12)">
       <use xlink:href="#DejaVuSans-30"/>
       <use x="63.623046875" xlink:href="#DejaVuSans-2e"/>
       <use x="95.41015625" xlink:href="#DejaVuSans-38"/>
      </g>
     </g>
    </g>
    <g id="ytick_6">
     <g id="line2d_37">
      <g>
       <use style="stroke:#000000;stroke-linecap:butt;stroke-width:0.5;" x="72.0" xlink:href="#me8a85f7bf6" y="183.023046123"/>
      </g>
     </g>
     <g id="line2d_38">
      <g>
       <use style="stroke:#000000;stroke-linecap:butt;stroke-width:0.5;" x="518.4" xlink:href="#m1a32005dea" y="183.023046123"/>
      </g>
     </g>
     <g id="text_10">
      <!-- 1.0 -->
      <defs>
       <path d="
M12.4062 8.29688
L28.5156 8.29688
L28.5156 63.9219
L10.9844 60.4062
L10.9844 69.3906
L28.4219 72.9062
L38.2812 72.9062
L38.2812 8.29688
L54.3906 8.29688
L54.3906 0
L12.4062 0
z
" id="DejaVuSans-31"/>
      </defs>
      <g transform="translate(51.03125 187.390858623)scale(0.12 -0.12)">
       <use xlink:href="#DejaVuSans-31"/>
       <use x="63.623046875" xlink:href="#DejaVuSans-2e"/>
       <use x="95.41015625" xlink:href="#DejaVuSans-30"/>
      </g>
     </g>
    </g>
    <g id="ytick_7">
     <g id="line2d_39">
      <g>
       <use style="stroke:#000000;stroke-linecap:butt;stroke-width:0.5;" x="72.0" xlink:href="#me8a85f7bf6" y="141.867655348"/>
      </g>
     </g>
     <g id="line2d_40">
      <g>
       <use style="stroke:#000000;stroke-linecap:butt;stroke-width:0.5;" x="518.4" xlink:href="#m1a32005dea" y="141.867655348"/>
      </g>
     </g>
     <g id="text_11">
      <!-- 1.2 -->
      <g transform="translate(51.43625 146.320780348)scale(0.12 -0.12)">
       <use xlink:href="#DejaVuSans-31"/>
       <use x="63.623046875" xlink:href="#DejaVuSans-2e"/>
       <use x="95.41015625" xlink:href="#DejaVuSans-32"/>
      </g>
     </g>
    </g>
    <g id="ytick_8">
     <g id="line2d_41">
      <g>
       <use style="stroke:#000000;stroke-linecap:butt;stroke-width:0.5;" x="72.0" xlink:href="#me8a85f7bf6" y="100.712264573"/>
      </g>
     </g>
     <g id="line2d_42">
      <g>
       <use style="stroke:#000000;stroke-linecap:butt;stroke-width:0.5;" x="518.4" xlink:href="#m1a32005dea" y="100.712264573"/>
      </g>
     </g>
     <g id="text_12">
      <!-- 1.4 -->
      <g transform="translate(50.9075 105.086639573)scale(0.12 -0.12)">
       <use xlink:href="#DejaVuSans-31"/>
       <use x="63.623046875" xlink:href="#DejaVuSans-2e"/>
       <use x="95.41015625" xlink:href="#DejaVuSans-34"/>
      </g>
     </g>
    </g>
    <g id="ytick_9">
     <g id="line2d_43">
      <g>
       <use style="stroke:#000000;stroke-linecap:butt;stroke-width:0.5;" x="72.0" xlink:href="#me8a85f7bf6" y="59.5568737974"/>
      </g>
     </g>
     <g id="line2d_44">
      <g>
       <use style="stroke:#000000;stroke-linecap:butt;stroke-width:0.5;" x="518.4" xlink:href="#m1a32005dea" y="59.5568737974"/>
      </g>
     </g>
     <g id="text_13">
      <!-- 1.6 -->
      <g transform="translate(50.99 63.9246862974)scale(0.12 -0.12)">
       <use xlink:href="#DejaVuSans-31"/>
       <use x="63.623046875" xlink:href="#DejaVuSans-2e"/>
       <use x="95.41015625" xlink:href="#DejaVuSans-36"/>
      </g>
     </g>
    </g>
    <g id="text_14">
     <!-- Frequency $ \frac{\omega a}{2\pi c} $ -->
     <defs>
      <path d="
M4.98438 0
L4.98438 2.6875
Q4.98438 2.9375 5.17188 3.21875
L20.7031 20.4062
Q24.2188 24.2188 26.4062 26.7969
Q28.6094 29.3906 30.75 32.7656
Q32.9062 36.1406 34.1562 39.625
Q35.4062 43.1094 35.4062 47.0156
Q35.4062 51.125 33.8906 54.8594
Q32.375 58.5938 29.375 60.8438
Q26.375 63.0938 22.125 63.0938
Q17.7812 63.0938 14.3125 60.4688
Q10.8438 57.8594 9.42188 53.7188
Q9.8125 53.8125 10.5 53.8125
Q12.75 53.8125 14.3281 52.2969
Q15.9219 50.7812 15.9219 48.3906
Q15.9219 46.0938 14.3281 44.5
Q12.75 42.9219 10.5 42.9219
Q8.15625 42.9219 6.5625 44.5469
Q4.98438 46.1875 4.98438 48.3906
Q4.98438 52.1562 6.39062 55.4375
Q7.8125 58.7344 10.4688 61.2969
Q13.1406 63.875 16.4844 65.2344
Q19.8281 66.6094 23.5781 66.6094
Q29.2969 66.6094 34.2188 64.1875
Q39.1562 61.7656 42.0312 57.3438
Q44.9219 52.9375 44.9219 47.0156
Q44.9219 42.6719 43.0156 38.7656
Q41.1094 34.8594 38.125 31.6562
Q35.1562 28.4688 30.5156 24.4062
Q25.875 20.3594 24.4219 19
L13.0938 8.10938
L22.7031 8.10938
Q29.7812 8.10938 34.5469 8.21875
Q39.3125 8.34375 39.5938 8.59375
Q40.7656 9.85938 42 17.8281
L44.9219 17.8281
L42.0938 0
z
" id="Cmr10-32"/>
      <path d="
M54.8906 33.0156
L54.8906 0
L45.9062 0
L45.9062 32.7188
Q45.9062 40.4844 42.875 44.3281
Q39.8438 48.1875 33.7969 48.1875
Q26.5156 48.1875 22.3125 43.5469
Q18.1094 38.9219 18.1094 30.9062
L18.1094 0
L9.07812 0
L9.07812 54.6875
L18.1094 54.6875
L18.1094 46.1875
Q21.3438 51.125 25.7031 53.5625
Q30.0781 56 35.7969 56
Q45.2188 56 50.0469 50.1719
Q54.8906 44.3438 54.8906 33.0156" id="DejaVuSans-6e"/>
      <path d="
M12.1094 -1.125
Q6.45312 -1.125 3.9375 3.01562
Q1.42188 7.17188 1.42188 13.1875
Q1.42188 17.1406 2.125 20.9219
Q2.82812 24.7031 4.26562 28.5781
Q5.71875 32.4688 7.5625 35.8594
Q9.42188 39.2656 11.7188 42.4844
Q12.1562 43.1094 12.8906 43.1094
Q13.5312 43.1094 13.9219 42.7188
Q14.3125 42.3281 14.3125 41.7969
Q14.3125 41.2656 14.0156 40.8281
Q4.89062 28.2656 4.89062 17.6719
Q4.89062 13.0938 7 9.79688
Q9.125 6.5 13.4844 6.5
Q17.2344 6.5 20.4375 8.6875
Q23.6406 10.8906 25.9844 14.3125
Q25.9844 16.0625 26.5938 19.7656
Q27.2031 23.4844 28.4844 26.3906
Q29.7812 29.2969 31.5938 29.2969
Q33.8906 29.2969 33.8906 26.6094
Q33.8906 25.0469 33.2188 22.6719
Q32.5625 20.3125 31.75 18.2656
Q30.9531 16.2188 29.7812 13.625
Q30.9531 6.5 36.9219 6.5
Q40.375 6.5 43.8594 8.5
Q47.3594 10.5 50.0469 13.75
Q52.7344 17 54.2656 20.75
Q55.8125 24.5156 55.8125 27.875
Q55.8125 30.9062 54.8594 32.5938
Q53.9062 34.2812 52.3438 36.125
Q50.7812 37.9844 50.7812 39.1094
Q50.7812 41.0625 52.4375 42.6719
Q54.1094 44.2812 56 44.2812
Q58.4531 44.2812 59.4688 42.0625
Q60.5 39.8438 60.5 37.0156
Q60.5 32.4219 58.6719 25.4375
Q56.8438 18.4531 54.5 13.8125
Q51.2656 7.51562 46.4062 3.1875
Q41.5469 -1.125 35.5 -1.125
Q31.6406 -1.125 29.2656 1.1875
Q26.9062 3.51562 26.2188 7.51562
Q23.4375 3.5625 19.875 1.21875
Q16.3125 -1.125 12.1094 -1.125" id="Cmmi10-21"/>
      <path id="DejaVuSans-20"/>
      <path d="
M10.1094 1.70312
Q10.1094 2.25 10.5 3.32812
Q13.2812 9.125 15.6875 14.7188
Q18.1094 20.3125 20.0312 25.6094
Q21.9688 30.9062 23.5781 36.9219
L17.1875 36.9219
Q13.5312 36.9219 10.3438 34.625
Q7.17188 32.3281 5.07812 28.8125
Q4.89062 28.4219 4.5 28.4219
L3.32812 28.4219
Q2.39062 28.4219 2.39062 29.3906
Q2.39062 29.5938 2.59375 29.9844
Q5.85938 35.5469 9.59375 39.3281
Q13.3281 43.1094 18.0156 43.1094
L54.2969 43.1094
Q55.3281 43.1094 56.0469 42.4219
Q56.7812 41.75 56.7812 40.5781
Q56.7812 39.1094 55.7344 38.0156
Q54.6875 36.9219 53.2188 36.9219
L40.4844 36.9219
Q38.875 29.0469 38.7188 21.5781
Q38.7188 11.9688 42.0938 4.20312
Q42.3906 3.60938 42.3906 2.98438
Q42.3906 1.90625 41.75 0.96875
Q41.1094 0.046875 40.1094 -0.53125
Q39.1094 -1.125 37.9844 -1.125
Q35.3594 -1.125 34.375 3.17188
Q33.4062 7.46875 33.4062 11.5312
Q33.4062 17.2344 34.375 22.5312
Q35.3594 27.8281 37.5 36.9219
L26.6094 36.9219
Q18.7031 4.89062 17.0938 1.60938
Q15.6719 -1.125 13.1875 -1.125
Q11.9688 -1.125 11.0312 -0.3125
Q10.1094 0.484375 10.1094 1.70312" id="Cmmi10-bc"/>
      <path d="
M11.7188 11.9219
Q11.7188 7.5625 13.9375 4.53125
Q16.1562 1.51562 20.3125 1.51562
Q26.2656 1.51562 31.75 4.25
Q37.25 6.98438 40.7188 11.8125
Q41.0156 12.1094 41.5 12.1094
Q42 12.1094 42.5 11.5469
Q43.0156 10.9844 43.0156 10.5
Q43.0156 10.1094 42.8281 9.90625
Q39.1562 4.78125 32.9531 1.82812
Q26.7656 -1.125 20.125 -1.125
Q15.3281 -1.125 11.6719 1.14062
Q8.01562 3.42188 6 7.21875
Q4 11.0312 4 15.8281
Q4 22.5625 7.76562 29.2031
Q11.5312 35.8438 17.7812 40.0156
Q24.0312 44.1875 30.9062 44.1875
Q35.4062 44.1875 38.9844 42.0156
Q42.5781 39.8438 42.5781 35.5938
Q42.5781 32.8594 40.9844 30.9219
Q39.4062 29 36.7188 29
Q35.1094 29 34 30
Q32.9062 31 32.9062 32.625
Q32.9062 34.9688 34.6094 36.625
Q36.3281 38.2812 38.625 38.2812
L38.8125 38.2812
Q37.6406 39.9844 35.4219 40.7969
Q33.2031 41.6094 30.8125 41.6094
Q24.9531 41.6094 20.5469 36.5938
Q16.1562 31.5938 13.9375 24.625
Q11.7188 17.6719 11.7188 11.9219" id="Cmmi10-63"/>
      <path d="
M17.3906 -1.125
Q11.0781 -1.125 7.4375 3.64062
Q3.8125 8.40625 3.8125 14.8906
Q3.8125 21.2969 7.125 28.1719
Q10.4531 35.0625 16.0938 39.625
Q21.7344 44.1875 28.2188 44.1875
Q31.2031 44.1875 33.5469 42.5781
Q35.8906 40.9688 37.2031 38.1875
Q38.3281 42.1875 41.6094 42.1875
Q42.875 42.1875 43.7188 41.4219
Q44.5781 40.6719 44.5781 39.4062
Q44.5781 39.1094 44.5469 38.9531
Q44.5312 38.8125 44.4844 38.625
L37.5 10.6875
Q36.8125 7.71875 36.8125 5.8125
Q36.8125 1.51562 39.7031 1.51562
Q42.8281 1.51562 44.4531 5.48438
Q46.0938 9.46875 47.2188 14.7031
Q47.4062 15.2812 48 15.2812
L49.2188 15.2812
Q49.6094 15.2812 49.8438 14.9375
Q50.0938 14.5938 50.0938 14.3125
Q48.3438 7.32812 46.2656 3.09375
Q44.1875 -1.125 39.5 -1.125
Q36.1406 -1.125 33.5469 0.84375
Q30.9531 2.82812 30.3281 6.10938
Q23.875 -1.125 17.3906 -1.125
M17.4844 1.51562
Q21.0938 1.51562 24.4844 4.21875
Q27.875 6.9375 30.3281 10.5938
Q30.4219 10.6875 30.4219 10.8906
L35.7969 32.625
L35.8906 32.9062
Q35.2969 36.4688 33.3125 39.0312
Q31.3438 41.6094 27.9844 41.6094
Q24.6094 41.6094 21.7031 38.8438
Q18.7969 36.0781 16.7969 32.3281
Q14.8438 28.3281 13.0625 21.3438
Q11.2812 14.3594 11.2812 10.5
Q11.2812 7.03125 12.7656 4.26562
Q14.2656 1.51562 17.4844 1.51562" id="Cmmi10-61"/>
      <path d="
M9.8125 72.9062
L51.7031 72.9062
L51.7031 64.5938
L19.6719 64.5938
L19.6719 43.1094
L48.5781 43.1094
L48.5781 34.8125
L19.6719 34.8125
L19.6719 0
L9.8125 0
z
" id="DejaVuSans-46"/>
      <path d="
M32.1719 -5.07812
Q28.375 -14.8438 24.75 -17.8125
Q21.1406 -20.7969 15.0938 -20.7969
L7.90625 -20.7969
L7.90625 -13.2812
L13.1875 -13.2812
Q16.8906 -13.2812 18.9375 -11.5156
Q21 -9.76562 23.4844 -3.21875
L25.0938 0.875
L2.98438 54.6875
L12.5 54.6875
L29.5938 11.9219
L46.6875 54.6875
L56.2031 54.6875
z
" id="DejaVuSans-79"/>
      <path d="
M8.5 21.5781
L8.5 54.6875
L17.4844 54.6875
L17.4844 21.9219
Q17.4844 14.1562 20.5 10.2656
Q23.5312 6.39062 29.5938 6.39062
Q36.8594 6.39062 41.0781 11.0312
Q45.3125 15.6719 45.3125 23.6875
L45.3125 54.6875
L54.2969 54.6875
L54.2969 0
L45.3125 0
L45.3125 8.40625
Q42.0469 3.42188 37.7188 1
Q33.4062 -1.42188 27.6875 -1.42188
Q18.2656 -1.42188 13.375 4.4375
Q8.5 10.2969 8.5 21.5781
M31.1094 56
z
" id="DejaVuSans-75"/>
      <path d="
M56.2031 29.5938
L56.2031 25.2031
L14.8906 25.2031
Q15.4844 15.9219 20.4844 11.0625
Q25.4844 6.20312 34.4219 6.20312
Q39.5938 6.20312 44.4531 7.46875
Q49.3125 8.73438 54.1094 11.2812
L54.1094 2.78125
Q49.2656 0.734375 44.1875 -0.34375
Q39.1094 -1.42188 33.8906 -1.42188
Q20.7969 -1.42188 13.1562 6.1875
Q5.51562 13.8125 5.51562 26.8125
Q5.51562 40.2344 12.7656 48.1094
Q20.0156 56 32.3281 56
Q43.3594 56 49.7812 48.8906
Q56.2031 41.7969 56.2031 29.5938
M47.2188 32.2344
Q47.125 39.5938 43.0938 43.9844
Q39.0625 48.3906 32.4219 48.3906
Q24.9062 48.3906 20.3906 44.1406
Q15.875 39.8906 15.1875 32.1719
z
" id="DejaVuSans-65"/>
      <path d="
M14.7969 27.2969
Q14.7969 17.3906 18.875 11.75
Q22.9531 6.10938 30.0781 6.10938
Q37.2031 6.10938 41.2969 11.75
Q45.4062 17.3906 45.4062 27.2969
Q45.4062 37.2031 41.2969 42.8438
Q37.2031 48.4844 30.0781 48.4844
Q22.9531 48.4844 18.875 42.8438
Q14.7969 37.2031 14.7969 27.2969
M45.4062 8.20312
Q42.5781 3.32812 38.25 0.953125
Q33.9375 -1.42188 27.875 -1.42188
Q17.9688 -1.42188 11.7344 6.48438
Q5.51562 14.4062 5.51562 27.2969
Q5.51562 40.1875 11.7344 48.0938
Q17.9688 56 27.875 56
Q33.9375 56 38.25 53.625
Q42.5781 51.2656 45.4062 46.3906
L45.4062 54.6875
L54.3906 54.6875
L54.3906 -20.7969
L45.4062 -20.7969
z
" id="DejaVuSans-71"/>
      <path d="
M48.7812 52.5938
L48.7812 44.1875
Q44.9688 46.2969 41.1406 47.3438
Q37.3125 48.3906 33.4062 48.3906
Q24.6562 48.3906 19.8125 42.8438
Q14.9844 37.3125 14.9844 27.2969
Q14.9844 17.2812 19.8125 11.7344
Q24.6562 6.20312 33.4062 6.20312
Q37.3125 6.20312 41.1406 7.25
Q44.9688 8.29688 48.7812 10.4062
L48.7812 2.09375
Q45.0156 0.34375 40.9844 -0.53125
Q36.9688 -1.42188 32.4219 -1.42188
Q20.0625 -1.42188 12.7812 6.34375
Q5.51562 14.1094 5.51562 27.2969
Q5.51562 40.6719 12.8594 48.3281
Q20.2188 56 33.0156 56
Q37.1562 56 41.1094 55.1406
Q45.0625 54.2969 48.7812 52.5938" id="DejaVuSans-63"/>
      <path d="
M41.1094 46.2969
Q39.5938 47.1719 37.8125 47.5781
Q36.0312 48 33.8906 48
Q26.2656 48 22.1875 43.0469
Q18.1094 38.0938 18.1094 28.8125
L18.1094 0
L9.07812 0
L9.07812 54.6875
L18.1094 54.6875
L18.1094 46.1875
Q20.9531 51.1719 25.4844 53.5781
Q30.0312 56 36.5312 56
Q37.4531 56 38.5781 55.875
Q39.7031 55.7656 41.0625 55.5156
z
" id="DejaVuSans-72"/>
     </defs>
     <g transform="translate(45.380625 283.6)rotate(-90.0)scale(0.2 -0.2)">
      <use transform="translate(0.0 42.09375)" xlink:href="#DejaVuSans-46"/>
      <use transform="translate(57.51953125 42.09375)" xlink:href="#DejaVuSans-72"/>
      <use transform="translate(98.6328125 42.09375)" xlink:href="#DejaVuSans-65"/>
      <use transform="translate(160.15625 42.09375)" xlink:href="#DejaVuSans-71"/>
      <use transform="translate(223.6328125 42.09375)" xlink:href="#DejaVuSans-75"/>
      <use transform="translate(287.01171875 42.09375)" xlink:href="#DejaVuSans-65"/>
      <use transform="translate(348.53515625 42.09375)" xlink:href="#DejaVuSans-6e"/>
      <use transform="translate(411.9140625 42.09375)" xlink:href="#DejaVuSans-63"/>
      <use transform="translate(466.89453125 42.09375)" xlink:href="#DejaVuSans-79"/>
      <use transform="translate(526.07421875 42.09375)" xlink:href="#DejaVuSans-20"/>
      <use transform="translate(569.861328125 80.38125)scale(0.7)" xlink:href="#Cmmi10-21"/>
      <use transform="translate(613.40625 80.38125)scale(0.7)" xlink:href="#Cmmi10-61"/>
      <use transform="translate(557.861328125 1.7171875)scale(0.7)" xlink:href="#Cmr10-32"/>
      <use transform="translate(592.861328125 1.7171875)scale(0.7)" xlink:href="#Cmmi10-bc"/>
      <use transform="translate(632.749023438 1.7171875)scale(0.7)" xlink:href="#Cmmi10-63"/>
      <path d="
M557.861 54.5937
L557.861 60.8437
L662.998 60.8437
L662.998 54.5937
L557.861 54.5937
z
"/>
     </g>
    </g>
   </g>
   <g id="patch_3">
    <path d="
M72 43.2
L518.4 43.2" style="fill:none;stroke:#000000;"/>
   </g>
   <g id="patch_4">
    <path d="
M518.4 388.8
L518.4 43.2" style="fill:none;stroke:#000000;"/>
   </g>
   <g id="patch_5">
    <path d="
M72 388.8
L518.4 388.8" style="fill:none;stroke:#000000;"/>
   </g>
   <g id="patch_6">
    <path d="
M72 388.8
L72 43.2" style="fill:none;stroke:#000000;"/>
   </g>
   <g id="text_15">
    <!-- Dispersion relations for Square lattice -->
    <defs>
     <path d="
M30.6094 48.3906
Q23.3906 48.3906 19.1875 42.75
Q14.9844 37.1094 14.9844 27.2969
Q14.9844 17.4844 19.1562 11.8438
Q23.3438 6.20312 30.6094 6.20312
Q37.7969 6.20312 41.9844 11.8594
Q46.1875 17.5312 46.1875 27.2969
Q46.1875 37.0156 41.9844 42.7031
Q37.7969 48.3906 30.6094 48.3906
M30.6094 56
Q42.3281 56 49.0156 48.375
Q55.7188 40.7656 55.7188 27.2969
Q55.7188 13.875 49.0156 6.21875
Q42.3281 -1.42188 30.6094 -1.42188
Q18.8438 -1.42188 12.1719 6.21875
Q5.51562 13.875 5.51562 27.2969
Q5.51562 40.7656 12.1719 48.375
Q18.8438 56 30.6094 56" id="DejaVuSans-6f"/>
     <path d="
M9.42188 75.9844
L18.4062 75.9844
L18.4062 0
L9.42188 0
z
" id="DejaVuSans-6c"/>
     <path d="
M19.6719 64.7969
L19.6719 8.10938
L31.5938 8.10938
Q46.6875 8.10938 53.6875 14.9375
Q60.6875 21.7812 60.6875 36.5312
Q60.6875 51.1719 53.6875 57.9844
Q46.6875 64.7969 31.5938 64.7969
z

M9.8125 72.9062
L30.0781 72.9062
Q51.2656 72.9062 61.1719 64.0938
Q71.0938 55.2812 71.0938 36.5312
Q71.0938 17.6719 61.125 8.82812
Q51.1719 0 30.0781 0
L9.8125 0
z
" id="DejaVuSans-44"/>
     <path d="
M53.5156 70.5156
L53.5156 60.8906
Q47.9062 63.5781 42.9219 64.8906
Q37.9375 66.2188 33.2969 66.2188
Q25.25 66.2188 20.875 63.0938
Q16.5 59.9688 16.5 54.2031
Q16.5 49.3594 19.4062 46.8906
Q22.3125 44.4375 30.4219 42.9219
L36.375 41.7031
Q47.4062 39.5938 52.6562 34.2969
Q57.9062 29 57.9062 20.125
Q57.9062 9.51562 50.7969 4.04688
Q43.7031 -1.42188 29.9844 -1.42188
Q24.8125 -1.42188 18.9688 -0.25
Q13.1406 0.921875 6.89062 3.21875
L6.89062 13.375
Q12.8906 10.0156 18.6562 8.29688
Q24.4219 6.59375 29.9844 6.59375
Q38.4219 6.59375 43.0156 9.90625
Q47.6094 13.2344 47.6094 19.3906
Q47.6094 24.75 44.3125 27.7812
Q41.0156 30.8125 33.5 32.3281
L27.4844 33.5
Q16.4531 35.6875 11.5156 40.375
Q6.59375 45.0625 6.59375 53.4219
Q6.59375 63.0938 13.4062 68.6562
Q20.2188 74.2188 32.1719 74.2188
Q37.3125 74.2188 42.625 73.2812
Q47.9531 72.3594 53.5156 70.5156" id="DejaVuSans-53"/>
     <path d="
M9.42188 54.6875
L18.4062 54.6875
L18.4062 0
L9.42188 0
z

M9.42188 75.9844
L18.4062 75.9844
L18.4062 64.5938
L9.42188 64.5938
z
" id="DejaVuSans-69"/>
     <path d="
M37.1094 75.9844
L37.1094 68.5
L28.5156 68.5
Q23.6875 68.5 21.7969 66.5469
Q19.9219 64.5938 19.9219 59.5156
L19.9219 54.6875
L34.7188 54.6875
L34.7188 47.7031
L19.9219 47.7031
L19.9219 0
L10.8906 0
L10.8906 47.7031
L2.29688 47.7031
L2.29688 54.6875
L10.8906 54.6875
L10.8906 58.5
Q10.8906 67.625 15.1406 71.7969
Q19.3906 75.9844 28.6094 75.9844
z
" id="DejaVuSans-66"/>
     <path d="
M18.3125 70.2188
L18.3125 54.6875
L36.8125 54.6875
L36.8125 47.7031
L18.3125 47.7031
L18.3125 18.0156
Q18.3125 11.3281 20.1406 9.42188
Q21.9688 7.51562 27.5938 7.51562
L36.8125 7.51562
L36.8125 0
L27.5938 0
Q17.1875 0 13.2344 3.875
Q9.28125 7.76562 9.28125 18.0156
L9.28125 47.7031
L2.6875 47.7031
L2.6875 54.6875
L9.28125 54.6875
L9.28125 70.2188
z
" id="DejaVuSans-74"/>
     <path d="
M18.1094 8.20312
L18.1094 -20.7969
L9.07812 -20.7969
L9.07812 54.6875
L18.1094 54.6875
L18.1094 46.3906
Q20.9531 51.2656 25.2656 53.625
Q29.5938 56 35.5938 56
Q45.5625 56 51.7812 48.0938
Q58.0156 40.1875 58.0156 27.2969
Q58.0156 14.4062 51.7812 6.48438
Q45.5625 -1.42188 35.5938 -1.42188
Q29.5938 -1.42188 25.2656 0.953125
Q20.9531 3.32812 18.1094 8.20312
M48.6875 27.2969
Q48.6875 37.2031 44.6094 42.8438
Q40.5312 48.4844 33.4062 48.4844
Q26.2656 48.4844 22.1875 42.8438
Q18.1094 37.2031 18.1094 27.2969
Q18.1094 17.3906 22.1875 11.75
Q26.2656 6.10938 33.4062 6.10938
Q40.5312 6.10938 44.6094 11.75
Q48.6875 17.3906 48.6875 27.2969" id="DejaVuSans-70"/>
     <path d="
M44.2812 53.0781
L44.2812 44.5781
Q40.4844 46.5312 36.375 47.5
Q32.2812 48.4844 27.875 48.4844
Q21.1875 48.4844 17.8438 46.4375
Q14.5 44.3906 14.5 40.2812
Q14.5 37.1562 16.8906 35.375
Q19.2812 33.5938 26.5156 31.9844
L29.5938 31.2969
Q39.1562 29.25 43.1875 25.5156
Q47.2188 21.7812 47.2188 15.0938
Q47.2188 7.46875 41.1875 3.01562
Q35.1562 -1.42188 24.6094 -1.42188
Q20.2188 -1.42188 15.4531 -0.5625
Q10.6875 0.296875 5.42188 2
L5.42188 11.2812
Q10.4062 8.6875 15.2344 7.39062
Q20.0625 6.10938 24.8125 6.10938
Q31.1562 6.10938 34.5625 8.28125
Q37.9844 10.4531 37.9844 14.4062
Q37.9844 18.0625 35.5156 20.0156
Q33.0625 21.9688 24.7031 23.7812
L21.5781 24.5156
Q13.2344 26.2656 9.51562 29.9062
Q5.8125 33.5469 5.8125 39.8906
Q5.8125 47.6094 11.2812 51.7969
Q16.75 56 26.8125 56
Q31.7812 56 36.1719 55.2656
Q40.5781 54.5469 44.2812 53.0781" id="DejaVuSans-73"/>
     <path d="
M34.2812 27.4844
Q23.3906 27.4844 19.1875 25
Q14.9844 22.5156 14.9844 16.5
Q14.9844 11.7188 18.1406 8.90625
Q21.2969 6.10938 26.7031 6.10938
Q34.1875 6.10938 38.7031 11.4062
Q43.2188 16.7031 43.2188 25.4844
L43.2188 27.4844
z

M52.2031 31.2031
L52.2031 0
L43.2188 0
L43.2188 8.29688
Q40.1406 3.32812 35.5469 0.953125
Q30.9531 -1.42188 24.3125 -1.42188
Q15.9219 -1.42188 10.9531 3.29688
Q6 8.01562 6 15.9219
Q6 25.1406 12.1719 29.8281
Q18.3594 34.5156 30.6094 34.5156
L43.2188 34.5156
L43.2188 35.4062
Q43.2188 41.6094 39.1406 45
Q35.0625 48.3906 27.6875 48.3906
Q23 48.3906 18.5469 47.2656
Q14.1094 46.1406 10.0156 43.8906
L10.0156 52.2031
Q14.9375 54.1094 19.5781 55.0469
Q24.2188 56 28.6094 56
Q40.4844 56 46.3438 49.8438
Q52.2031 43.7031 52.2031 31.2031" id="DejaVuSans-61"/>
    </defs>
    <g transform="translate(159.580125 38.2)scale(0.144 -0.144)">
     <use xlink:href="#DejaVuSans-44"/>
     <use x="77.001953125" xlink:href="#DejaVuSans-69"/>
     <use x="104.78515625" xlink:href="#DejaVuSans-73"/>
     <use x="156.884765625" xlink:href="#DejaVuSans-70"/>
     <use x="220.361328125" xlink:href="#DejaVuSans-65"/>
     <use x="281.884765625" xlink:href="#DejaVuSans-72"/>
     <use x="322.998046875" xlink:href="#DejaVuSans-73"/>
     <use x="375.09765625" xlink:href="#DejaVuSans-69"/>
     <use x="402.880859375" xlink:href="#DejaVuSans-6f"/>
     <use x="464.0625" xlink:href="#DejaVuSans-6e"/>
     <use x="527.44140625" xlink:href="#DejaVuSans-20"/>
     <use x="559.228515625" xlink:href="#DejaVuSans-72"/>
     <use x="598.091796875" xlink:href="#DejaVuSans-65"/>
     <use x="659.615234375" xlink:href="#DejaVuSans-6c"/>
     <use x="687.3984375" xlink:href="#DejaVuSans-61"/>
     <use x="748.677734375" xlink:href="#DejaVuSans-74"/>
     <use x="787.88671875" xlink:href="#DejaVuSans-69"/>
     <use x="815.669921875" xlink:href="#DejaVuSans-6f"/>
     <use x="876.8515625" xlink:href="#DejaVuSans-6e"/>
     <use x="940.23046875" xlink:href="#DejaVuSans-73"/>
     <use x="992.330078125" xlink:href="#DejaVuSans-20"/>
     <use x="1024.1171875" xlink:href="#DejaVuSans-66"/>
     <use x="1059.32226562" xlink:href="#DejaVuSans-6f"/>
     <use x="1120.50390625" xlink:href="#DejaVuSans-72"/>
     <use x="1161.6171875" xlink:href="#DejaVuSans-20"/>
     <use x="1193.40429688" xlink:href="#DejaVuSans-53"/>
     <use x="1256.88085938" xlink:href="#DejaVuSans-71"/>
     <use x="1320.35742188" xlink:href="#DejaVuSans-75"/>
     <use x="1383.73632812" xlink:href="#DejaVuSans-61"/>
     <use x="1445.015625" xlink:href="#DejaVuSans-72"/>
     <use x="1483.87890625" xlink:href="#DejaVuSans-65"/>
     <use x="1545.40234375" xlink:href="#DejaVuSans-20"/>
     <use x="1577.18945312" xlink:href="#DejaVuSans-6c"/>
     <use x="1604.97265625" xlink:href="#DejaVuSans-61"/>
     <use x="1666.25195312" xlink:href="#DejaVuSans-74"/>
     <use x="1705.4609375" xlink:href="#DejaVuSans-74"/>
     <use x="1744.66992188" xlink:href="#DejaVuSans-69"/>
     <use x="1772.453125" xlink:href="#DejaVuSans-63"/>
     <use x="1827.43359375" xlink:href="#DejaVuSans-65"/>
    </g>
   </g>
  </g>
 </g>
 <defs>
  <clipPath id="p7ff5b81e1d">
   <rect height="345.6" width="446.4" x="72.0" y="43.2"/>
  </clipPath>
 </defs>
</svg>
