<?xml version="1.0" encoding="utf-8" standalone="no"?>
<!DOCTYPE svg PUBLIC "-//W3C//DTD SVG 1.1//EN"
  "http://www.w3.org/Graphics/SVG/1.1/DTD/svg11.dtd">
<!-- Created with matplotlib (http://matplotlib.sourceforge.net/) -->
<svg height="432pt" version="1.1" viewBox="0 0 576 432" width="576pt" xmlns="http://www.w3.org/2000/svg" xmlns:xlink="http://www.w3.org/1999/xlink">
 <defs>
  <style type="text/css">
*{stroke-linecap:square;stroke-linejoin:round;}
  </style>
 </defs>
 <g id="figure_1">
  <g id="patch_1">
   <path d="
M0 432
L576 432
L576 0
L0 0
z
" style="fill:#ffffff;"/>
  </g>
  <g id="axes_1">
   <g id="patch_2">
    <path d="
M72 388.8
L518.4 388.8
L518.4 43.2
L72 43.2
z
" style="fill:#ffffff;"/>
   </g>
   <g id="line2d_1">
    <path clip-path="url(#p7ff5b81e1d)" d="
M72 388.8
L76.8522 385.093
L81.7043 381.387
L86.5565 377.684
L91.4087 373.985
L96.2609 370.292
L101.113 366.605
L105.965 362.926
L110.817 359.258
L115.67 355.6
L120.522 351.956
L125.374 348.328
L130.226 344.716
L135.078 341.124
L139.93 337.555
L144.783 334.01
L149.635 330.495
L154.487 327.014
L159.339 323.572
L164.191 320.177
L169.043 316.837
L173.896 313.565
L178.748 310.378
L183.6 307.297
L188.452 304.355
L193.304 301.598
L198.157 299.091
L203.009 296.923
L207.861 295.217
L212.713 294.111
L217.565 293.726
L222.417 293.726
L227.27 293.676
L232.122 293.529
L236.974 293.284
L241.826 292.942
L246.678 292.506
L251.53 291.977
L256.383 291.358
L261.235 290.651
L266.087 289.861
L270.939 288.99
L275.791 288.043
L280.643 287.024
L285.496 285.939
L290.348 284.794
L295.2 283.593
L300.052 282.345
L304.904 281.057
L309.757 279.738
L314.609 278.398
L319.461 277.05
L324.313 275.706
L329.165 274.385
L334.017 273.105
L338.87 271.892
L343.722 270.773
L348.574 269.782
L353.426 268.955
L358.278 268.33
L363.13 267.939
L367.983 267.806
L372.835 268.073
L377.687 268.87
L382.539 270.182
L387.391 271.981
L392.243 274.233
L397.096 276.896
L401.948 279.924
L406.8 283.272
L411.652 286.897
L416.504 290.761
L421.357 294.83
L426.209 299.075
L431.061 303.471
L435.913 307.997
L440.765 312.635
L445.617 317.369
L450.47 322.187
L455.322 327.078
L460.174 332.032
L465.026 337.04
L469.878 342.095
L474.73 347.191
L479.583 352.321
L484.435 357.481
L489.287 362.665
L494.139 367.869
L498.991 373.088
L503.843 378.319
L508.696 383.558
L513.548 388.8" style="fill:none;stroke:#0000ff;"/>
   </g>
   <g id="line2d_2">
    <path clip-path="url(#p7ff5b81e1d)" d="
M72 388.8
L76.8522 385.093
L81.7043 381.387
L86.5565 377.684
L91.4087 373.985
L96.2609 370.292
L101.113 366.605
L105.965 362.926
L110.817 359.258
L115.67 355.6
L120.522 351.956
L125.374 348.328
L130.226 344.716
L135.078 341.124
L139.93 337.555
L144.783 334.01
L149.635 330.495
L154.487 327.014
L159.339 323.572
L164.191 320.177
L169.043 316.837
L173.896 313.565
L178.748 310.378
L183.6 307.297
L188.452 304.355
L193.304 301.598
L198.157 299.091
L203.009 296.923
L207.861 295.217
L212.713 294.111
L217.565 293.726
L222.417 293.726
L227.27 293.676
L232.122 293.529
L236.974 293.284
L241.826 292.942
L246.678 292.506
L251.53 291.977
L256.383 291.358
L261.235 290.651
L266.087 289.861
L270.939 288.99
L275.791 288.043
L280.643 287.024
L285.496 285.939
L290.348 284.794
L295.2 283.593
L300.052 282.345
L304.904 281.057
L309.757 279.738
L314.609 278.398
L319.461 277.05
L324.313 275.706
L329.165 274.385
L334.017 273.105
L338.87 271.892
L343.722 270.773
L348.574 269.782
L353.426 268.955
L358.278 268.33
L363.13 267.939
L367.983 267.806
L372.835 268.073
L377.687 268.87
L382.539 270.182
L387.391 271.981
L392.243 274.233
L397.096 276.896
L401.948 279.924
L406.8 283.272
L411.652 286.897
L416.504 290.761
L421.357 294.83
L426.209 299.075
L431.061 303.471
L435.913 307.997
L440.765 312.635
L445.617 317.369
L450.47 322.187
L455.322 327.078
L460.174 332.032
L465.026 337.04
L469.878 342.095
L474.73 347.191
L479.583 352.321
L484.435 357.481
L489.287 362.665
L494.139 367.869
L498.991 373.088
L503.843 378.319
L508.696 383.558
L513.548 388.8" style="fill:none;stroke:#008000;"/>
   </g>
   <g id="line2d_3">
    <path clip-path="url(#p7ff5b81e1d)" d="
M72 196.124
L76.8522 196.355
L81.7043 197.032
L86.5565 198.117
L91.4087 199.557
L96.2609 201.295
L101.113 203.278
L105.965 205.459
L110.817 207.8
L115.67 210.271
L120.522 212.847
L125.374 215.508
L130.226 218.239
L135.078 221.027
L139.93 223.861
L144.783 226.731
L149.635 229.628
L154.487 232.544
L159.339 235.47
L164.191 238.397
L169.043 241.314
L173.896 244.206
L178.748 247.056
L183.6 249.841
L188.452 252.527
L193.304 255.069
L198.157 257.401
L203.009 259.432
L207.861 261.041
L212.713 262.089
L217.565 262.455
L222.417 262.455
L227.27 262.397
L232.122 262.221
L236.974 261.93
L241.826 261.525
L246.678 261.009
L251.53 260.385
L256.383 259.657
L261.235 258.83
L266.087 257.908
L270.939 256.9
L275.791 255.81
L280.643 254.646
L285.496 253.417
L290.348 252.132
L295.2 250.801
L300.052 249.433
L304.904 248.042
L309.757 246.639
L314.609 245.24
L319.461 243.86
L324.313 242.515
L329.165 241.226
L334.017 240.012
L338.87 238.894
L343.722 237.895
L348.574 237.039
L353.426 236.345
L358.278 235.834
L363.13 235.521
L367.983 235.416
L372.835 235.375
L377.687 235.246
L382.539 235.016
L387.391 234.664
L392.243 234.173
L397.096 233.531
L401.948 232.733
L406.8 231.778
L411.652 230.669
L416.504 229.413
L421.357 228.018
L426.209 226.492
L431.061 224.847
L435.913 223.093
L440.765 221.24
L445.617 219.302
L450.47 217.292
L455.322 215.224
L460.174 213.115
L465.026 210.984
L469.878 208.854
L474.73 206.75
L479.583 204.706
L484.435 202.76
L489.287 200.957
L494.139 199.352
L498.991 198.007
L503.843 196.985
L508.696 196.343
L513.548 196.124" style="fill:none;stroke:#ff0000;"/>
   </g>
   <g id="line2d_4">
    <path clip-path="url(#p7ff5b81e1d)" d="
M72 196.124
L76.8522 196.355
L81.7043 197.032
L86.5565 198.117
L91.4087 199.557
L96.2609 201.295
L101.113 203.278
L105.965 205.459
L110.817 207.8
L115.67 210.271
L120.522 212.847
L125.374 215.508
L130.226 218.239
L135.078 221.027
L139.93 223.861
L144.783 226.731
L149.635 229.628
L154.487 232.544
L159.339 235.47
L164.191 238.397
L169.043 241.314
L173.896 244.206
L178.748 247.056
L183.6 249.841
L188.452 252.527
L193.304 255.069
L198.157 257.401
L203.009 259.432
L207.861 261.041
L212.713 262.089
L217.565 262.455
L222.417 262.455
L227.27 262.397
L232.122 262.221
L236.974 261.93
L241.826 261.525
L246.678 261.009
L251.53 260.385
L256.383 259.657
L261.235 258.83
L266.087 257.908
L270.939 256.9
L275.791 255.81
L280.643 254.646
L285.496 253.417
L290.348 252.132
L295.2 250.801
L300.052 249.433
L304.904 248.042
L309.757 246.639
L314.609 245.24
L319.461 243.86
L324.313 242.515
L329.165 241.226
L334.017 240.012
L338.87 238.894
L343.722 237.895
L348.574 237.039
L353.426 236.345
L358.278 235.834
L363.13 235.521
L367.983 235.416
L372.835 235.375
L377.687 235.246
L382.539 235.016
L387.391 234.664
L392.243 234.173
L397.096 233.531
L401.948 232.733
L406.8 231.778
L411.652 230.669
L416.504 229.413
L421.357 228.018
L426.209 226.492
L431.061 224.847
L435.913 223.093
L440.765 221.24
L445.617 219.302
L450.47 217.292
L455.322 215.224
L460.174 213.115
L465.026 210.984
L469.878 208.854
L474.73 206.75
L479.583 204.706
L484.435 202.76
L489.287 200.957
L494.139 199.352
L498.991 198.007
L503.843 196.985
L508.696 196.343
L513.548 196.124" style="fill:none;stroke:#00bfbf;"/>
   </g>
   <g id="line2d_5">
    <path clip-path="url(#p7ff5b81e1d)" d="
M72 196.124
L76.8522 196.11
L81.7043 196.069
L86.5565 196
L91.4087 195.904
L96.2609 195.781
L101.113 195.634
L105.965 195.462
L110.817 195.267
L115.67 195.051
L120.522 194.815
L125.374 194.562
L130.226 194.293
L135.078 194.011
L139.93 193.719
L144.783 193.419
L149.635 193.114
L154.487 192.808
L159.339 192.505
L164.191 192.206
L169.043 191.917
L173.896 191.641
L178.748 191.382
L183.6 191.143
L188.452 190.927
L193.304 190.738
L198.157 190.579
L203.009 190.453
L207.861 190.361
L212.713 190.306
L217.565 190.287
L222.417 190.287
L227.27 190.45
L232.122 190.931
L236.974 191.709
L241.826 192.752
L246.678 194.025
L251.53 195.491
L256.383 197.117
L261.235 198.871
L266.087 200.729
L270.939 202.666
L275.791 204.666
L280.643 206.71
L285.496 208.785
L290.348 210.88
L295.2 212.981
L300.052 215.078
L304.904 217.161
L309.757 219.219
L314.609 221.241
L319.461 223.212
L324.313 225.119
L329.165 226.945
L334.017 228.669
L338.87 230.267
L343.722 231.71
L348.574 232.967
L353.426 234.001
L358.278 234.773
L363.13 235.253
L367.983 235.416
L372.835 235.341
L377.687 235.117
L382.539 234.745
L387.391 234.227
L392.243 233.565
L397.096 232.763
L401.948 231.826
L406.8 230.757
L411.652 229.562
L416.504 228.247
L421.357 226.819
L426.209 225.285
L431.061 223.653
L435.913 221.932
L440.765 220.13
L445.617 218.258
L450.47 216.327
L455.322 214.35
L460.174 212.341
L465.026 210.316
L469.878 208.294
L474.73 206.3
L479.583 204.36
L484.435 202.508
L489.287 200.788
L494.139 199.25
L498.991 197.954
L503.843 196.963
L508.696 196.338
L513.548 196.124" style="fill:none;stroke:#bf00bf;"/>
   </g>
   <g id="line2d_6">
    <path clip-path="url(#p7ff5b81e1d)" d="
M72 196.124
L76.8522 196.11
L81.7043 196.069
L86.5565 196
L91.4087 195.904
L96.2609 195.781
L101.113 195.634
L105.965 195.462
L110.817 195.267
L115.67 195.051
L120.522 194.815
L125.374 194.562
L130.226 194.293
L135.078 194.011
L139.93 193.719
L144.783 193.419
L149.635 193.114
L154.487 192.808
L159.339 192.505
L164.191 192.206
L169.043 191.917
L173.896 191.641
L178.748 191.382
L183.6 191.143
L188.452 190.927
L193.304 190.738
L198.157 190.579
L203.009 190.453
L207.861 190.361
L212.713 190.306
L217.565 190.287
L222.417 190.287
L227.27 190.45
L232.122 190.931
L236.974 191.709
L241.826 192.752
L246.678 194.025
L251.53 195.491
L256.383 197.117
L261.235 198.871
L266.087 200.729
L270.939 202.666
L275.791 204.666
L280.643 206.71
L285.496 208.785
L290.348 210.88
L295.2 212.981
L300.052 215.078
L304.904 217.161
L309.757 219.219
L314.609 221.241
L319.461 223.212
L324.313 225.119
L329.165 226.945
L334.017 228.669
L338.87 230.267
L343.722 231.71
L348.574 232.967
L353.426 234.001
L358.278 234.773
L363.13 235.253
L367.983 235.416
L372.835 235.341
L377.687 235.117
L382.539 234.745
L387.391 234.227
L392.243 233.565
L397.096 232.763
L401.948 231.826
L406.8 230.757
L411.652 229.562
L416.504 228.247
L421.357 226.819
L426.209 225.285
L431.061 223.653
L435.913 221.932
L440.765 220.13
L445.617 218.258
L450.47 216.327
L455.322 214.35
L460.174 212.341
L465.026 210.316
L469.878 208.294
L474.73 206.3
L479.583 204.36
L484.435 202.508
L489.287 200.788
L494.139 199.25
L498.991 197.954
L503.843 196.963
L508.696 196.338
L513.548 196.124" style="fill:none;stroke:#bfbf00;"/>
   </g>
   <g id="line2d_7">
    <path clip-path="url(#p7ff5b81e1d)" d="
M72 159.48
L76.8522 159.367
L81.7043 159.048
L86.5565 158.575
L91.4087 158.014
L96.2609 157.423
L101.113 156.842
L105.965 156.288
L110.817 155.763
L115.67 155.261
L120.522 154.775
L125.374 154.298
L130.226 153.826
L135.078 153.357
L139.93 152.889
L144.783 152.422
L149.635 151.959
L154.487 151.502
L159.339 151.054
L164.191 150.618
L169.043 150.2
L173.896 149.802
L178.748 149.429
L183.6 149.087
L188.452 148.78
L193.304 148.512
L198.157 148.286
L203.009 148.107
L207.861 147.977
L212.713 147.898
L217.565 147.871
L222.417 147.871
L227.27 147.709
L232.122 147.23
L236.974 146.456
L241.826 145.419
L246.678 144.155
L251.53 142.7
L256.383 141.386
L261.235 142.953
L266.087 144.638
L270.939 146.42
L275.791 148.28
L280.643 150.2
L285.496 152.163
L290.348 154.153
L295.2 156.157
L300.052 158.159
L304.904 160.144
L309.757 162.098
L314.609 164.005
L319.461 165.849
L324.313 167.611
L329.165 169.274
L334.017 170.817
L338.87 172.219
L343.722 173.456
L348.574 174.508
L353.426 175.353
L358.278 175.972
L363.13 176.35
L367.983 176.477
L372.835 176.223
L377.687 175.474
L382.539 174.261
L387.391 172.634
L392.243 170.651
L397.096 168.371
L401.948 165.855
L406.8 163.159
L411.652 160.332
L416.504 157.419
L421.357 154.462
L426.209 151.497
L431.061 148.557
L435.913 145.675
L440.765 142.881
L445.617 140.21
L450.47 137.704
L455.322 139.07
L460.174 141.451
L465.026 143.808
L469.878 146.125
L474.73 148.378
L479.583 150.542
L484.435 152.585
L489.287 154.464
L494.139 156.13
L498.991 157.525
L503.843 158.586
L508.696 159.252
L513.548 159.48" style="fill:none;stroke:#000000;"/>
   </g>
   <g id="line2d_8">
    <path clip-path="url(#p7ff5b81e1d)" d="
M72 159.48
L76.8522 159.367
L81.7043 159.048
L86.5565 158.575
L91.4087 158.014
L96.2609 157.423
L101.113 156.842
L105.965 156.288
L110.817 155.763
L115.67 155.261
L120.522 154.775
L125.374 154.298
L130.226 153.826
L135.078 153.357
L139.93 152.889
L144.783 152.422
L149.635 151.959
L154.487 151.502
L159.339 151.054
L164.191 150.618
L169.043 150.2
L173.896 149.802
L178.748 149.429
L183.6 149.087
L188.452 148.78
L193.304 148.512
L198.157 148.286
L203.009 148.107
L207.861 147.977
L212.713 147.898
L217.565 147.871
L222.417 147.871
L227.27 147.709
L232.122 147.23
L236.974 146.456
L241.826 145.419
L246.678 144.155
L251.53 142.7
L256.383 141.386
L261.235 142.953
L266.087 144.638
L270.939 146.42
L275.791 148.28
L280.643 150.2
L285.496 152.163
L290.348 154.153
L295.2 156.157
L300.052 158.159
L304.904 160.144
L309.757 162.098
L314.609 164.005
L319.461 165.849
L324.313 167.611
L329.165 169.274
L334.017 170.817
L338.87 172.219
L343.722 173.456
L348.574 174.508
L353.426 175.353
L358.278 175.972
L363.13 176.35
L367.983 176.477
L372.835 176.223
L377.687 175.474
L382.539 174.261
L387.391 172.634
L392.243 170.651
L397.096 168.371
L401.948 165.855
L406.8 163.159
L411.652 160.332
L416.504 157.419
L421.357 154.462
L426.209 151.497
L431.061 148.557
L435.913 145.675
L440.765 142.881
L445.617 140.21
L450.47 137.704
L455.322 139.07
L460.174 141.451
L465.026 143.808
L469.878 146.125
L474.73 148.378
L479.583 150.542
L484.435 152.585
L489.287 154.464
L494.139 156.13
L498.991 157.525
L503.843 158.586
L508.696 159.252
L513.548 159.48" style="fill:none;stroke:#0000ff;"/>
   </g>
   <g id="line2d_9">
    <path clip-path="url(#p7ff5b81e1d)" d="
M72 150.079
L76.8522 149.955
L81.7043 149.577
L86.5565 148.933
L91.4087 148.011
L96.2609 146.809
L101.113 145.345
L105.965 143.649
L110.817 141.76
L115.67 139.718
L120.522 137.557
L125.374 135.308
L130.226 132.995
L135.078 130.639
L139.93 128.257
L144.783 128.311
L149.635 129.09
L154.487 129.854
L159.339 130.597
L164.191 131.311
L169.043 131.989
L173.896 132.625
L178.748 133.213
L183.6 133.746
L188.452 134.221
L193.304 134.63
L198.157 134.972
L203.009 135.242
L207.861 135.436
L212.713 135.554
L217.565 135.593
L222.417 135.593
L227.27 135.724
L232.122 136.113
L236.974 136.75
L241.826 137.617
L246.678 138.694
L251.53 139.958
L256.383 141.091
L261.235 139.358
L266.087 137.529
L270.939 135.628
L275.791 133.677
L280.643 131.694
L285.496 129.697
L290.348 127.702
L295.2 125.725
L300.052 123.782
L304.904 121.89
L309.757 120.066
L314.609 118.33
L319.461 116.7
L324.313 115.196
L329.165 113.834
L334.017 112.63
L338.87 111.593
L343.722 110.728
L348.574 110.033
L353.426 109.504
L358.278 109.133
L363.13 108.913
L367.983 108.84
L372.835 108.985
L377.687 109.414
L382.539 110.116
L387.391 111.072
L392.243 112.26
L397.096 113.654
L401.948 115.23
L406.8 116.965
L411.652 118.835
L416.504 120.822
L421.357 122.908
L426.209 125.075
L431.061 127.311
L435.913 129.602
L440.765 131.935
L445.617 134.299
L450.47 136.682
L455.322 135.447
L460.174 133.732
L465.026 133.71
L469.878 135.571
L474.73 137.898
L479.583 140.252
L484.435 142.505
L489.287 144.583
L494.139 146.422
L498.991 147.953
L503.843 149.11
L508.696 149.833
L513.548 150.079" style="fill:none;stroke:#008000;"/>
   </g>
   <g id="line2d_10">
    <path clip-path="url(#p7ff5b81e1d)" d="
M72 150.079
L76.8522 149.955
L81.7043 149.577
L86.5565 148.933
L91.4087 148.011
L96.2609 146.809
L101.113 145.345
L105.965 143.649
L110.817 141.76
L115.67 139.718
L120.522 137.557
L125.374 135.308
L130.226 132.995
L135.078 130.639
L139.93 128.257
L144.783 128.311
L149.635 129.09
L154.487 129.854
L159.339 130.597
L164.191 131.311
L169.043 131.989
L173.896 132.625
L178.748 133.213
L183.6 133.746
L188.452 134.221
L193.304 134.63
L198.157 134.972
L203.009 135.242
L207.861 135.436
L212.713 135.554
L217.565 135.593
L222.417 135.593
L227.27 135.724
L232.122 136.113
L236.974 136.75
L241.826 137.617
L246.678 138.694
L251.53 139.958
L256.383 141.091
L261.235 139.358
L266.087 137.529
L270.939 135.628
L275.791 133.677
L280.643 131.694
L285.496 129.697
L290.348 127.702
L295.2 125.725
L300.052 123.782
L304.904 121.89
L309.757 120.066
L314.609 118.33
L319.461 116.7
L324.313 115.196
L329.165 113.834
L334.017 112.63
L338.87 111.593
L343.722 110.728
L348.574 110.033
L353.426 109.504
L358.278 109.133
L363.13 108.913
L367.983 108.84
L372.835 108.985
L377.687 109.414
L382.539 110.116
L387.391 111.072
L392.243 112.26
L397.096 113.654
L401.948 115.23
L406.8 116.965
L411.652 118.835
L416.504 120.822
L421.357 122.908
L426.209 125.075
L431.061 127.311
L435.913 129.602
L440.765 131.935
L445.617 134.299
L450.47 136.682
L455.322 135.447
L460.174 133.732
L465.026 133.71
L469.878 135.571
L474.73 137.898
L479.583 140.252
L484.435 142.505
L489.287 144.583
L494.139 146.422
L498.991 147.953
L503.843 149.11
L508.696 149.833
L513.548 150.079" style="fill:none;stroke:#ff0000;"/>
   </g>
   <g id="line2d_11">
    <path clip-path="url(#p7ff5b81e1d)" d="
M72 120.364
L76.8522 120.411
L81.7043 120.551
L86.5565 120.783
L91.4087 121.101
L96.2609 121.5
L101.113 121.975
L105.965 122.518
L110.817 123.121
L115.67 123.775
L120.522 124.473
L125.374 125.206
L130.226 125.964
L135.078 126.74
L139.93 127.525
L144.783 125.865
L149.635 123.477
L154.487 121.106
L159.339 118.766
L164.191 116.471
L169.043 114.238
L173.896 112.083
L178.748 110.028
L183.6 108.097
L188.452 106.316
L193.304 104.717
L198.157 103.336
L203.009 102.209
L207.861 101.372
L212.713 100.856
L217.565 100.681
L222.417 100.681
L227.27 100.675
L232.122 100.657
L236.974 100.627
L241.826 100.584
L246.678 100.528
L251.53 100.46
L256.383 100.379
L261.235 100.284
L266.087 100.175
L270.939 100.051
L275.791 99.9104
L280.643 99.7523
L285.496 99.5747
L290.348 99.3753
L295.2 99.1511
L300.052 98.8988
L304.904 98.6141
L309.757 98.2926
L314.609 97.9297
L319.461 97.5214
L324.313 97.0658
L329.165 96.5643
L334.017 96.0243
L338.87 95.4604
L343.722 94.8958
L348.574 94.3611
L353.426 93.8918
L358.278 93.5242
L363.13 93.2893
L367.983 93.2084
L372.835 93.3708
L377.687 93.8518
L382.539 94.634
L387.391 95.6922
L392.243 96.9979
L397.096 98.5224
L401.948 100.239
L406.8 102.124
L411.652 104.157
L416.504 106.321
L421.357 108.599
L426.209 110.976
L431.061 113.439
L435.913 115.971
L440.765 118.556
L445.617 121.17
L450.47 123.778
L455.322 126.299
L460.174 128.442
L465.026 129.049
L469.878 127.917
L474.73 126.445
L479.583 125.043
L484.435 123.802
L489.287 122.746
L494.139 121.884
L498.991 121.216
L503.843 120.742
L508.696 120.458
L513.548 120.364" style="fill:none;stroke:#00bfbf;"/>
   </g>
   <g id="line2d_12">
    <path clip-path="url(#p7ff5b81e1d)" d="
M72 120.364
L76.8522 120.411
L81.7043 120.551
L86.5565 120.783
L91.4087 121.101
L96.2609 121.5
L101.113 121.975
L105.965 122.518
L110.817 123.121
L115.67 123.775
L120.522 124.473
L125.374 125.206
L130.226 125.964
L135.078 126.74
L139.93 127.525
L144.783 125.865
L149.635 123.477
L154.487 121.106
L159.339 118.766
L164.191 116.471
L169.043 114.238
L173.896 112.083
L178.748 110.028
L183.6 108.097
L188.452 106.316
L193.304 104.717
L198.157 103.336
L203.009 102.209
L207.861 101.372
L212.713 100.856
L217.565 100.681
L222.417 100.681
L227.27 100.675
L232.122 100.657
L236.974 100.627
L241.826 100.584
L246.678 100.528
L251.53 100.46
L256.383 100.379
L261.235 100.284
L266.087 100.175
L270.939 100.051
L275.791 99.9104
L280.643 99.7523
L285.496 99.5747
L290.348 99.3753
L295.2 99.1511
L300.052 98.8988
L304.904 98.6141
L309.757 98.2926
L314.609 97.9297
L319.461 97.5214
L324.313 97.0658
L329.165 96.5643
L334.017 96.0243
L338.87 95.4604
L343.722 94.8958
L348.574 94.3611
L353.426 93.8918
L358.278 93.5242
L363.13 93.2893
L367.983 93.2084
L372.835 93.3708
L377.687 93.8518
L382.539 94.634
L387.391 95.6922
L392.243 96.9979
L397.096 98.5224
L401.948 100.239
L406.8 102.124
L411.652 104.157
L416.504 106.321
L421.357 108.599
L426.209 110.976
L431.061 113.439
L435.913 115.971
L440.765 118.556
L445.617 121.17
L450.47 123.778
L455.322 126.299
L460.174 128.442
L465.026 129.049
L469.878 127.917
L474.73 126.445
L479.583 125.043
L484.435 123.802
L489.287 122.746
L494.139 121.884
L498.991 121.216
L503.843 120.742
L508.696 120.458
L513.548 120.364" style="fill:none;stroke:#bf00bf;"/>
   </g>
   <g id="line2d_13">
    <path clip-path="url(#p7ff5b81e1d)" d="
M72 58.5966
L76.8522 58.659
L81.7043 58.8452
L86.5565 59.1518
L91.4087 59.5731
L96.2609 60.1018
L101.113 60.7291
L105.965 61.445
L110.817 62.2387
L115.67 63.0992
L120.522 64.015
L125.374 64.9747
L130.226 65.9672
L135.078 66.9814
L139.93 68.0067
L144.783 69.0326
L149.635 70.0491
L154.487 71.0464
L159.339 72.0152
L164.191 72.9463
L169.043 73.831
L173.896 74.661
L178.748 75.4282
L183.6 76.1251
L188.452 76.7448
L193.304 77.281
L198.157 77.7279
L203.009 78.0808
L207.861 78.3358
L212.713 78.49
L217.565 78.5415
L222.417 78.5415
L227.27 78.4256
L232.122 78.0818
L236.974 77.5221
L241.826 76.765
L246.678 75.8337
L251.53 74.755
L256.383 73.5574
L261.235 72.2703
L266.087 70.9235
L270.939 69.5466
L275.791 68.1688
L280.643 66.8183
L285.496 65.5217
L290.348 64.3022
L295.2 63.1783
L300.052 62.162
L304.904 61.2585
L309.757 60.4665
L314.609 59.78
L319.461 59.1901
L324.313 58.6867
L329.165 58.2601
L334.017 57.9016
L338.87 57.6037
L343.722 57.3604
L348.574 57.1671
L353.426 57.0201
L358.278 56.9168
L363.13 56.8556
L367.983 56.8353
L372.835 56.7494
L377.687 56.5015
L382.539 56.1103
L387.391 55.6066
L392.243 55.0303
L397.096 54.4271
L401.948 54.0256
L406.8 53.8584
L411.652 53.9529
L416.504 54.3084
L421.357 54.8789
L426.209 55.5936
L431.061 56.3792
L435.913 57.1722
L440.765 57.9225
L445.617 58.5931
L450.47 59.1582
L455.322 59.6013
L460.174 59.9141
L465.026 60.0958
L469.878 60.1527
L474.73 60.0977
L479.583 59.95
L484.435 59.734
L489.287 59.4779
L494.139 59.212
L498.991 58.9666
L503.843 58.7689
L508.696 58.6408
L513.548 58.5966" style="fill:none;stroke:#bfbf00;"/>
   </g>
   <g id="line2d_14">
    <path clip-path="url(#p7ff5b81e1d)" d="
M72 58.5966
L76.8522 58.659
L81.7043 58.8452
L86.5565 59.1518
L91.4087 59.5731
L96.2609 60.1018
L101.113 60.7291
L105.965 61.445
L110.817 62.2387
L115.67 63.0992
L120.522 64.015
L125.374 64.9747
L130.226 65.9672
L135.078 66.9814
L139.93 68.0067
L144.783 69.0326
L149.635 70.0491
L154.487 71.0464
L159.339 72.0152
L164.191 72.9463
L169.043 73.831
L173.896 74.661
L178.748 75.4282
L183.6 76.1251
L188.452 76.7448
L193.304 77.281
L198.157 77.7279
L203.009 78.0808
L207.861 78.3358
L212.713 78.49
L217.565 78.5415
L222.417 78.5415
L227.27 78.4256
L232.122 78.0818
L236.974 77.5221
L241.826 76.765
L246.678 75.8337
L251.53 74.755
L256.383 73.5574
L261.235 72.2703
L266.087 70.9235
L270.939 69.5466
L275.791 68.1688
L280.643 66.8183
L285.496 65.5217
L290.348 64.3022
L295.2 63.1783
L300.052 62.162
L304.904 61.2585
L309.757 60.4665
L314.609 59.78
L319.461 59.1901
L324.313 58.6867
L329.165 58.2601
L334.017 57.9016
L338.87 57.6037
L343.722 57.3604
L348.574 57.1671
L353.426 57.0201
L358.278 56.9168
L363.13 56.8556
L367.983 56.8353
L372.835 56.7494
L377.687 56.5015
L382.539 56.1103
L387.391 55.6066
L392.243 55.0303
L397.096 54.4271
L401.948 54.0256
L406.8 53.8584
L411.652 53.9529
L416.504 54.3084
L421.357 54.8789
L426.209 55.5936
L431.061 56.3792
L435.913 57.1722
L440.765 57.9225
L445.617 58.5931
L450.47 59.1582
L455.322 59.6013
L460.174 59.9141
L465.026 60.0958
L469.878 60.1527
L474.73 60.0977
L479.583 59.95
L484.435 59.734
L489.287 59.4779
L494.139 59.212
L498.991 58.9666
L503.843 58.7689
L508.696 58.6408
L513.548 58.5966" style="fill:none;stroke:#000000;"/>
   </g>
   <g id="line2d_15">
    <path clip-path="url(#p7ff5b81e1d)" d="
M72 58.5961
L76.8522 58.5401
L81.7043 58.3726
L86.5565 58.0964
L91.4087 57.7156
L96.2609 57.2358
L101.113 56.6638
L105.965 56.0072
L110.817 55.2747
L115.67 54.4753
L120.522 53.6184
L125.374 52.7137
L130.226 51.771
L135.078 50.8002
L139.93 49.8111
L144.783 48.8136
L149.635 47.8176
L154.487 46.8328
L159.339 45.869
L164.191 44.9359
L169.043 44.0431
L173.896 43.2
L178.748 43.3049
L183.6 45.1718
L188.452 46.8967
L193.304 48.4479
L198.157 49.7904
L203.009 50.8873
L207.861 51.7028
L212.713 52.2062
L217.565 52.3765
L222.417 52.3765
L227.27 52.3576
L232.122 52.3005
L236.974 52.2043
L241.826 52.0672
L246.678 51.8865
L251.53 51.6588
L256.383 51.3793
L261.235 51.0421
L266.087 50.6399
L270.939 50.1641
L275.791 49.6047
L280.643 48.9513
L285.496 48.1942
L290.348 47.3257
L295.2 46.3426
L300.052 45.427
L304.904 46.2901
L309.757 47.2128
L314.609 48.1895
L319.461 49.2104
L324.313 50.2617
L329.165 51.3247
L334.017 52.3762
L338.87 53.3885
L343.722 54.3304
L348.574 55.1678
L353.426 55.8664
L358.278 56.3936
L363.13 56.7221
L367.983 56.8337
L372.835 56.7372
L377.687 56.456
L382.539 56.0232
L387.391 55.49
L392.243 54.9242
L397.096 54.407
L401.948 53.8451
L406.8 53.3305
L411.652 52.9225
L416.504 52.6488
L421.357 52.523
L426.209 52.5439
L431.061 52.699
L435.913 52.9684
L440.765 53.3289
L445.617 53.757
L450.47 54.2306
L455.322 54.7304
L460.174 55.2393
L465.026 55.7429
L469.878 56.229
L474.73 56.6873
L479.583 57.1094
L484.435 57.488
L489.287 57.8175
L494.139 58.0931
L498.991 58.3112
L503.843 58.4689
L508.696 58.5642
L513.548 58.5961" style="fill:none;stroke:#0000ff;"/>
   </g>
   <g id="line2d_16">
    <path clip-path="url(#p7ff5b81e1d)" d="
M217.565 388.8
L217.565 43.2" style="fill:none;stroke:#0000ff;"/>
   </g>
   <g id="line2d_17">
    <path clip-path="url(#p7ff5b81e1d)" d="
M367.983 388.8
L367.983 43.2" style="fill:none;stroke:#0000ff;"/>
   </g>
   <g id="line2d_18">
    <path clip-path="url(#p7ff5b81e1d)" d="
M518.4 388.8
L518.4 43.2" style="fill:none;stroke:#0000ff;"/>
   </g>
   <g id="matplotlib.axis_1">
    <g id="xtick_1">
     <g id="line2d_19">
      <defs>
       <path d="
M0 0
L0 -4" id="m0012dd4eef" style="stroke:#000000;stroke-linecap:butt;stroke-width:0.5;"/>
      </defs>
      <g>
       <use style="stroke:#000000;stroke-linecap:butt;stroke-width:0.5;" x="72.0" xlink:href="#m0012dd4eef" y="388.8"/>
      </g>
     </g>
     <g id="line2d_20">
      <defs>
       <path d="
M0 0
L0 4" id="m476344969c" style="stroke:#000000;stroke-linecap:butt;stroke-width:0.5;"/>
      </defs>
      <g>
       <use style="stroke:#000000;stroke-linecap:butt;stroke-width:0.5;" x="72.0" xlink:href="#m476344969c" y="43.2"/>
      </g>
     </g>
     <g id="text_1">
      <!-- $\Gamma$ -->
      <defs>
       <path d="
M3.07812 0
L3.07812 3.51562
Q13.375 3.51562 13.375 6.6875
L13.375 61.625
Q13.375 64.7969 3.07812 64.7969
L3.07812 68.3125
L55.4219 68.3125
L58.2031 45.4062
L55.3281 45.4062
Q54.5938 51.7656 53.6406 55.2188
Q52.6875 58.6875 50.7344 60.8125
Q48.7812 62.9375 45.2656 63.8594
Q41.75 64.7969 35.5 64.7969
L27.7812 64.7969
Q25.9844 64.7969 24.9688 64.6406
Q23.9688 64.5 23.3281 63.7969
Q22.7031 63.0938 22.7031 61.625
L22.7031 6.6875
Q22.7031 3.51562 35.5 3.51562
L35.5 0
z
" id="Cmr10-a1"/>
      </defs>
      <g transform="translate(65.7 406.6)scale(0.2 -0.2)">
       <use transform="translate(0.0 0.6875)" xlink:href="#Cmr10-a1"/>
      </g>
     </g>
    </g>
    <g id="xtick_2">
     <g id="line2d_21">
      <g>
       <use style="stroke:#000000;stroke-linecap:butt;stroke-width:0.5;" x="217.565217391" xlink:href="#m0012dd4eef" y="388.8"/>
      </g>
     </g>
     <g id="line2d_22">
      <g>
       <use style="stroke:#000000;stroke-linecap:butt;stroke-width:0.5;" x="217.565217391" xlink:href="#m476344969c" y="43.2"/>
      </g>
     </g>
     <g id="text_2">
      <!-- $\chi$ -->
      <defs>
       <path d="
M4.29688 -19.3906
Q3.8125 -19.3906 3.34375 -18.9688
Q2.875 -18.5625 2.875 -18.1094
Q2.875 -17.4375 3.32812 -17.0938
L27.7812 10.1094
Q26.125 16.1562 24.0469 22.7188
Q21.9688 29.2969 19.0625 35.4531
Q16.1562 41.6094 13.9219 41.6094
Q11.9688 41.6094 10.8438 40.5312
Q9.71875 39.4531 8.85938 37.8594
Q8.01562 36.2812 7.71875 36.1875
L6.5 36.1875
Q6.20312 36.1875 5.95312 36.5156
Q5.71875 36.8594 5.71875 37.2031
Q5.71875 38.8125 7.10938 40.4531
Q8.5 42.0938 10.5156 43.1406
Q12.5469 44.1875 14.3125 44.1875
Q18.2656 44.1875 21.4844 42.7656
Q24.7031 41.3594 26.3125 38.1875
Q27.7344 35.1562 29.0469 31.6562
Q30.375 28.1719 31.5625 24.2188
Q32.7656 20.2656 33.7969 16.7031
L56.9844 42.4844
Q57.4688 43.1094 58.2031 43.1094
Q58.7969 43.1094 59.2031 42.75
Q59.625 42.3906 59.625 41.7969
Q59.625 41.1562 59.1875 40.8281
L34.7188 13.625
Q35.8906 9.1875 38.2344 1.78125
Q40.5781 -5.60938 43.4375 -11.7656
Q46.2969 -17.9219 48.5781 -17.9219
Q50.4375 -17.9219 51.6094 -16.8125
Q52.7812 -15.7188 53.6562 -14.1562
Q54.5469 -12.5938 54.7812 -12.5
L56 -12.5
Q56.7812 -12.5 56.7812 -13.4844
Q56.7812 -15.9688 53.8281 -18.2344
Q50.875 -20.5156 48.1875 -20.5156
Q44.2812 -20.5156 41.0625 -19.0938
Q37.8438 -17.6719 36.2812 -14.5
Q32.5625 -6.59375 28.7188 6.98438
L5.51562 -18.7969
Q5.03125 -19.3906 4.29688 -19.3906" id="Cmmi10-c2"/>
      </defs>
      <g transform="translate(211.265217391 406.0)scale(0.2 -0.2)">
       <use transform="translate(0.0 21.8125)" xlink:href="#Cmmi10-c2"/>
      </g>
     </g>
    </g>
    <g id="xtick_3">
     <g id="line2d_23">
      <g>
       <use style="stroke:#000000;stroke-linecap:butt;stroke-width:0.5;" x="367.982608696" xlink:href="#m0012dd4eef" y="388.8"/>
      </g>
     </g>
     <g id="line2d_24">
      <g>
       <use style="stroke:#000000;stroke-linecap:butt;stroke-width:0.5;" x="367.982608696" xlink:href="#m476344969c" y="43.2"/>
      </g>
     </g>
     <g id="text_3">
      <!-- $M$ -->
      <defs>
       <path d="
M5.07812 0
Q4.10938 0 4.10938 1.3125
Q4.15625 1.5625 4.29688 2.14062
Q4.4375 2.73438 4.6875 3.125
Q4.9375 3.51562 5.42188 3.51562
Q14.9375 3.51562 16.5 9.625
L29.5 61.8125
Q29.6875 62.7969 29.6875 63.1875
Q29.6875 64.2656 28.5156 64.4062
Q26.6094 64.7969 21.2969 64.7969
Q20.3125 64.7969 20.3125 66.1094
Q20.3594 66.3594 20.5 66.9688
Q20.6562 67.5781 20.9219 67.9375
Q21.1875 68.3125 21.5781 68.3125
L39.2031 68.3125
Q40.3281 68.3125 40.4844 67.1875
L48.2969 9.90625
L84.7188 67.1875
Q85.4062 68.3125 86.625 68.3125
L103.609 68.3125
Q104.594 68.3125 104.594 67
Q104.547 66.75 104.391 66.1406
Q104.25 65.5312 103.984 65.1562
Q103.719 64.7969 103.328 64.7969
Q97.2188 64.7969 94.8281 64.1094
Q93.5 63.6719 92.9219 61.375
L79.2031 6.5
Q79 5.51562 79 5.07812
Q79 4.6875 79.125 4.42188
Q79.25 4.15625 79.4688 4.07812
Q79.6875 4 80.1719 3.90625
Q82.0781 3.51562 87.4062 3.51562
Q88.375 3.51562 88.375 2.20312
Q88.0312 0.78125 87.8281 0.390625
Q87.6406 0 86.7188 0
L60.5938 0
Q59.625 0 59.625 1.3125
Q59.6719 1.5625 59.8125 2.17188
Q59.9688 2.78125 60.2344 3.14062
Q60.5 3.51562 60.8906 3.51562
Q67 3.51562 69.3906 4.20312
Q70.7031 4.64062 71.2969 6.89062
L85.6875 64.7969
L45.3125 1.125
Q44.7344 0 43.3125 0
Q42.0469 0 41.8906 1.125
L33.4062 64.0156
L19.6719 9.1875
Q19.5781 8.9375 19.5312 8.5625
Q19.4844 8.20312 19.3906 7.71875
Q19.3906 5.125 21.6562 4.3125
Q23.9219 3.51562 27.2031 3.51562
Q28.2188 3.51562 28.2188 2.20312
Q27.875 0.875 27.6562 0.4375
Q27.4375 0 26.5156 0
z
" id="Cmmi10-4d"/>
      </defs>
      <g transform="translate(358.182608696 406.6)scale(0.2 -0.2)">
       <use transform="translate(0.0 0.6875)" xlink:href="#Cmmi10-4d"/>
      </g>
     </g>
    </g>
    <g id="xtick_4">
     <g id="line2d_25">
      <g>
       <use style="stroke:#000000;stroke-linecap:butt;stroke-width:0.5;" x="518.4" xlink:href="#m0012dd4eef" y="388.8"/>
      </g>
     </g>
     <g id="line2d_26">
      <g>
       <use style="stroke:#000000;stroke-linecap:butt;stroke-width:0.5;" x="518.4" xlink:href="#m476344969c" y="43.2"/>
      </g>
     </g>
     <g id="text_4">
      <!-- $\Gamma$ -->
      <g transform="translate(512.1 406.6)scale(0.2 -0.2)">
       <use transform="translate(0.0 0.6875)" xlink:href="#Cmr10-a1"/>
      </g>
     </g>
    </g>
   </g>
   <g id="matplotlib.axis_2">
    <g id="ytick_1">
     <g id="line2d_27">
      <defs>
       <path d="
M0 0
L4 0" id="me8a85f7bf6" style="stroke:#000000;stroke-linecap:butt;stroke-width:0.5;"/>
      </defs>
      <g>
       <use style="stroke:#000000;stroke-linecap:butt;stroke-width:0.5;" x="72.0" xlink:href="#me8a85f7bf6" y="388.8"/>
      </g>
     </g>
     <g id="line2d_28">
      <defs>
       <path d="
M0 0
L-4 0" id="m1a32005dea" style="stroke:#000000;stroke-linecap:butt;stroke-width:0.5;"/>
      </defs>
      <g>
       <use style="stroke:#000000;stroke-linecap:butt;stroke-width:0.5;" x="518.4" xlink:href="#m1a32005dea" y="388.8"/>
      </g>
     </g>
     <g id="text_5">
      <!-- 0.0 -->
      <defs>
       <path d="
M31.7812 66.4062
Q24.1719 66.4062 20.3281 58.9062
Q16.5 51.4219 16.5 36.375
Q16.5 21.3906 20.3281 13.8906
Q24.1719 6.39062 31.7812 6.39062
Q39.4531 6.39062 43.2812 13.8906
Q47.125 21.3906 47.125 36.375
Q47.125 51.4219 43.2812 58.9062
Q39.4531 66.4062 31.7812 66.4062
M31.7812 74.2188
Q44.0469 74.2188 50.5156 64.5156
Q56.9844 54.8281 56.9844 36.375
Q56.9844 17.9688 50.5156 8.26562
Q44.0469 -1.42188 31.7812 -1.42188
Q19.5312 -1.42188 13.0625 8.26562
Q6.59375 17.9688 6.59375 36.375
Q6.59375 54.8281 13.0625 64.5156
Q19.5312 74.2188 31.7812 74.2188" id="DejaVuSans-30"/>
       <path d="
M10.6875 12.4062
L21 12.4062
L21 0
L10.6875 0
z
" id="DejaVuSans-2e"/>
      </defs>
      <g transform="translate(50.504375 393.1678125)scale(0.12 -0.12)">
       <use xlink:href="#DejaVuSans-30"/>
       <use x="63.623046875" xlink:href="#DejaVuSans-2e"/>
       <use x="95.41015625" xlink:href="#DejaVuSans-30"/>
      </g>
     </g>
    </g>
    <g id="ytick_2">
     <g id="line2d_29">
      <g>
       <use style="stroke:#000000;stroke-linecap:butt;stroke-width:0.5;" x="72.0" xlink:href="#me8a85f7bf6" y="339.207539612"/>
      </g>
     </g>
     <g id="line2d_30">
      <g>
       <use style="stroke:#000000;stroke-linecap:butt;stroke-width:0.5;" x="518.4" xlink:href="#m1a32005dea" y="339.207539612"/>
      </g>
     </g>
     <g id="text_6">
      <!-- 0.1 -->
      <defs>
       <path d="
M12.4062 8.29688
L28.5156 8.29688
L28.5156 63.9219
L10.9844 60.4062
L10.9844 69.3906
L28.4219 72.9062
L38.2812 72.9062
L38.2812 8.29688
L54.3906 8.29688
L54.3906 0
L12.4062 0
z
" id="DejaVuSans-31"/>
      </defs>
      <g transform="translate(50.815625 343.575352112)scale(0.12 -0.12)">
       <use xlink:href="#DejaVuSans-30"/>
       <use x="63.623046875" xlink:href="#DejaVuSans-2e"/>
       <use x="95.41015625" xlink:href="#DejaVuSans-31"/>
      </g>
     </g>
    </g>
    <g id="ytick_3">
     <g id="line2d_31">
      <g>
       <use style="stroke:#000000;stroke-linecap:butt;stroke-width:0.5;" x="72.0" xlink:href="#me8a85f7bf6" y="289.615079225"/>
      </g>
     </g>
     <g id="line2d_32">
      <g>
       <use style="stroke:#000000;stroke-linecap:butt;stroke-width:0.5;" x="518.4" xlink:href="#m1a32005dea" y="289.615079225"/>
      </g>
     </g>
     <g id="text_7">
      <!-- 0.2 -->
      <defs>
       <path d="
M19.1875 8.29688
L53.6094 8.29688
L53.6094 0
L7.32812 0
L7.32812 8.29688
Q12.9375 14.1094 22.625 23.8906
Q32.3281 33.6875 34.8125 36.5312
Q39.5469 41.8438 41.4219 45.5312
Q43.3125 49.2188 43.3125 52.7812
Q43.3125 58.5938 39.2344 62.25
Q35.1562 65.9219 28.6094 65.9219
Q23.9688 65.9219 18.8125 64.3125
Q13.6719 62.7031 7.8125 59.4219
L7.8125 69.3906
Q13.7656 71.7812 18.9375 73
Q24.125 74.2188 28.4219 74.2188
Q39.75 74.2188 46.4844 68.5469
Q53.2188 62.8906 53.2188 53.4219
Q53.2188 48.9219 51.5312 44.8906
Q49.8594 40.875 45.4062 35.4062
Q44.1875 33.9844 37.6406 27.2188
Q31.1094 20.4531 19.1875 8.29688" id="DejaVuSans-32"/>
      </defs>
      <g transform="translate(50.909375 293.982891725)scale(0.12 -0.12)">
       <use xlink:href="#DejaVuSans-30"/>
       <use x="63.623046875" xlink:href="#DejaVuSans-2e"/>
       <use x="95.41015625" xlink:href="#DejaVuSans-32"/>
      </g>
     </g>
    </g>
    <g id="ytick_4">
     <g id="line2d_33">
      <g>
       <use style="stroke:#000000;stroke-linecap:butt;stroke-width:0.5;" x="72.0" xlink:href="#me8a85f7bf6" y="240.022618837"/>
      </g>
     </g>
     <g id="line2d_34">
      <g>
       <use style="stroke:#000000;stroke-linecap:butt;stroke-width:0.5;" x="518.4" xlink:href="#m1a32005dea" y="240.022618837"/>
      </g>
     </g>
     <g id="text_8">
      <!-- 0.3 -->
      <defs>
       <path d="
M40.5781 39.3125
Q47.6562 37.7969 51.625 33
Q55.6094 28.2188 55.6094 21.1875
Q55.6094 10.4062 48.1875 4.48438
Q40.7656 -1.42188 27.0938 -1.42188
Q22.5156 -1.42188 17.6562 -0.515625
Q12.7969 0.390625 7.625 2.20312
L7.625 11.7188
Q11.7188 9.32812 16.5938 8.10938
Q21.4844 6.89062 26.8125 6.89062
Q36.0781 6.89062 40.9375 10.5469
Q45.7969 14.2031 45.7969 21.1875
Q45.7969 27.6406 41.2812 31.2656
Q36.7656 34.9062 28.7188 34.9062
L20.2188 34.9062
L20.2188 43.0156
L29.1094 43.0156
Q36.375 43.0156 40.2344 45.9219
Q44.0938 48.8281 44.0938 54.2969
Q44.0938 59.9062 40.1094 62.9062
Q36.1406 65.9219 28.7188 65.9219
Q24.6562 65.9219 20.0156 65.0312
Q15.375 64.1562 9.8125 62.3125
L9.8125 71.0938
Q15.4375 72.6562 20.3438 73.4375
Q25.25 74.2188 29.5938 74.2188
Q40.8281 74.2188 47.3594 69.1094
Q53.9062 64.0156 53.9062 55.3281
Q53.9062 49.2656 50.4375 45.0938
Q46.9688 40.9219 40.5781 39.3125" id="DejaVuSans-33"/>
      </defs>
      <g transform="translate(50.669375 244.390431337)scale(0.12 -0.12)">
       <use xlink:href="#DejaVuSans-30"/>
       <use x="63.623046875" xlink:href="#DejaVuSans-2e"/>
       <use x="95.41015625" xlink:href="#DejaVuSans-33"/>
      </g>
     </g>
    </g>
    <g id="ytick_5">
     <g id="line2d_35">
      <g>
       <use style="stroke:#000000;stroke-linecap:butt;stroke-width:0.5;" x="72.0" xlink:href="#me8a85f7bf6" y="190.43015845"/>
      </g>
     </g>
     <g id="line2d_36">
      <g>
       <use style="stroke:#000000;stroke-linecap:butt;stroke-width:0.5;" x="518.4" xlink:href="#m1a32005dea" y="190.43015845"/>
      </g>
     </g>
     <g id="text_9">
      <!-- 0.4 -->
      <defs>
       <path d="
M37.7969 64.3125
L12.8906 25.3906
L37.7969 25.3906
z

M35.2031 72.9062
L47.6094 72.9062
L47.6094 25.3906
L58.0156 25.3906
L58.0156 17.1875
L47.6094 17.1875
L47.6094 0
L37.7969 0
L37.7969 17.1875
L4.89062 17.1875
L4.89062 26.7031
z
" id="DejaVuSans-34"/>
      </defs>
      <g transform="translate(50.380625 194.79797095)scale(0.12 -0.12)">
       <use xlink:href="#DejaVuSans-30"/>
       <use x="63.623046875" xlink:href="#DejaVuSans-2e"/>
       <use x="95.41015625" xlink:href="#DejaVuSans-34"/>
      </g>
     </g>
    </g>
    <g id="ytick_6">
     <g id="line2d_37">
      <g>
       <use style="stroke:#000000;stroke-linecap:butt;stroke-width:0.5;" x="72.0" xlink:href="#me8a85f7bf6" y="140.837698062"/>
      </g>
     </g>
     <g id="line2d_38">
      <g>
       <use style="stroke:#000000;stroke-linecap:butt;stroke-width:0.5;" x="518.4" xlink:href="#m1a32005dea" y="140.837698062"/>
      </g>
     </g>
     <g id="text_10">
      <!-- 0.5 -->
      <defs>
       <path d="
M10.7969 72.9062
L49.5156 72.9062
L49.5156 64.5938
L19.8281 64.5938
L19.8281 46.7344
Q21.9688 47.4688 24.1094 47.8281
Q26.2656 48.1875 28.4219 48.1875
Q40.625 48.1875 47.75 41.5
Q54.8906 34.8125 54.8906 23.3906
Q54.8906 11.625 47.5625 5.09375
Q40.2344 -1.42188 26.9062 -1.42188
Q22.3125 -1.42188 17.5469 -0.640625
Q12.7969 0.140625 7.71875 1.70312
L7.71875 11.625
Q12.1094 9.23438 16.7969 8.0625
Q21.4844 6.89062 26.7031 6.89062
Q35.1562 6.89062 40.0781 11.3281
Q45.0156 15.7656 45.0156 23.3906
Q45.0156 31 40.0781 35.4375
Q35.1562 39.8906 26.7031 39.8906
Q22.75 39.8906 18.8125 39.0156
Q14.8906 38.1406 10.7969 36.2812
z
" id="DejaVuSans-35"/>
      </defs>
      <g transform="translate(50.755625 145.205510562)scale(0.12 -0.12)">
       <use xlink:href="#DejaVuSans-30"/>
       <use x="63.623046875" xlink:href="#DejaVuSans-2e"/>
       <use x="95.41015625" xlink:href="#DejaVuSans-35"/>
      </g>
     </g>
    </g>
    <g id="ytick_7">
     <g id="line2d_39">
      <g>
       <use style="stroke:#000000;stroke-linecap:butt;stroke-width:0.5;" x="72.0" xlink:href="#me8a85f7bf6" y="91.2452376746"/>
      </g>
     </g>
     <g id="line2d_40">
      <g>
       <use style="stroke:#000000;stroke-linecap:butt;stroke-width:0.5;" x="518.4" xlink:href="#m1a32005dea" y="91.2452376746"/>
      </g>
     </g>
     <g id="text_11">
      <!-- 0.6 -->
      <defs>
       <path d="
M33.0156 40.375
Q26.375 40.375 22.4844 35.8281
Q18.6094 31.2969 18.6094 23.3906
Q18.6094 15.5312 22.4844 10.9531
Q26.375 6.39062 33.0156 6.39062
Q39.6562 6.39062 43.5312 10.9531
Q47.4062 15.5312 47.4062 23.3906
Q47.4062 31.2969 43.5312 35.8281
Q39.6562 40.375 33.0156 40.375
M52.5938 71.2969
L52.5938 62.3125
Q48.875 64.0625 45.0938 64.9844
Q41.3125 65.9219 37.5938 65.9219
Q27.8281 65.9219 22.6719 59.3281
Q17.5312 52.7344 16.7969 39.4062
Q19.6719 43.6562 24.0156 45.9219
Q28.375 48.1875 33.5938 48.1875
Q44.5781 48.1875 50.9531 41.5156
Q57.3281 34.8594 57.3281 23.3906
Q57.3281 12.1562 50.6875 5.35938
Q44.0469 -1.42188 33.0156 -1.42188
Q20.3594 -1.42188 13.6719 8.26562
Q6.98438 17.9688 6.98438 36.375
Q6.98438 53.6562 15.1875 63.9375
Q23.3906 74.2188 37.2031 74.2188
Q40.9219 74.2188 44.7031 73.4844
Q48.4844 72.75 52.5938 71.2969" id="DejaVuSans-36"/>
      </defs>
      <g transform="translate(50.463125 95.6130501746)scale(0.12 -0.12)">
       <use xlink:href="#DejaVuSans-30"/>
       <use x="63.623046875" xlink:href="#DejaVuSans-2e"/>
       <use x="95.41015625" xlink:href="#DejaVuSans-36"/>
      </g>
     </g>
    </g>
    <g id="text_12">
     <!-- Frequency $ \frac{\omega a}{2\pi c} $ -->
     <defs>
      <path d="
M4.98438 0
L4.98438 2.6875
Q4.98438 2.9375 5.17188 3.21875
L20.7031 20.4062
Q24.2188 24.2188 26.4062 26.7969
Q28.6094 29.3906 30.75 32.7656
Q32.9062 36.1406 34.1562 39.625
Q35.4062 43.1094 35.4062 47.0156
Q35.4062 51.125 33.8906 54.8594
Q32.375 58.5938 29.375 60.8438
Q26.375 63.0938 22.125 63.0938
Q17.7812 63.0938 14.3125 60.4688
Q10.8438 57.8594 9.42188 53.7188
Q9.8125 53.8125 10.5 53.8125
Q12.75 53.8125 14.3281 52.2969
Q15.9219 50.7812 15.9219 48.3906
Q15.9219 46.0938 14.3281 44.5
Q12.75 42.9219 10.5 42.9219
Q8.15625 42.9219 6.5625 44.5469
Q4.98438 46.1875 4.98438 48.3906
Q4.98438 52.1562 6.39062 55.4375
Q7.8125 58.7344 10.4688 61.2969
Q13.1406 63.875 16.4844 65.2344
Q19.8281 66.6094 23.5781 66.6094
Q29.2969 66.6094 34.2188 64.1875
Q39.1562 61.7656 42.0312 57.3438
Q44.9219 52.9375 44.9219 47.0156
Q44.9219 42.6719 43.0156 38.7656
Q41.1094 34.8594 38.125 31.6562
Q35.1562 28.4688 30.5156 24.4062
Q25.875 20.3594 24.4219 19
L13.0938 8.10938
L22.7031 8.10938
Q29.7812 8.10938 34.5469 8.21875
Q39.3125 8.34375 39.5938 8.59375
Q40.7656 9.85938 42 17.8281
L44.9219 17.8281
L42.0938 0
z
" id="Cmr10-32"/>
      <path d="
M54.8906 33.0156
L54.8906 0
L45.9062 0
L45.9062 32.7188
Q45.9062 40.4844 42.875 44.3281
Q39.8438 48.1875 33.7969 48.1875
Q26.5156 48.1875 22.3125 43.5469
Q18.1094 38.9219 18.1094 30.9062
L18.1094 0
L9.07812 0
L9.07812 54.6875
L18.1094 54.6875
L18.1094 46.1875
Q21.3438 51.125 25.7031 53.5625
Q30.0781 56 35.7969 56
Q45.2188 56 50.0469 50.1719
Q54.8906 44.3438 54.8906 33.0156" id="DejaVuSans-6e"/>
      <path d="
M12.1094 -1.125
Q6.45312 -1.125 3.9375 3.01562
Q1.42188 7.17188 1.42188 13.1875
Q1.42188 17.1406 2.125 20.9219
Q2.82812 24.7031 4.26562 28.5781
Q5.71875 32.4688 7.5625 35.8594
Q9.42188 39.2656 11.7188 42.4844
Q12.1562 43.1094 12.8906 43.1094
Q13.5312 43.1094 13.9219 42.7188
Q14.3125 42.3281 14.3125 41.7969
Q14.3125 41.2656 14.0156 40.8281
Q4.89062 28.2656 4.89062 17.6719
Q4.89062 13.0938 7 9.79688
Q9.125 6.5 13.4844 6.5
Q17.2344 6.5 20.4375 8.6875
Q23.6406 10.8906 25.9844 14.3125
Q25.9844 16.0625 26.5938 19.7656
Q27.2031 23.4844 28.4844 26.3906
Q29.7812 29.2969 31.5938 29.2969
Q33.8906 29.2969 33.8906 26.6094
Q33.8906 25.0469 33.2188 22.6719
Q32.5625 20.3125 31.75 18.2656
Q30.9531 16.2188 29.7812 13.625
Q30.9531 6.5 36.9219 6.5
Q40.375 6.5 43.8594 8.5
Q47.3594 10.5 50.0469 13.75
Q52.7344 17 54.2656 20.75
Q55.8125 24.5156 55.8125 27.875
Q55.8125 30.9062 54.8594 32.5938
Q53.9062 34.2812 52.3438 36.125
Q50.7812 37.9844 50.7812 39.1094
Q50.7812 41.0625 52.4375 42.6719
Q54.1094 44.2812 56 44.2812
Q58.4531 44.2812 59.4688 42.0625
Q60.5 39.8438 60.5 37.0156
Q60.5 32.4219 58.6719 25.4375
Q56.8438 18.4531 54.5 13.8125
Q51.2656 7.51562 46.4062 3.1875
Q41.5469 -1.125 35.5 -1.125
Q31.6406 -1.125 29.2656 1.1875
Q26.9062 3.51562 26.2188 7.51562
Q23.4375 3.5625 19.875 1.21875
Q16.3125 -1.125 12.1094 -1.125" id="Cmmi10-21"/>
      <path id="DejaVuSans-20"/>
      <path d="
M10.1094 1.70312
Q10.1094 2.25 10.5 3.32812
Q13.2812 9.125 15.6875 14.7188
Q18.1094 20.3125 20.0312 25.6094
Q21.9688 30.9062 23.5781 36.9219
L17.1875 36.9219
Q13.5312 36.9219 10.3438 34.625
Q7.17188 32.3281 5.07812 28.8125
Q4.89062 28.4219 4.5 28.4219
L3.32812 28.4219
Q2.39062 28.4219 2.39062 29.3906
Q2.39062 29.5938 2.59375 29.9844
Q5.85938 35.5469 9.59375 39.3281
Q13.3281 43.1094 18.0156 43.1094
L54.2969 43.1094
Q55.3281 43.1094 56.0469 42.4219
Q56.7812 41.75 56.7812 40.5781
Q56.7812 39.1094 55.7344 38.0156
Q54.6875 36.9219 53.2188 36.9219
L40.4844 36.9219
Q38.875 29.0469 38.7188 21.5781
Q38.7188 11.9688 42.0938 4.20312
Q42.3906 3.60938 42.3906 2.98438
Q42.3906 1.90625 41.75 0.96875
Q41.1094 0.046875 40.1094 -0.53125
Q39.1094 -1.125 37.9844 -1.125
Q35.3594 -1.125 34.375 3.17188
Q33.4062 7.46875 33.4062 11.5312
Q33.4062 17.2344 34.375 22.5312
Q35.3594 27.8281 37.5 36.9219
L26.6094 36.9219
Q18.7031 4.89062 17.0938 1.60938
Q15.6719 -1.125 13.1875 -1.125
Q11.9688 -1.125 11.0312 -0.3125
Q10.1094 0.484375 10.1094 1.70312" id="Cmmi10-bc"/>
      <path d="
M11.7188 11.9219
Q11.7188 7.5625 13.9375 4.53125
Q16.1562 1.51562 20.3125 1.51562
Q26.2656 1.51562 31.75 4.25
Q37.25 6.98438 40.7188 11.8125
Q41.0156 12.1094 41.5 12.1094
Q42 12.1094 42.5 11.5469
Q43.0156 10.9844 43.0156 10.5
Q43.0156 10.1094 42.8281 9.90625
Q39.1562 4.78125 32.9531 1.82812
Q26.7656 -1.125 20.125 -1.125
Q15.3281 -1.125 11.6719 1.14062
Q8.01562 3.42188 6 7.21875
Q4 11.0312 4 15.8281
Q4 22.5625 7.76562 29.2031
Q11.5312 35.8438 17.7812 40.0156
Q24.0312 44.1875 30.9062 44.1875
Q35.4062 44.1875 38.9844 42.0156
Q42.5781 39.8438 42.5781 35.5938
Q42.5781 32.8594 40.9844 30.9219
Q39.4062 29 36.7188 29
Q35.1094 29 34 30
Q32.9062 31 32.9062 32.625
Q32.9062 34.9688 34.6094 36.625
Q36.3281 38.2812 38.625 38.2812
L38.8125 38.2812
Q37.6406 39.9844 35.4219 40.7969
Q33.2031 41.6094 30.8125 41.6094
Q24.9531 41.6094 20.5469 36.5938
Q16.1562 31.5938 13.9375 24.625
Q11.7188 17.6719 11.7188 11.9219" id="Cmmi10-63"/>
      <path d="
M17.3906 -1.125
Q11.0781 -1.125 7.4375 3.64062
Q3.8125 8.40625 3.8125 14.8906
Q3.8125 21.2969 7.125 28.1719
Q10.4531 35.0625 16.0938 39.625
Q21.7344 44.1875 28.2188 44.1875
Q31.2031 44.1875 33.5469 42.5781
Q35.8906 40.9688 37.2031 38.1875
Q38.3281 42.1875 41.6094 42.1875
Q42.875 42.1875 43.7188 41.4219
Q44.5781 40.6719 44.5781 39.4062
Q44.5781 39.1094 44.5469 38.9531
Q44.5312 38.8125 44.4844 38.625
L37.5 10.6875
Q36.8125 7.71875 36.8125 5.8125
Q36.8125 1.51562 39.7031 1.51562
Q42.8281 1.51562 44.4531 5.48438
Q46.0938 9.46875 47.2188 14.7031
Q47.4062 15.2812 48 15.2812
L49.2188 15.2812
Q49.6094 15.2812 49.8438 14.9375
Q50.0938 14.5938 50.0938 14.3125
Q48.3438 7.32812 46.2656 3.09375
Q44.1875 -1.125 39.5 -1.125
Q36.1406 -1.125 33.5469 0.84375
Q30.9531 2.82812 30.3281 6.10938
Q23.875 -1.125 17.3906 -1.125
M17.4844 1.51562
Q21.0938 1.51562 24.4844 4.21875
Q27.875 6.9375 30.3281 10.5938
Q30.4219 10.6875 30.4219 10.8906
L35.7969 32.625
L35.8906 32.9062
Q35.2969 36.4688 33.3125 39.0312
Q31.3438 41.6094 27.9844 41.6094
Q24.6094 41.6094 21.7031 38.8438
Q18.7969 36.0781 16.7969 32.3281
Q14.8438 28.3281 13.0625 21.3438
Q11.2812 14.3594 11.2812 10.5
Q11.2812 7.03125 12.7656 4.26562
Q14.2656 1.51562 17.4844 1.51562" id="Cmmi10-61"/>
      <path d="
M9.8125 72.9062
L51.7031 72.9062
L51.7031 64.5938
L19.6719 64.5938
L19.6719 43.1094
L48.5781 43.1094
L48.5781 34.8125
L19.6719 34.8125
L19.6719 0
L9.8125 0
z
" id="DejaVuSans-46"/>
      <path d="
M32.1719 -5.07812
Q28.375 -14.8438 24.75 -17.8125
Q21.1406 -20.7969 15.0938 -20.7969
L7.90625 -20.7969
L7.90625 -13.2812
L13.1875 -13.2812
Q16.8906 -13.2812 18.9375 -11.5156
Q21 -9.76562 23.4844 -3.21875
L25.0938 0.875
L2.98438 54.6875
L12.5 54.6875
L29.5938 11.9219
L46.6875 54.6875
L56.2031 54.6875
z
" id="DejaVuSans-79"/>
      <path d="
M8.5 21.5781
L8.5 54.6875
L17.4844 54.6875
L17.4844 21.9219
Q17.4844 14.1562 20.5 10.2656
Q23.5312 6.39062 29.5938 6.39062
Q36.8594 6.39062 41.0781 11.0312
Q45.3125 15.6719 45.3125 23.6875
L45.3125 54.6875
L54.2969 54.6875
L54.2969 0
L45.3125 0
L45.3125 8.40625
Q42.0469 3.42188 37.7188 1
Q33.4062 -1.42188 27.6875 -1.42188
Q18.2656 -1.42188 13.375 4.4375
Q8.5 10.2969 8.5 21.5781
M31.1094 56
z
" id="DejaVuSans-75"/>
      <path d="
M56.2031 29.5938
L56.2031 25.2031
L14.8906 25.2031
Q15.4844 15.9219 20.4844 11.0625
Q25.4844 6.20312 34.4219 6.20312
Q39.5938 6.20312 44.4531 7.46875
Q49.3125 8.73438 54.1094 11.2812
L54.1094 2.78125
Q49.2656 0.734375 44.1875 -0.34375
Q39.1094 -1.42188 33.8906 -1.42188
Q20.7969 -1.42188 13.1562 6.1875
Q5.51562 13.8125 5.51562 26.8125
Q5.51562 40.2344 12.7656 48.1094
Q20.0156 56 32.3281 56
Q43.3594 56 49.7812 48.8906
Q56.2031 41.7969 56.2031 29.5938
M47.2188 32.2344
Q47.125 39.5938 43.0938 43.9844
Q39.0625 48.3906 32.4219 48.3906
Q24.9062 48.3906 20.3906 44.1406
Q15.875 39.8906 15.1875 32.1719
z
" id="DejaVuSans-65"/>
      <path d="
M14.7969 27.2969
Q14.7969 17.3906 18.875 11.75
Q22.9531 6.10938 30.0781 6.10938
Q37.2031 6.10938 41.2969 11.75
Q45.4062 17.3906 45.4062 27.2969
Q45.4062 37.2031 41.2969 42.8438
Q37.2031 48.4844 30.0781 48.4844
Q22.9531 48.4844 18.875 42.8438
Q14.7969 37.2031 14.7969 27.2969
M45.4062 8.20312
Q42.5781 3.32812 38.25 0.953125
Q33.9375 -1.42188 27.875 -1.42188
Q17.9688 -1.42188 11.7344 6.48438
Q5.51562 14.4062 5.51562 27.2969
Q5.51562 40.1875 11.7344 48.0938
Q17.9688 56 27.875 56
Q33.9375 56 38.25 53.625
Q42.5781 51.2656 45.4062 46.3906
L45.4062 54.6875
L54.3906 54.6875
L54.3906 -20.7969
L45.4062 -20.7969
z
" id="DejaVuSans-71"/>
      <path d="
M48.7812 52.5938
L48.7812 44.1875
Q44.9688 46.2969 41.1406 47.3438
Q37.3125 48.3906 33.4062 48.3906
Q24.6562 48.3906 19.8125 42.8438
Q14.9844 37.3125 14.9844 27.2969
Q14.9844 17.2812 19.8125 11.7344
Q24.6562 6.20312 33.4062 6.20312
Q37.3125 6.20312 41.1406 7.25
Q44.9688 8.29688 48.7812 10.4062
L48.7812 2.09375
Q45.0156 0.34375 40.9844 -0.53125
Q36.9688 -1.42188 32.4219 -1.42188
Q20.0625 -1.42188 12.7812 6.34375
Q5.51562 14.1094 5.51562 27.2969
Q5.51562 40.6719 12.8594 48.3281
Q20.2188 56 33.0156 56
Q37.1562 56 41.1094 55.1406
Q45.0625 54.2969 48.7812 52.5938" id="DejaVuSans-63"/>
      <path d="
M41.1094 46.2969
Q39.5938 47.1719 37.8125 47.5781
Q36.0312 48 33.8906 48
Q26.2656 48 22.1875 43.0469
Q18.1094 38.0938 18.1094 28.8125
L18.1094 0
L9.07812 0
L9.07812 54.6875
L18.1094 54.6875
L18.1094 46.1875
Q20.9531 51.1719 25.4844 53.5781
Q30.0312 56 36.5312 56
Q37.4531 56 38.5781 55.875
Q39.7031 55.7656 41.0625 55.5156
z
" id="DejaVuSans-72"/>
     </defs>
     <g transform="translate(45.380625 283.6)rotate(-90.0)scale(0.2 -0.2)">
      <use transform="translate(0.0 42.09375)" xlink:href="#DejaVuSans-46"/>
      <use transform="translate(57.51953125 42.09375)" xlink:href="#DejaVuSans-72"/>
      <use transform="translate(98.6328125 42.09375)" xlink:href="#DejaVuSans-65"/>
      <use transform="translate(160.15625 42.09375)" xlink:href="#DejaVuSans-71"/>
      <use transform="translate(223.6328125 42.09375)" xlink:href="#DejaVuSans-75"/>
      <use transform="translate(287.01171875 42.09375)" xlink:href="#DejaVuSans-65"/>
      <use transform="translate(348.53515625 42.09375)" xlink:href="#DejaVuSans-6e"/>
      <use transform="translate(411.9140625 42.09375)" xlink:href="#DejaVuSans-63"/>
      <use transform="translate(466.89453125 42.09375)" xlink:href="#DejaVuSans-79"/>
      <use transform="translate(526.07421875 42.09375)" xlink:href="#DejaVuSans-20"/>
      <use transform="translate(569.861328125 80.38125)scale(0.7)" xlink:href="#Cmmi10-21"/>
      <use transform="translate(613.40625 80.38125)scale(0.7)" xlink:href="#Cmmi10-61"/>
      <use transform="translate(557.861328125 1.7171875)scale(0.7)" xlink:href="#Cmr10-32"/>
      <use transform="translate(592.861328125 1.7171875)scale(0.7)" xlink:href="#Cmmi10-bc"/>
      <use transform="translate(632.749023438 1.7171875)scale(0.7)" xlink:href="#Cmmi10-63"/>
      <path d="
M557.861 54.5937
L557.861 60.8437
L662.998 60.8437
L662.998 54.5937
L557.861 54.5937
z
"/>
     </g>
    </g>
   </g>
   <g id="patch_3">
    <path d="
M72 43.2
L518.4 43.2" style="fill:none;stroke:#000000;"/>
   </g>
   <g id="patch_4">
    <path d="
M518.4 388.8
L518.4 43.2" style="fill:none;stroke:#000000;"/>
   </g>
   <g id="patch_5">
    <path d="
M72 388.8
L518.4 388.8" style="fill:none;stroke:#000000;"/>
   </g>
   <g id="patch_6">
    <path d="
M72 388.8
L72 43.2" style="fill:none;stroke:#000000;"/>
   </g>
   <g id="text_13">
    <!-- Dispersion relations for Square lattice -->
    <defs>
     <path d="
M30.6094 48.3906
Q23.3906 48.3906 19.1875 42.75
Q14.9844 37.1094 14.9844 27.2969
Q14.9844 17.4844 19.1562 11.8438
Q23.3438 6.20312 30.6094 6.20312
Q37.7969 6.20312 41.9844 11.8594
Q46.1875 17.5312 46.1875 27.2969
Q46.1875 37.0156 41.9844 42.7031
Q37.7969 48.3906 30.6094 48.3906
M30.6094 56
Q42.3281 56 49.0156 48.375
Q55.7188 40.7656 55.7188 27.2969
Q55.7188 13.875 49.0156 6.21875
Q42.3281 -1.42188 30.6094 -1.42188
Q18.8438 -1.42188 12.1719 6.21875
Q5.51562 13.875 5.51562 27.2969
Q5.51562 40.7656 12.1719 48.375
Q18.8438 56 30.6094 56" id="DejaVuSans-6f"/>
     <path d="
M9.42188 75.9844
L18.4062 75.9844
L18.4062 0
L9.42188 0
z
" id="DejaVuSans-6c"/>
     <path d="
M19.6719 64.7969
L19.6719 8.10938
L31.5938 8.10938
Q46.6875 8.10938 53.6875 14.9375
Q60.6875 21.7812 60.6875 36.5312
Q60.6875 51.1719 53.6875 57.9844
Q46.6875 64.7969 31.5938 64.7969
z

M9.8125 72.9062
L30.0781 72.9062
Q51.2656 72.9062 61.1719 64.0938
Q71.0938 55.2812 71.0938 36.5312
Q71.0938 17.6719 61.125 8.82812
Q51.1719 0 30.0781 0
L9.8125 0
z
" id="DejaVuSans-44"/>
     <path d="
M53.5156 70.5156
L53.5156 60.8906
Q47.9062 63.5781 42.9219 64.8906
Q37.9375 66.2188 33.2969 66.2188
Q25.25 66.2188 20.875 63.0938
Q16.5 59.9688 16.5 54.2031
Q16.5 49.3594 19.4062 46.8906
Q22.3125 44.4375 30.4219 42.9219
L36.375 41.7031
Q47.4062 39.5938 52.6562 34.2969
Q57.9062 29 57.9062 20.125
Q57.9062 9.51562 50.7969 4.04688
Q43.7031 -1.42188 29.9844 -1.42188
Q24.8125 -1.42188 18.9688 -0.25
Q13.1406 0.921875 6.89062 3.21875
L6.89062 13.375
Q12.8906 10.0156 18.6562 8.29688
Q24.4219 6.59375 29.9844 6.59375
Q38.4219 6.59375 43.0156 9.90625
Q47.6094 13.2344 47.6094 19.3906
Q47.6094 24.75 44.3125 27.7812
Q41.0156 30.8125 33.5 32.3281
L27.4844 33.5
Q16.4531 35.6875 11.5156 40.375
Q6.59375 45.0625 6.59375 53.4219
Q6.59375 63.0938 13.4062 68.6562
Q20.2188 74.2188 32.1719 74.2188
Q37.3125 74.2188 42.625 73.2812
Q47.9531 72.3594 53.5156 70.5156" id="DejaVuSans-53"/>
     <path d="
M9.42188 54.6875
L18.4062 54.6875
L18.4062 0
L9.42188 0
z

M9.42188 75.9844
L18.4062 75.9844
L18.4062 64.5938
L9.42188 64.5938
z
" id="DejaVuSans-69"/>
     <path d="
M37.1094 75.9844
L37.1094 68.5
L28.5156 68.5
Q23.6875 68.5 21.7969 66.5469
Q19.9219 64.5938 19.9219 59.5156
L19.9219 54.6875
L34.7188 54.6875
L34.7188 47.7031
L19.9219 47.7031
L19.9219 0
L10.8906 0
L10.8906 47.7031
L2.29688 47.7031
L2.29688 54.6875
L10.8906 54.6875
L10.8906 58.5
Q10.8906 67.625 15.1406 71.7969
Q19.3906 75.9844 28.6094 75.9844
z
" id="DejaVuSans-66"/>
     <path d="
M18.3125 70.2188
L18.3125 54.6875
L36.8125 54.6875
L36.8125 47.7031
L18.3125 47.7031
L18.3125 18.0156
Q18.3125 11.3281 20.1406 9.42188
Q21.9688 7.51562 27.5938 7.51562
L36.8125 7.51562
L36.8125 0
L27.5938 0
Q17.1875 0 13.2344 3.875
Q9.28125 7.76562 9.28125 18.0156
L9.28125 47.7031
L2.6875 47.7031
L2.6875 54.6875
L9.28125 54.6875
L9.28125 70.2188
z
" id="DejaVuSans-74"/>
     <path d="
M18.1094 8.20312
L18.1094 -20.7969
L9.07812 -20.7969
L9.07812 54.6875
L18.1094 54.6875
L18.1094 46.3906
Q20.9531 51.2656 25.2656 53.625
Q29.5938 56 35.5938 56
Q45.5625 56 51.7812 48.0938
Q58.0156 40.1875 58.0156 27.2969
Q58.0156 14.4062 51.7812 6.48438
Q45.5625 -1.42188 35.5938 -1.42188
Q29.5938 -1.42188 25.2656 0.953125
Q20.9531 3.32812 18.1094 8.20312
M48.6875 27.2969
Q48.6875 37.2031 44.6094 42.8438
Q40.5312 48.4844 33.4062 48.4844
Q26.2656 48.4844 22.1875 42.8438
Q18.1094 37.2031 18.1094 27.2969
Q18.1094 17.3906 22.1875 11.75
Q26.2656 6.10938 33.4062 6.10938
Q40.5312 6.10938 44.6094 11.75
Q48.6875 17.3906 48.6875 27.2969" id="DejaVuSans-70"/>
     <path d="
M44.2812 53.0781
L44.2812 44.5781
Q40.4844 46.5312 36.375 47.5
Q32.2812 48.4844 27.875 48.4844
Q21.1875 48.4844 17.8438 46.4375
Q14.5 44.3906 14.5 40.2812
Q14.5 37.1562 16.8906 35.375
Q19.2812 33.5938 26.5156 31.9844
L29.5938 31.2969
Q39.1562 29.25 43.1875 25.5156
Q47.2188 21.7812 47.2188 15.0938
Q47.2188 7.46875 41.1875 3.01562
Q35.1562 -1.42188 24.6094 -1.42188
Q20.2188 -1.42188 15.4531 -0.5625
Q10.6875 0.296875 5.42188 2
L5.42188 11.2812
Q10.4062 8.6875 15.2344 7.39062
Q20.0625 6.10938 24.8125 6.10938
Q31.1562 6.10938 34.5625 8.28125
Q37.9844 10.4531 37.9844 14.4062
Q37.9844 18.0625 35.5156 20.0156
Q33.0625 21.9688 24.7031 23.7812
L21.5781 24.5156
Q13.2344 26.2656 9.51562 29.9062
Q5.8125 33.5469 5.8125 39.8906
Q5.8125 47.6094 11.2812 51.7969
Q16.75 56 26.8125 56
Q31.7812 56 36.1719 55.2656
Q40.5781 54.5469 44.2812 53.0781" id="DejaVuSans-73"/>
     <path d="
M34.2812 27.4844
Q23.3906 27.4844 19.1875 25
Q14.9844 22.5156 14.9844 16.5
Q14.9844 11.7188 18.1406 8.90625
Q21.2969 6.10938 26.7031 6.10938
Q34.1875 6.10938 38.7031 11.4062
Q43.2188 16.7031 43.2188 25.4844
L43.2188 27.4844
z

M52.2031 31.2031
L52.2031 0
L43.2188 0
L43.2188 8.29688
Q40.1406 3.32812 35.5469 0.953125
Q30.9531 -1.42188 24.3125 -1.42188
Q15.9219 -1.42188 10.9531 3.29688
Q6 8.01562 6 15.9219
Q6 25.1406 12.1719 29.8281
Q18.3594 34.5156 30.6094 34.5156
L43.2188 34.5156
L43.2188 35.4062
Q43.2188 41.6094 39.1406 45
Q35.0625 48.3906 27.6875 48.3906
Q23 48.3906 18.5469 47.2656
Q14.1094 46.1406 10.0156 43.8906
L10.0156 52.2031
Q14.9375 54.1094 19.5781 55.0469
Q24.2188 56 28.6094 56
Q40.4844 56 46.3438 49.8438
Q52.2031 43.7031 52.2031 31.2031" id="DejaVuSans-61"/>
    </defs>
    <g transform="translate(159.580125 38.2)scale(0.144 -0.144)">
     <use xlink:href="#DejaVuSans-44"/>
     <use x="77.001953125" xlink:href="#DejaVuSans-69"/>
     <use x="104.78515625" xlink:href="#DejaVuSans-73"/>
     <use x="156.884765625" xlink:href="#DejaVuSans-70"/>
     <use x="220.361328125" xlink:href="#DejaVuSans-65"/>
     <use x="281.884765625" xlink:href="#DejaVuSans-72"/>
     <use x="322.998046875" xlink:href="#DejaVuSans-73"/>
     <use x="375.09765625" xlink:href="#DejaVuSans-69"/>
     <use x="402.880859375" xlink:href="#DejaVuSans-6f"/>
     <use x="464.0625" xlink:href="#DejaVuSans-6e"/>
     <use x="527.44140625" xlink:href="#DejaVuSans-20"/>
     <use x="559.228515625" xlink:href="#DejaVuSans-72"/>
     <use x="598.091796875" xlink:href="#DejaVuSans-65"/>
     <use x="659.615234375" xlink:href="#DejaVuSans-6c"/>
     <use x="687.3984375" xlink:href="#DejaVuSans-61"/>
     <use x="748.677734375" xlink:href="#DejaVuSans-74"/>
     <use x="787.88671875" xlink:href="#DejaVuSans-69"/>
     <use x="815.669921875" xlink:href="#DejaVuSans-6f"/>
     <use x="876.8515625" xlink:href="#DejaVuSans-6e"/>
     <use x="940.23046875" xlink:href="#DejaVuSans-73"/>
     <use x="992.330078125" xlink:href="#DejaVuSans-20"/>
     <use x="1024.1171875" xlink:href="#DejaVuSans-66"/>
     <use x="1059.32226562" xlink:href="#DejaVuSans-6f"/>
     <use x="1120.50390625" xlink:href="#DejaVuSans-72"/>
     <use x="1161.6171875" xlink:href="#DejaVuSans-20"/>
     <use x="1193.40429688" xlink:href="#DejaVuSans-53"/>
     <use x="1256.88085938" xlink:href="#DejaVuSans-71"/>
     <use x="1320.35742188" xlink:href="#DejaVuSans-75"/>
     <use x="1383.73632812" xlink:href="#DejaVuSans-61"/>
     <use x="1445.015625" xlink:href="#DejaVuSans-72"/>
     <use x="1483.87890625" xlink:href="#DejaVuSans-65"/>
     <use x="1545.40234375" xlink:href="#DejaVuSans-20"/>
     <use x="1577.18945312" xlink:href="#DejaVuSans-6c"/>
     <use x="1604.97265625" xlink:href="#DejaVuSans-61"/>
     <use x="1666.25195312" xlink:href="#DejaVuSans-74"/>
     <use x="1705.4609375" xlink:href="#DejaVuSans-74"/>
     <use x="1744.66992188" xlink:href="#DejaVuSans-69"/>
     <use x="1772.453125" xlink:href="#DejaVuSans-63"/>
     <use x="1827.43359375" xlink:href="#DejaVuSans-65"/>
    </g>
   </g>
  </g>
 </g>
 <defs>
  <clipPath id="p7ff5b81e1d">
   <rect height="345.6" width="446.4" x="72.0" y="43.2"/>
  </clipPath>
 </defs>
</svg>
