<?xml version="1.0" encoding="UTF-8" standalone="no"?>
<!DOCTYPE svg PUBLIC "-//W3C//DTD SVG 1.1//EN"
 "http://www.w3.org/Graphics/SVG/1.1/DTD/svg11.dtd">
<!-- Generated by graphviz version 2.26.3 (20100126.1600)
 -->
<!-- Title: classes_No_Name Pages: 1 -->
<svg width="2723pt" height="1444pt"
 viewBox="0.00 0.00 2723.00 1444.00" xmlns="http://www.w3.org/2000/svg" xmlns:xlink="http://www.w3.org/1999/xlink">
<g id="graph1" class="graph" transform="scale(1 1) rotate(0) translate(4 1440)">
<title>classes_No_Name</title>
<polygon fill="white" stroke="white" points="-4,5 -4,-1440 2720,-1440 2720,5 -4,5"/>
<!-- 6 -->
<g id="node1" class="node"><title>6</title>
<polygon fill="none" stroke="black" points="276.5,-899 276.5,-1067 419.5,-1067 419.5,-899 276.5,-899"/>
<text text-anchor="middle" x="348" y="-1050.4" font-family="Times Roman,serif" font-size="14.00">Domain</text>
<polyline fill="none" stroke="black" points="276.5,-1041 419.5,-1041 "/>
<text text-anchor="start" x="284.5" y="-1024.4" font-family="Times Roman,serif" font-size="14.00">regions : dict</text>
<text text-anchor="start" x="284.5" y="-1006.4" font-family="Times Roman,serif" font-size="14.00">boundaries</text>
<text text-anchor="start" x="284.5" y="-988.4" font-family="Times Roman,serif" font-size="14.00">nodes : int</text>
<text text-anchor="start" x="284.5" y="-970.4" font-family="Times Roman,serif" font-size="14.00">elements : int</text>
<polyline fill="none" stroke="black" points="276.5,-961 419.5,-961 "/>
<text text-anchor="start" x="284.5" y="-944.4" font-family="Times Roman,serif" font-size="14.00">read_bc_file()</text>
<text text-anchor="start" x="284.5" y="-926.4" font-family="Times Roman,serif" font-size="14.00">read_regions_file()</text>
<text text-anchor="start" x="284.5" y="-908.4" font-family="Times Roman,serif" font-size="14.00">read_mesh_file()</text>
</g>
<!-- 11 -->
<g id="node6" class="node"><title>11</title>
<polygon fill="none" stroke="black" points="263,-1177 263,-1435 433,-1435 433,-1177 263,-1177"/>
<text text-anchor="middle" x="348" y="-1418.4" font-family="Times Roman,serif" font-size="14.00">Simulation</text>
<polyline fill="none" stroke="black" points="263,-1409 433,-1409 "/>
<text text-anchor="start" x="271" y="-1392.4" font-family="Times Roman,serif" font-size="14.00">domain</text>
<text text-anchor="start" x="271" y="-1374.4" font-family="Times Roman,serif" font-size="14.00">bc_type</text>
<text text-anchor="start" x="271" y="-1356.4" font-family="Times Roman,serif" font-size="14.00">time_dependency</text>
<text text-anchor="start" x="271" y="-1338.4" font-family="Times Roman,serif" font-size="14.00">sim_type</text>
<text text-anchor="start" x="271" y="-1320.4" font-family="Times Roman,serif" font-size="14.00">body_parameter</text>
<text text-anchor="start" x="271" y="-1302.4" font-family="Times Roman,serif" font-size="14.00">solver_param</text>
<text text-anchor="start" x="271" y="-1284.4" font-family="Times Roman,serif" font-size="14.00">bc_filename</text>
<text text-anchor="start" x="271" y="-1266.4" font-family="Times Roman,serif" font-size="14.00">dimension</text>
<text text-anchor="start" x="271" y="-1248.4" font-family="Times Roman,serif" font-size="14.00">sim_type : str</text>
<text text-anchor="start" x="271" y="-1230.4" font-family="Times Roman,serif" font-size="14.00">time_dependency : str</text>
<text text-anchor="start" x="271" y="-1212.4" font-family="Times Roman,serif" font-size="14.00">dimension : int</text>
<polyline fill="none" stroke="black" points="263,-1203 433,-1203 "/>
<text text-anchor="start" x="271" y="-1186.4" font-family="Times Roman,serif" font-size="14.00">read_solver_input()</text>
</g>
<!-- 6&#45;&gt;11 -->
<g id="edge22" class="edge"><title>6&#45;&gt;11</title>
<path fill="none" stroke="black" d="M348,-1067.02C348,-1096.9 348,-1131.42 348,-1164.77"/>
<polygon fill="black" stroke="black" points="348,-1165 352,-1171 348,-1177 344,-1171 348,-1165"/>
<text text-anchor="middle" x="373.5" y="-1145.4" font-family="Times Roman,serif" font-size="14.00" fill="green">domain</text>
</g>
<!-- 7 -->
<g id="node2" class="node"><title>7</title>
<polygon fill="none" stroke="black" points="168,-504 168,-636 248,-636 248,-504 168,-504"/>
<text text-anchor="middle" x="208" y="-619.4" font-family="Times Roman,serif" font-size="14.00">Elements</text>
<polyline fill="none" stroke="black" points="168,-610 248,-610 "/>
<text text-anchor="start" x="176" y="-593.4" font-family="Times Roman,serif" font-size="14.00">quads</text>
<text text-anchor="start" x="176" y="-575.4" font-family="Times Roman,serif" font-size="14.00">all : dict</text>
<text text-anchor="start" x="176" y="-557.4" font-family="Times Roman,serif" font-size="14.00">lines</text>
<text text-anchor="start" x="176" y="-539.4" font-family="Times Roman,serif" font-size="14.00">triangles</text>
<polyline fill="none" stroke="black" points="168,-530 248,-530 "/>
<text text-anchor="start" x="176" y="-513.4" font-family="Times Roman,serif" font-size="14.00">add()</text>
</g>
<!-- 7&#45;&gt;6 -->
<g id="edge12" class="edge"><title>7&#45;&gt;6</title>
<path fill="none" stroke="black" d="M218.753,-636.026C226.916,-680.275 239.698,-739.467 257,-790 268.168,-822.619 283.243,-857.029 297.909,-887.618"/>
<polygon fill="black" stroke="black" points="298.049,-887.907 304.266,-891.56 303.285,-898.704 297.068,-895.051 298.049,-887.907"/>
<text text-anchor="middle" x="302" y="-813.4" font-family="Times Roman,serif" font-size="14.00" fill="green">elements</text>
</g>
<!-- 8 -->
<g id="node3" class="node"><title>8</title>
<polygon fill="none" stroke="black" points="556,-37 556,-259 770,-259 770,-37 556,-37"/>
<text text-anchor="middle" x="663" y="-242.4" font-family="Times Roman,serif" font-size="14.00">DOF</text>
<polyline fill="none" stroke="black" points="556,-233 770,-233 "/>
<text text-anchor="start" x="564" y="-216.4" font-family="Times Roman,serif" font-size="14.00">s_elements : list</text>
<text text-anchor="start" x="564" y="-198.4" font-family="Times Roman,serif" font-size="14.00">comp : int</text>
<text text-anchor="start" x="564" y="-180.4" font-family="Times Roman,serif" font-size="14.00">region : str</text>
<text text-anchor="start" x="564" y="-162.4" font-family="Times Roman,serif" font-size="14.00">F_i : int</text>
<text text-anchor="start" x="564" y="-144.4" font-family="Times Roman,serif" font-size="14.00">value : int</text>
<text text-anchor="start" x="564" y="-126.4" font-family="Times Roman,serif" font-size="14.00">node_id</text>
<text text-anchor="start" x="564" y="-108.4" font-family="Times Roman,serif" font-size="14.00">boundary : bool</text>
<text text-anchor="start" x="564" y="-90.4" font-family="Times Roman,serif" font-size="14.00">value : float</text>
<polyline fill="none" stroke="black" points="556,-81 770,-81 "/>
<text text-anchor="start" x="564" y="-64.4" font-family="Times Roman,serif" font-size="14.00">check_if_in_boundary()</text>
<text text-anchor="start" x="564" y="-46.4" font-family="Times Roman,serif" font-size="14.00">find_surrounding_elements()</text>
</g>
<!-- 9 -->
<g id="node4" class="node"><title>9</title>
<polygon fill="none" stroke="black" points="788,-82 788,-214 938,-214 938,-82 788,-82"/>
<text text-anchor="middle" x="863" y="-197.4" font-family="Times Roman,serif" font-size="14.00">Region</text>
<polyline fill="none" stroke="black" points="788,-188 938,-188 "/>
<text text-anchor="start" x="796" y="-171.4" font-family="Times Roman,serif" font-size="14.00">tag : str</text>
<text text-anchor="start" x="796" y="-153.4" font-family="Times Roman,serif" font-size="14.00">material_prop : dict</text>
<text text-anchor="start" x="796" y="-135.4" font-family="Times Roman,serif" font-size="14.00">name : str</text>
<text text-anchor="start" x="796" y="-117.4" font-family="Times Roman,serif" font-size="14.00">elements : dict</text>
<polyline fill="none" stroke="black" points="788,-108 938,-108 "/>
<text text-anchor="middle" x="863" y="-91.4" font-family="Times Roman,serif" font-size="14.00"> </text>
</g>
<!-- 10 -->
<g id="node5" class="node"><title>10</title>
<polygon fill="none" stroke="black" points="0,-55 0,-241 146,-241 146,-55 0,-55"/>
<text text-anchor="middle" x="73" y="-224.4" font-family="Times Roman,serif" font-size="14.00">Lines</text>
<polyline fill="none" stroke="black" points="0,-215 146,-215 "/>
<text text-anchor="start" x="8" y="-198.4" font-family="Times Roman,serif" font-size="14.00">el_set</text>
<text text-anchor="start" x="8" y="-180.4" font-family="Times Roman,serif" font-size="14.00">n_elements</text>
<text text-anchor="start" x="8" y="-162.4" font-family="Times Roman,serif" font-size="14.00">vectorial : bool</text>
<text text-anchor="start" x="8" y="-144.4" font-family="Times Roman,serif" font-size="14.00">order : int</text>
<text text-anchor="start" x="8" y="-126.4" font-family="Times Roman,serif" font-size="14.00">h : list</text>
<polyline fill="none" stroke="black" points="0,-117 146,-117 "/>
<text text-anchor="start" x="8" y="-100.4" font-family="Times Roman,serif" font-size="14.00">extract_el_points()</text>
<text text-anchor="start" x="8" y="-82.4" font-family="Times Roman,serif" font-size="14.00">local_newman()</text>
<text text-anchor="start" x="8" y="-64.4" font-family="Times Roman,serif" font-size="14.00">numeric_J()</text>
</g>
<!-- 10&#45;&gt;7 -->
<g id="edge16" class="edge"><title>10&#45;&gt;7</title>
<path fill="none" stroke="black" d="M87.4509,-241.081C93.0123,-270.472 100.189,-302.869 109,-332 125.666,-387.105 150.582,-446.927 171.248,-492.811"/>
<polygon fill="black" stroke="black" points="171.306,-492.939 177.428,-496.749 176.266,-503.866 170.143,-500.056 171.306,-492.939"/>
<text text-anchor="middle" x="125" y="-319.4" font-family="Times Roman,serif" font-size="14.00" fill="green">lines</text>
</g>
<!-- 10&#45;&gt;7 -->
<g id="edge18" class="edge"><title>10&#45;&gt;7</title>
<path fill="none" stroke="black" d="M113.68,-241.117C123.265,-264.669 133.008,-290.073 141,-314 160.64,-372.796 178.19,-440.732 190.397,-491.839"/>
<polygon fill="black" stroke="black" points="190.462,-492.115 195.737,-497.032 193.228,-503.792 187.953,-498.876 190.462,-492.115"/>
<text text-anchor="middle" x="162" y="-319.4" font-family="Times Roman,serif" font-size="14.00" fill="green">lines</text>
</g>
<!-- 12 -->
<g id="node7" class="node"><title>12</title>
<polygon fill="none" stroke="black" points="266,-495 266,-645 430,-645 430,-495 266,-495"/>
<text text-anchor="middle" x="348" y="-628.4" font-family="Times Roman,serif" font-size="14.00">Boundaries</text>
<polyline fill="none" stroke="black" points="266,-619 430,-619 "/>
<text text-anchor="start" x="274" y="-602.4" font-family="Times Roman,serif" font-size="14.00">newman : dict</text>
<text text-anchor="start" x="274" y="-584.4" font-family="Times Roman,serif" font-size="14.00">dirichlet : dict</text>
<text text-anchor="start" x="274" y="-566.4" font-family="Times Roman,serif" font-size="14.00">bloch : dict</text>
<polyline fill="none" stroke="black" points="266,-557 430,-557 "/>
<text text-anchor="start" x="274" y="-540.4" font-family="Times Roman,serif" font-size="14.00">bloch_sum()</text>
<text text-anchor="start" x="274" y="-522.4" font-family="Times Roman,serif" font-size="14.00">add()</text>
<text text-anchor="start" x="274" y="-504.4" font-family="Times Roman,serif" font-size="14.00">bloch_multiplication()</text>
</g>
<!-- 12&#45;&gt;6 -->
<g id="edge8" class="edge"><title>12&#45;&gt;6</title>
<path fill="none" stroke="black" d="M348,-645.27C348,-713.041 348,-813.011 348,-886.608"/>
<polygon fill="black" stroke="black" points="348,-886.645 352,-892.645 348,-898.645 344,-892.645 348,-886.645"/>
<text text-anchor="middle" x="386" y="-813.4" font-family="Times Roman,serif" font-size="14.00" fill="green">boundaries</text>
</g>
<!-- 13 -->
<g id="node8" class="node"><title>13</title>
<polygon fill="none" stroke="black" points="163.5,-37 163.5,-259 342.5,-259 342.5,-37 163.5,-37"/>
<text text-anchor="middle" x="253" y="-242.4" font-family="Times Roman,serif" font-size="14.00">Quadrilaterals</text>
<polyline fill="none" stroke="black" points="163.5,-233 342.5,-233 "/>
<text text-anchor="start" x="171.5" y="-216.4" font-family="Times Roman,serif" font-size="14.00">el_set</text>
<text text-anchor="start" x="171.5" y="-198.4" font-family="Times Roman,serif" font-size="14.00">n_elements</text>
<text text-anchor="start" x="171.5" y="-180.4" font-family="Times Roman,serif" font-size="14.00">vectorial : bool</text>
<text text-anchor="start" x="171.5" y="-162.4" font-family="Times Roman,serif" font-size="14.00">order : int</text>
<text text-anchor="start" x="171.5" y="-144.4" font-family="Times Roman,serif" font-size="14.00">h : list</text>
<polyline fill="none" stroke="black" points="163.5,-135 342.5,-135 "/>
<text text-anchor="start" x="171.5" y="-118.4" font-family="Times Roman,serif" font-size="14.00">build_local_stiffness()</text>
<text text-anchor="start" x="171.5" y="-100.4" font-family="Times Roman,serif" font-size="14.00">local_potential_matrix()</text>
<text text-anchor="start" x="171.5" y="-82.4" font-family="Times Roman,serif" font-size="14.00">local_mass_matrix()</text>
<text text-anchor="start" x="171.5" y="-64.4" font-family="Times Roman,serif" font-size="14.00">numeric_J()</text>
<text text-anchor="start" x="171.5" y="-46.4" font-family="Times Roman,serif" font-size="14.00">extract_el_points()</text>
</g>
<!-- 13&#45;&gt;7 -->
<g id="edge14" class="edge"><title>13&#45;&gt;7</title>
<path fill="none" stroke="black" d="M241.147,-259.151C233.344,-332.334 223.319,-426.343 216.347,-491.726"/>
<polygon fill="black" stroke="black" points="216.311,-492.065 219.652,-498.456 215.038,-503.998 211.697,-497.607 216.311,-492.065"/>
<text text-anchor="middle" x="255.5" y="-319.4" font-family="Times Roman,serif" font-size="14.00" fill="green">quads</text>
</g>
<!-- 14 -->
<g id="node9" class="node"><title>14</title>
<polygon fill="none" stroke="black" points="447.5,-522 447.5,-618 508.5,-618 508.5,-522 447.5,-522"/>
<text text-anchor="middle" x="478" y="-601.4" font-family="Times Roman,serif" font-size="14.00">Nodes</text>
<polyline fill="none" stroke="black" points="447.5,-592 508.5,-592 "/>
<text text-anchor="start" x="455.5" y="-575.4" font-family="Times Roman,serif" font-size="14.00">coords</text>
<text text-anchor="start" x="455.5" y="-557.4" font-family="Times Roman,serif" font-size="14.00">n</text>
<polyline fill="none" stroke="black" points="447.5,-548 508.5,-548 "/>
<text text-anchor="start" x="455.5" y="-531.4" font-family="Times Roman,serif" font-size="14.00">add()</text>
</g>
<!-- 14&#45;&gt;6 -->
<g id="edge10" class="edge"><title>14&#45;&gt;6</title>
<path fill="none" stroke="black" d="M474.096,-618.263C468.59,-670.921 455.901,-756.93 428,-826 419.745,-846.437 409.799,-867.807 399.769,-887.965"/>
<polygon fill="black" stroke="black" points="399.758,-887.986 400.633,-895.144 394.362,-898.704 393.487,-891.546 399.758,-887.986"/>
<text text-anchor="middle" x="454.5" y="-813.4" font-family="Times Roman,serif" font-size="14.00" fill="green">nodes</text>
</g>
<!-- 15 -->
<g id="node10" class="node"><title>15</title>
<polygon fill="none" stroke="black" points="359.5,-37 359.5,-259 538.5,-259 538.5,-37 359.5,-37"/>
<text text-anchor="middle" x="449" y="-242.4" font-family="Times Roman,serif" font-size="14.00">Triangles</text>
<polyline fill="none" stroke="black" points="359.5,-233 538.5,-233 "/>
<text text-anchor="start" x="367.5" y="-216.4" font-family="Times Roman,serif" font-size="14.00">el_set</text>
<text text-anchor="start" x="367.5" y="-198.4" font-family="Times Roman,serif" font-size="14.00">n_elements</text>
<text text-anchor="start" x="367.5" y="-180.4" font-family="Times Roman,serif" font-size="14.00">order : int</text>
<polyline fill="none" stroke="black" points="359.5,-171 538.5,-171 "/>
<text text-anchor="start" x="367.5" y="-154.4" font-family="Times Roman,serif" font-size="14.00">build_local_stiffness()</text>
<text text-anchor="start" x="367.5" y="-136.4" font-family="Times Roman,serif" font-size="14.00">local_potential_matrix()</text>
<text text-anchor="start" x="367.5" y="-118.4" font-family="Times Roman,serif" font-size="14.00">local_mass_matrix()</text>
<text text-anchor="start" x="367.5" y="-100.4" font-family="Times Roman,serif" font-size="14.00">extract_el_edges()</text>
<text text-anchor="start" x="367.5" y="-82.4" font-family="Times Roman,serif" font-size="14.00">calc_area()</text>
<text text-anchor="start" x="367.5" y="-64.4" font-family="Times Roman,serif" font-size="14.00">extract_el_points()</text>
<text text-anchor="start" x="367.5" y="-46.4" font-family="Times Roman,serif" font-size="14.00">local_newman_matrix()</text>
</g>
<!-- 15&#45;&gt;7 -->
<g id="edge20" class="edge"><title>15&#45;&gt;7</title>
<path fill="none" stroke="black" d="M383.748,-259.271C373.666,-272.416 362.685,-285.034 351,-296 333.434,-312.486 271.275,-330.595 257,-350 227.051,-390.711 214.849,-446.342 210.11,-491.476"/>
<polygon fill="black" stroke="black" points="210.094,-491.657 213.523,-498 208.987,-503.606 205.558,-497.262 210.094,-491.657"/>
<text text-anchor="middle" x="350.5" y="-319.4" font-family="Times Roman,serif" font-size="14.00" fill="green">triangles</text>
</g>
<!-- 18 -->
<g id="node11" class="node"><title>18</title>
<polygon fill="none" stroke="black" points="956,-28 956,-268 1198,-268 1198,-28 956,-28"/>
<text text-anchor="middle" x="1077" y="-251.4" font-family="Times Roman,serif" font-size="14.00">Interpreter</text>
<polyline fill="none" stroke="black" points="956,-242 1198,-242 "/>
<text text-anchor="start" x="964" y="-225.4" font-family="Times Roman,serif" font-size="14.00">vectorial : bool</text>
<polyline fill="none" stroke="black" points="956,-216 1198,-216 "/>
<text text-anchor="start" x="964" y="-199.4" font-family="Times Roman,serif" font-size="14.00">build_EM_bloch_eq()</text>
<text text-anchor="start" x="964" y="-181.4" font-family="Times Roman,serif" font-size="14.00">dirichlet_vector()</text>
<text text-anchor="start" x="964" y="-163.4" font-family="Times Roman,serif" font-size="14.00">build_QM_dirichlet_eq()</text>
<text text-anchor="start" x="964" y="-145.4" font-family="Times Roman,serif" font-size="14.00">global_mass_matrix()</text>
<text text-anchor="start" x="964" y="-127.4" font-family="Times Roman,serif" font-size="14.00">build_harmonic_EM_eq()</text>
<text text-anchor="start" x="964" y="-109.4" font-family="Times Roman,serif" font-size="14.00">lumped_mass_matrix()</text>
<text text-anchor="start" x="964" y="-91.4" font-family="Times Roman,serif" font-size="14.00">newman_vector()</text>
<text text-anchor="start" x="964" y="-73.4" font-family="Times Roman,serif" font-size="14.00">global_stiffness_matrix()</text>
<text text-anchor="start" x="964" y="-55.4" font-family="Times Roman,serif" font-size="14.00">reference_image_bloch_vectors()</text>
<text text-anchor="start" x="964" y="-37.4" font-family="Times Roman,serif" font-size="14.00">build_static_EM_eq()</text>
</g>
<!-- 24 -->
<g id="node12" class="node"><title>24</title>
<polygon fill="none" stroke="black" points="1216,-20 1216,-276 1386,-276 1386,-20 1216,-20"/>
<text text-anchor="middle" x="1301" y="-259.4" font-family="Times Roman,serif" font-size="14.00">Solver</text>
<polyline fill="none" stroke="black" points="1216,-250 1386,-250 "/>
<polyline fill="none" stroke="black" points="1216,-226 1386,-226 "/>
<text text-anchor="start" x="1224" y="-209.4" font-family="Times Roman,serif" font-size="14.00">solve_stationary()</text>
<text text-anchor="start" x="1224" y="-191.4" font-family="Times Roman,serif" font-size="14.00">substract_1()</text>
<text text-anchor="start" x="1224" y="-173.4" font-family="Times Roman,serif" font-size="14.00">build_solution_2()</text>
<text text-anchor="start" x="1224" y="-155.4" font-family="Times Roman,serif" font-size="14.00">build_solution()</text>
<text text-anchor="start" x="1224" y="-137.4" font-family="Times Roman,serif" font-size="14.00">solve_spectral()</text>
<text text-anchor="start" x="1224" y="-119.4" font-family="Times Roman,serif" font-size="14.00">meshsq2D()</text>
<text text-anchor="start" x="1224" y="-101.4" font-family="Times Roman,serif" font-size="14.00">solve_bloch()</text>
<text text-anchor="start" x="1224" y="-83.4" font-family="Times Roman,serif" font-size="14.00">solve_bloch_Brillouin()</text>
<text text-anchor="start" x="1224" y="-65.4" font-family="Times Roman,serif" font-size="14.00">mesh_BrillouinZone()</text>
<text text-anchor="start" x="1224" y="-47.4" font-family="Times Roman,serif" font-size="14.00">mesh1D()</text>
<text text-anchor="start" x="1224" y="-29.4" font-family="Times Roman,serif" font-size="14.00">meshtr2D()</text>
</g>
<!-- 26 -->
<g id="node13" class="node"><title>26</title>
<polygon fill="none" stroke="black" points="1403.5,-91 1403.5,-205 1512.5,-205 1512.5,-91 1403.5,-91"/>
<text text-anchor="middle" x="1458" y="-188.4" font-family="Times Roman,serif" font-size="14.00">Physical_Line</text>
<polyline fill="none" stroke="black" points="1403.5,-179 1512.5,-179 "/>
<text text-anchor="start" x="1411.5" y="-162.4" font-family="Times Roman,serif" font-size="14.00">id_tag</text>
<text text-anchor="start" x="1411.5" y="-144.4" font-family="Times Roman,serif" font-size="14.00">lines</text>
<text text-anchor="start" x="1411.5" y="-126.4" font-family="Times Roman,serif" font-size="14.00">tags : str</text>
<polyline fill="none" stroke="black" points="1403.5,-117 1512.5,-117 "/>
<text text-anchor="middle" x="1458" y="-100.4" font-family="Times Roman,serif" font-size="14.00"> </text>
</g>
<!-- 27 -->
<g id="node14" class="node"><title>27</title>
<polygon fill="none" stroke="black" points="1529.5,-73 1529.5,-223 1666.5,-223 1666.5,-73 1529.5,-73"/>
<text text-anchor="middle" x="1598" y="-206.4" font-family="Times Roman,serif" font-size="14.00">Properties_bag</text>
<polyline fill="none" stroke="black" points="1529.5,-197 1666.5,-197 "/>
<text text-anchor="start" x="1537.5" y="-180.4" font-family="Times Roman,serif" font-size="14.00">origin : NoneType</text>
<text text-anchor="start" x="1537.5" y="-162.4" font-family="Times Roman,serif" font-size="14.00">a : NoneType</text>
<text text-anchor="start" x="1537.5" y="-144.4" font-family="Times Roman,serif" font-size="14.00">kind</text>
<text text-anchor="start" x="1537.5" y="-126.4" font-family="Times Roman,serif" font-size="14.00">b : NoneType</text>
<text text-anchor="start" x="1537.5" y="-108.4" font-family="Times Roman,serif" font-size="14.00">r : NoneType</text>
<polyline fill="none" stroke="black" points="1529.5,-99 1666.5,-99 "/>
<text text-anchor="middle" x="1598" y="-82.4" font-family="Times Roman,serif" font-size="14.00"> </text>
</g>
<!-- 28 -->
<g id="node15" class="node"><title>28</title>
<polygon fill="none" stroke="black" points="2085,-55 2085,-241 2169,-241 2169,-55 2085,-55"/>
<text text-anchor="middle" x="2127" y="-224.4" font-family="Times Roman,serif" font-size="14.00">Point</text>
<polyline fill="none" stroke="black" points="2085,-215 2169,-215 "/>
<text text-anchor="start" x="2093" y="-198.4" font-family="Times Roman,serif" font-size="14.00">y : int</text>
<text text-anchor="start" x="2093" y="-180.4" font-family="Times Roman,serif" font-size="14.00">x : int</text>
<text text-anchor="start" x="2093" y="-162.4" font-family="Times Roman,serif" font-size="14.00">id_tag</text>
<polyline fill="none" stroke="black" points="2085,-153 2169,-153 "/>
<text text-anchor="start" x="2093" y="-136.4" font-family="Times Roman,serif" font-size="14.00">distance()</text>
<text text-anchor="start" x="2093" y="-118.4" font-family="Times Roman,serif" font-size="14.00">isBelow()</text>
<text text-anchor="start" x="2093" y="-100.4" font-family="Times Roman,serif" font-size="14.00">isLeft()</text>
<text text-anchor="start" x="2093" y="-82.4" font-family="Times Roman,serif" font-size="14.00">isRight()</text>
<text text-anchor="start" x="2093" y="-64.4" font-family="Times Roman,serif" font-size="14.00">isAbove()</text>
</g>
<!-- 37 -->
<g id="node24" class="node"><title>37</title>
<polygon fill="none" stroke="black" points="1858.5,-351 1858.5,-789 2027.5,-789 2027.5,-351 1858.5,-351"/>
<text text-anchor="middle" x="1943" y="-772.4" font-family="Times Roman,serif" font-size="14.00">Rectangle</text>
<polyline fill="none" stroke="black" points="1858.5,-763 2027.5,-763 "/>
<text text-anchor="start" x="1866.5" y="-746.4" font-family="Times Roman,serif" font-size="14.00">origin</text>
<text text-anchor="start" x="1866.5" y="-728.4" font-family="Times Roman,serif" font-size="14.00">perimeter</text>
<text text-anchor="start" x="1866.5" y="-710.4" font-family="Times Roman,serif" font-size="14.00">kind : str</text>
<text text-anchor="start" x="1866.5" y="-692.4" font-family="Times Roman,serif" font-size="14.00">id_tag</text>
<text text-anchor="start" x="1866.5" y="-674.4" font-family="Times Roman,serif" font-size="14.00">center</text>
<text text-anchor="start" x="1866.5" y="-656.4" font-family="Times Roman,serif" font-size="14.00">last_tag</text>
<text text-anchor="start" x="1866.5" y="-638.4" font-family="Times Roman,serif" font-size="14.00">phys_tag : NoneType</text>
<text text-anchor="start" x="1866.5" y="-620.4" font-family="Times Roman,serif" font-size="14.00">surfaces : list</text>
<text text-anchor="start" x="1866.5" y="-602.4" font-family="Times Roman,serif" font-size="14.00">lines : list</text>
<text text-anchor="start" x="1866.5" y="-584.4" font-family="Times Roman,serif" font-size="14.00">perimeters : list</text>
<text text-anchor="start" x="1866.5" y="-566.4" font-family="Times Roman,serif" font-size="14.00">surface</text>
<text text-anchor="start" x="1866.5" y="-548.4" font-family="Times Roman,serif" font-size="14.00">height</text>
<text text-anchor="start" x="1866.5" y="-530.4" font-family="Times Roman,serif" font-size="14.00">width</text>
<text text-anchor="start" x="1866.5" y="-512.4" font-family="Times Roman,serif" font-size="14.00">physical_surfaces : list</text>
<text text-anchor="start" x="1866.5" y="-494.4" font-family="Times Roman,serif" font-size="14.00">points : list</text>
<text text-anchor="start" x="1866.5" y="-476.4" font-family="Times Roman,serif" font-size="14.00">phys_lines : list</text>
<text text-anchor="start" x="1866.5" y="-458.4" font-family="Times Roman,serif" font-size="14.00">last_point</text>
<text text-anchor="start" x="1866.5" y="-440.4" font-family="Times Roman,serif" font-size="14.00">transfinite : bool</text>
<text text-anchor="start" x="1866.5" y="-422.4" font-family="Times Roman,serif" font-size="14.00">recombine : bool</text>
<text text-anchor="start" x="1866.5" y="-404.4" font-family="Times Roman,serif" font-size="14.00">physical_surface</text>
<polyline fill="none" stroke="black" points="1858.5,-395 2027.5,-395 "/>
<text text-anchor="start" x="1866.5" y="-378.4" font-family="Times Roman,serif" font-size="14.00">contains()</text>
<text text-anchor="start" x="1866.5" y="-360.4" font-family="Times Roman,serif" font-size="14.00">contains_circ()</text>
</g>
<!-- 28&#45;&gt;37 -->
<g id="edge32" class="edge"><title>28&#45;&gt;37</title>
<path fill="none" stroke="black" d="M2096.86,-241.01C2090.37,-259.386 2083.27,-278.418 2076,-296 2062.95,-327.584 2048.01,-360.684 2032.97,-392.522"/>
<polygon fill="black" stroke="black" points="2032.8,-392.887 2033.83,-400.023 2027.65,-403.726 2026.61,-396.591 2032.8,-392.887"/>
<text text-anchor="middle" x="2088.5" y="-319.4" font-family="Times Roman,serif" font-size="14.00" fill="green">center</text>
</g>
<!-- 29 -->
<g id="node16" class="node"><title>29</title>
<polygon fill="none" stroke="black" points="1642,-1204 1642,-1408 1826,-1408 1826,-1204 1642,-1204"/>
<text text-anchor="middle" x="1734" y="-1391.4" font-family="Times Roman,serif" font-size="14.00">Unitary_cell</text>
<polyline fill="none" stroke="black" points="1642,-1382 1826,-1382 "/>
<text text-anchor="start" x="1650" y="-1365.4" font-family="Times Roman,serif" font-size="14.00">surfaces : list</text>
<text text-anchor="start" x="1650" y="-1347.4" font-family="Times Roman,serif" font-size="14.00">last_tag</text>
<text text-anchor="start" x="1650" y="-1329.4" font-family="Times Roman,serif" font-size="14.00">perimeters : list</text>
<text text-anchor="start" x="1650" y="-1311.4" font-family="Times Roman,serif" font-size="14.00">id_tag</text>
<text text-anchor="start" x="1650" y="-1293.4" font-family="Times Roman,serif" font-size="14.00">last_point</text>
<text text-anchor="start" x="1650" y="-1275.4" font-family="Times Roman,serif" font-size="14.00">kind : str</text>
<text text-anchor="start" x="1650" y="-1257.4" font-family="Times Roman,serif" font-size="14.00">physical_surfaces : list</text>
<text text-anchor="start" x="1650" y="-1239.4" font-family="Times Roman,serif" font-size="14.00">circle</text>
<polyline fill="none" stroke="black" points="1642,-1230 1826,-1230 "/>
<text text-anchor="start" x="1650" y="-1213.4" font-family="Times Roman,serif" font-size="14.00">add_circular_inclussion()</text>
</g>
<!-- 29&#45;&gt;37 -->
<g id="edge2" class="edge"><title>29&#45;&gt;37</title>
<path fill="none" stroke="black" d="M1704.28,-1203.88C1681.58,-1103.86 1664.65,-951.263 1734,-844 1764.02,-797.573 1808.28,-828.325 1850.85,-792.402"/>
<polygon fill="none" stroke="black" points="1853.33,-794.872 1858.22,-785.471 1848.54,-789.773 1853.33,-794.872"/>
</g>
<!-- 30 -->
<g id="node17" class="node"><title>30</title>
<polygon fill="none" stroke="black" points="1837,-100 1837,-196 1919,-196 1919,-100 1837,-100"/>
<text text-anchor="middle" x="1878" y="-179.4" font-family="Times Roman,serif" font-size="14.00">Line_loop</text>
<polyline fill="none" stroke="black" points="1837,-170 1919,-170 "/>
<text text-anchor="start" x="1845" y="-153.4" font-family="Times Roman,serif" font-size="14.00">id_tag</text>
<text text-anchor="start" x="1845" y="-135.4" font-family="Times Roman,serif" font-size="14.00">lines</text>
<polyline fill="none" stroke="black" points="1837,-126 1919,-126 "/>
<text text-anchor="middle" x="1878" y="-109.4" font-family="Times Roman,serif" font-size="14.00"> </text>
</g>
<!-- 30&#45;&gt;37 -->
<g id="edge30" class="edge"><title>30&#45;&gt;37</title>
<path fill="none" stroke="black" d="M1884.88,-196.065C1890.24,-233.205 1897.94,-285.884 1905,-332 1905.34,-334.23 1905.69,-336.471 1906.03,-338.722"/>
<polygon fill="black" stroke="black" points="1906.07,-338.991 1910.94,-344.311 1907.9,-350.85 1903.03,-345.531 1906.07,-338.991"/>
<text text-anchor="middle" x="1939" y="-319.4" font-family="Times Roman,serif" font-size="14.00" fill="green">perimeter</text>
</g>
<!-- 31 -->
<g id="node18" class="node"><title>31</title>
<polygon fill="none" stroke="black" points="1875.5,-1268 1875.5,-1344 1934.5,-1344 1934.5,-1268 1875.5,-1268"/>
<text text-anchor="middle" x="1905" y="-1327.4" font-family="Times Roman,serif" font-size="14.00">Shape</text>
<polyline fill="none" stroke="black" points="1875.5,-1318 1934.5,-1318 "/>
<polyline fill="none" stroke="black" points="1875.5,-1294 1934.5,-1294 "/>
<text text-anchor="middle" x="1905" y="-1277.4" font-family="Times Roman,serif" font-size="14.00"> </text>
</g>
<!-- 32 -->
<g id="node19" class="node"><title>32</title>
<polygon fill="none" stroke="black" points="1683.5,-91 1683.5,-205 1814.5,-205 1814.5,-91 1683.5,-91"/>
<text text-anchor="middle" x="1749" y="-188.4" font-family="Times Roman,serif" font-size="14.00">Physical_Surface</text>
<polyline fill="none" stroke="black" points="1683.5,-179 1814.5,-179 "/>
<text text-anchor="start" x="1691.5" y="-162.4" font-family="Times Roman,serif" font-size="14.00">plane_surface</text>
<text text-anchor="start" x="1691.5" y="-144.4" font-family="Times Roman,serif" font-size="14.00">id_tag</text>
<text text-anchor="start" x="1691.5" y="-126.4" font-family="Times Roman,serif" font-size="14.00">tags : str</text>
<polyline fill="none" stroke="black" points="1683.5,-117 1814.5,-117 "/>
<text text-anchor="middle" x="1749" y="-100.4" font-family="Times Roman,serif" font-size="14.00"> </text>
</g>
<!-- 36 -->
<g id="node23" class="node"><title>36</title>
<polygon fill="none" stroke="black" points="1743,-845 1743,-1121 1903,-1121 1903,-845 1743,-845"/>
<text text-anchor="middle" x="1823" y="-1104.4" font-family="Times Roman,serif" font-size="14.00">Circle</text>
<polyline fill="none" stroke="black" points="1743,-1095 1903,-1095 "/>
<text text-anchor="start" x="1751" y="-1078.4" font-family="Times Roman,serif" font-size="14.00">surfaces : list</text>
<text text-anchor="start" x="1751" y="-1060.4" font-family="Times Roman,serif" font-size="14.00">phys_tag : NoneType</text>
<text text-anchor="start" x="1751" y="-1042.4" font-family="Times Roman,serif" font-size="14.00">perimeters : list</text>
<text text-anchor="start" x="1751" y="-1024.4" font-family="Times Roman,serif" font-size="14.00">square</text>
<text text-anchor="start" x="1751" y="-1006.4" font-family="Times Roman,serif" font-size="14.00">id_tag</text>
<text text-anchor="start" x="1751" y="-988.4" font-family="Times Roman,serif" font-size="14.00">center</text>
<text text-anchor="start" x="1751" y="-970.4" font-family="Times Roman,serif" font-size="14.00">lines : list</text>
<text text-anchor="start" x="1751" y="-952.4" font-family="Times Roman,serif" font-size="14.00">points : list</text>
<text text-anchor="start" x="1751" y="-934.4" font-family="Times Roman,serif" font-size="14.00">radius</text>
<text text-anchor="start" x="1751" y="-916.4" font-family="Times Roman,serif" font-size="14.00">transfinite : bool</text>
<text text-anchor="start" x="1751" y="-898.4" font-family="Times Roman,serif" font-size="14.00">recombine : bool</text>
<text text-anchor="start" x="1751" y="-880.4" font-family="Times Roman,serif" font-size="14.00">physical_surface</text>
<polyline fill="none" stroke="black" points="1743,-871 1903,-871 "/>
<text text-anchor="start" x="1751" y="-854.4" font-family="Times Roman,serif" font-size="14.00">contains()</text>
</g>
<!-- 32&#45;&gt;36 -->
<g id="edge28" class="edge"><title>32&#45;&gt;36</title>
<path fill="none" stroke="black" d="M1739.6,-205.053C1722.82,-318.137 1693.41,-578.102 1738,-790 1741.02,-804.347 1745.17,-818.928 1750.03,-833.319"/>
<polygon fill="black" stroke="black" points="1750.1,-833.491 1755.86,-837.824 1754.08,-844.812 1748.31,-840.478 1750.1,-833.491"/>
<text text-anchor="middle" x="1794" y="-566.4" font-family="Times Roman,serif" font-size="14.00" fill="green">physical_surface</text>
</g>
<!-- 32&#45;&gt;37 -->
<g id="edge36" class="edge"><title>32&#45;&gt;37</title>
<path fill="none" stroke="black" d="M1746,-205.002C1746.99,-245.233 1755.03,-297.845 1786,-332 1804.42,-352.309 1824.46,-331.842 1845,-350 1846.62,-351.428 1848.21,-352.888 1849.77,-354.377"/>
<polygon fill="black" stroke="black" points="1850.05,-354.664 1857.11,-356.139 1858.46,-363.222 1851.4,-361.747 1850.05,-354.664"/>
<text text-anchor="middle" x="1842" y="-319.4" font-family="Times Roman,serif" font-size="14.00" fill="green">physical_surface</text>
</g>
<!-- 33 -->
<g id="node20" class="node"><title>33</title>
<polygon fill="none" stroke="black" points="2186.5,-1 2186.5,-295 2359.5,-295 2359.5,-1 2186.5,-1"/>
<text text-anchor="middle" x="2273" y="-278.4" font-family="Times Roman,serif" font-size="14.00">Grid</text>
<polyline fill="none" stroke="black" points="2186.5,-269 2359.5,-269 "/>
<text text-anchor="start" x="2194.5" y="-252.4" font-family="Times Roman,serif" font-size="14.00">origin</text>
<text text-anchor="start" x="2194.5" y="-234.4" font-family="Times Roman,serif" font-size="14.00">phys_tags : list</text>
<text text-anchor="start" x="2194.5" y="-216.4" font-family="Times Roman,serif" font-size="14.00">sketch</text>
<text text-anchor="start" x="2194.5" y="-198.4" font-family="Times Roman,serif" font-size="14.00">sk_shape : list</text>
<text text-anchor="start" x="2194.5" y="-180.4" font-family="Times Roman,serif" font-size="14.00">dicts</text>
<text text-anchor="start" x="2194.5" y="-162.4" font-family="Times Roman,serif" font-size="14.00">cells</text>
<text text-anchor="start" x="2194.5" y="-144.4" font-family="Times Roman,serif" font-size="14.00">phys_lines : list</text>
<text text-anchor="start" x="2194.5" y="-126.4" font-family="Times Roman,serif" font-size="14.00">transfinite : bool</text>
<polyline fill="none" stroke="black" points="2186.5,-117 2359.5,-117 "/>
<text text-anchor="start" x="2194.5" y="-100.4" font-family="Times Roman,serif" font-size="14.00">extract_left_lines()</text>
<text text-anchor="start" x="2194.5" y="-82.4" font-family="Times Roman,serif" font-size="14.00">extract_right_lines()</text>
<text text-anchor="start" x="2194.5" y="-64.4" font-family="Times Roman,serif" font-size="14.00">extract_bottom_lines()</text>
<text text-anchor="start" x="2194.5" y="-46.4" font-family="Times Roman,serif" font-size="14.00">check_rectangular()</text>
<text text-anchor="start" x="2194.5" y="-28.4" font-family="Times Roman,serif" font-size="14.00">define_boundary()</text>
<text text-anchor="start" x="2194.5" y="-10.4" font-family="Times Roman,serif" font-size="14.00">extract_top_lines()</text>
</g>
<!-- 34 -->
<g id="node21" class="node"><title>34</title>
<polygon fill="none" stroke="black" points="2377,-73 2377,-223 2537,-223 2537,-73 2377,-73"/>
<text text-anchor="middle" x="2457" y="-206.4" font-family="Times Roman,serif" font-size="14.00">Line</text>
<polyline fill="none" stroke="black" points="2377,-197 2537,-197 "/>
<text text-anchor="start" x="2385" y="-180.4" font-family="Times Roman,serif" font-size="14.00">transfinite : bool</text>
<text text-anchor="start" x="2385" y="-162.4" font-family="Times Roman,serif" font-size="14.00">phys_tag : NoneType</text>
<text text-anchor="start" x="2385" y="-144.4" font-family="Times Roman,serif" font-size="14.00">lenght</text>
<text text-anchor="start" x="2385" y="-126.4" font-family="Times Roman,serif" font-size="14.00">points : list</text>
<text text-anchor="start" x="2385" y="-108.4" font-family="Times Roman,serif" font-size="14.00">id_tag</text>
<polyline fill="none" stroke="black" points="2377,-99 2537,-99 "/>
<text text-anchor="middle" x="2457" y="-82.4" font-family="Times Roman,serif" font-size="14.00"> </text>
</g>
<!-- 35 -->
<g id="node22" class="node"><title>35</title>
<polygon fill="none" stroke="black" points="1937,-91 1937,-205 2067,-205 2067,-91 1937,-91"/>
<text text-anchor="middle" x="2002" y="-188.4" font-family="Times Roman,serif" font-size="14.00">Plane_Surface</text>
<polyline fill="none" stroke="black" points="1937,-179 2067,-179 "/>
<text text-anchor="start" x="1945" y="-162.4" font-family="Times Roman,serif" font-size="14.00">transfinite : bool</text>
<text text-anchor="start" x="1945" y="-144.4" font-family="Times Roman,serif" font-size="14.00">id_tag</text>
<text text-anchor="start" x="1945" y="-126.4" font-family="Times Roman,serif" font-size="14.00">line_loop</text>
<polyline fill="none" stroke="black" points="1937,-117 2067,-117 "/>
<text text-anchor="middle" x="2002" y="-100.4" font-family="Times Roman,serif" font-size="14.00"> </text>
</g>
<!-- 35&#45;&gt;37 -->
<g id="edge34" class="edge"><title>35&#45;&gt;37</title>
<path fill="none" stroke="black" d="M1993.98,-205.352C1989.02,-240.819 1982.3,-288.937 1975.36,-338.576"/>
<polygon fill="black" stroke="black" points="1975.34,-338.654 1978.48,-345.15 1973.68,-350.538 1970.55,-344.042 1975.34,-338.654"/>
<text text-anchor="middle" x="2002" y="-319.4" font-family="Times Roman,serif" font-size="14.00" fill="green">surface</text>
</g>
<!-- 36&#45;&gt;29 -->
<g id="edge24" class="edge"><title>36&#45;&gt;29</title>
<path fill="none" stroke="black" d="M1784.87,-1121.39C1778.4,-1144.86 1771.75,-1169 1765.48,-1191.77"/>
<polygon fill="black" stroke="black" points="1765.42,-1191.97 1767.68,-1198.82 1762.23,-1203.54 1759.97,-1196.69 1765.42,-1191.97"/>
<text text-anchor="middle" x="1796" y="-1145.4" font-family="Times Roman,serif" font-size="14.00" fill="green">circle</text>
</g>
<!-- 36&#45;&gt;31 -->
<g id="edge4" class="edge"><title>36&#45;&gt;31</title>
<path fill="none" stroke="black" d="M1858.13,-1121.39C1870.53,-1170.22 1883.66,-1221.93 1892.85,-1258.16"/>
<polygon fill="none" stroke="black" points="1889.49,-1259.12 1895.34,-1267.95 1896.27,-1257.4 1889.49,-1259.12"/>
</g>
<!-- 37&#45;&gt;31 -->
<g id="edge6" class="edge"><title>37&#45;&gt;31</title>
<path fill="none" stroke="black" d="M1931.68,-789.329C1923.21,-953.283 1912.3,-1164.56 1907.48,-1257.96"/>
<polygon fill="none" stroke="black" points="1903.98,-1257.79 1906.96,-1267.96 1910.98,-1258.15 1903.98,-1257.79"/>
</g>
<!-- 37&#45;&gt;36 -->
<g id="edge26" class="edge"><title>37&#45;&gt;36</title>
<path fill="none" stroke="black" d="M1879.31,-789.197C1875.02,-803.979 1870.75,-818.673 1866.59,-832.976"/>
<polygon fill="black" stroke="black" points="1866.48,-833.368 1868.64,-840.246 1863.13,-844.892 1860.96,-838.014 1866.48,-833.368"/>
<text text-anchor="middle" x="1895.5" y="-813.4" font-family="Times Roman,serif" font-size="14.00" fill="green">square</text>
</g>
<!-- 38 -->
<g id="node25" class="node"><title>38</title>
<polygon fill="none" stroke="black" points="2555,-82 2555,-214 2715,-214 2715,-82 2555,-82"/>
<text text-anchor="middle" x="2635" y="-197.4" font-family="Times Roman,serif" font-size="14.00">Circle_arc</text>
<polyline fill="none" stroke="black" points="2555,-188 2715,-188 "/>
<text text-anchor="start" x="2563" y="-171.4" font-family="Times Roman,serif" font-size="14.00">transfinite : bool</text>
<text text-anchor="start" x="2563" y="-153.4" font-family="Times Roman,serif" font-size="14.00">phys_tag : NoneType</text>
<text text-anchor="start" x="2563" y="-135.4" font-family="Times Roman,serif" font-size="14.00">points</text>
<text text-anchor="start" x="2563" y="-117.4" font-family="Times Roman,serif" font-size="14.00">id_tag</text>
<polyline fill="none" stroke="black" points="2555,-108 2715,-108 "/>
<text text-anchor="middle" x="2635" y="-91.4" font-family="Times Roman,serif" font-size="14.00"> </text>
</g>
</g>
</svg>
