<?xml version="1.0" encoding="utf-8" standalone="no"?>
<!DOCTYPE svg PUBLIC "-//W3C//DTD SVG 1.1//EN"
  "http://www.w3.org/Graphics/SVG/1.1/DTD/svg11.dtd">
<!-- Created with matplotlib (http://matplotlib.sourceforge.net/) -->
<svg height="432pt" version="1.1" viewBox="0 0 576 432" width="576pt" xmlns="http://www.w3.org/2000/svg" xmlns:xlink="http://www.w3.org/1999/xlink">
 <defs>
  <style type="text/css">
*{stroke-linecap:square;stroke-linejoin:round;}
  </style>
 </defs>
 <g id="figure_1">
  <g id="patch_1">
   <path d="
M0 432
L576 432
L576 0
L0 0
z
" style="fill:#ffffff;"/>
  </g>
  <g id="axes_1">
   <g id="patch_2">
    <path d="
M72 388.8
L518.4 388.8
L518.4 43.2
L72 43.2
z
" style="fill:#ffffff;"/>
   </g>
   <g id="line2d_1">
    <path clip-path="url(#p7ff5b81e1d)" d="
M72 388.8
L79.2 387.736
L86.4 386.672
L93.6 385.608
L100.8 384.544
L108 383.481
L115.2 382.418
L122.4 381.355
L129.6 380.293
L136.8 379.232
L144 378.172
L151.2 377.113
L158.4 376.054
L165.6 374.997
L172.8 373.94
L180 372.885
L187.2 371.832
L194.4 370.779
L201.6 369.729
L208.8 368.679
L216 367.632
L223.2 367.632
L230.4 367.606
L237.6 367.528
L244.8 367.398
L252 367.218
L259.2 366.988
L266.4 366.711
L273.6 366.388
L280.8 366.022
L288 365.614
L295.2 365.167
L302.4 364.683
L309.6 364.164
L316.8 363.613
L324 363.032
L331.2 362.424
L338.4 361.79
L345.6 361.132
L352.8 360.452
L360 359.752
L367.2 359.034
L374.4 360.49
L381.6 361.952
L388.8 363.418
L396 364.889
L403.2 366.364
L410.4 367.842
L417.6 369.325
L424.8 370.81
L432 372.299
L439.2 373.79
L446.4 375.284
L453.6 376.78
L460.8 378.279
L468 379.778
L475.2 381.28
L482.4 382.782
L489.6 384.286
L496.8 385.79
L504 387.295
L511.2 388.8" style="fill:none;stroke:#0000ff;"/>
   </g>
   <g id="line2d_2">
    <path clip-path="url(#p7ff5b81e1d)" d="
M72 388.8
L79.2 387.736
L86.4 386.672
L93.6 385.608
L100.8 384.544
L108 383.481
L115.2 382.418
L122.4 381.355
L129.6 380.293
L136.8 379.232
L144 378.172
L151.2 377.113
L158.4 376.054
L165.6 374.997
L172.8 373.94
L180 372.885
L187.2 371.832
L194.4 370.779
L201.6 369.729
L208.8 368.679
L216 367.632
L223.2 367.632
L230.4 367.606
L237.6 367.528
L244.8 367.398
L252 367.218
L259.2 366.988
L266.4 366.711
L273.6 366.388
L280.8 366.022
L288 365.614
L295.2 365.167
L302.4 364.683
L309.6 364.164
L316.8 363.613
L324 363.032
L331.2 362.424
L338.4 361.79
L345.6 361.132
L352.8 360.452
L360 359.752
L367.2 359.034
L374.4 360.49
L381.6 361.952
L388.8 363.418
L396 364.889
L403.2 366.364
L410.4 367.842
L417.6 369.325
L424.8 370.81
L432 372.299
L439.2 373.79
L446.4 375.284
L453.6 376.78
L460.8 378.279
L468 379.778
L475.2 381.28
L482.4 382.782
L489.6 384.286
L496.8 385.79
L504 387.295
L511.2 388.8" style="fill:none;stroke:#008000;"/>
   </g>
   <g id="line2d_3">
    <path clip-path="url(#p7ff5b81e1d)" d="
M72 212.423
L79.2 212.448
L86.4 212.522
L93.6 212.644
L100.8 212.81
L108 213.016
L115.2 213.259
L122.4 213.532
L129.6 213.834
L136.8 214.16
L144 214.506
L151.2 214.871
L158.4 215.252
L165.6 215.647
L172.8 216.054
L180 216.472
L187.2 216.9
L194.4 217.337
L201.6 217.781
L208.8 218.233
L216 218.691
L223.2 218.691
L230.4 218.697
L237.6 218.718
L244.8 218.751
L252 218.799
L259.2 218.86
L266.4 218.934
L273.6 219.023
L280.8 219.125
L288 219.24
L295.2 219.37
L302.4 219.513
L309.6 219.67
L316.8 219.841
L324 220.026
L331.2 220.224
L338.4 220.436
L345.6 220.661
L352.8 220.899
L360 221.15
L367.2 221.414
L374.4 220.871
L381.6 220.324
L388.8 219.773
L396 219.22
L403.2 218.665
L410.4 218.111
L417.6 217.558
L424.8 217.008
L432 216.463
L439.2 215.927
L446.4 215.403
L453.6 214.895
L460.8 214.409
L468 213.952
L475.2 213.533
L482.4 213.163
L489.6 212.854
L496.8 212.619
L504 212.473
L511.2 212.423" style="fill:none;stroke:#ff0000;"/>
   </g>
   <g id="line2d_4">
    <path clip-path="url(#p7ff5b81e1d)" d="
M72 212.423
L79.2 212.448
L86.4 212.522
L93.6 212.644
L100.8 212.81
L108 213.016
L115.2 213.259
L122.4 213.532
L129.6 213.834
L136.8 214.16
L144 214.506
L151.2 214.871
L158.4 215.252
L165.6 215.647
L172.8 216.054
L180 216.472
L187.2 216.9
L194.4 217.337
L201.6 217.781
L208.8 218.233
L216 218.691
L223.2 218.691
L230.4 218.697
L237.6 218.718
L244.8 218.751
L252 218.799
L259.2 218.86
L266.4 218.934
L273.6 219.023
L280.8 219.125
L288 219.24
L295.2 219.37
L302.4 219.513
L309.6 219.67
L316.8 219.841
L324 220.026
L331.2 220.224
L338.4 220.436
L345.6 220.661
L352.8 220.899
L360 221.15
L367.2 221.414
L374.4 220.871
L381.6 220.324
L388.8 219.773
L396 219.22
L403.2 218.665
L410.4 218.111
L417.6 217.558
L424.8 217.008
L432 216.463
L439.2 215.927
L446.4 215.403
L453.6 214.895
L460.8 214.409
L468 213.952
L475.2 213.533
L482.4 213.163
L489.6 212.854
L496.8 212.619
L504 212.473
L511.2 212.423" style="fill:none;stroke:#00bfbf;"/>
   </g>
   <g id="line2d_5">
    <path clip-path="url(#p7ff5b81e1d)" d="
M72 203.165
L79.2 203.165
L86.4 203.163
L93.6 203.16
L100.8 203.157
L108 203.152
L115.2 203.147
L122.4 203.14
L129.6 203.132
L136.8 203.124
L144 203.114
L151.2 203.103
L158.4 203.092
L165.6 203.079
L172.8 203.066
L180 203.051
L187.2 203.036
L194.4 203.019
L201.6 203.002
L208.8 202.984
L216 202.965
L223.2 202.965
L230.4 202.978
L237.6 203.017
L244.8 203.079
L252 203.162
L259.2 203.263
L266.4 203.379
L273.6 203.506
L280.8 203.641
L288 203.781
L295.2 203.925
L302.4 204.069
L309.6 204.213
L316.8 204.355
L324 204.493
L331.2 204.627
L338.4 204.755
L345.6 204.878
L352.8 204.994
L360 205.103
L367.2 205.205
L374.4 205.012
L381.6 204.828
L388.8 204.653
L396 204.486
L403.2 204.329
L410.4 204.182
L417.6 204.043
L424.8 203.915
L432 203.796
L439.2 203.688
L446.4 203.589
L453.6 203.501
L460.8 203.422
L468 203.354
L475.2 203.297
L482.4 203.249
L489.6 203.213
L496.8 203.186
L504 203.17
L511.2 203.165" style="fill:none;stroke:#bf00bf;"/>
   </g>
   <g id="line2d_6">
    <path clip-path="url(#p7ff5b81e1d)" d="
M72 203.165
L79.2 203.165
L86.4 203.163
L93.6 203.16
L100.8 203.157
L108 203.152
L115.2 203.147
L122.4 203.14
L129.6 203.132
L136.8 203.124
L144 203.114
L151.2 203.103
L158.4 203.092
L165.6 203.079
L172.8 203.066
L180 203.051
L187.2 203.036
L194.4 203.019
L201.6 203.002
L208.8 202.984
L216 202.965
L223.2 202.965
L230.4 202.978
L237.6 203.017
L244.8 203.079
L252 203.162
L259.2 203.263
L266.4 203.379
L273.6 203.506
L280.8 203.641
L288 203.781
L295.2 203.925
L302.4 204.069
L309.6 204.213
L316.8 204.355
L324 204.493
L331.2 204.627
L338.4 204.755
L345.6 204.878
L352.8 204.994
L360 205.103
L367.2 205.205
L374.4 205.012
L381.6 204.828
L388.8 204.653
L396 204.486
L403.2 204.329
L410.4 204.182
L417.6 204.043
L424.8 203.915
L432 203.796
L439.2 203.688
L446.4 203.589
L453.6 203.501
L460.8 203.422
L468 203.354
L475.2 203.297
L482.4 203.249
L489.6 203.213
L496.8 203.186
L504 203.17
L511.2 203.165" style="fill:none;stroke:#bfbf00;"/>
   </g>
   <g id="line2d_7">
    <path clip-path="url(#p7ff5b81e1d)" d="
M72 203.165
L79.2 203.141
L86.4 203.07
L93.6 202.953
L100.8 202.795
L108 202.599
L115.2 202.368
L122.4 202.109
L129.6 201.823
L136.8 201.516
L144 201.19
L151.2 200.847
L158.4 200.491
L165.6 200.122
L172.8 199.743
L180 199.355
L187.2 198.959
L194.4 198.556
L201.6 198.147
L208.8 197.732
L216 197.313
L223.2 197.313
L230.4 197.293
L237.6 197.236
L244.8 197.142
L252 197.015
L259.2 196.857
L266.4 196.672
L273.6 196.463
L280.8 196.232
L288 195.984
L295.2 195.719
L302.4 195.44
L309.6 195.149
L316.8 194.847
L324 194.536
L331.2 194.216
L338.4 193.889
L345.6 193.554
L352.8 193.214
L360 192.868
L367.2 192.516
L374.4 193.222
L381.6 193.924
L388.8 194.62
L396 195.311
L403.2 195.994
L410.4 196.669
L417.6 197.334
L424.8 197.987
L432 198.627
L439.2 199.249
L446.4 199.852
L453.6 200.43
L460.8 200.977
L468 201.488
L475.2 201.952
L482.4 202.359
L489.6 202.697
L496.8 202.952
L504 203.111
L511.2 203.165" style="fill:none;stroke:#000000;"/>
   </g>
   <g id="line2d_8">
    <path clip-path="url(#p7ff5b81e1d)" d="
M72 203.165
L79.2 203.141
L86.4 203.07
L93.6 202.953
L100.8 202.795
L108 202.599
L115.2 202.368
L122.4 202.109
L129.6 201.823
L136.8 201.516
L144 201.19
L151.2 200.847
L158.4 200.491
L165.6 200.122
L172.8 199.743
L180 199.355
L187.2 198.959
L194.4 198.556
L201.6 198.147
L208.8 197.732
L216 197.313
L223.2 197.313
L230.4 197.293
L237.6 197.236
L244.8 197.142
L252 197.015
L259.2 196.857
L266.4 196.672
L273.6 196.463
L280.8 196.232
L288 195.984
L295.2 195.719
L302.4 195.44
L309.6 195.149
L316.8 194.847
L324 194.536
L331.2 194.216
L338.4 193.889
L345.6 193.554
L352.8 193.214
L360 192.868
L367.2 192.516
L374.4 193.222
L381.6 193.924
L388.8 194.62
L396 195.311
L403.2 195.994
L410.4 196.669
L417.6 197.334
L424.8 197.987
L432 198.627
L439.2 199.249
L446.4 199.852
L453.6 200.43
L460.8 200.977
L468 201.488
L475.2 201.952
L482.4 202.359
L489.6 202.697
L496.8 202.952
L504 203.111
L511.2 203.165" style="fill:none;stroke:#0000ff;"/>
   </g>
   <g id="line2d_9">
    <path clip-path="url(#p7ff5b81e1d)" d="
M72 120.746
L79.2 120.746
L86.4 120.744
L93.6 120.742
L100.8 120.739
L108 120.735
L115.2 120.73
L122.4 120.725
L129.6 120.718
L136.8 120.712
L144 120.705
L151.2 120.698
L158.4 120.691
L165.6 120.683
L172.8 120.677
L180 120.67
L187.2 120.664
L194.4 120.66
L201.6 120.656
L208.8 120.654
L216 120.654
L223.2 120.654
L230.4 120.653
L237.6 120.649
L244.8 120.644
L252 120.637
L259.2 120.629
L266.4 120.618
L273.6 120.605
L280.8 120.591
L288 120.575
L295.2 120.558
L302.4 120.539
L309.6 120.519
L316.8 120.498
L324 120.476
L331.2 120.454
L338.4 120.431
L345.6 120.408
L352.8 120.385
L360 120.362
L367.2 120.34
L374.4 120.382
L381.6 120.422
L388.8 120.458
L396 120.493
L403.2 120.525
L410.4 120.554
L417.6 120.582
L424.8 120.607
L432 120.629
L439.2 120.65
L446.4 120.669
L453.6 120.685
L460.8 120.7
L468 120.712
L475.2 120.723
L482.4 120.731
L489.6 120.738
L496.8 120.742
L504 120.745
L511.2 120.746" style="fill:none;stroke:#008000;"/>
   </g>
   <g id="line2d_10">
    <path clip-path="url(#p7ff5b81e1d)" d="
M72 120.746
L79.2 120.746
L86.4 120.744
L93.6 120.742
L100.8 120.739
L108 120.735
L115.2 120.73
L122.4 120.725
L129.6 120.718
L136.8 120.712
L144 120.705
L151.2 120.698
L158.4 120.691
L165.6 120.683
L172.8 120.677
L180 120.67
L187.2 120.664
L194.4 120.66
L201.6 120.656
L208.8 120.654
L216 120.654
L223.2 120.654
L230.4 120.653
L237.6 120.649
L244.8 120.644
L252 120.637
L259.2 120.629
L266.4 120.618
L273.6 120.605
L280.8 120.591
L288 120.575
L295.2 120.558
L302.4 120.539
L309.6 120.519
L316.8 120.498
L324 120.476
L331.2 120.454
L338.4 120.431
L345.6 120.408
L352.8 120.385
L360 120.362
L367.2 120.34
L374.4 120.382
L381.6 120.422
L388.8 120.458
L396 120.493
L403.2 120.525
L410.4 120.554
L417.6 120.582
L424.8 120.607
L432 120.629
L439.2 120.65
L446.4 120.669
L453.6 120.685
L460.8 120.7
L468 120.712
L475.2 120.723
L482.4 120.731
L489.6 120.738
L496.8 120.742
L504 120.745
L511.2 120.746" style="fill:none;stroke:#ff0000;"/>
   </g>
   <g id="line2d_11">
    <path clip-path="url(#p7ff5b81e1d)" d="
M72 101.479
L79.2 101.481
L86.4 101.486
L93.6 101.495
L100.8 101.507
L108 101.523
L115.2 101.543
L122.4 101.566
L129.6 101.592
L136.8 101.622
L144 101.655
L151.2 101.691
L158.4 101.731
L165.6 101.774
L172.8 101.82
L180 101.869
L187.2 101.921
L194.4 101.976
L201.6 102.034
L208.8 102.095
L216 102.159
L223.2 102.159
L230.4 102.161
L237.6 102.169
L244.8 102.182
L252 102.201
L259.2 102.225
L266.4 102.254
L273.6 102.288
L280.8 102.328
L288 102.372
L295.2 102.422
L302.4 102.477
L309.6 102.537
L316.8 102.602
L324 102.671
L331.2 102.746
L338.4 102.825
L345.6 102.909
L352.8 102.998
L360 103.091
L367.2 103.189
L374.4 102.997
L381.6 102.82
L388.8 102.657
L396 102.507
L403.2 102.37
L410.4 102.245
L417.6 102.131
L424.8 102.028
L432 101.936
L439.2 101.853
L446.4 101.779
L453.6 101.714
L460.8 101.658
L468 101.609
L475.2 101.569
L482.4 101.536
L489.6 101.511
L496.8 101.493
L504 101.483
L511.2 101.479" style="fill:none;stroke:#00bfbf;"/>
   </g>
   <g id="line2d_12">
    <path clip-path="url(#p7ff5b81e1d)" d="
M72 101.479
L79.2 101.481
L86.4 101.486
L93.6 101.495
L100.8 101.507
L108 101.523
L115.2 101.543
L122.4 101.566
L129.6 101.592
L136.8 101.622
L144 101.655
L151.2 101.691
L158.4 101.731
L165.6 101.774
L172.8 101.82
L180 101.869
L187.2 101.921
L194.4 101.976
L201.6 102.034
L208.8 102.095
L216 102.159
L223.2 102.159
L230.4 102.161
L237.6 102.169
L244.8 102.182
L252 102.201
L259.2 102.225
L266.4 102.254
L273.6 102.288
L280.8 102.328
L288 102.372
L295.2 102.422
L302.4 102.477
L309.6 102.537
L316.8 102.602
L324 102.671
L331.2 102.746
L338.4 102.825
L345.6 102.909
L352.8 102.998
L360 103.091
L367.2 103.189
L374.4 102.997
L381.6 102.82
L388.8 102.657
L396 102.507
L403.2 102.37
L410.4 102.245
L417.6 102.131
L424.8 102.028
L432 101.936
L439.2 101.853
L446.4 101.779
L453.6 101.714
L460.8 101.658
L468 101.609
L475.2 101.569
L482.4 101.536
L489.6 101.511
L496.8 101.493
L504 101.483
L511.2 101.479" style="fill:none;stroke:#bf00bf;"/>
   </g>
   <g id="line2d_13">
    <path clip-path="url(#p7ff5b81e1d)" d="
M72 71.5539
L79.2 71.5668
L86.4 71.6058
L93.6 71.6706
L100.8 71.7615
L108 71.8783
L115.2 72.0211
L122.4 72.1899
L129.6 72.3846
L136.8 72.6051
L144 72.8512
L151.2 73.1227
L158.4 73.4193
L165.6 73.7405
L172.8 74.0858
L180 74.4545
L187.2 74.8459
L194.4 75.2592
L201.6 75.6933
L208.8 76.1473
L216 76.6199
L223.2 76.6199
L230.4 76.6247
L237.6 76.6391
L244.8 76.6633
L252 76.6974
L259.2 76.7417
L266.4 76.7966
L273.6 76.8624
L280.8 76.9395
L288 77.0285
L295.2 77.13
L302.4 77.2446
L309.6 77.373
L316.8 77.5157
L324 77.6735
L331.2 77.8472
L338.4 78.0372
L345.6 78.2443
L352.8 78.4689
L360 78.7115
L367.2 78.9723
L374.4 78.4314
L381.6 77.8906
L388.8 77.3524
L396 76.8195
L403.2 76.2946
L410.4 75.7808
L417.6 75.2809
L424.8 74.7983
L432 74.336
L439.2 73.8977
L446.4 73.4866
L453.6 73.1063
L460.8 72.7604
L468 72.4522
L475.2 72.1849
L482.4 71.9616
L489.6 71.785
L496.8 71.6572
L504 71.5798
L511.2 71.5539" style="fill:none;stroke:#bfbf00;"/>
   </g>
   <g id="line2d_14">
    <path clip-path="url(#p7ff5b81e1d)" d="
M72 71.5539
L79.2 71.5668
L86.4 71.6058
L93.6 71.6706
L100.8 71.7615
L108 71.8783
L115.2 72.0211
L122.4 72.1899
L129.6 72.3846
L136.8 72.6051
L144 72.8512
L151.2 73.1227
L158.4 73.4193
L165.6 73.7405
L172.8 74.0858
L180 74.4545
L187.2 74.8459
L194.4 75.2592
L201.6 75.6933
L208.8 76.1473
L216 76.6199
L223.2 76.6199
L230.4 76.6247
L237.6 76.6391
L244.8 76.6633
L252 76.6974
L259.2 76.7417
L266.4 76.7966
L273.6 76.8624
L280.8 76.9395
L288 77.0285
L295.2 77.13
L302.4 77.2446
L309.6 77.373
L316.8 77.5157
L324 77.6735
L331.2 77.8472
L338.4 78.0372
L345.6 78.2443
L352.8 78.4689
L360 78.7115
L367.2 78.9723
L374.4 78.4314
L381.6 77.8906
L388.8 77.3524
L396 76.8195
L403.2 76.2946
L410.4 75.7808
L417.6 75.2809
L424.8 74.7983
L432 74.336
L439.2 73.8977
L446.4 73.4866
L453.6 73.1063
L460.8 72.7604
L468 72.4522
L475.2 72.1849
L482.4 71.9616
L489.6 71.785
L496.8 71.6572
L504 71.5798
L511.2 71.5539" style="fill:none;stroke:#000000;"/>
   </g>
   <g id="line2d_15">
    <path clip-path="url(#p7ff5b81e1d)" d="
M72 43.2
L79.2 43.294
L86.4 43.5516
L93.6 43.9218
L100.8 44.359
L108 44.8322
L115.2 45.3223
L122.4 45.8172
L129.6 46.3093
L136.8 46.7934
L144 47.2659
L151.2 47.7242
L158.4 48.1665
L165.6 48.5914
L172.8 48.9978
L180 49.385
L187.2 49.7527
L194.4 50.1005
L201.6 50.4286
L208.8 50.737
L216 51.0259
L223.2 51.0259
L230.4 51.0663
L237.6 51.1854
L244.8 51.3777
L252 51.6353
L259.2 51.9488
L266.4 52.3088
L273.6 52.7062
L280.8 53.1326
L288 53.581
L295.2 54.0448
L302.4 54.5186
L309.6 54.9975
L316.8 55.4774
L324 55.9546
L331.2 56.4257
L338.4 56.8878
L345.6 57.3385
L352.8 57.7753
L360 58.1964
L367.2 58.5999
L374.4 57.8078
L381.6 57.0086
L388.8 56.2025
L396 55.3896
L403.2 54.5701
L410.4 53.7443
L417.6 52.9125
L424.8 52.0753
L432 51.2331
L439.2 50.3869
L446.4 49.5378
L453.6 48.6874
L460.8 47.8383
L468 46.9941
L475.2 46.1614
L482.4 45.3512
L489.6 44.5848
L496.8 43.9047
L504 43.3974
L511.2 43.2" style="fill:none;stroke:#0000ff;"/>
   </g>
   <g id="line2d_16">
    <path clip-path="url(#p7ff5b81e1d)" d="
M216 388.8
L216 43.2" style="fill:none;stroke:#0000ff;"/>
   </g>
   <g id="line2d_17">
    <path clip-path="url(#p7ff5b81e1d)" d="
M367.2 388.8
L367.2 43.2" style="fill:none;stroke:#0000ff;"/>
   </g>
   <g id="line2d_18">
    <path clip-path="url(#p7ff5b81e1d)" d="
M518.4 388.8
L518.4 43.2" style="fill:none;stroke:#0000ff;"/>
   </g>
   <g id="matplotlib.axis_1">
    <g id="xtick_1">
     <g id="line2d_19">
      <defs>
       <path d="
M0 0
L0 -4" id="m0012dd4eef" style="stroke:#000000;stroke-linecap:butt;stroke-width:0.5;"/>
      </defs>
      <g>
       <use style="stroke:#000000;stroke-linecap:butt;stroke-width:0.5;" x="72.0" xlink:href="#m0012dd4eef" y="388.8"/>
      </g>
     </g>
     <g id="line2d_20">
      <defs>
       <path d="
M0 0
L0 4" id="m476344969c" style="stroke:#000000;stroke-linecap:butt;stroke-width:0.5;"/>
      </defs>
      <g>
       <use style="stroke:#000000;stroke-linecap:butt;stroke-width:0.5;" x="72.0" xlink:href="#m476344969c" y="43.2"/>
      </g>
     </g>
     <g id="text_1">
      <!-- $\Gamma$ -->
      <defs>
       <path d="
M3.07812 0
L3.07812 3.51562
Q13.375 3.51562 13.375 6.6875
L13.375 61.625
Q13.375 64.7969 3.07812 64.7969
L3.07812 68.3125
L55.4219 68.3125
L58.2031 45.4062
L55.3281 45.4062
Q54.5938 51.7656 53.6406 55.2188
Q52.6875 58.6875 50.7344 60.8125
Q48.7812 62.9375 45.2656 63.8594
Q41.75 64.7969 35.5 64.7969
L27.7812 64.7969
Q25.9844 64.7969 24.9688 64.6406
Q23.9688 64.5 23.3281 63.7969
Q22.7031 63.0938 22.7031 61.625
L22.7031 6.6875
Q22.7031 3.51562 35.5 3.51562
L35.5 0
z
" id="Cmr10-a1"/>
      </defs>
      <g transform="translate(65.7 406.6)scale(0.2 -0.2)">
       <use transform="translate(0.0 0.6875)" xlink:href="#Cmr10-a1"/>
      </g>
     </g>
    </g>
    <g id="xtick_2">
     <g id="line2d_21">
      <g>
       <use style="stroke:#000000;stroke-linecap:butt;stroke-width:0.5;" x="216.0" xlink:href="#m0012dd4eef" y="388.8"/>
      </g>
     </g>
     <g id="line2d_22">
      <g>
       <use style="stroke:#000000;stroke-linecap:butt;stroke-width:0.5;" x="216.0" xlink:href="#m476344969c" y="43.2"/>
      </g>
     </g>
     <g id="text_2">
      <!-- $\chi$ -->
      <defs>
       <path d="
M4.29688 -19.3906
Q3.8125 -19.3906 3.34375 -18.9688
Q2.875 -18.5625 2.875 -18.1094
Q2.875 -17.4375 3.32812 -17.0938
L27.7812 10.1094
Q26.125 16.1562 24.0469 22.7188
Q21.9688 29.2969 19.0625 35.4531
Q16.1562 41.6094 13.9219 41.6094
Q11.9688 41.6094 10.8438 40.5312
Q9.71875 39.4531 8.85938 37.8594
Q8.01562 36.2812 7.71875 36.1875
L6.5 36.1875
Q6.20312 36.1875 5.95312 36.5156
Q5.71875 36.8594 5.71875 37.2031
Q5.71875 38.8125 7.10938 40.4531
Q8.5 42.0938 10.5156 43.1406
Q12.5469 44.1875 14.3125 44.1875
Q18.2656 44.1875 21.4844 42.7656
Q24.7031 41.3594 26.3125 38.1875
Q27.7344 35.1562 29.0469 31.6562
Q30.375 28.1719 31.5625 24.2188
Q32.7656 20.2656 33.7969 16.7031
L56.9844 42.4844
Q57.4688 43.1094 58.2031 43.1094
Q58.7969 43.1094 59.2031 42.75
Q59.625 42.3906 59.625 41.7969
Q59.625 41.1562 59.1875 40.8281
L34.7188 13.625
Q35.8906 9.1875 38.2344 1.78125
Q40.5781 -5.60938 43.4375 -11.7656
Q46.2969 -17.9219 48.5781 -17.9219
Q50.4375 -17.9219 51.6094 -16.8125
Q52.7812 -15.7188 53.6562 -14.1562
Q54.5469 -12.5938 54.7812 -12.5
L56 -12.5
Q56.7812 -12.5 56.7812 -13.4844
Q56.7812 -15.9688 53.8281 -18.2344
Q50.875 -20.5156 48.1875 -20.5156
Q44.2812 -20.5156 41.0625 -19.0938
Q37.8438 -17.6719 36.2812 -14.5
Q32.5625 -6.59375 28.7188 6.98438
L5.51562 -18.7969
Q5.03125 -19.3906 4.29688 -19.3906" id="Cmmi10-c2"/>
      </defs>
      <g transform="translate(209.7 406.0)scale(0.2 -0.2)">
       <use transform="translate(0.0 21.8125)" xlink:href="#Cmmi10-c2"/>
      </g>
     </g>
    </g>
    <g id="xtick_3">
     <g id="line2d_23">
      <g>
       <use style="stroke:#000000;stroke-linecap:butt;stroke-width:0.5;" x="367.2" xlink:href="#m0012dd4eef" y="388.8"/>
      </g>
     </g>
     <g id="line2d_24">
      <g>
       <use style="stroke:#000000;stroke-linecap:butt;stroke-width:0.5;" x="367.2" xlink:href="#m476344969c" y="43.2"/>
      </g>
     </g>
     <g id="text_3">
      <!-- $M$ -->
      <defs>
       <path d="
M5.07812 0
Q4.10938 0 4.10938 1.3125
Q4.15625 1.5625 4.29688 2.14062
Q4.4375 2.73438 4.6875 3.125
Q4.9375 3.51562 5.42188 3.51562
Q14.9375 3.51562 16.5 9.625
L29.5 61.8125
Q29.6875 62.7969 29.6875 63.1875
Q29.6875 64.2656 28.5156 64.4062
Q26.6094 64.7969 21.2969 64.7969
Q20.3125 64.7969 20.3125 66.1094
Q20.3594 66.3594 20.5 66.9688
Q20.6562 67.5781 20.9219 67.9375
Q21.1875 68.3125 21.5781 68.3125
L39.2031 68.3125
Q40.3281 68.3125 40.4844 67.1875
L48.2969 9.90625
L84.7188 67.1875
Q85.4062 68.3125 86.625 68.3125
L103.609 68.3125
Q104.594 68.3125 104.594 67
Q104.547 66.75 104.391 66.1406
Q104.25 65.5312 103.984 65.1562
Q103.719 64.7969 103.328 64.7969
Q97.2188 64.7969 94.8281 64.1094
Q93.5 63.6719 92.9219 61.375
L79.2031 6.5
Q79 5.51562 79 5.07812
Q79 4.6875 79.125 4.42188
Q79.25 4.15625 79.4688 4.07812
Q79.6875 4 80.1719 3.90625
Q82.0781 3.51562 87.4062 3.51562
Q88.375 3.51562 88.375 2.20312
Q88.0312 0.78125 87.8281 0.390625
Q87.6406 0 86.7188 0
L60.5938 0
Q59.625 0 59.625 1.3125
Q59.6719 1.5625 59.8125 2.17188
Q59.9688 2.78125 60.2344 3.14062
Q60.5 3.51562 60.8906 3.51562
Q67 3.51562 69.3906 4.20312
Q70.7031 4.64062 71.2969 6.89062
L85.6875 64.7969
L45.3125 1.125
Q44.7344 0 43.3125 0
Q42.0469 0 41.8906 1.125
L33.4062 64.0156
L19.6719 9.1875
Q19.5781 8.9375 19.5312 8.5625
Q19.4844 8.20312 19.3906 7.71875
Q19.3906 5.125 21.6562 4.3125
Q23.9219 3.51562 27.2031 3.51562
Q28.2188 3.51562 28.2188 2.20312
Q27.875 0.875 27.6562 0.4375
Q27.4375 0 26.5156 0
z
" id="Cmmi10-4d"/>
      </defs>
      <g transform="translate(357.4 406.6)scale(0.2 -0.2)">
       <use transform="translate(0.0 0.6875)" xlink:href="#Cmmi10-4d"/>
      </g>
     </g>
    </g>
    <g id="xtick_4">
     <g id="line2d_25">
      <g>
       <use style="stroke:#000000;stroke-linecap:butt;stroke-width:0.5;" x="518.4" xlink:href="#m0012dd4eef" y="388.8"/>
      </g>
     </g>
     <g id="line2d_26">
      <g>
       <use style="stroke:#000000;stroke-linecap:butt;stroke-width:0.5;" x="518.4" xlink:href="#m476344969c" y="43.2"/>
      </g>
     </g>
     <g id="text_4">
      <!-- $\Gamma$ -->
      <g transform="translate(512.1 406.6)scale(0.2 -0.2)">
       <use transform="translate(0.0 0.6875)" xlink:href="#Cmr10-a1"/>
      </g>
     </g>
    </g>
   </g>
   <g id="matplotlib.axis_2">
    <g id="ytick_1">
     <g id="line2d_27">
      <defs>
       <path d="
M0 0
L4 0" id="me8a85f7bf6" style="stroke:#000000;stroke-linecap:butt;stroke-width:0.5;"/>
      </defs>
      <g>
       <use style="stroke:#000000;stroke-linecap:butt;stroke-width:0.5;" x="72.0" xlink:href="#me8a85f7bf6" y="388.8"/>
      </g>
     </g>
     <g id="line2d_28">
      <defs>
       <path d="
M0 0
L-4 0" id="m1a32005dea" style="stroke:#000000;stroke-linecap:butt;stroke-width:0.5;"/>
      </defs>
      <g>
       <use style="stroke:#000000;stroke-linecap:butt;stroke-width:0.5;" x="518.4" xlink:href="#m1a32005dea" y="388.8"/>
      </g>
     </g>
     <g id="text_5">
      <!-- 0 -->
      <defs>
       <path d="
M31.7812 66.4062
Q24.1719 66.4062 20.3281 58.9062
Q16.5 51.4219 16.5 36.375
Q16.5 21.3906 20.3281 13.8906
Q24.1719 6.39062 31.7812 6.39062
Q39.4531 6.39062 43.2812 13.8906
Q47.125 21.3906 47.125 36.375
Q47.125 51.4219 43.2812 58.9062
Q39.4531 66.4062 31.7812 66.4062
M31.7812 74.2188
Q44.0469 74.2188 50.5156 64.5156
Q56.9844 54.8281 56.9844 36.375
Q56.9844 17.9688 50.5156 8.26562
Q44.0469 -1.42188 31.7812 -1.42188
Q19.5312 -1.42188 13.0625 8.26562
Q6.59375 17.9688 6.59375 36.375
Q6.59375 54.8281 13.0625 64.5156
Q19.5312 74.2188 31.7812 74.2188" id="DejaVuSans-30"/>
      </defs>
      <g transform="translate(61.953125 393.1678125)scale(0.12 -0.12)">
       <use xlink:href="#DejaVuSans-30"/>
      </g>
     </g>
    </g>
    <g id="ytick_2">
     <g id="line2d_29">
      <g>
       <use style="stroke:#000000;stroke-linecap:butt;stroke-width:0.5;" x="72.0" xlink:href="#me8a85f7bf6" y="339.348994904"/>
      </g>
     </g>
     <g id="line2d_30">
      <g>
       <use style="stroke:#000000;stroke-linecap:butt;stroke-width:0.5;" x="518.4" xlink:href="#m1a32005dea" y="339.348994904"/>
      </g>
     </g>
     <g id="text_6">
      <!-- 1 -->
      <defs>
       <path d="
M12.4062 8.29688
L28.5156 8.29688
L28.5156 63.9219
L10.9844 60.4062
L10.9844 69.3906
L28.4219 72.9062
L38.2812 72.9062
L38.2812 8.29688
L54.3906 8.29688
L54.3906 0
L12.4062 0
z
" id="DejaVuSans-31"/>
      </defs>
      <g transform="translate(62.79125 343.723369904)scale(0.12 -0.12)">
       <use xlink:href="#DejaVuSans-31"/>
      </g>
     </g>
    </g>
    <g id="ytick_3">
     <g id="line2d_31">
      <g>
       <use style="stroke:#000000;stroke-linecap:butt;stroke-width:0.5;" x="72.0" xlink:href="#me8a85f7bf6" y="289.897989808"/>
      </g>
     </g>
     <g id="line2d_32">
      <g>
       <use style="stroke:#000000;stroke-linecap:butt;stroke-width:0.5;" x="518.4" xlink:href="#m1a32005dea" y="289.897989808"/>
      </g>
     </g>
     <g id="text_7">
      <!-- 2 -->
      <defs>
       <path d="
M19.1875 8.29688
L53.6094 8.29688
L53.6094 0
L7.32812 0
L7.32812 8.29688
Q12.9375 14.1094 22.625 23.8906
Q32.3281 33.6875 34.8125 36.5312
Q39.5469 41.8438 41.4219 45.5312
Q43.3125 49.2188 43.3125 52.7812
Q43.3125 58.5938 39.2344 62.25
Q35.1562 65.9219 28.6094 65.9219
Q23.9688 65.9219 18.8125 64.3125
Q13.6719 62.7031 7.8125 59.4219
L7.8125 69.3906
Q13.7656 71.7812 18.9375 73
Q24.125 74.2188 28.4219 74.2188
Q39.75 74.2188 46.4844 68.5469
Q53.2188 62.8906 53.2188 53.4219
Q53.2188 48.9219 51.5312 44.8906
Q49.8594 40.875 45.4062 35.4062
Q44.1875 33.9844 37.6406 27.2188
Q31.1094 20.4531 19.1875 8.29688" id="DejaVuSans-32"/>
      </defs>
      <g transform="translate(62.44625 294.351114808)scale(0.12 -0.12)">
       <use xlink:href="#DejaVuSans-32"/>
      </g>
     </g>
    </g>
    <g id="ytick_4">
     <g id="line2d_33">
      <g>
       <use style="stroke:#000000;stroke-linecap:butt;stroke-width:0.5;" x="72.0" xlink:href="#me8a85f7bf6" y="240.446984712"/>
      </g>
     </g>
     <g id="line2d_34">
      <g>
       <use style="stroke:#000000;stroke-linecap:butt;stroke-width:0.5;" x="518.4" xlink:href="#m1a32005dea" y="240.446984712"/>
      </g>
     </g>
     <g id="text_8">
      <!-- 3 -->
      <defs>
       <path d="
M40.5781 39.3125
Q47.6562 37.7969 51.625 33
Q55.6094 28.2188 55.6094 21.1875
Q55.6094 10.4062 48.1875 4.48438
Q40.7656 -1.42188 27.0938 -1.42188
Q22.5156 -1.42188 17.6562 -0.515625
Q12.7969 0.390625 7.625 2.20312
L7.625 11.7188
Q11.7188 9.32812 16.5938 8.10938
Q21.4844 6.89062 26.8125 6.89062
Q36.0781 6.89062 40.9375 10.5469
Q45.7969 14.2031 45.7969 21.1875
Q45.7969 27.6406 41.2812 31.2656
Q36.7656 34.9062 28.7188 34.9062
L20.2188 34.9062
L20.2188 43.0156
L29.1094 43.0156
Q36.375 43.0156 40.2344 45.9219
Q44.0938 48.8281 44.0938 54.2969
Q44.0938 59.9062 40.1094 62.9062
Q36.1406 65.9219 28.7188 65.9219
Q24.6562 65.9219 20.0156 65.0312
Q15.375 64.1562 9.8125 62.3125
L9.8125 71.0938
Q15.4375 72.6562 20.3438 73.4375
Q25.25 74.2188 29.5938 74.2188
Q40.8281 74.2188 47.3594 69.1094
Q53.9062 64.0156 53.9062 55.3281
Q53.9062 49.2656 50.4375 45.0938
Q46.9688 40.9219 40.5781 39.3125" id="DejaVuSans-33"/>
      </defs>
      <g transform="translate(62.241875 244.814797212)scale(0.12 -0.12)">
       <use xlink:href="#DejaVuSans-33"/>
      </g>
     </g>
    </g>
    <g id="ytick_5">
     <g id="line2d_35">
      <g>
       <use style="stroke:#000000;stroke-linecap:butt;stroke-width:0.5;" x="72.0" xlink:href="#me8a85f7bf6" y="190.995979616"/>
      </g>
     </g>
     <g id="line2d_36">
      <g>
       <use style="stroke:#000000;stroke-linecap:butt;stroke-width:0.5;" x="518.4" xlink:href="#m1a32005dea" y="190.995979616"/>
      </g>
     </g>
     <g id="text_9">
      <!-- 4 -->
      <defs>
       <path d="
M37.7969 64.3125
L12.8906 25.3906
L37.7969 25.3906
z

M35.2031 72.9062
L47.6094 72.9062
L47.6094 25.3906
L58.0156 25.3906
L58.0156 17.1875
L47.6094 17.1875
L47.6094 0
L37.7969 0
L37.7969 17.1875
L4.89062 17.1875
L4.89062 26.7031
z
" id="DejaVuSans-34"/>
      </defs>
      <g transform="translate(61.625 195.370354616)scale(0.12 -0.12)">
       <use xlink:href="#DejaVuSans-34"/>
      </g>
     </g>
    </g>
    <g id="ytick_6">
     <g id="line2d_37">
      <g>
       <use style="stroke:#000000;stroke-linecap:butt;stroke-width:0.5;" x="72.0" xlink:href="#me8a85f7bf6" y="141.54497452"/>
      </g>
     </g>
     <g id="line2d_38">
      <g>
       <use style="stroke:#000000;stroke-linecap:butt;stroke-width:0.5;" x="518.4" xlink:href="#m1a32005dea" y="141.54497452"/>
      </g>
     </g>
     <g id="text_10">
      <!-- 5 -->
      <defs>
       <path d="
M10.7969 72.9062
L49.5156 72.9062
L49.5156 64.5938
L19.8281 64.5938
L19.8281 46.7344
Q21.9688 47.4688 24.1094 47.8281
Q26.2656 48.1875 28.4219 48.1875
Q40.625 48.1875 47.75 41.5
Q54.8906 34.8125 54.8906 23.3906
Q54.8906 11.625 47.5625 5.09375
Q40.2344 -1.42188 26.9062 -1.42188
Q22.3125 -1.42188 17.5469 -0.640625
Q12.7969 0.140625 7.71875 1.70312
L7.71875 11.625
Q12.1094 9.23438 16.7969 8.0625
Q21.4844 6.89062 26.7031 6.89062
Q35.1562 6.89062 40.0781 11.3281
Q45.0156 15.7656 45.0156 23.3906
Q45.0156 31 40.0781 35.4375
Q35.1562 39.8906 26.7031 39.8906
Q22.75 39.8906 18.8125 39.0156
Q14.8906 38.1406 10.7969 36.2812
z
" id="DejaVuSans-35"/>
      </defs>
      <g transform="translate(62.339375 145.83403702)scale(0.12 -0.12)">
       <use xlink:href="#DejaVuSans-35"/>
      </g>
     </g>
    </g>
    <g id="ytick_7">
     <g id="line2d_39">
      <g>
       <use style="stroke:#000000;stroke-linecap:butt;stroke-width:0.5;" x="72.0" xlink:href="#me8a85f7bf6" y="92.0939694244"/>
      </g>
     </g>
     <g id="line2d_40">
      <g>
       <use style="stroke:#000000;stroke-linecap:butt;stroke-width:0.5;" x="518.4" xlink:href="#m1a32005dea" y="92.0939694244"/>
      </g>
     </g>
     <g id="text_11">
      <!-- 6 -->
      <defs>
       <path d="
M33.0156 40.375
Q26.375 40.375 22.4844 35.8281
Q18.6094 31.2969 18.6094 23.3906
Q18.6094 15.5312 22.4844 10.9531
Q26.375 6.39062 33.0156 6.39062
Q39.6562 6.39062 43.5312 10.9531
Q47.4062 15.5312 47.4062 23.3906
Q47.4062 31.2969 43.5312 35.8281
Q39.6562 40.375 33.0156 40.375
M52.5938 71.2969
L52.5938 62.3125
Q48.875 64.0625 45.0938 64.9844
Q41.3125 65.9219 37.5938 65.9219
Q27.8281 65.9219 22.6719 59.3281
Q17.5312 52.7344 16.7969 39.4062
Q19.6719 43.6562 24.0156 45.9219
Q28.375 48.1875 33.5938 48.1875
Q44.5781 48.1875 50.9531 41.5156
Q57.3281 34.8594 57.3281 23.3906
Q57.3281 12.1562 50.6875 5.35938
Q44.0469 -1.42188 33.0156 -1.42188
Q20.3594 -1.42188 13.6719 8.26562
Q6.98438 17.9688 6.98438 36.375
Q6.98438 53.6562 15.1875 63.9375
Q23.3906 74.2188 37.2031 74.2188
Q40.9219 74.2188 44.7031 73.4844
Q48.4844 72.75 52.5938 71.2969" id="DejaVuSans-36"/>
      </defs>
      <g transform="translate(61.95875 96.4617819244)scale(0.12 -0.12)">
       <use xlink:href="#DejaVuSans-36"/>
      </g>
     </g>
    </g>
    <g id="text_12">
     <!-- Frequency $ \frac{\omega}{c} $ -->
     <defs>
      <path d="
M54.8906 33.0156
L54.8906 0
L45.9062 0
L45.9062 32.7188
Q45.9062 40.4844 42.875 44.3281
Q39.8438 48.1875 33.7969 48.1875
Q26.5156 48.1875 22.3125 43.5469
Q18.1094 38.9219 18.1094 30.9062
L18.1094 0
L9.07812 0
L9.07812 54.6875
L18.1094 54.6875
L18.1094 46.1875
Q21.3438 51.125 25.7031 53.5625
Q30.0781 56 35.7969 56
Q45.2188 56 50.0469 50.1719
Q54.8906 44.3438 54.8906 33.0156" id="DejaVuSans-6e"/>
      <path d="
M12.1094 -1.125
Q6.45312 -1.125 3.9375 3.01562
Q1.42188 7.17188 1.42188 13.1875
Q1.42188 17.1406 2.125 20.9219
Q2.82812 24.7031 4.26562 28.5781
Q5.71875 32.4688 7.5625 35.8594
Q9.42188 39.2656 11.7188 42.4844
Q12.1562 43.1094 12.8906 43.1094
Q13.5312 43.1094 13.9219 42.7188
Q14.3125 42.3281 14.3125 41.7969
Q14.3125 41.2656 14.0156 40.8281
Q4.89062 28.2656 4.89062 17.6719
Q4.89062 13.0938 7 9.79688
Q9.125 6.5 13.4844 6.5
Q17.2344 6.5 20.4375 8.6875
Q23.6406 10.8906 25.9844 14.3125
Q25.9844 16.0625 26.5938 19.7656
Q27.2031 23.4844 28.4844 26.3906
Q29.7812 29.2969 31.5938 29.2969
Q33.8906 29.2969 33.8906 26.6094
Q33.8906 25.0469 33.2188 22.6719
Q32.5625 20.3125 31.75 18.2656
Q30.9531 16.2188 29.7812 13.625
Q30.9531 6.5 36.9219 6.5
Q40.375 6.5 43.8594 8.5
Q47.3594 10.5 50.0469 13.75
Q52.7344 17 54.2656 20.75
Q55.8125 24.5156 55.8125 27.875
Q55.8125 30.9062 54.8594 32.5938
Q53.9062 34.2812 52.3438 36.125
Q50.7812 37.9844 50.7812 39.1094
Q50.7812 41.0625 52.4375 42.6719
Q54.1094 44.2812 56 44.2812
Q58.4531 44.2812 59.4688 42.0625
Q60.5 39.8438 60.5 37.0156
Q60.5 32.4219 58.6719 25.4375
Q56.8438 18.4531 54.5 13.8125
Q51.2656 7.51562 46.4062 3.1875
Q41.5469 -1.125 35.5 -1.125
Q31.6406 -1.125 29.2656 1.1875
Q26.9062 3.51562 26.2188 7.51562
Q23.4375 3.5625 19.875 1.21875
Q16.3125 -1.125 12.1094 -1.125" id="Cmmi10-21"/>
      <path id="DejaVuSans-20"/>
      <path d="
M11.7188 11.9219
Q11.7188 7.5625 13.9375 4.53125
Q16.1562 1.51562 20.3125 1.51562
Q26.2656 1.51562 31.75 4.25
Q37.25 6.98438 40.7188 11.8125
Q41.0156 12.1094 41.5 12.1094
Q42 12.1094 42.5 11.5469
Q43.0156 10.9844 43.0156 10.5
Q43.0156 10.1094 42.8281 9.90625
Q39.1562 4.78125 32.9531 1.82812
Q26.7656 -1.125 20.125 -1.125
Q15.3281 -1.125 11.6719 1.14062
Q8.01562 3.42188 6 7.21875
Q4 11.0312 4 15.8281
Q4 22.5625 7.76562 29.2031
Q11.5312 35.8438 17.7812 40.0156
Q24.0312 44.1875 30.9062 44.1875
Q35.4062 44.1875 38.9844 42.0156
Q42.5781 39.8438 42.5781 35.5938
Q42.5781 32.8594 40.9844 30.9219
Q39.4062 29 36.7188 29
Q35.1094 29 34 30
Q32.9062 31 32.9062 32.625
Q32.9062 34.9688 34.6094 36.625
Q36.3281 38.2812 38.625 38.2812
L38.8125 38.2812
Q37.6406 39.9844 35.4219 40.7969
Q33.2031 41.6094 30.8125 41.6094
Q24.9531 41.6094 20.5469 36.5938
Q16.1562 31.5938 13.9375 24.625
Q11.7188 17.6719 11.7188 11.9219" id="Cmmi10-63"/>
      <path d="
M9.8125 72.9062
L51.7031 72.9062
L51.7031 64.5938
L19.6719 64.5938
L19.6719 43.1094
L48.5781 43.1094
L48.5781 34.8125
L19.6719 34.8125
L19.6719 0
L9.8125 0
z
" id="DejaVuSans-46"/>
      <path d="
M32.1719 -5.07812
Q28.375 -14.8438 24.75 -17.8125
Q21.1406 -20.7969 15.0938 -20.7969
L7.90625 -20.7969
L7.90625 -13.2812
L13.1875 -13.2812
Q16.8906 -13.2812 18.9375 -11.5156
Q21 -9.76562 23.4844 -3.21875
L25.0938 0.875
L2.98438 54.6875
L12.5 54.6875
L29.5938 11.9219
L46.6875 54.6875
L56.2031 54.6875
z
" id="DejaVuSans-79"/>
      <path d="
M8.5 21.5781
L8.5 54.6875
L17.4844 54.6875
L17.4844 21.9219
Q17.4844 14.1562 20.5 10.2656
Q23.5312 6.39062 29.5938 6.39062
Q36.8594 6.39062 41.0781 11.0312
Q45.3125 15.6719 45.3125 23.6875
L45.3125 54.6875
L54.2969 54.6875
L54.2969 0
L45.3125 0
L45.3125 8.40625
Q42.0469 3.42188 37.7188 1
Q33.4062 -1.42188 27.6875 -1.42188
Q18.2656 -1.42188 13.375 4.4375
Q8.5 10.2969 8.5 21.5781
M31.1094 56
z
" id="DejaVuSans-75"/>
      <path d="
M56.2031 29.5938
L56.2031 25.2031
L14.8906 25.2031
Q15.4844 15.9219 20.4844 11.0625
Q25.4844 6.20312 34.4219 6.20312
Q39.5938 6.20312 44.4531 7.46875
Q49.3125 8.73438 54.1094 11.2812
L54.1094 2.78125
Q49.2656 0.734375 44.1875 -0.34375
Q39.1094 -1.42188 33.8906 -1.42188
Q20.7969 -1.42188 13.1562 6.1875
Q5.51562 13.8125 5.51562 26.8125
Q5.51562 40.2344 12.7656 48.1094
Q20.0156 56 32.3281 56
Q43.3594 56 49.7812 48.8906
Q56.2031 41.7969 56.2031 29.5938
M47.2188 32.2344
Q47.125 39.5938 43.0938 43.9844
Q39.0625 48.3906 32.4219 48.3906
Q24.9062 48.3906 20.3906 44.1406
Q15.875 39.8906 15.1875 32.1719
z
" id="DejaVuSans-65"/>
      <path d="
M14.7969 27.2969
Q14.7969 17.3906 18.875 11.75
Q22.9531 6.10938 30.0781 6.10938
Q37.2031 6.10938 41.2969 11.75
Q45.4062 17.3906 45.4062 27.2969
Q45.4062 37.2031 41.2969 42.8438
Q37.2031 48.4844 30.0781 48.4844
Q22.9531 48.4844 18.875 42.8438
Q14.7969 37.2031 14.7969 27.2969
M45.4062 8.20312
Q42.5781 3.32812 38.25 0.953125
Q33.9375 -1.42188 27.875 -1.42188
Q17.9688 -1.42188 11.7344 6.48438
Q5.51562 14.4062 5.51562 27.2969
Q5.51562 40.1875 11.7344 48.0938
Q17.9688 56 27.875 56
Q33.9375 56 38.25 53.625
Q42.5781 51.2656 45.4062 46.3906
L45.4062 54.6875
L54.3906 54.6875
L54.3906 -20.7969
L45.4062 -20.7969
z
" id="DejaVuSans-71"/>
      <path d="
M48.7812 52.5938
L48.7812 44.1875
Q44.9688 46.2969 41.1406 47.3438
Q37.3125 48.3906 33.4062 48.3906
Q24.6562 48.3906 19.8125 42.8438
Q14.9844 37.3125 14.9844 27.2969
Q14.9844 17.2812 19.8125 11.7344
Q24.6562 6.20312 33.4062 6.20312
Q37.3125 6.20312 41.1406 7.25
Q44.9688 8.29688 48.7812 10.4062
L48.7812 2.09375
Q45.0156 0.34375 40.9844 -0.53125
Q36.9688 -1.42188 32.4219 -1.42188
Q20.0625 -1.42188 12.7812 6.34375
Q5.51562 14.1094 5.51562 27.2969
Q5.51562 40.6719 12.8594 48.3281
Q20.2188 56 33.0156 56
Q37.1562 56 41.1094 55.1406
Q45.0625 54.2969 48.7812 52.5938" id="DejaVuSans-63"/>
      <path d="
M41.1094 46.2969
Q39.5938 47.1719 37.8125 47.5781
Q36.0312 48 33.8906 48
Q26.2656 48 22.1875 43.0469
Q18.1094 38.0938 18.1094 28.8125
L18.1094 0
L9.07812 0
L9.07812 54.6875
L18.1094 54.6875
L18.1094 46.1875
Q20.9531 51.1719 25.4844 53.5781
Q30.0312 56 36.5312 56
Q37.4531 56 38.5781 55.875
Q39.7031 55.7656 41.0625 55.5156
z
" id="DejaVuSans-72"/>
     </defs>
     <g transform="translate(56.625 277.4)rotate(-90.0)scale(0.2 -0.2)">
      <use transform="translate(0.0 26.09375)" xlink:href="#DejaVuSans-46"/>
      <use transform="translate(57.51953125 26.09375)" xlink:href="#DejaVuSans-72"/>
      <use transform="translate(98.6328125 26.09375)" xlink:href="#DejaVuSans-65"/>
      <use transform="translate(160.15625 26.09375)" xlink:href="#DejaVuSans-71"/>
      <use transform="translate(223.6328125 26.09375)" xlink:href="#DejaVuSans-75"/>
      <use transform="translate(287.01171875 26.09375)" xlink:href="#DejaVuSans-65"/>
      <use transform="translate(348.53515625 26.09375)" xlink:href="#DejaVuSans-6e"/>
      <use transform="translate(411.9140625 26.09375)" xlink:href="#DejaVuSans-63"/>
      <use transform="translate(466.89453125 26.09375)" xlink:href="#DejaVuSans-79"/>
      <use transform="translate(526.07421875 26.09375)" xlink:href="#DejaVuSans-20"/>
      <use transform="translate(557.861328125 64.38125)scale(0.7)" xlink:href="#Cmmi10-21"/>
      <use transform="translate(564.861328125 1.4125)scale(0.7)" xlink:href="#Cmmi10-63"/>
      <path d="
M557.861 38.5937
L557.861 44.8437
L601.406 44.8437
L601.406 38.5937
L557.861 38.5937
z
"/>
     </g>
    </g>
   </g>
   <g id="patch_3">
    <path d="
M72 43.2
L518.4 43.2" style="fill:none;stroke:#000000;"/>
   </g>
   <g id="patch_4">
    <path d="
M518.4 388.8
L518.4 43.2" style="fill:none;stroke:#000000;"/>
   </g>
   <g id="patch_5">
    <path d="
M72 388.8
L518.4 388.8" style="fill:none;stroke:#000000;"/>
   </g>
   <g id="patch_6">
    <path d="
M72 388.8
L72 43.2" style="fill:none;stroke:#000000;"/>
   </g>
   <g id="text_13">
    <!-- Dispersion relations for Square lattice with circular inclusion where r = 0.2a -->
    <defs>
     <path d="
M10.5938 45.4062
L73.1875 45.4062
L73.1875 37.2031
L10.5938 37.2031
z

M10.5938 25.4844
L73.1875 25.4844
L73.1875 17.1875
L10.5938 17.1875
z
" id="DejaVuSans-3d"/>
     <path d="
M10.6875 12.4062
L21 12.4062
L21 0
L10.6875 0
z
" id="DejaVuSans-2e"/>
     <path d="
M30.6094 48.3906
Q23.3906 48.3906 19.1875 42.75
Q14.9844 37.1094 14.9844 27.2969
Q14.9844 17.4844 19.1562 11.8438
Q23.3438 6.20312 30.6094 6.20312
Q37.7969 6.20312 41.9844 11.8594
Q46.1875 17.5312 46.1875 27.2969
Q46.1875 37.0156 41.9844 42.7031
Q37.7969 48.3906 30.6094 48.3906
M30.6094 56
Q42.3281 56 49.0156 48.375
Q55.7188 40.7656 55.7188 27.2969
Q55.7188 13.875 49.0156 6.21875
Q42.3281 -1.42188 30.6094 -1.42188
Q18.8438 -1.42188 12.1719 6.21875
Q5.51562 13.875 5.51562 27.2969
Q5.51562 40.7656 12.1719 48.375
Q18.8438 56 30.6094 56" id="DejaVuSans-6f"/>
     <path d="
M9.42188 75.9844
L18.4062 75.9844
L18.4062 0
L9.42188 0
z
" id="DejaVuSans-6c"/>
     <path d="
M19.6719 64.7969
L19.6719 8.10938
L31.5938 8.10938
Q46.6875 8.10938 53.6875 14.9375
Q60.6875 21.7812 60.6875 36.5312
Q60.6875 51.1719 53.6875 57.9844
Q46.6875 64.7969 31.5938 64.7969
z

M9.8125 72.9062
L30.0781 72.9062
Q51.2656 72.9062 61.1719 64.0938
Q71.0938 55.2812 71.0938 36.5312
Q71.0938 17.6719 61.125 8.82812
Q51.1719 0 30.0781 0
L9.8125 0
z
" id="DejaVuSans-44"/>
     <path d="
M53.5156 70.5156
L53.5156 60.8906
Q47.9062 63.5781 42.9219 64.8906
Q37.9375 66.2188 33.2969 66.2188
Q25.25 66.2188 20.875 63.0938
Q16.5 59.9688 16.5 54.2031
Q16.5 49.3594 19.4062 46.8906
Q22.3125 44.4375 30.4219 42.9219
L36.375 41.7031
Q47.4062 39.5938 52.6562 34.2969
Q57.9062 29 57.9062 20.125
Q57.9062 9.51562 50.7969 4.04688
Q43.7031 -1.42188 29.9844 -1.42188
Q24.8125 -1.42188 18.9688 -0.25
Q13.1406 0.921875 6.89062 3.21875
L6.89062 13.375
Q12.8906 10.0156 18.6562 8.29688
Q24.4219 6.59375 29.9844 6.59375
Q38.4219 6.59375 43.0156 9.90625
Q47.6094 13.2344 47.6094 19.3906
Q47.6094 24.75 44.3125 27.7812
Q41.0156 30.8125 33.5 32.3281
L27.4844 33.5
Q16.4531 35.6875 11.5156 40.375
Q6.59375 45.0625 6.59375 53.4219
Q6.59375 63.0938 13.4062 68.6562
Q20.2188 74.2188 32.1719 74.2188
Q37.3125 74.2188 42.625 73.2812
Q47.9531 72.3594 53.5156 70.5156" id="DejaVuSans-53"/>
     <path d="
M54.8906 33.0156
L54.8906 0
L45.9062 0
L45.9062 32.7188
Q45.9062 40.4844 42.875 44.3281
Q39.8438 48.1875 33.7969 48.1875
Q26.5156 48.1875 22.3125 43.5469
Q18.1094 38.9219 18.1094 30.9062
L18.1094 0
L9.07812 0
L9.07812 75.9844
L18.1094 75.9844
L18.1094 46.1875
Q21.3438 51.125 25.7031 53.5625
Q30.0781 56 35.7969 56
Q45.2188 56 50.0469 50.1719
Q54.8906 44.3438 54.8906 33.0156" id="DejaVuSans-68"/>
     <path d="
M9.42188 54.6875
L18.4062 54.6875
L18.4062 0
L9.42188 0
z

M9.42188 75.9844
L18.4062 75.9844
L18.4062 64.5938
L9.42188 64.5938
z
" id="DejaVuSans-69"/>
     <path d="
M37.1094 75.9844
L37.1094 68.5
L28.5156 68.5
Q23.6875 68.5 21.7969 66.5469
Q19.9219 64.5938 19.9219 59.5156
L19.9219 54.6875
L34.7188 54.6875
L34.7188 47.7031
L19.9219 47.7031
L19.9219 0
L10.8906 0
L10.8906 47.7031
L2.29688 47.7031
L2.29688 54.6875
L10.8906 54.6875
L10.8906 58.5
Q10.8906 67.625 15.1406 71.7969
Q19.3906 75.9844 28.6094 75.9844
z
" id="DejaVuSans-66"/>
     <path d="
M18.3125 70.2188
L18.3125 54.6875
L36.8125 54.6875
L36.8125 47.7031
L18.3125 47.7031
L18.3125 18.0156
Q18.3125 11.3281 20.1406 9.42188
Q21.9688 7.51562 27.5938 7.51562
L36.8125 7.51562
L36.8125 0
L27.5938 0
Q17.1875 0 13.2344 3.875
Q9.28125 7.76562 9.28125 18.0156
L9.28125 47.7031
L2.6875 47.7031
L2.6875 54.6875
L9.28125 54.6875
L9.28125 70.2188
z
" id="DejaVuSans-74"/>
     <path d="
M4.20312 54.6875
L13.1875 54.6875
L24.4219 12.0156
L35.5938 54.6875
L46.1875 54.6875
L57.4219 12.0156
L68.6094 54.6875
L77.5938 54.6875
L63.2812 0
L52.6875 0
L40.9219 44.8281
L29.1094 0
L18.5 0
z
" id="DejaVuSans-77"/>
     <path d="
M18.1094 8.20312
L18.1094 -20.7969
L9.07812 -20.7969
L9.07812 54.6875
L18.1094 54.6875
L18.1094 46.3906
Q20.9531 51.2656 25.2656 53.625
Q29.5938 56 35.5938 56
Q45.5625 56 51.7812 48.0938
Q58.0156 40.1875 58.0156 27.2969
Q58.0156 14.4062 51.7812 6.48438
Q45.5625 -1.42188 35.5938 -1.42188
Q29.5938 -1.42188 25.2656 0.953125
Q20.9531 3.32812 18.1094 8.20312
M48.6875 27.2969
Q48.6875 37.2031 44.6094 42.8438
Q40.5312 48.4844 33.4062 48.4844
Q26.2656 48.4844 22.1875 42.8438
Q18.1094 37.2031 18.1094 27.2969
Q18.1094 17.3906 22.1875 11.75
Q26.2656 6.10938 33.4062 6.10938
Q40.5312 6.10938 44.6094 11.75
Q48.6875 17.3906 48.6875 27.2969" id="DejaVuSans-70"/>
     <path d="
M44.2812 53.0781
L44.2812 44.5781
Q40.4844 46.5312 36.375 47.5
Q32.2812 48.4844 27.875 48.4844
Q21.1875 48.4844 17.8438 46.4375
Q14.5 44.3906 14.5 40.2812
Q14.5 37.1562 16.8906 35.375
Q19.2812 33.5938 26.5156 31.9844
L29.5938 31.2969
Q39.1562 29.25 43.1875 25.5156
Q47.2188 21.7812 47.2188 15.0938
Q47.2188 7.46875 41.1875 3.01562
Q35.1562 -1.42188 24.6094 -1.42188
Q20.2188 -1.42188 15.4531 -0.5625
Q10.6875 0.296875 5.42188 2
L5.42188 11.2812
Q10.4062 8.6875 15.2344 7.39062
Q20.0625 6.10938 24.8125 6.10938
Q31.1562 6.10938 34.5625 8.28125
Q37.9844 10.4531 37.9844 14.4062
Q37.9844 18.0625 35.5156 20.0156
Q33.0625 21.9688 24.7031 23.7812
L21.5781 24.5156
Q13.2344 26.2656 9.51562 29.9062
Q5.8125 33.5469 5.8125 39.8906
Q5.8125 47.6094 11.2812 51.7969
Q16.75 56 26.8125 56
Q31.7812 56 36.1719 55.2656
Q40.5781 54.5469 44.2812 53.0781" id="DejaVuSans-73"/>
     <path d="
M34.2812 27.4844
Q23.3906 27.4844 19.1875 25
Q14.9844 22.5156 14.9844 16.5
Q14.9844 11.7188 18.1406 8.90625
Q21.2969 6.10938 26.7031 6.10938
Q34.1875 6.10938 38.7031 11.4062
Q43.2188 16.7031 43.2188 25.4844
L43.2188 27.4844
z

M52.2031 31.2031
L52.2031 0
L43.2188 0
L43.2188 8.29688
Q40.1406 3.32812 35.5469 0.953125
Q30.9531 -1.42188 24.3125 -1.42188
Q15.9219 -1.42188 10.9531 3.29688
Q6 8.01562 6 15.9219
Q6 25.1406 12.1719 29.8281
Q18.3594 34.5156 30.6094 34.5156
L43.2188 34.5156
L43.2188 35.4062
Q43.2188 41.6094 39.1406 45
Q35.0625 48.3906 27.6875 48.3906
Q23 48.3906 18.5469 47.2656
Q14.1094 46.1406 10.0156 43.8906
L10.0156 52.2031
Q14.9375 54.1094 19.5781 55.0469
Q24.2188 56 28.6094 56
Q40.4844 56 46.3438 49.8438
Q52.2031 43.7031 52.2031 31.2031" id="DejaVuSans-61"/>
    </defs>
    <g transform="translate(23.13675 38.2)scale(0.144 -0.144)">
     <use xlink:href="#DejaVuSans-44"/>
     <use x="77.001953125" xlink:href="#DejaVuSans-69"/>
     <use x="104.78515625" xlink:href="#DejaVuSans-73"/>
     <use x="156.884765625" xlink:href="#DejaVuSans-70"/>
     <use x="220.361328125" xlink:href="#DejaVuSans-65"/>
     <use x="281.884765625" xlink:href="#DejaVuSans-72"/>
     <use x="322.998046875" xlink:href="#DejaVuSans-73"/>
     <use x="375.09765625" xlink:href="#DejaVuSans-69"/>
     <use x="402.880859375" xlink:href="#DejaVuSans-6f"/>
     <use x="464.0625" xlink:href="#DejaVuSans-6e"/>
     <use x="527.44140625" xlink:href="#DejaVuSans-20"/>
     <use x="559.228515625" xlink:href="#DejaVuSans-72"/>
     <use x="598.091796875" xlink:href="#DejaVuSans-65"/>
     <use x="659.615234375" xlink:href="#DejaVuSans-6c"/>
     <use x="687.3984375" xlink:href="#DejaVuSans-61"/>
     <use x="748.677734375" xlink:href="#DejaVuSans-74"/>
     <use x="787.88671875" xlink:href="#DejaVuSans-69"/>
     <use x="815.669921875" xlink:href="#DejaVuSans-6f"/>
     <use x="876.8515625" xlink:href="#DejaVuSans-6e"/>
     <use x="940.23046875" xlink:href="#DejaVuSans-73"/>
     <use x="992.330078125" xlink:href="#DejaVuSans-20"/>
     <use x="1024.1171875" xlink:href="#DejaVuSans-66"/>
     <use x="1059.32226562" xlink:href="#DejaVuSans-6f"/>
     <use x="1120.50390625" xlink:href="#DejaVuSans-72"/>
     <use x="1161.6171875" xlink:href="#DejaVuSans-20"/>
     <use x="1193.40429688" xlink:href="#DejaVuSans-53"/>
     <use x="1256.88085938" xlink:href="#DejaVuSans-71"/>
     <use x="1320.35742188" xlink:href="#DejaVuSans-75"/>
     <use x="1383.73632812" xlink:href="#DejaVuSans-61"/>
     <use x="1445.015625" xlink:href="#DejaVuSans-72"/>
     <use x="1483.87890625" xlink:href="#DejaVuSans-65"/>
     <use x="1545.40234375" xlink:href="#DejaVuSans-20"/>
     <use x="1577.18945312" xlink:href="#DejaVuSans-6c"/>
     <use x="1604.97265625" xlink:href="#DejaVuSans-61"/>
     <use x="1666.25195312" xlink:href="#DejaVuSans-74"/>
     <use x="1705.4609375" xlink:href="#DejaVuSans-74"/>
     <use x="1744.66992188" xlink:href="#DejaVuSans-69"/>
     <use x="1772.453125" xlink:href="#DejaVuSans-63"/>
     <use x="1827.43359375" xlink:href="#DejaVuSans-65"/>
     <use x="1888.95703125" xlink:href="#DejaVuSans-20"/>
     <use x="1920.74414062" xlink:href="#DejaVuSans-77"/>
     <use x="2002.53125" xlink:href="#DejaVuSans-69"/>
     <use x="2030.31445312" xlink:href="#DejaVuSans-74"/>
     <use x="2069.5234375" xlink:href="#DejaVuSans-68"/>
     <use x="2132.90234375" xlink:href="#DejaVuSans-20"/>
     <use x="2164.68945312" xlink:href="#DejaVuSans-63"/>
     <use x="2219.66992188" xlink:href="#DejaVuSans-69"/>
     <use x="2247.453125" xlink:href="#DejaVuSans-72"/>
     <use x="2286.31640625" xlink:href="#DejaVuSans-63"/>
     <use x="2341.296875" xlink:href="#DejaVuSans-75"/>
     <use x="2404.67578125" xlink:href="#DejaVuSans-6c"/>
     <use x="2432.45898438" xlink:href="#DejaVuSans-61"/>
     <use x="2493.73828125" xlink:href="#DejaVuSans-72"/>
     <use x="2534.8515625" xlink:href="#DejaVuSans-20"/>
     <use x="2566.63867188" xlink:href="#DejaVuSans-69"/>
     <use x="2594.421875" xlink:href="#DejaVuSans-6e"/>
     <use x="2657.80078125" xlink:href="#DejaVuSans-63"/>
     <use x="2712.78125" xlink:href="#DejaVuSans-6c"/>
     <use x="2740.56445312" xlink:href="#DejaVuSans-75"/>
     <use x="2803.94335938" xlink:href="#DejaVuSans-73"/>
     <use x="2856.04296875" xlink:href="#DejaVuSans-69"/>
     <use x="2883.82617188" xlink:href="#DejaVuSans-6f"/>
     <use x="2945.0078125" xlink:href="#DejaVuSans-6e"/>
     <use x="3008.38671875" xlink:href="#DejaVuSans-20"/>
     <use x="3040.17382812" xlink:href="#DejaVuSans-77"/>
     <use x="3121.9609375" xlink:href="#DejaVuSans-68"/>
     <use x="3185.33984375" xlink:href="#DejaVuSans-65"/>
     <use x="3246.86328125" xlink:href="#DejaVuSans-72"/>
     <use x="3285.7265625" xlink:href="#DejaVuSans-65"/>
     <use x="3347.25" xlink:href="#DejaVuSans-20"/>
     <use x="3379.03710938" xlink:href="#DejaVuSans-72"/>
     <use x="3420.15039062" xlink:href="#DejaVuSans-20"/>
     <use x="3451.9375" xlink:href="#DejaVuSans-3d"/>
     <use x="3535.7265625" xlink:href="#DejaVuSans-20"/>
     <use x="3567.51367188" xlink:href="#DejaVuSans-30"/>
     <use x="3631.13671875" xlink:href="#DejaVuSans-2e"/>
     <use x="3662.92382812" xlink:href="#DejaVuSans-32"/>
     <use x="3726.546875" xlink:href="#DejaVuSans-61"/>
    </g>
   </g>
  </g>
 </g>
 <defs>
  <clipPath id="p7ff5b81e1d">
   <rect height="345.6" width="446.4" x="72.0" y="43.2"/>
  </clipPath>
 </defs>
</svg>
