<?xml version="1.0" encoding="UTF-8" standalone="no"?>
<!DOCTYPE svg PUBLIC "-//W3C//DTD SVG 1.1//EN"
 "http://www.w3.org/Graphics/SVG/1.1/DTD/svg11.dtd">
<!-- Generated by graphviz version 2.26.3 (20100126.1600)
 -->
<!-- Title: classes_No_Name Pages: 1 -->
<svg width="2729pt" height="1444pt"
 viewBox="0.00 0.00 2729.00 1444.00" xmlns="http://www.w3.org/2000/svg" xmlns:xlink="http://www.w3.org/1999/xlink">
<g id="graph1" class="graph" transform="scale(1 1) rotate(0) translate(4 1440)">
<title>classes_No_Name</title>
<polygon fill="white" stroke="white" points="-4,5 -4,-1440 2726,-1440 2726,5 -4,5"/>
<!-- 5 -->
<g id="node1" class="node"><title>5</title>
<polygon fill="none" stroke="black" points="-0.5,-91 -0.5,-205 108.5,-205 108.5,-91 -0.5,-91"/>
<text text-anchor="middle" x="54" y="-188.4" font-family="Times Roman,serif" font-size="14.00">Physical_Line</text>
<polyline fill="none" stroke="black" points="-0.5,-179 108.5,-179 "/>
<text text-anchor="start" x="7.5" y="-162.4" font-family="Times Roman,serif" font-size="14.00">id_tag</text>
<text text-anchor="start" x="7.5" y="-144.4" font-family="Times Roman,serif" font-size="14.00">lines</text>
<text text-anchor="start" x="7.5" y="-126.4" font-family="Times Roman,serif" font-size="14.00">tags : str</text>
<polyline fill="none" stroke="black" points="-0.5,-117 108.5,-117 "/>
<text text-anchor="middle" x="54" y="-100.4" font-family="Times Roman,serif" font-size="14.00"> </text>
</g>
<!-- 6 -->
<g id="node2" class="node"><title>6</title>
<polygon fill="none" stroke="black" points="125.5,-73 125.5,-223 262.5,-223 262.5,-73 125.5,-73"/>
<text text-anchor="middle" x="194" y="-206.4" font-family="Times Roman,serif" font-size="14.00">Properties_bag</text>
<polyline fill="none" stroke="black" points="125.5,-197 262.5,-197 "/>
<text text-anchor="start" x="133.5" y="-180.4" font-family="Times Roman,serif" font-size="14.00">origin : NoneType</text>
<text text-anchor="start" x="133.5" y="-162.4" font-family="Times Roman,serif" font-size="14.00">a : NoneType</text>
<text text-anchor="start" x="133.5" y="-144.4" font-family="Times Roman,serif" font-size="14.00">kind</text>
<text text-anchor="start" x="133.5" y="-126.4" font-family="Times Roman,serif" font-size="14.00">b : NoneType</text>
<text text-anchor="start" x="133.5" y="-108.4" font-family="Times Roman,serif" font-size="14.00">r : NoneType</text>
<polyline fill="none" stroke="black" points="125.5,-99 262.5,-99 "/>
<text text-anchor="middle" x="194" y="-82.4" font-family="Times Roman,serif" font-size="14.00"> </text>
</g>
<!-- 7 -->
<g id="node3" class="node"><title>7</title>
<polygon fill="none" stroke="black" points="687,-55 687,-241 771,-241 771,-55 687,-55"/>
<text text-anchor="middle" x="729" y="-224.4" font-family="Times Roman,serif" font-size="14.00">Point</text>
<polyline fill="none" stroke="black" points="687,-215 771,-215 "/>
<text text-anchor="start" x="695" y="-198.4" font-family="Times Roman,serif" font-size="14.00">y : int</text>
<text text-anchor="start" x="695" y="-180.4" font-family="Times Roman,serif" font-size="14.00">x : int</text>
<text text-anchor="start" x="695" y="-162.4" font-family="Times Roman,serif" font-size="14.00">id_tag</text>
<polyline fill="none" stroke="black" points="687,-153 771,-153 "/>
<text text-anchor="start" x="695" y="-136.4" font-family="Times Roman,serif" font-size="14.00">distance()</text>
<text text-anchor="start" x="695" y="-118.4" font-family="Times Roman,serif" font-size="14.00">isBelow()</text>
<text text-anchor="start" x="695" y="-100.4" font-family="Times Roman,serif" font-size="14.00">isLeft()</text>
<text text-anchor="start" x="695" y="-82.4" font-family="Times Roman,serif" font-size="14.00">isRight()</text>
<text text-anchor="start" x="695" y="-64.4" font-family="Times Roman,serif" font-size="14.00">isAbove()</text>
</g>
<!-- 16 -->
<g id="node12" class="node"><title>16</title>
<polygon fill="none" stroke="black" points="463.5,-351 463.5,-789 632.5,-789 632.5,-351 463.5,-351"/>
<text text-anchor="middle" x="548" y="-772.4" font-family="Times Roman,serif" font-size="14.00">Rectangle</text>
<polyline fill="none" stroke="black" points="463.5,-763 632.5,-763 "/>
<text text-anchor="start" x="471.5" y="-746.4" font-family="Times Roman,serif" font-size="14.00">origin</text>
<text text-anchor="start" x="471.5" y="-728.4" font-family="Times Roman,serif" font-size="14.00">perimeter</text>
<text text-anchor="start" x="471.5" y="-710.4" font-family="Times Roman,serif" font-size="14.00">kind : str</text>
<text text-anchor="start" x="471.5" y="-692.4" font-family="Times Roman,serif" font-size="14.00">id_tag</text>
<text text-anchor="start" x="471.5" y="-674.4" font-family="Times Roman,serif" font-size="14.00">center</text>
<text text-anchor="start" x="471.5" y="-656.4" font-family="Times Roman,serif" font-size="14.00">last_tag</text>
<text text-anchor="start" x="471.5" y="-638.4" font-family="Times Roman,serif" font-size="14.00">phys_tag : NoneType</text>
<text text-anchor="start" x="471.5" y="-620.4" font-family="Times Roman,serif" font-size="14.00">surfaces : list</text>
<text text-anchor="start" x="471.5" y="-602.4" font-family="Times Roman,serif" font-size="14.00">lines : list</text>
<text text-anchor="start" x="471.5" y="-584.4" font-family="Times Roman,serif" font-size="14.00">perimeters : list</text>
<text text-anchor="start" x="471.5" y="-566.4" font-family="Times Roman,serif" font-size="14.00">surface</text>
<text text-anchor="start" x="471.5" y="-548.4" font-family="Times Roman,serif" font-size="14.00">height</text>
<text text-anchor="start" x="471.5" y="-530.4" font-family="Times Roman,serif" font-size="14.00">width</text>
<text text-anchor="start" x="471.5" y="-512.4" font-family="Times Roman,serif" font-size="14.00">physical_surfaces : list</text>
<text text-anchor="start" x="471.5" y="-494.4" font-family="Times Roman,serif" font-size="14.00">points : list</text>
<text text-anchor="start" x="471.5" y="-476.4" font-family="Times Roman,serif" font-size="14.00">phys_lines : list</text>
<text text-anchor="start" x="471.5" y="-458.4" font-family="Times Roman,serif" font-size="14.00">last_point</text>
<text text-anchor="start" x="471.5" y="-440.4" font-family="Times Roman,serif" font-size="14.00">transfinite : bool</text>
<text text-anchor="start" x="471.5" y="-422.4" font-family="Times Roman,serif" font-size="14.00">recombine : bool</text>
<text text-anchor="start" x="471.5" y="-404.4" font-family="Times Roman,serif" font-size="14.00">physical_surface</text>
<polyline fill="none" stroke="black" points="463.5,-395 632.5,-395 "/>
<text text-anchor="start" x="471.5" y="-378.4" font-family="Times Roman,serif" font-size="14.00">contains()</text>
<text text-anchor="start" x="471.5" y="-360.4" font-family="Times Roman,serif" font-size="14.00">contains_circ()</text>
</g>
<!-- 7&#45;&gt;16 -->
<g id="edge16" class="edge"><title>7&#45;&gt;16</title>
<path fill="none" stroke="black" d="M698.598,-241.353C692.156,-259.611 685.136,-278.512 678,-296 665.731,-326.067 651.829,-357.55 637.791,-388.022"/>
<polygon fill="black" stroke="black" points="637.659,-388.309 638.767,-395.434 632.616,-399.198 631.508,-392.072 637.659,-388.309"/>
<text text-anchor="middle" x="691.5" y="-319.4" font-family="Times Roman,serif" font-size="14.00" fill="green">center</text>
</g>
<!-- 8 -->
<g id="node4" class="node"><title>8</title>
<polygon fill="none" stroke="black" points="258,-1204 258,-1408 442,-1408 442,-1204 258,-1204"/>
<text text-anchor="middle" x="350" y="-1391.4" font-family="Times Roman,serif" font-size="14.00">Unitary_cell</text>
<polyline fill="none" stroke="black" points="258,-1382 442,-1382 "/>
<text text-anchor="start" x="266" y="-1365.4" font-family="Times Roman,serif" font-size="14.00">surfaces : list</text>
<text text-anchor="start" x="266" y="-1347.4" font-family="Times Roman,serif" font-size="14.00">last_tag</text>
<text text-anchor="start" x="266" y="-1329.4" font-family="Times Roman,serif" font-size="14.00">perimeters : list</text>
<text text-anchor="start" x="266" y="-1311.4" font-family="Times Roman,serif" font-size="14.00">id_tag</text>
<text text-anchor="start" x="266" y="-1293.4" font-family="Times Roman,serif" font-size="14.00">last_point</text>
<text text-anchor="start" x="266" y="-1275.4" font-family="Times Roman,serif" font-size="14.00">kind : str</text>
<text text-anchor="start" x="266" y="-1257.4" font-family="Times Roman,serif" font-size="14.00">physical_surfaces : list</text>
<text text-anchor="start" x="266" y="-1239.4" font-family="Times Roman,serif" font-size="14.00">circle</text>
<polyline fill="none" stroke="black" points="258,-1230 442,-1230 "/>
<text text-anchor="start" x="266" y="-1213.4" font-family="Times Roman,serif" font-size="14.00">add_circular_inclussion()</text>
</g>
<!-- 8&#45;&gt;16 -->
<g id="edge2" class="edge"><title>8&#45;&gt;16</title>
<path fill="none" stroke="black" d="M314.79,-1203.68C287.128,-1103.51 263.797,-950.801 334,-844 365.488,-796.096 411.538,-829.337 455.868,-792.357"/>
<polygon fill="none" stroke="black" points="458.304,-794.87 463.252,-785.502 453.542,-789.74 458.304,-794.87"/>
</g>
<!-- 9 -->
<g id="node5" class="node"><title>9</title>
<polygon fill="none" stroke="black" points="439,-100 439,-196 521,-196 521,-100 439,-100"/>
<text text-anchor="middle" x="480" y="-179.4" font-family="Times Roman,serif" font-size="14.00">Line_loop</text>
<polyline fill="none" stroke="black" points="439,-170 521,-170 "/>
<text text-anchor="start" x="447" y="-153.4" font-family="Times Roman,serif" font-size="14.00">id_tag</text>
<text text-anchor="start" x="447" y="-135.4" font-family="Times Roman,serif" font-size="14.00">lines</text>
<polyline fill="none" stroke="black" points="439,-126 521,-126 "/>
<text text-anchor="middle" x="480" y="-109.4" font-family="Times Roman,serif" font-size="14.00"> </text>
</g>
<!-- 9&#45;&gt;16 -->
<g id="edge14" class="edge"><title>9&#45;&gt;16</title>
<path fill="none" stroke="black" d="M487.8,-196.409C493.618,-232.512 502.032,-284.731 510.735,-338.736"/>
<polygon fill="black" stroke="black" points="510.745,-338.8 515.649,-344.087 512.654,-350.647 507.75,-345.36 510.745,-338.8"/>
<text text-anchor="middle" x="542" y="-319.4" font-family="Times Roman,serif" font-size="14.00" fill="green">perimeter</text>
</g>
<!-- 10 -->
<g id="node6" class="node"><title>10</title>
<polygon fill="none" stroke="black" points="477.5,-1268 477.5,-1344 536.5,-1344 536.5,-1268 477.5,-1268"/>
<text text-anchor="middle" x="507" y="-1327.4" font-family="Times Roman,serif" font-size="14.00">Shape</text>
<polyline fill="none" stroke="black" points="477.5,-1318 536.5,-1318 "/>
<polyline fill="none" stroke="black" points="477.5,-1294 536.5,-1294 "/>
<text text-anchor="middle" x="507" y="-1277.4" font-family="Times Roman,serif" font-size="14.00"> </text>
</g>
<!-- 11 -->
<g id="node7" class="node"><title>11</title>
<polygon fill="none" stroke="black" points="279.5,-91 279.5,-205 410.5,-205 410.5,-91 279.5,-91"/>
<text text-anchor="middle" x="345" y="-188.4" font-family="Times Roman,serif" font-size="14.00">Physical_Surface</text>
<polyline fill="none" stroke="black" points="279.5,-179 410.5,-179 "/>
<text text-anchor="start" x="287.5" y="-162.4" font-family="Times Roman,serif" font-size="14.00">plane_surface</text>
<text text-anchor="start" x="287.5" y="-144.4" font-family="Times Roman,serif" font-size="14.00">id_tag</text>
<text text-anchor="start" x="287.5" y="-126.4" font-family="Times Roman,serif" font-size="14.00">tags : str</text>
<polyline fill="none" stroke="black" points="279.5,-117 410.5,-117 "/>
<text text-anchor="middle" x="345" y="-100.4" font-family="Times Roman,serif" font-size="14.00"> </text>
</g>
<!-- 15 -->
<g id="node11" class="node"><title>15</title>
<polygon fill="none" stroke="black" points="343,-845 343,-1121 503,-1121 503,-845 343,-845"/>
<text text-anchor="middle" x="423" y="-1104.4" font-family="Times Roman,serif" font-size="14.00">Circle</text>
<polyline fill="none" stroke="black" points="343,-1095 503,-1095 "/>
<text text-anchor="start" x="351" y="-1078.4" font-family="Times Roman,serif" font-size="14.00">surfaces : list</text>
<text text-anchor="start" x="351" y="-1060.4" font-family="Times Roman,serif" font-size="14.00">phys_tag : NoneType</text>
<text text-anchor="start" x="351" y="-1042.4" font-family="Times Roman,serif" font-size="14.00">perimeters : list</text>
<text text-anchor="start" x="351" y="-1024.4" font-family="Times Roman,serif" font-size="14.00">square</text>
<text text-anchor="start" x="351" y="-1006.4" font-family="Times Roman,serif" font-size="14.00">id_tag</text>
<text text-anchor="start" x="351" y="-988.4" font-family="Times Roman,serif" font-size="14.00">center</text>
<text text-anchor="start" x="351" y="-970.4" font-family="Times Roman,serif" font-size="14.00">lines : list</text>
<text text-anchor="start" x="351" y="-952.4" font-family="Times Roman,serif" font-size="14.00">points : list</text>
<text text-anchor="start" x="351" y="-934.4" font-family="Times Roman,serif" font-size="14.00">radius</text>
<text text-anchor="start" x="351" y="-916.4" font-family="Times Roman,serif" font-size="14.00">transfinite : bool</text>
<text text-anchor="start" x="351" y="-898.4" font-family="Times Roman,serif" font-size="14.00">recombine : bool</text>
<text text-anchor="start" x="351" y="-880.4" font-family="Times Roman,serif" font-size="14.00">physical_surface</text>
<polyline fill="none" stroke="black" points="343,-871 503,-871 "/>
<text text-anchor="start" x="351" y="-854.4" font-family="Times Roman,serif" font-size="14.00">contains()</text>
</g>
<!-- 11&#45;&gt;15 -->
<g id="edge12" class="edge"><title>11&#45;&gt;15</title>
<path fill="none" stroke="black" d="M337.277,-205.413C323.703,-318.591 300.789,-577.93 343,-790 345.849,-804.316 349.78,-818.9 354.381,-833.314"/>
<polygon fill="black" stroke="black" points="354.423,-833.441 360.111,-837.874 358.207,-844.829 352.519,-840.397 354.423,-833.441"/>
<text text-anchor="middle" x="399" y="-566.4" font-family="Times Roman,serif" font-size="14.00" fill="green">physical_surface</text>
</g>
<!-- 11&#45;&gt;16 -->
<g id="edge20" class="edge"><title>11&#45;&gt;16</title>
<path fill="none" stroke="black" d="M345.508,-205.205C348.891,-245.536 359.861,-298.184 392,-332 410.594,-351.564 429.821,-332.075 450,-350 451.612,-351.432 453.199,-352.895 454.76,-354.388"/>
<polygon fill="black" stroke="black" points="455.042,-354.677 462.098,-356.166 463.437,-363.252 456.381,-361.762 455.042,-354.677"/>
<text text-anchor="middle" x="448" y="-319.4" font-family="Times Roman,serif" font-size="14.00" fill="green">physical_surface</text>
</g>
<!-- 12 -->
<g id="node8" class="node"><title>12</title>
<polygon fill="none" stroke="black" points="788.5,-1 788.5,-295 961.5,-295 961.5,-1 788.5,-1"/>
<text text-anchor="middle" x="875" y="-278.4" font-family="Times Roman,serif" font-size="14.00">Grid</text>
<polyline fill="none" stroke="black" points="788.5,-269 961.5,-269 "/>
<text text-anchor="start" x="796.5" y="-252.4" font-family="Times Roman,serif" font-size="14.00">origin</text>
<text text-anchor="start" x="796.5" y="-234.4" font-family="Times Roman,serif" font-size="14.00">phys_tags : list</text>
<text text-anchor="start" x="796.5" y="-216.4" font-family="Times Roman,serif" font-size="14.00">sketch</text>
<text text-anchor="start" x="796.5" y="-198.4" font-family="Times Roman,serif" font-size="14.00">sk_shape : list</text>
<text text-anchor="start" x="796.5" y="-180.4" font-family="Times Roman,serif" font-size="14.00">dicts</text>
<text text-anchor="start" x="796.5" y="-162.4" font-family="Times Roman,serif" font-size="14.00">cells</text>
<text text-anchor="start" x="796.5" y="-144.4" font-family="Times Roman,serif" font-size="14.00">phys_lines : list</text>
<text text-anchor="start" x="796.5" y="-126.4" font-family="Times Roman,serif" font-size="14.00">transfinite : bool</text>
<polyline fill="none" stroke="black" points="788.5,-117 961.5,-117 "/>
<text text-anchor="start" x="796.5" y="-100.4" font-family="Times Roman,serif" font-size="14.00">extract_left_lines()</text>
<text text-anchor="start" x="796.5" y="-82.4" font-family="Times Roman,serif" font-size="14.00">extract_right_lines()</text>
<text text-anchor="start" x="796.5" y="-64.4" font-family="Times Roman,serif" font-size="14.00">extract_bottom_lines()</text>
<text text-anchor="start" x="796.5" y="-46.4" font-family="Times Roman,serif" font-size="14.00">check_rectangular()</text>
<text text-anchor="start" x="796.5" y="-28.4" font-family="Times Roman,serif" font-size="14.00">define_boundary()</text>
<text text-anchor="start" x="796.5" y="-10.4" font-family="Times Roman,serif" font-size="14.00">extract_top_lines()</text>
</g>
<!-- 13 -->
<g id="node9" class="node"><title>13</title>
<polygon fill="none" stroke="black" points="979,-73 979,-223 1139,-223 1139,-73 979,-73"/>
<text text-anchor="middle" x="1059" y="-206.4" font-family="Times Roman,serif" font-size="14.00">Line</text>
<polyline fill="none" stroke="black" points="979,-197 1139,-197 "/>
<text text-anchor="start" x="987" y="-180.4" font-family="Times Roman,serif" font-size="14.00">transfinite : bool</text>
<text text-anchor="start" x="987" y="-162.4" font-family="Times Roman,serif" font-size="14.00">phys_tag : NoneType</text>
<text text-anchor="start" x="987" y="-144.4" font-family="Times Roman,serif" font-size="14.00">lenght</text>
<text text-anchor="start" x="987" y="-126.4" font-family="Times Roman,serif" font-size="14.00">points : list</text>
<text text-anchor="start" x="987" y="-108.4" font-family="Times Roman,serif" font-size="14.00">id_tag</text>
<polyline fill="none" stroke="black" points="979,-99 1139,-99 "/>
<text text-anchor="middle" x="1059" y="-82.4" font-family="Times Roman,serif" font-size="14.00"> </text>
</g>
<!-- 14 -->
<g id="node10" class="node"><title>14</title>
<polygon fill="none" stroke="black" points="539,-91 539,-205 669,-205 669,-91 539,-91"/>
<text text-anchor="middle" x="604" y="-188.4" font-family="Times Roman,serif" font-size="14.00">Plane_Surface</text>
<polyline fill="none" stroke="black" points="539,-179 669,-179 "/>
<text text-anchor="start" x="547" y="-162.4" font-family="Times Roman,serif" font-size="14.00">transfinite : bool</text>
<text text-anchor="start" x="547" y="-144.4" font-family="Times Roman,serif" font-size="14.00">id_tag</text>
<text text-anchor="start" x="547" y="-126.4" font-family="Times Roman,serif" font-size="14.00">line_loop</text>
<polyline fill="none" stroke="black" points="539,-117 669,-117 "/>
<text text-anchor="middle" x="604" y="-100.4" font-family="Times Roman,serif" font-size="14.00"> </text>
</g>
<!-- 14&#45;&gt;16 -->
<g id="edge18" class="edge"><title>14&#45;&gt;16</title>
<path fill="none" stroke="black" d="M596.389,-205.352C591.683,-240.819 585.297,-288.937 578.71,-338.576"/>
<polygon fill="black" stroke="black" points="578.702,-338.643 581.877,-345.117 577.123,-350.538 573.947,-344.064 578.702,-338.643"/>
<text text-anchor="middle" x="607" y="-319.4" font-family="Times Roman,serif" font-size="14.00" fill="green">surface</text>
</g>
<!-- 15&#45;&gt;8 -->
<g id="edge8" class="edge"><title>15&#45;&gt;8</title>
<path fill="none" stroke="black" d="M391.724,-1121.39C386.418,-1144.86 380.962,-1169 375.817,-1191.77"/>
<polygon fill="black" stroke="black" points="375.802,-1191.83 378.381,-1198.57 373.157,-1203.54 370.578,-1196.8 375.802,-1191.83"/>
<text text-anchor="middle" x="405" y="-1145.4" font-family="Times Roman,serif" font-size="14.00" fill="green">circle</text>
</g>
<!-- 15&#45;&gt;10 -->
<g id="edge4" class="edge"><title>15&#45;&gt;10</title>
<path fill="none" stroke="black" d="M458.989,-1121.39C471.688,-1170.22 485.136,-1221.93 494.559,-1258.16"/>
<polygon fill="none" stroke="black" points="491.201,-1259.16 497.105,-1267.95 497.976,-1257.39 491.201,-1259.16"/>
</g>
<!-- 16&#45;&gt;10 -->
<g id="edge6" class="edge"><title>16&#45;&gt;10</title>
<path fill="none" stroke="black" d="M535.782,-789.329C526.649,-953.283 514.879,-1164.56 509.676,-1257.96"/>
<polygon fill="none" stroke="black" points="506.181,-1257.78 509.119,-1267.96 513.17,-1258.17 506.181,-1257.78"/>
</g>
<!-- 16&#45;&gt;15 -->
<g id="edge10" class="edge"><title>16&#45;&gt;15</title>
<path fill="none" stroke="black" d="M481.657,-789.197C477.138,-804.127 472.647,-818.967 468.277,-833.405"/>
<polygon fill="black" stroke="black" points="468.277,-833.406 470.367,-840.308 464.8,-844.892 462.71,-837.99 468.277,-833.406"/>
<text text-anchor="middle" x="498.5" y="-813.4" font-family="Times Roman,serif" font-size="14.00" fill="green">square</text>
</g>
<!-- 17 -->
<g id="node13" class="node"><title>17</title>
<polygon fill="none" stroke="black" points="1157,-82 1157,-214 1317,-214 1317,-82 1157,-82"/>
<text text-anchor="middle" x="1237" y="-197.4" font-family="Times Roman,serif" font-size="14.00">Circle_arc</text>
<polyline fill="none" stroke="black" points="1157,-188 1317,-188 "/>
<text text-anchor="start" x="1165" y="-171.4" font-family="Times Roman,serif" font-size="14.00">transfinite : bool</text>
<text text-anchor="start" x="1165" y="-153.4" font-family="Times Roman,serif" font-size="14.00">phys_tag : NoneType</text>
<text text-anchor="start" x="1165" y="-135.4" font-family="Times Roman,serif" font-size="14.00">points</text>
<text text-anchor="start" x="1165" y="-117.4" font-family="Times Roman,serif" font-size="14.00">id_tag</text>
<polyline fill="none" stroke="black" points="1157,-108 1317,-108 "/>
<text text-anchor="middle" x="1237" y="-91.4" font-family="Times Roman,serif" font-size="14.00"> </text>
</g>
<!-- 19 -->
<g id="node14" class="node"><title>19</title>
<polygon fill="none" stroke="black" points="1335,-20 1335,-276 1505,-276 1505,-20 1335,-20"/>
<text text-anchor="middle" x="1420" y="-259.4" font-family="Times Roman,serif" font-size="14.00">Solver</text>
<polyline fill="none" stroke="black" points="1335,-250 1505,-250 "/>
<polyline fill="none" stroke="black" points="1335,-226 1505,-226 "/>
<text text-anchor="start" x="1343" y="-209.4" font-family="Times Roman,serif" font-size="14.00">solve_stationary()</text>
<text text-anchor="start" x="1343" y="-191.4" font-family="Times Roman,serif" font-size="14.00">substract_1()</text>
<text text-anchor="start" x="1343" y="-173.4" font-family="Times Roman,serif" font-size="14.00">build_solution_2()</text>
<text text-anchor="start" x="1343" y="-155.4" font-family="Times Roman,serif" font-size="14.00">build_solution()</text>
<text text-anchor="start" x="1343" y="-137.4" font-family="Times Roman,serif" font-size="14.00">solve_spectral()</text>
<text text-anchor="start" x="1343" y="-119.4" font-family="Times Roman,serif" font-size="14.00">meshsq2D()</text>
<text text-anchor="start" x="1343" y="-101.4" font-family="Times Roman,serif" font-size="14.00">solve_bloch()</text>
<text text-anchor="start" x="1343" y="-83.4" font-family="Times Roman,serif" font-size="14.00">solve_bloch_Brillouin()</text>
<text text-anchor="start" x="1343" y="-65.4" font-family="Times Roman,serif" font-size="14.00">mesh_BrillouinZone()</text>
<text text-anchor="start" x="1343" y="-47.4" font-family="Times Roman,serif" font-size="14.00">mesh1D()</text>
<text text-anchor="start" x="1343" y="-29.4" font-family="Times Roman,serif" font-size="14.00">meshtr2D()</text>
</g>
<!-- 22 -->
<g id="node15" class="node"><title>22</title>
<polygon fill="none" stroke="black" points="1828.5,-899 1828.5,-1067 1971.5,-1067 1971.5,-899 1828.5,-899"/>
<text text-anchor="middle" x="1900" y="-1050.4" font-family="Times Roman,serif" font-size="14.00">Domain</text>
<polyline fill="none" stroke="black" points="1828.5,-1041 1971.5,-1041 "/>
<text text-anchor="start" x="1836.5" y="-1024.4" font-family="Times Roman,serif" font-size="14.00">regions : dict</text>
<text text-anchor="start" x="1836.5" y="-1006.4" font-family="Times Roman,serif" font-size="14.00">boundaries</text>
<text text-anchor="start" x="1836.5" y="-988.4" font-family="Times Roman,serif" font-size="14.00">nodes : int</text>
<text text-anchor="start" x="1836.5" y="-970.4" font-family="Times Roman,serif" font-size="14.00">elements : int</text>
<polyline fill="none" stroke="black" points="1828.5,-961 1971.5,-961 "/>
<text text-anchor="start" x="1836.5" y="-944.4" font-family="Times Roman,serif" font-size="14.00">read_bc_file()</text>
<text text-anchor="start" x="1836.5" y="-926.4" font-family="Times Roman,serif" font-size="14.00">read_regions_file()</text>
<text text-anchor="start" x="1836.5" y="-908.4" font-family="Times Roman,serif" font-size="14.00">read_mesh_file()</text>
</g>
<!-- 27 -->
<g id="node20" class="node"><title>27</title>
<polygon fill="none" stroke="black" points="1815,-1177 1815,-1435 1985,-1435 1985,-1177 1815,-1177"/>
<text text-anchor="middle" x="1900" y="-1418.4" font-family="Times Roman,serif" font-size="14.00">Simulation</text>
<polyline fill="none" stroke="black" points="1815,-1409 1985,-1409 "/>
<text text-anchor="start" x="1823" y="-1392.4" font-family="Times Roman,serif" font-size="14.00">domain</text>
<text text-anchor="start" x="1823" y="-1374.4" font-family="Times Roman,serif" font-size="14.00">bc_type</text>
<text text-anchor="start" x="1823" y="-1356.4" font-family="Times Roman,serif" font-size="14.00">time_dependency</text>
<text text-anchor="start" x="1823" y="-1338.4" font-family="Times Roman,serif" font-size="14.00">sim_type</text>
<text text-anchor="start" x="1823" y="-1320.4" font-family="Times Roman,serif" font-size="14.00">body_parameter</text>
<text text-anchor="start" x="1823" y="-1302.4" font-family="Times Roman,serif" font-size="14.00">solver_param</text>
<text text-anchor="start" x="1823" y="-1284.4" font-family="Times Roman,serif" font-size="14.00">bc_filename</text>
<text text-anchor="start" x="1823" y="-1266.4" font-family="Times Roman,serif" font-size="14.00">dimension</text>
<text text-anchor="start" x="1823" y="-1248.4" font-family="Times Roman,serif" font-size="14.00">sim_type : str</text>
<text text-anchor="start" x="1823" y="-1230.4" font-family="Times Roman,serif" font-size="14.00">time_dependency : str</text>
<text text-anchor="start" x="1823" y="-1212.4" font-family="Times Roman,serif" font-size="14.00">dimension : int</text>
<polyline fill="none" stroke="black" points="1815,-1203 1985,-1203 "/>
<text text-anchor="start" x="1823" y="-1186.4" font-family="Times Roman,serif" font-size="14.00">read_solver_input()</text>
</g>
<!-- 22&#45;&gt;27 -->
<g id="edge36" class="edge"><title>22&#45;&gt;27</title>
<path fill="none" stroke="black" d="M1900,-1067.02C1900,-1096.9 1900,-1131.42 1900,-1164.77"/>
<polygon fill="black" stroke="black" points="1900,-1165 1904,-1171 1900,-1177 1896,-1171 1900,-1165"/>
<text text-anchor="middle" x="1925.5" y="-1145.4" font-family="Times Roman,serif" font-size="14.00" fill="green">domain</text>
</g>
<!-- 23 -->
<g id="node16" class="node"><title>23</title>
<polygon fill="none" stroke="black" points="1720,-504 1720,-636 1800,-636 1800,-504 1720,-504"/>
<text text-anchor="middle" x="1760" y="-619.4" font-family="Times Roman,serif" font-size="14.00">Elements</text>
<polyline fill="none" stroke="black" points="1720,-610 1800,-610 "/>
<text text-anchor="start" x="1728" y="-593.4" font-family="Times Roman,serif" font-size="14.00">quads</text>
<text text-anchor="start" x="1728" y="-575.4" font-family="Times Roman,serif" font-size="14.00">all : dict</text>
<text text-anchor="start" x="1728" y="-557.4" font-family="Times Roman,serif" font-size="14.00">lines</text>
<text text-anchor="start" x="1728" y="-539.4" font-family="Times Roman,serif" font-size="14.00">triangles</text>
<polyline fill="none" stroke="black" points="1720,-530 1800,-530 "/>
<text text-anchor="start" x="1728" y="-513.4" font-family="Times Roman,serif" font-size="14.00">add()</text>
</g>
<!-- 23&#45;&gt;22 -->
<g id="edge26" class="edge"><title>23&#45;&gt;22</title>
<path fill="none" stroke="black" d="M1770.75,-636.026C1778.92,-680.275 1791.7,-739.467 1809,-790 1820.17,-822.619 1835.24,-857.029 1849.91,-887.618"/>
<polygon fill="black" stroke="black" points="1850.05,-887.907 1856.27,-891.56 1855.29,-898.704 1849.07,-895.051 1850.05,-887.907"/>
<text text-anchor="middle" x="1853" y="-813.4" font-family="Times Roman,serif" font-size="14.00" fill="green">elements</text>
</g>
<!-- 24 -->
<g id="node17" class="node"><title>24</title>
<polygon fill="none" stroke="black" points="2079,-37 2079,-259 2293,-259 2293,-37 2079,-37"/>
<text text-anchor="middle" x="2186" y="-242.4" font-family="Times Roman,serif" font-size="14.00">DOF</text>
<polyline fill="none" stroke="black" points="2079,-233 2293,-233 "/>
<text text-anchor="start" x="2087" y="-216.4" font-family="Times Roman,serif" font-size="14.00">s_elements : list</text>
<text text-anchor="start" x="2087" y="-198.4" font-family="Times Roman,serif" font-size="14.00">comp : int</text>
<text text-anchor="start" x="2087" y="-180.4" font-family="Times Roman,serif" font-size="14.00">region : str</text>
<text text-anchor="start" x="2087" y="-162.4" font-family="Times Roman,serif" font-size="14.00">F_i : int</text>
<text text-anchor="start" x="2087" y="-144.4" font-family="Times Roman,serif" font-size="14.00">value : int</text>
<text text-anchor="start" x="2087" y="-126.4" font-family="Times Roman,serif" font-size="14.00">node_id</text>
<text text-anchor="start" x="2087" y="-108.4" font-family="Times Roman,serif" font-size="14.00">boundary : bool</text>
<text text-anchor="start" x="2087" y="-90.4" font-family="Times Roman,serif" font-size="14.00">value : float</text>
<polyline fill="none" stroke="black" points="2079,-81 2293,-81 "/>
<text text-anchor="start" x="2087" y="-64.4" font-family="Times Roman,serif" font-size="14.00">check_if_in_boundary()</text>
<text text-anchor="start" x="2087" y="-46.4" font-family="Times Roman,serif" font-size="14.00">find_surrounding_elements()</text>
</g>
<!-- 25 -->
<g id="node18" class="node"><title>25</title>
<polygon fill="none" stroke="black" points="2311,-82 2311,-214 2461,-214 2461,-82 2311,-82"/>
<text text-anchor="middle" x="2386" y="-197.4" font-family="Times Roman,serif" font-size="14.00">Region</text>
<polyline fill="none" stroke="black" points="2311,-188 2461,-188 "/>
<text text-anchor="start" x="2319" y="-171.4" font-family="Times Roman,serif" font-size="14.00">tag : str</text>
<text text-anchor="start" x="2319" y="-153.4" font-family="Times Roman,serif" font-size="14.00">material_prop : dict</text>
<text text-anchor="start" x="2319" y="-135.4" font-family="Times Roman,serif" font-size="14.00">name : str</text>
<text text-anchor="start" x="2319" y="-117.4" font-family="Times Roman,serif" font-size="14.00">elements : dict</text>
<polyline fill="none" stroke="black" points="2311,-108 2461,-108 "/>
<text text-anchor="middle" x="2386" y="-91.4" font-family="Times Roman,serif" font-size="14.00"> </text>
</g>
<!-- 26 -->
<g id="node19" class="node"><title>26</title>
<polygon fill="none" stroke="black" points="1523,-55 1523,-241 1669,-241 1669,-55 1523,-55"/>
<text text-anchor="middle" x="1596" y="-224.4" font-family="Times Roman,serif" font-size="14.00">Lines</text>
<polyline fill="none" stroke="black" points="1523,-215 1669,-215 "/>
<text text-anchor="start" x="1531" y="-198.4" font-family="Times Roman,serif" font-size="14.00">el_set</text>
<text text-anchor="start" x="1531" y="-180.4" font-family="Times Roman,serif" font-size="14.00">n_elements</text>
<text text-anchor="start" x="1531" y="-162.4" font-family="Times Roman,serif" font-size="14.00">vectorial : bool</text>
<text text-anchor="start" x="1531" y="-144.4" font-family="Times Roman,serif" font-size="14.00">order : int</text>
<text text-anchor="start" x="1531" y="-126.4" font-family="Times Roman,serif" font-size="14.00">h : list</text>
<polyline fill="none" stroke="black" points="1523,-117 1669,-117 "/>
<text text-anchor="start" x="1531" y="-100.4" font-family="Times Roman,serif" font-size="14.00">extract_el_points()</text>
<text text-anchor="start" x="1531" y="-82.4" font-family="Times Roman,serif" font-size="14.00">local_newman()</text>
<text text-anchor="start" x="1531" y="-64.4" font-family="Times Roman,serif" font-size="14.00">numeric_J()</text>
</g>
<!-- 26&#45;&gt;23 -->
<g id="edge30" class="edge"><title>26&#45;&gt;23</title>
<path fill="none" stroke="black" d="M1616.52,-241.3C1624,-270.702 1633.29,-303.05 1644,-332 1664.52,-387.476 1693.72,-447.317 1717.69,-493.117"/>
<polygon fill="black" stroke="black" points="1717.76,-493.236 1724.09,-496.679 1723.35,-503.852 1717.01,-500.408 1717.76,-493.236"/>
<text text-anchor="middle" x="1660" y="-319.4" font-family="Times Roman,serif" font-size="14.00" fill="green">lines</text>
</g>
<!-- 26&#45;&gt;23 -->
<g id="edge32" class="edge"><title>26&#45;&gt;23</title>
<path fill="none" stroke="black" d="M1643.67,-241.402C1654.89,-264.835 1666.37,-290.113 1676,-314 1699.68,-372.765 1721.82,-441.011 1737.42,-492.255"/>
<polygon fill="black" stroke="black" points="1737.47,-492.421 1743.03,-497.006 1740.94,-503.907 1735.37,-499.322 1737.47,-492.421"/>
<text text-anchor="middle" x="1697" y="-319.4" font-family="Times Roman,serif" font-size="14.00" fill="green">lines</text>
</g>
<!-- 28 -->
<g id="node21" class="node"><title>28</title>
<polygon fill="none" stroke="black" points="1818,-495 1818,-645 1982,-645 1982,-495 1818,-495"/>
<text text-anchor="middle" x="1900" y="-628.4" font-family="Times Roman,serif" font-size="14.00">Boundaries</text>
<polyline fill="none" stroke="black" points="1818,-619 1982,-619 "/>
<text text-anchor="start" x="1826" y="-602.4" font-family="Times Roman,serif" font-size="14.00">newman : dict</text>
<text text-anchor="start" x="1826" y="-584.4" font-family="Times Roman,serif" font-size="14.00">dirichlet : dict</text>
<text text-anchor="start" x="1826" y="-566.4" font-family="Times Roman,serif" font-size="14.00">bloch : dict</text>
<polyline fill="none" stroke="black" points="1818,-557 1982,-557 "/>
<text text-anchor="start" x="1826" y="-540.4" font-family="Times Roman,serif" font-size="14.00">bloch_sum()</text>
<text text-anchor="start" x="1826" y="-522.4" font-family="Times Roman,serif" font-size="14.00">add()</text>
<text text-anchor="start" x="1826" y="-504.4" font-family="Times Roman,serif" font-size="14.00">bloch_multiplication()</text>
</g>
<!-- 28&#45;&gt;22 -->
<g id="edge22" class="edge"><title>28&#45;&gt;22</title>
<path fill="none" stroke="black" d="M1900,-645.27C1900,-713.041 1900,-813.011 1900,-886.608"/>
<polygon fill="black" stroke="black" points="1900,-886.645 1904,-892.645 1900,-898.645 1896,-892.645 1900,-886.645"/>
<text text-anchor="middle" x="1938" y="-813.4" font-family="Times Roman,serif" font-size="14.00" fill="green">boundaries</text>
</g>
<!-- 29 -->
<g id="node22" class="node"><title>29</title>
<polygon fill="none" stroke="black" points="1686.5,-37 1686.5,-259 1865.5,-259 1865.5,-37 1686.5,-37"/>
<text text-anchor="middle" x="1776" y="-242.4" font-family="Times Roman,serif" font-size="14.00">Quadrilaterals</text>
<polyline fill="none" stroke="black" points="1686.5,-233 1865.5,-233 "/>
<text text-anchor="start" x="1694.5" y="-216.4" font-family="Times Roman,serif" font-size="14.00">el_set</text>
<text text-anchor="start" x="1694.5" y="-198.4" font-family="Times Roman,serif" font-size="14.00">n_elements</text>
<text text-anchor="start" x="1694.5" y="-180.4" font-family="Times Roman,serif" font-size="14.00">vectorial : bool</text>
<text text-anchor="start" x="1694.5" y="-162.4" font-family="Times Roman,serif" font-size="14.00">order : int</text>
<text text-anchor="start" x="1694.5" y="-144.4" font-family="Times Roman,serif" font-size="14.00">h : list</text>
<polyline fill="none" stroke="black" points="1686.5,-135 1865.5,-135 "/>
<text text-anchor="start" x="1694.5" y="-118.4" font-family="Times Roman,serif" font-size="14.00">build_local_stiffness()</text>
<text text-anchor="start" x="1694.5" y="-100.4" font-family="Times Roman,serif" font-size="14.00">local_potential_matrix()</text>
<text text-anchor="start" x="1694.5" y="-82.4" font-family="Times Roman,serif" font-size="14.00">local_mass_matrix()</text>
<text text-anchor="start" x="1694.5" y="-64.4" font-family="Times Roman,serif" font-size="14.00">numeric_J()</text>
<text text-anchor="start" x="1694.5" y="-46.4" font-family="Times Roman,serif" font-size="14.00">extract_el_points()</text>
</g>
<!-- 29&#45;&gt;23 -->
<g id="edge28" class="edge"><title>29&#45;&gt;23</title>
<path fill="none" stroke="black" d="M1771.79,-259.151C1769.01,-332.334 1765.45,-426.343 1762.97,-491.726"/>
<polygon fill="black" stroke="black" points="1762.96,-492.006 1766.73,-498.154 1762.5,-503.998 1758.73,-497.85 1762.96,-492.006"/>
<text text-anchor="middle" x="1789.5" y="-319.4" font-family="Times Roman,serif" font-size="14.00" fill="green">quads</text>
</g>
<!-- 30 -->
<g id="node23" class="node"><title>30</title>
<polygon fill="none" stroke="black" points="1999.5,-522 1999.5,-618 2060.5,-618 2060.5,-522 1999.5,-522"/>
<text text-anchor="middle" x="2030" y="-601.4" font-family="Times Roman,serif" font-size="14.00">Nodes</text>
<polyline fill="none" stroke="black" points="1999.5,-592 2060.5,-592 "/>
<text text-anchor="start" x="2007.5" y="-575.4" font-family="Times Roman,serif" font-size="14.00">coords</text>
<text text-anchor="start" x="2007.5" y="-557.4" font-family="Times Roman,serif" font-size="14.00">n</text>
<polyline fill="none" stroke="black" points="1999.5,-548 2060.5,-548 "/>
<text text-anchor="start" x="2007.5" y="-531.4" font-family="Times Roman,serif" font-size="14.00">add()</text>
</g>
<!-- 30&#45;&gt;22 -->
<g id="edge24" class="edge"><title>30&#45;&gt;22</title>
<path fill="none" stroke="black" d="M2026.1,-618.263C2020.59,-670.921 2007.9,-756.93 1980,-826 1971.74,-846.437 1961.8,-867.807 1951.77,-887.965"/>
<polygon fill="black" stroke="black" points="1951.76,-887.986 1952.63,-895.144 1946.36,-898.704 1945.49,-891.546 1951.76,-887.986"/>
<text text-anchor="middle" x="2005.5" y="-813.4" font-family="Times Roman,serif" font-size="14.00" fill="green">nodes</text>
</g>
<!-- 31 -->
<g id="node24" class="node"><title>31</title>
<polygon fill="none" stroke="black" points="1882.5,-37 1882.5,-259 2061.5,-259 2061.5,-37 1882.5,-37"/>
<text text-anchor="middle" x="1972" y="-242.4" font-family="Times Roman,serif" font-size="14.00">Triangles</text>
<polyline fill="none" stroke="black" points="1882.5,-233 2061.5,-233 "/>
<text text-anchor="start" x="1890.5" y="-216.4" font-family="Times Roman,serif" font-size="14.00">el_set</text>
<text text-anchor="start" x="1890.5" y="-198.4" font-family="Times Roman,serif" font-size="14.00">n_elements</text>
<text text-anchor="start" x="1890.5" y="-180.4" font-family="Times Roman,serif" font-size="14.00">order : int</text>
<polyline fill="none" stroke="black" points="1882.5,-171 2061.5,-171 "/>
<text text-anchor="start" x="1890.5" y="-154.4" font-family="Times Roman,serif" font-size="14.00">build_local_stiffness()</text>
<text text-anchor="start" x="1890.5" y="-136.4" font-family="Times Roman,serif" font-size="14.00">local_potential_matrix()</text>
<text text-anchor="start" x="1890.5" y="-118.4" font-family="Times Roman,serif" font-size="14.00">local_mass_matrix()</text>
<text text-anchor="start" x="1890.5" y="-100.4" font-family="Times Roman,serif" font-size="14.00">extract_el_edges()</text>
<text text-anchor="start" x="1890.5" y="-82.4" font-family="Times Roman,serif" font-size="14.00">calc_area()</text>
<text text-anchor="start" x="1890.5" y="-64.4" font-family="Times Roman,serif" font-size="14.00">extract_el_points()</text>
<text text-anchor="start" x="1890.5" y="-46.4" font-family="Times Roman,serif" font-size="14.00">local_newman_matrix()</text>
</g>
<!-- 31&#45;&gt;23 -->
<g id="edge34" class="edge"><title>31&#45;&gt;23</title>
<path fill="none" stroke="black" d="M1903.46,-259.375C1894.1,-272.148 1884.19,-284.645 1874,-296 1848.92,-323.956 1828.58,-317.949 1809,-350 1782.99,-392.58 1770.73,-447.324 1764.98,-491.55"/>
<polygon fill="black" stroke="black" points="1764.95,-491.811 1768.21,-498.243 1763.53,-503.726 1760.27,-497.294 1764.95,-491.811"/>
<text text-anchor="middle" x="1881.5" y="-319.4" font-family="Times Roman,serif" font-size="14.00" fill="green">triangles</text>
</g>
<!-- 33 -->
<g id="node25" class="node"><title>33</title>
<polygon fill="none" stroke="black" points="2479,-28 2479,-268 2721,-268 2721,-28 2479,-28"/>
<text text-anchor="middle" x="2600" y="-251.4" font-family="Times Roman,serif" font-size="14.00">Interpreter</text>
<polyline fill="none" stroke="black" points="2479,-242 2721,-242 "/>
<text text-anchor="start" x="2487" y="-225.4" font-family="Times Roman,serif" font-size="14.00">vectorial : bool</text>
<polyline fill="none" stroke="black" points="2479,-216 2721,-216 "/>
<text text-anchor="start" x="2487" y="-199.4" font-family="Times Roman,serif" font-size="14.00">build_EM_bloch_eq()</text>
<text text-anchor="start" x="2487" y="-181.4" font-family="Times Roman,serif" font-size="14.00">dirichlet_vector()</text>
<text text-anchor="start" x="2487" y="-163.4" font-family="Times Roman,serif" font-size="14.00">build_QM_dirichlet_eq()</text>
<text text-anchor="start" x="2487" y="-145.4" font-family="Times Roman,serif" font-size="14.00">global_mass_matrix()</text>
<text text-anchor="start" x="2487" y="-127.4" font-family="Times Roman,serif" font-size="14.00">build_harmonic_EM_eq()</text>
<text text-anchor="start" x="2487" y="-109.4" font-family="Times Roman,serif" font-size="14.00">lumped_mass_matrix()</text>
<text text-anchor="start" x="2487" y="-91.4" font-family="Times Roman,serif" font-size="14.00">newman_vector()</text>
<text text-anchor="start" x="2487" y="-73.4" font-family="Times Roman,serif" font-size="14.00">global_stiffness_matrix()</text>
<text text-anchor="start" x="2487" y="-55.4" font-family="Times Roman,serif" font-size="14.00">reference_image_bloch_vectors()</text>
<text text-anchor="start" x="2487" y="-37.4" font-family="Times Roman,serif" font-size="14.00">build_static_EM_eq()</text>
</g>
</g>
</svg>
